<svg width="278" height="286" viewBox="0 0 278 286" fill="none" xmlns="http://www.w3.org/2000/svg">
<path d="M20.8233 36.0964H39.7344V28.1038L20.8233 28.1038V36.0964Z" fill="#EBEBEB"/>
<path d="M31.3741 26.0149L50.2852 26.0149V18.0223L31.3741 18.0223V26.0149Z" fill="#EBEBEB"/>
<path d="M10.2767 18.0288L19.6576 17.8471L24.4065 17.7757C25.9959 17.7757 27.5919 17.7757 29.1878 17.7368H29.4732V18.0288L29.5121 26.0214V26.3457H29.1878L19.7355 26.3003C16.5826 26.3003 13.4361 26.2289 10.2832 26.1965H10.1016V26.0214C10.1016 24.6655 10.1599 23.3161 10.1924 21.9861L10.2767 18.0288ZM10.2767 18.0288L10.3675 22.064C10.3675 23.3615 10.4389 24.7109 10.4519 26.0214L10.2767 25.8397C13.4296 25.8397 16.5761 25.7359 19.729 25.7359L29.1878 25.697L28.8634 26.0214V18.0288L29.1553 18.3142C27.5918 18.3142 26.0348 18.3142 24.4714 18.2818L19.7744 18.2104L10.2767 18.0288Z" fill="#EBEBEB"/>
<path d="M221.769 24.1075L231.15 23.9258L235.905 23.8545C237.495 23.822 239.091 23.8545 240.68 23.822H240.972V24.114L241.004 32.1066V32.4309H240.68L231.228 32.392C228.075 32.392 224.922 32.3142 221.769 32.2817H221.594V32.1066C221.594 30.7507 221.652 29.4078 221.678 28.0713L221.769 24.1075ZM221.769 24.1075L221.866 28.1427C221.866 29.4402 221.938 30.7896 221.951 32.1001L221.769 31.9249C224.922 31.886 228.075 31.8211 231.228 31.8146L240.68 31.7757L240.356 32.1001L240.394 24.1075L240.68 24.3994C239.123 24.3994 237.566 24.3994 236.002 24.3605L231.299 24.2891L221.769 24.1075Z" fill="#EBEBEB"/>
<path d="M10.2764 187.787H29.1875V179.794H10.2764V187.787Z" fill="#EBEBEB"/>
<path d="M248.269 191.329H267.18V183.337H248.269V191.329Z" fill="#EBEBEB"/>
<path d="M237.714 173.262L247.095 173.086L251.85 173.009C253.44 173.009 255.036 173.009 256.625 172.976H256.917V173.268L256.95 181.261V181.585H256.625L247.173 181.546C244.02 181.546 240.867 181.475 237.714 181.436H237.539V181.261C237.539 179.905 237.597 178.562 237.623 177.225L237.714 173.262ZM237.714 173.262L237.812 177.297C237.812 178.627 237.883 179.944 237.896 181.254L237.714 181.079C240.867 181.047 244.02 180.975 247.173 180.969L256.625 180.93L256.301 181.254L256.34 173.262L256.625 173.553C255.068 173.553 253.511 173.553 251.948 173.515L247.244 173.443L237.714 173.262Z" fill="#EBEBEB"/>
<path d="M141.566 62.0593H160.477V54.0667H141.566V62.0593Z" fill="#EBEBEB"/>
<path d="M131.015 72.1344L140.545 71.9527L145.249 71.8813C146.812 71.8489 148.369 71.8813 149.926 71.8424L149.641 72.1344L149.602 64.1418L149.926 64.4661L140.474 64.4272C137.321 64.4272 134.168 64.3558 131.015 64.3234L131.197 64.1418C131.197 65.4393 131.138 66.7692 131.112 68.0991L131.015 72.1344ZM131.015 72.1344L130.924 68.177C130.924 66.8795 130.853 65.4976 130.84 64.1418V63.9666H131.015C134.168 63.9666 137.321 63.8628 140.474 63.8628L149.926 63.8174H150.257V64.1418L150.224 72.1344V72.4263H149.933C148.343 72.4263 146.747 72.4263 145.158 72.3874L140.402 72.316L131.015 72.1344Z" fill="#EBEBEB"/>
<path d="M123.386 217.811L132.916 217.629L137.62 217.558C139.183 217.558 140.734 217.558 142.297 217.526L142.005 217.811L141.973 209.799L142.297 210.123L132.838 210.078C129.692 210.078 126.539 210.007 123.386 209.974L123.561 209.799C123.561 211.097 123.509 212.426 123.477 213.756L123.386 217.811ZM123.386 217.811L123.295 213.854C123.263 212.524 123.224 211.174 123.211 209.825V209.65H123.393C126.546 209.617 129.698 209.546 132.845 209.546L142.304 209.507H142.628V209.838L142.583 217.811V218.103H142.297C140.701 218.103 139.105 218.103 137.522 218.064L132.767 217.993L123.386 217.811Z" fill="#EBEBEB"/>
<path d="M189.012 228.827L249.079 234.017L252.505 193.846L192.444 188.65L189.012 228.827Z" fill="white"/>
<path d="M189.643 229.125L188.754 229.047L188.832 228.159L189.318 228.198L189.279 228.606L189.682 228.639L189.643 229.125Z" fill="#DBDBDB"/>
<path d="M247.109 234.095L245.811 233.978L245.857 233.491L247.154 233.608L247.109 234.095ZM244.514 233.868L243.216 233.751L243.255 233.271L244.553 233.381L244.514 233.868ZM241.919 233.641L240.621 233.53L240.667 233.044L241.964 233.154L241.919 233.641ZM239.324 233.414L238.026 233.303L238.065 232.817L239.363 232.927L239.324 233.414ZM236.729 233.186L235.431 233.076L235.47 232.59L236.768 232.706L236.729 233.186ZM234.134 232.966L232.836 232.849L232.882 232.363L234.179 232.479L234.134 232.966ZM231.539 232.739L230.241 232.622L230.28 232.135L231.578 232.252L231.539 232.739ZM228.944 232.512L227.646 232.401L227.685 231.915L228.983 232.025L228.944 232.512ZM226.349 232.285L225.051 232.174L225.097 231.688L226.394 231.798L226.349 232.285ZM223.754 232.058L222.456 231.947L222.495 231.461L223.793 231.571L223.754 232.058ZM221.159 231.837L219.861 231.72L219.907 231.234L221.204 231.351L221.159 231.837ZM218.564 231.61L217.266 231.493L217.312 231.007L218.609 231.123L218.564 231.61ZM215.969 231.383L214.671 231.273L214.71 230.786L216.008 230.896L215.969 231.383ZM213.374 231.156L212.076 231.046L212.122 230.559L213.419 230.669L213.374 231.156ZM210.779 230.929L209.481 230.819L209.52 230.332L210.818 230.442L210.779 230.929ZM208.184 230.708L206.886 230.591L206.925 230.105L208.223 230.222L208.184 230.708ZM205.589 230.481L204.291 230.364L204.337 229.878L205.634 229.995L205.589 230.481ZM202.994 230.254L201.696 230.137L201.735 229.657L203.033 229.768L202.994 230.254ZM200.399 230.027L199.101 229.917L199.147 229.43L200.444 229.54L200.399 230.027ZM197.804 229.8L196.506 229.69L196.552 229.203L197.849 229.313L197.804 229.8ZM195.209 229.573L193.911 229.463L193.95 228.976L195.248 229.093L195.209 229.573ZM192.614 229.352L191.316 229.236L191.362 228.749L192.659 228.866L192.614 229.352Z" fill="#DBDBDB"/>
<path d="M249.303 234.283L248.414 234.205L248.459 233.718L248.862 233.757L248.894 233.349L249.381 233.394L249.303 234.283Z" fill="#DBDBDB"/>
<path d="M249.483 232.136L249.016 232.084L249.119 230.832L249.606 230.87L249.483 232.136ZM249.697 229.631L249.217 229.586L249.321 228.334L249.807 228.379L249.697 229.631ZM249.911 227.121L249.431 227.082L249.535 225.823L250.021 225.869L249.911 227.121ZM250.125 224.61L249.645 224.571L249.749 223.319L250.235 223.358L250.125 224.61ZM250.339 222.106L249.859 222.06L249.963 220.808L250.449 220.847L250.339 222.106ZM250.553 219.595L250.067 219.556L250.177 218.298L250.663 218.343L250.553 219.595ZM250.767 217.085L250.287 217.046L250.391 215.794L250.878 215.832L250.767 217.085ZM250.962 214.567L250.482 214.522L250.586 213.27L251.072 213.309L250.962 214.567ZM251.176 212.057L250.696 212.018L250.8 210.759L251.286 210.805L251.176 212.057ZM251.39 209.546L250.91 209.507L251.014 208.255L251.5 208.294L251.39 209.546ZM251.604 207.042L251.124 206.996L251.228 205.744L251.714 205.783L251.604 207.042ZM251.818 204.531L251.338 204.492L251.442 203.234L251.929 203.279L251.818 204.531ZM252.032 202.021L251.552 201.982L251.656 200.73L252.143 200.769L252.032 202.021ZM252.246 199.516L251.766 199.471L251.87 198.219L252.357 198.258L252.246 199.516ZM252.46 197.006L251.98 196.967L252.084 195.708L252.571 195.754L252.46 197.006Z" fill="#DBDBDB"/>
<path d="M252.694 194.508L252.214 194.469L252.246 194.067L251.844 194.028L251.883 193.548L252.771 193.619L252.694 194.508Z" fill="#DBDBDB"/>
<path d="M250.535 193.918L249.237 193.807L249.276 193.321L250.574 193.431L250.535 193.918ZM247.94 193.691L246.642 193.58L246.688 193.094L247.985 193.204L247.94 193.691ZM245.345 193.463L244.047 193.353L244.086 192.867L245.384 192.977L245.345 193.463ZM242.75 193.236L241.452 193.126L241.498 192.64L242.795 192.756L242.75 193.236ZM240.155 193.016L238.857 192.899L238.903 192.412L240.2 192.529L240.155 193.016ZM237.56 192.789L236.262 192.672L236.301 192.192L237.599 192.302L237.56 192.789ZM234.965 192.562L233.667 192.451L233.713 191.965L235.01 192.075L234.965 192.562ZM232.37 192.335L231.072 192.224L231.111 191.738L232.409 191.848L232.37 192.335ZM229.775 192.108L228.477 191.997L228.516 191.511L229.814 191.627L229.775 192.108ZM227.18 191.887L225.882 191.77L225.928 191.284L227.225 191.4L227.18 191.887ZM224.585 191.66L223.287 191.543L223.326 191.063L224.624 191.173L224.585 191.66ZM221.99 191.433L220.692 191.323L220.731 190.836L222.029 190.946L221.99 191.433ZM219.395 191.206L218.097 191.096L218.143 190.609L219.44 190.719L219.395 191.206ZM216.8 190.979L215.502 190.868L215.541 190.382L216.839 190.499L216.8 190.979ZM214.205 190.758L212.907 190.641L212.953 190.155L214.25 190.272L214.205 190.758ZM211.61 190.531L210.312 190.414L210.092 189.915L211.389 190.025L211.61 190.531ZM209.015 190.304L207.717 190.187L207.756 189.707L209.054 189.817L209.015 190.304ZM206.42 190.077L205.122 189.967L205.168 189.48L206.465 189.59L206.42 190.077ZM203.825 189.85L202.527 189.74L202.566 189.253L203.864 189.37L203.825 189.85ZM201.23 189.623L199.932 189.513L199.971 189.026L201.269 189.143L201.23 189.623ZM198.635 189.402L197.337 189.286L197.383 188.805L198.68 188.916L198.635 189.402ZM196.04 189.175L194.742 189.058L194.781 188.578L196.079 188.689L196.04 189.175Z" fill="#DBDBDB"/>
<path d="M192.635 189.318L192.148 189.273L192.226 188.384L193.115 188.462L193.07 188.948L192.667 188.916L192.635 189.318Z" fill="#DBDBDB"/>
<path d="M189.424 226.946L188.938 226.907L189.048 225.648L189.528 225.693L189.424 226.946ZM189.638 224.435L189.152 224.396L189.262 223.137L189.742 223.183L189.638 224.435ZM189.852 221.931L189.366 221.885L189.476 220.633L189.956 220.672L189.852 221.931ZM190.066 219.42L189.58 219.381L189.69 218.123L190.17 218.168L190.066 219.42ZM190.28 216.909L189.794 216.87L189.904 215.618L190.384 215.657L190.28 216.909ZM190.494 214.405L190.008 214.36L190.118 213.108L190.598 213.147L190.494 214.405ZM190.709 211.895L190.222 211.849L190.332 210.597L190.812 210.642L190.709 211.895ZM190.923 209.384L190.436 209.345L190.546 208.086L191.026 208.132L190.923 209.384ZM191.137 206.88L190.65 206.834L190.76 205.582L191.241 205.621L191.137 206.88ZM191.351 204.369L190.864 204.324L190.975 203.072L191.455 203.117L191.351 204.369ZM191.565 201.858L191.078 201.819L191.189 200.561L191.669 200.606L191.565 201.858ZM191.779 199.348L191.292 199.309L191.403 198.057L191.883 198.096L191.779 199.348ZM191.993 196.844L191.507 196.798L191.617 195.546L192.097 195.591L191.993 196.844ZM192.207 194.333L191.721 194.294L191.831 193.035L192.311 193.081L192.207 194.333ZM192.421 191.829L191.935 191.783L192.045 190.531L192.525 190.57L192.421 191.829Z" fill="#DBDBDB"/>
<path d="M191.727 226.537L246.805 231.299L249.803 196.13L194.724 191.368L191.727 226.537Z" fill="#EBEBEB"/>
<path d="M219.965 215.735C219.04 215.664 218.157 215.321 217.427 214.748C216.697 214.175 216.154 213.398 215.865 212.516C215.577 211.634 215.556 210.687 215.807 209.793C216.057 208.9 216.567 208.101 217.271 207.497C217.976 206.893 218.844 206.512 219.765 206.401C220.686 206.291 221.619 206.456 222.447 206.876C223.274 207.296 223.958 207.952 224.413 208.761C224.867 209.57 225.071 210.496 225 211.421C224.904 212.66 224.319 213.811 223.375 214.62C222.431 215.429 221.205 215.83 219.965 215.735ZM220.582 207.704C219.919 207.66 219.258 207.813 218.682 208.143C218.105 208.474 217.64 208.968 217.344 209.563C217.048 210.158 216.934 210.827 217.018 211.486C217.101 212.145 217.378 212.765 217.812 213.267C218.247 213.769 218.821 214.132 219.461 214.309C220.102 214.486 220.78 214.469 221.411 214.261C222.042 214.054 222.598 213.664 223.008 213.141C223.418 212.618 223.664 211.986 223.715 211.324C223.75 210.88 223.696 210.433 223.556 210.01C223.417 209.587 223.195 209.196 222.904 208.86C222.613 208.523 222.257 208.247 221.859 208.049C221.46 207.851 221.026 207.733 220.582 207.704Z" fill="#DBDBDB"/>
<path d="M219.915 217.565C215.652 217.234 211.63 214.885 207.952 210.571L207.523 210.071L208.023 209.637C212.564 205.744 217.105 204.058 221.595 204.635C228.465 205.511 232.572 211.35 232.74 211.596L233.045 212.037L232.675 212.433C232.468 212.647 227.518 217.785 220.596 217.623L219.915 217.565ZM209.398 210.214C212.895 214.107 216.671 216.17 220.635 216.28C225.903 216.416 230.042 213.069 231.313 211.907C230.23 210.565 226.642 206.607 221.42 205.945C217.495 205.446 213.453 206.88 209.398 210.214Z" fill="#DBDBDB"/>
<path d="M229.815 202.082L209.973 219.077L210.834 220.082L230.676 203.087L229.815 202.082Z" fill="#DBDBDB"/>
<path d="M74.4046 92.1094L152.378 74.8008L137.541 21.5449L59.5742 38.8471L74.4046 92.1094Z" fill="#DBDBDB"/>
<path d="M108.459 22.1417L136.012 16.0305L137.543 21.5449L108.414 28.0064L108.459 22.1417Z" fill="#DBDBDB"/>
<path d="M74.471 92.0964L152.438 74.7877L147.189 22.7256L69.2227 40.0277L74.471 92.0964Z" fill="#EBEBEB"/>
<path d="M119.097 23.4457L146.649 17.3345L147.187 22.7256L118.059 29.1871L119.097 23.4457Z" fill="#EBEBEB"/>
<path d="M110.689 62.241C109.783 62.4424 108.838 62.3706 107.973 62.0348C107.108 61.6989 106.362 61.114 105.83 60.3541C105.297 59.5943 105.002 58.6935 104.982 57.7659C104.961 56.8382 105.216 55.9253 105.715 55.1427C106.213 54.3601 106.933 53.7429 107.782 53.3692C108.631 52.9955 109.572 52.882 110.486 53.0433C111.4 53.2045 112.245 53.6331 112.915 54.2749C113.585 54.9167 114.05 55.7429 114.251 56.6488C114.519 57.8626 114.295 59.1335 113.627 60.1821C112.959 61.2307 111.903 61.9712 110.689 62.241ZM108.944 54.3782C108.294 54.5224 107.701 54.8562 107.24 55.3374C106.78 55.8186 106.472 56.4255 106.357 57.0815C106.241 57.7374 106.323 58.4128 106.591 59.0224C106.86 59.6319 107.303 60.1481 107.865 60.5057C108.427 60.8634 109.082 61.0463 109.748 61.0315C110.414 61.0167 111.06 60.8047 111.606 60.4224C112.151 60.04 112.571 59.5046 112.812 58.8837C113.053 58.2628 113.104 57.5844 112.96 56.9343C112.764 56.0638 112.232 55.3062 111.479 54.8272C110.727 54.3481 109.815 54.1867 108.944 54.3782Z" fill="white"/>
<path d="M111.176 64.012C106.998 64.9397 102.469 63.8627 97.6946 60.7682L97.1367 60.4179L97.4935 59.86C100.685 54.8127 104.565 51.8674 109.022 51.1148C115.847 49.96 121.471 54.3586 121.711 54.5337L122.133 54.8711L121.893 55.3512C121.757 55.6171 118.513 61.9749 111.837 63.8173L111.176 64.012ZM98.9727 60.0416C103.462 62.7728 107.666 63.6227 111.487 62.5717C116.567 61.1704 119.551 56.733 120.433 55.2798C119.006 54.3132 114.419 51.5689 109.229 52.4577C105.33 53.1195 101.879 55.669 98.9727 60.0416Z" fill="white"/>
<path d="M116.143 46.3003L102.109 68.3364L103.226 69.0473L117.259 47.0111L116.143 46.3003Z" fill="white"/>
<path d="M241.816 189.584L194.879 171.406L218.214 111.15L253.065 124.651L260.708 140.811L241.816 189.584Z" fill="white"/>
<path d="M241.733 189.811L240.52 189.337L240.695 188.883L241.908 189.357L241.733 189.811ZM242.272 189.084L241.817 188.909L242.285 187.703L242.739 187.878L242.272 189.084ZM239.313 188.87L238.1 188.403L238.275 187.949L239.488 188.416L239.313 188.87ZM236.893 187.969L235.68 187.495L235.855 187.047L237.069 187.514L236.893 187.969ZM234.474 187.028L233.26 186.561L233.436 186.107L234.649 186.574L234.474 187.028ZM243.18 186.671L242.732 186.496L243.199 185.289L243.653 185.464L243.18 186.671ZM232.028 186.068L230.815 185.594L230.99 185.147L232.203 185.614L232.028 186.068ZM229.608 185.127L228.395 184.66L228.57 184.206L229.783 184.673L229.608 185.127ZM244.12 184.251L243.666 184.076L244.133 182.869L244.588 183.045L244.12 184.251ZM227.188 184.193L225.975 183.726L226.15 183.272L227.363 183.739L227.188 184.193ZM224.768 183.252L223.555 182.785L223.73 182.331L224.943 182.798L224.768 183.252ZM222.348 182.318L221.135 181.851L221.31 181.397L222.524 181.864L222.348 182.318ZM245.055 181.831L244.601 181.656L245.074 180.45L245.528 180.625L245.055 181.831ZM219.929 181.377L218.715 180.91L218.891 180.456L220.104 180.923L219.929 181.377ZM217.509 180.443L216.296 179.976L216.471 179.522L217.684 179.989L217.509 180.443ZM215.115 179.535L213.902 179.061L214.077 178.607L215.29 179.081L215.115 179.535ZM246.021 179.438L245.567 179.262L246.034 178.056L246.488 178.231L246.021 179.438ZM212.689 178.562L211.475 178.095L211.651 177.64L212.864 178.108L212.689 178.562ZM210.269 177.628L209.056 177.154L209.231 176.7L210.444 177.173L210.269 177.628ZM246.949 176.979L246.495 176.804L246.968 175.597L247.423 175.772L246.949 176.979ZM207.849 176.68L206.636 176.213L206.811 175.759L208.024 176.226L207.849 176.68ZM205.429 175.746L204.216 175.273L204.391 174.825L205.604 175.292L205.429 175.746ZM203.009 174.805L201.796 174.338L201.971 173.884L203.184 174.351L203.009 174.805ZM247.89 174.559L247.436 174.384L247.903 173.177L248.357 173.352L247.89 174.559ZM200.589 173.871L199.376 173.404L199.551 172.95L200.765 173.417L200.589 173.871ZM198.17 172.931L196.956 172.463L197.132 172.009L198.345 172.476L198.17 172.931ZM248.824 172.139L248.37 171.964L248.843 170.757L249.291 170.932L248.824 172.139ZM195.75 171.996L194.562 171.536L194.744 171.056L195.198 171.237L195.931 171.523L195.75 171.996ZM195.665 170.05L195.218 169.875L195.685 168.662L196.139 168.843L195.665 170.05ZM249.765 169.745L249.31 169.57L249.778 168.363L250.232 168.539L249.765 169.745ZM196.606 167.63L196.152 167.455L196.619 166.242L197.073 166.424L196.606 167.63ZM250.699 167.325L250.245 167.15L250.712 165.944L251.166 166.119L250.699 167.325ZM197.54 165.21L197.086 165.035L197.56 163.822L198.014 164.004L197.54 165.21ZM251.639 164.906L251.185 164.73L251.652 163.524L252.107 163.699L251.639 164.906ZM198.481 162.791L198.027 162.615L198.494 161.402L198.948 161.584L198.481 162.791ZM252.574 162.486L252.12 162.311L252.587 161.104L253.041 161.279L252.574 162.486ZM199.415 160.371L198.961 160.196L199.435 158.982L199.889 159.164L199.415 160.371ZM253.514 160.066L253.06 159.891L253.527 158.684L253.981 158.859L253.514 160.066ZM200.362 157.931L199.908 157.756L200.375 156.543L200.829 156.725L200.362 157.931ZM254.455 157.627L254.001 157.451L254.468 156.245L254.922 156.42L254.455 157.627ZM201.297 155.531L200.842 155.356L201.309 154.143L201.764 154.324L201.297 155.531ZM255.396 155.226L254.942 155.051L255.409 153.844L255.863 154.02L255.396 155.226ZM202.237 153.111L201.783 152.936L202.25 151.723L202.704 151.905L202.237 153.111ZM256.33 152.806L255.876 152.631L256.343 151.425L256.797 151.6L256.33 152.806ZM203.171 150.691L202.717 150.516L203.184 149.303L203.638 149.485L203.171 150.691ZM257.264 150.387L256.81 150.211L257.284 149.005L257.738 149.18L257.264 150.387ZM204.112 148.272L203.658 148.096L204.125 146.883L204.579 147.065L204.112 148.272ZM258.205 147.967L257.751 147.792L258.218 146.585L258.672 146.76L258.205 147.967ZM205.046 145.852L204.592 145.677L205.059 144.463L205.513 144.645L205.046 145.852ZM259.139 145.547L258.685 145.372L259.158 144.165L259.613 144.34L259.139 145.547ZM205.987 143.432L205.533 143.257L206 142.044L206.454 142.225L205.987 143.432ZM260.08 143.127L259.626 142.952L260.093 141.745L260.547 141.92L260.08 143.127ZM206.921 141.012L206.467 140.837L206.934 139.624L207.388 139.805L206.921 141.012ZM260.391 140.733L259.84 139.559L260.281 139.351L260.832 140.526L260.391 140.733ZM207.842 138.592L207.395 138.417L207.862 137.204L208.316 137.379L207.842 138.592ZM259.269 138.385L258.717 137.21L259.158 137.003L259.71 138.177L259.269 138.385ZM208.796 136.153L208.342 135.978L208.796 134.771L209.25 134.946L208.796 136.153ZM258.172 136.017L257.621 134.849L258.062 134.641L258.614 135.809L258.172 136.017ZM209.73 133.733L209.276 133.558L209.75 132.345L210.204 132.52L209.73 133.733ZM257.089 133.675L256.538 132.501L256.979 132.293L257.53 133.467L257.089 133.675ZM255.98 131.326L255.428 130.152L255.869 129.944L256.421 131.119L255.98 131.326ZM210.697 131.326L210.243 131.151L210.71 129.938L211.164 130.113L210.697 131.326ZM254.857 128.984L254.306 127.81L254.747 127.602L255.298 128.777L254.857 128.984ZM211.618 128.893L211.164 128.718L211.638 127.505L212.085 127.68L211.618 128.893ZM253.748 126.636L253.196 125.462L253.638 125.254L254.189 126.428L253.748 126.636ZM212.559 126.474L212.105 126.298L212.572 125.085L213.026 125.26L212.559 126.474ZM252.515 124.69L251.302 124.222L251.484 123.768L252.69 124.235L252.515 124.69ZM213.493 124.041L213.039 123.866L213.512 122.652L213.96 122.828L213.493 124.041ZM250.095 123.742L248.882 123.269L249.064 122.821L250.271 123.288L250.095 123.742ZM247.676 122.802L246.462 122.335L246.644 121.88L247.851 122.348L247.676 122.802ZM245.256 121.868L244.043 121.4L244.224 120.946L245.431 121.413L245.256 121.868ZM214.434 121.621L213.98 121.446L214.447 120.233L214.901 120.408L214.434 121.621ZM242.836 120.927L241.623 120.46L241.804 120.006L243.011 120.473L242.836 120.927ZM240.416 119.993L239.203 119.526L239.385 119.071L240.591 119.538L240.416 119.993ZM215.355 119.201L214.901 119.026L215.368 117.813L215.822 117.988L215.355 119.201ZM237.983 119.052L236.77 118.585L236.952 118.131L238.158 118.598L237.983 119.052ZM235.563 118.118L234.35 117.651L234.532 117.197L235.739 117.664L235.563 118.118ZM233.144 117.177L231.93 116.71L232.112 116.256L233.319 116.729L233.144 117.177ZM216.276 116.781L215.822 116.606L216.289 115.393L216.743 115.575L216.276 116.781ZM230.704 116.243L229.491 115.776L229.673 115.322L230.88 115.789L230.704 116.243ZM228.304 115.309L227.091 114.835L227.272 114.381L228.479 114.855L228.304 115.309ZM225.884 114.368L224.671 113.901L224.853 113.447L226.059 113.914L225.884 114.368ZM217.23 114.368L216.776 114.193L217.243 112.98L217.697 113.161L217.23 114.368ZM223.464 113.44L222.251 112.967L222.433 112.513L223.639 112.986L223.464 113.44ZM221.044 112.5L219.825 112.065L220.006 111.611L221.213 112.078L221.044 112.5ZM218.171 111.948L217.716 111.773L218.08 110.832L218.8 111.111L218.625 111.565L218.359 111.462L218.171 111.948Z" fill="#DBDBDB"/>
<path d="M253.065 124.651L260.707 140.811L248.621 136.127L253.065 124.651Z" fill="#DBDBDB"/>
<path d="M227.458 154.915C226.59 154.586 225.839 154.007 225.301 153.252C224.762 152.496 224.46 151.598 224.432 150.67C224.404 149.743 224.652 148.828 225.144 148.041C225.636 147.254 226.351 146.631 227.197 146.251C228.043 145.87 228.983 145.749 229.898 145.903C230.814 146.057 231.662 146.479 232.338 147.116C233.013 147.752 233.484 148.575 233.692 149.479C233.899 150.384 233.834 151.329 233.504 152.197C233.061 153.357 232.176 154.295 231.042 154.804C229.909 155.314 228.62 155.354 227.458 154.915ZM230.319 147.383C229.696 147.145 229.017 147.097 228.368 147.246C227.718 147.394 227.127 147.731 226.67 148.216C226.212 148.7 225.909 149.309 225.797 149.966C225.686 150.623 225.772 151.298 226.045 151.906C226.317 152.514 226.764 153.027 227.329 153.381C227.893 153.735 228.55 153.913 229.216 153.894C229.882 153.874 230.527 153.657 231.07 153.271C231.613 152.885 232.029 152.346 232.265 151.723C232.581 150.889 232.554 149.964 232.189 149.15C231.825 148.337 231.152 147.701 230.319 147.383Z" fill="#DBDBDB"/>
<path d="M226.895 156.654C222.892 155.135 219.701 151.749 217.391 146.572L217.125 145.969L217.722 145.696C223.165 143.237 228.024 142.907 232.157 144.723C238.495 147.506 240.791 154.266 240.882 154.552L241.051 155.064L240.584 155.33C240.324 155.486 234.096 159.015 227.537 156.881C227.323 156.829 227.103 156.738 226.895 156.654ZM218.877 146.637C221.128 151.379 224.177 154.422 227.959 155.622C232.974 157.244 237.891 155.2 239.436 154.448C238.787 152.852 236.451 148.045 231.651 145.93C227.992 144.347 223.716 144.58 218.877 146.637Z" fill="#DBDBDB"/>
<path d="M240.769 144.575L216.938 155.28L217.48 156.487L241.311 145.782L240.769 144.575Z" fill="#DBDBDB"/>
<path d="M138.733 285.651C200.889 285.651 251.278 282.174 251.278 277.885C251.278 273.596 200.889 270.12 138.733 270.12C76.5757 270.12 26.1875 273.596 26.1875 277.885C26.1875 282.174 76.5757 285.651 138.733 285.651Z" fill="#EBEBEB"/>
<path d="M247.455 184.653C247.943 188.039 247.766 191.488 246.936 194.806C246.547 196.342 246.029 197.842 245.386 199.289C244.575 201.145 243.732 202.961 243.939 204.992C244.134 205.121 243.459 205.102 243.44 204.901C238.01 201.813 231.048 201.248 226.871 196.195C224.892 193.801 223.893 190.765 223.419 187.761C222.907 184.452 222.77 180.8 223.614 177.543C224.334 174.786 225.943 172.133 228.531 170.783C231.12 169.434 234.701 169.486 237.51 170.381C243.576 172.243 246.593 178.789 247.455 184.653Z" fill="#407BFF"/>
<path d="M250.236 224.843C249.497 222.378 248.757 219.906 247.998 217.441C246.506 212.614 244.955 207.807 243.243 203.058C242.218 200.212 241.136 197.401 239.999 194.625C240.125 192.865 240.342 191.113 240.648 189.376C241.102 187.274 241.763 185.237 242.373 183.181C242.412 183.051 242.211 182.986 242.159 183.103C240.94 185.944 239.344 189.59 239.305 192.938C237.981 189.776 236.561 186.662 235.042 183.596C234.867 180.999 234.945 178.392 235.276 175.811C235.281 175.787 235.277 175.762 235.263 175.741C235.25 175.72 235.229 175.706 235.205 175.701C235.181 175.695 235.155 175.7 235.135 175.713C235.114 175.727 235.1 175.748 235.094 175.772C234.631 178.031 234.452 180.339 234.562 182.642C233.395 180.339 232.168 178.062 230.858 175.817C230.741 175.616 230.462 175.817 230.566 176.025C232.61 179.95 234.497 183.966 236.275 188.027C233.776 185.859 230.887 184.186 227.763 183.096C227.627 183.051 227.523 183.246 227.666 183.304C231.074 184.767 234.192 186.831 236.872 189.396C238.143 192.371 239.359 195.371 240.518 198.394C237.125 195.066 232.473 192.873 227.978 191.699C227.822 191.66 227.783 191.893 227.932 191.939C233.122 193.509 237.177 196.48 241.134 200.003C241.595 201.222 242.042 202.448 242.49 203.675C244.164 208.328 245.76 213.008 247.278 217.714C248.009 219.971 248.727 222.231 249.432 224.493C250.191 226.926 250.788 229.501 251.774 231.85C251.871 232.077 252.273 232.025 252.221 231.753C251.767 229.411 250.917 227.12 250.236 224.843Z" fill="#263238"/>
<path d="M241.231 179.904C240.269 181.385 239.607 183.04 239.285 184.777C239.285 184.787 239.289 184.797 239.297 184.804C239.304 184.811 239.314 184.815 239.324 184.815C239.334 184.815 239.344 184.811 239.352 184.804C239.359 184.797 239.363 184.787 239.363 184.777C239.97 183.141 240.677 181.545 241.478 179.995C241.556 179.866 241.322 179.762 241.231 179.904Z" fill="#263238"/>
<path d="M231.545 191.212C230.034 190.376 228.383 189.822 226.673 189.577C226.628 189.577 226.602 189.636 226.673 189.655C227.458 189.98 228.282 190.207 229.074 190.512C229.865 190.817 230.644 191.16 231.448 191.465C231.478 191.467 231.508 191.459 231.533 191.442C231.558 191.426 231.577 191.402 231.588 191.374C231.599 191.346 231.601 191.315 231.593 191.286C231.585 191.257 231.569 191.231 231.545 191.212Z" fill="#263238"/>
<path d="M228.823 177.589C228.333 177.216 227.807 176.893 227.254 176.622C227.236 176.616 227.216 176.615 227.199 176.621C227.181 176.627 227.165 176.639 227.155 176.654C227.144 176.67 227.139 176.689 227.141 176.708C227.142 176.726 227.15 176.744 227.163 176.758C227.642 177.143 228.159 177.478 228.707 177.757C228.811 177.842 228.908 177.673 228.823 177.589Z" fill="#263238"/>
<path d="M265.756 203.097C261.864 204.259 257.913 205.329 254.008 206.477C253.664 206.581 247.053 193.911 249.466 187.385C250.603 184.426 252.386 181.759 254.684 179.577C256.983 177.395 259.739 175.754 262.753 174.773C265.549 173.826 268.981 173.028 271.926 173.683C274.553 174.26 276.402 176.408 277.252 178.873C278.413 182.227 278.031 186.223 277.395 189.649C276.897 192.863 275.571 195.892 273.548 198.439C271.452 200.905 268.805 202.189 265.756 203.097Z" fill="#407BFF"/>
<path d="M271.426 191.057C268.955 192.265 266.39 193.274 263.758 194.073C262.003 194.548 260.291 195.169 258.639 195.929C260.293 192.244 262.103 188.643 264.024 185.069C266.554 184.342 269.214 183.2 271.115 181.41C271.218 181.312 271.082 181.17 270.972 181.247C268.889 182.72 266.586 183.602 264.283 184.601C264.802 183.641 265.33 182.681 265.866 181.721C266.015 181.455 265.646 181.189 265.47 181.449C263.414 184.433 261.557 187.549 259.911 190.778C259.494 187.948 259.359 185.084 259.508 182.227C259.504 182.216 259.497 182.206 259.487 182.199C259.477 182.192 259.465 182.188 259.453 182.188C259.441 182.188 259.429 182.192 259.419 182.199C259.41 182.206 259.402 182.216 259.398 182.227C258.908 185.342 258.941 188.517 259.495 191.621C258.12 194.359 256.9 197.161 255.752 200.003C255.305 198.297 254.721 196.616 254.338 194.897C253.746 192.435 253.555 189.894 253.774 187.372C253.774 187.294 253.676 187.294 253.663 187.372C252.969 192.04 253.536 196.808 255.305 201.184C254.656 202.896 254.007 204.609 253.456 206.328C250.508 215.096 248.762 224.222 248.266 233.459C248.273 233.497 248.294 233.532 248.324 233.556C248.354 233.581 248.392 233.595 248.431 233.595C248.47 233.595 248.508 233.581 248.538 233.556C248.568 233.532 248.589 233.497 248.596 233.459C249.625 224.346 251.582 215.362 254.435 206.646C255.571 203.24 256.875 199.925 258.328 196.681C260.637 196 262.934 195.072 265.204 194.287C267.473 193.606 269.615 192.556 271.543 191.18C271.559 191.164 271.569 191.143 271.569 191.12C271.57 191.098 271.561 191.076 271.546 191.06C271.531 191.043 271.509 191.034 271.487 191.033C271.464 191.033 271.442 191.041 271.426 191.057Z" fill="#263238"/>
<path d="M275.074 187.378C272.68 188.228 270.415 189.422 268.022 190.284C267.911 190.323 267.976 190.498 268.093 190.473C270.617 189.954 273.127 189.175 275.164 187.514C275.242 187.449 275.151 187.32 275.074 187.378Z" fill="#263238"/>
<path d="M255.546 182.221C255.546 182.091 255.391 182.019 255.352 182.149C254.703 184.355 254.242 186.69 254.878 188.948C254.878 188.97 254.887 188.992 254.903 189.008C254.919 189.024 254.94 189.032 254.963 189.032C254.985 189.032 255.006 189.024 255.022 189.008C255.038 188.992 255.047 188.97 255.047 188.948C255.164 186.671 255.034 184.459 255.546 182.221Z" fill="#263238"/>
<path d="M265.427 177.128C264.663 178.222 264.296 179.546 264.389 180.878C264.389 180.962 264.525 181.007 264.551 180.91C264.843 179.645 265.33 178.497 265.713 177.271C265.723 177.234 265.721 177.195 265.706 177.16C265.69 177.125 265.663 177.097 265.629 177.08C265.595 177.063 265.557 177.059 265.52 177.067C265.483 177.076 265.45 177.097 265.427 177.128Z" fill="#263238"/>
<path d="M219.247 208.683C220.389 212.323 223.139 217.35 227.428 217.389C230.224 217.389 233.039 217.084 235.861 217.045C238.865 217 241.875 217.007 244.866 217.182C245.112 217.182 244.509 208.197 237.295 203.811C235.271 202.585 232.799 202.196 230.509 201.696C227.883 201.073 225.188 200.794 222.491 200.866C220.836 200.931 219.454 201.281 218.864 202.974C218.274 204.667 218.695 206.951 219.247 208.683Z" fill="#407BFF"/>
<path d="M222.35 204.129C224.101 204.583 225.872 205.095 227.63 205.653C227.173 205.154 226.688 204.682 226.177 204.239C225.425 203.59 224.588 203.11 223.783 202.559C223.712 202.513 223.751 202.384 223.842 202.416C225.549 203.125 227.023 204.299 228.097 205.803C230.29 206.51 232.457 207.288 234.552 208.151C235.997 208.739 237.381 209.467 238.685 210.324C238.264 209.416 237.763 208.548 237.186 207.729C236.233 206.49 234.935 205.783 233.683 204.914C233.663 204.897 233.649 204.874 233.644 204.848C233.639 204.822 233.644 204.795 233.657 204.772C233.671 204.749 233.692 204.732 233.717 204.724C233.742 204.715 233.769 204.716 233.793 204.726C235.104 205.294 236.282 206.13 237.251 207.18C238.219 208.23 238.958 209.471 239.418 210.824C240.92 211.903 242.294 213.15 243.512 214.541C248.287 219.965 252.043 227.179 252.056 234.536C252.056 234.711 251.777 234.763 251.744 234.581C250.523 227.367 247.386 220.614 242.662 215.028C242.318 214.626 241.968 214.249 241.611 213.879C240.303 213.704 238.986 213.607 237.666 213.588C236.129 213.588 234.604 213.815 233.08 213.938C230.556 214.145 227.773 214.171 225.502 212.906C225.405 212.848 225.47 212.673 225.58 212.718C230.647 214.561 235.96 212.225 241.033 213.322C238.866 211.253 236.326 209.615 233.547 208.495L233.08 208.307C229.836 208.696 226.404 209.546 223.238 208.488C223.221 208.481 223.207 208.468 223.198 208.451C223.19 208.434 223.188 208.415 223.193 208.397C223.198 208.379 223.209 208.363 223.224 208.352C223.24 208.342 223.259 208.337 223.277 208.339C226.333 209.098 229.272 208.138 232.288 207.989C228.999 206.691 225.652 205.692 222.356 204.421C222.058 204.304 222.051 204.051 222.35 204.129Z" fill="#263238"/>
<path d="M220.913 207.327C222.481 207.536 224.06 207.657 225.642 207.691C225.651 207.691 225.659 207.694 225.665 207.7C225.671 207.706 225.674 207.714 225.674 207.723C225.674 207.732 225.671 207.74 225.665 207.746C225.659 207.752 225.651 207.755 225.642 207.755C224.05 208.048 222.41 207.943 220.867 207.451C220.851 207.445 220.838 207.432 220.83 207.416C220.823 207.401 220.822 207.383 220.828 207.366C220.834 207.35 220.847 207.337 220.862 207.329C220.878 207.322 220.896 207.321 220.913 207.327Z" fill="#263238"/>
<path d="M231.598 204.187C232.472 204.581 233.266 205.133 233.94 205.816C234.025 205.893 233.94 206.036 233.823 205.971C233.421 205.686 233.012 205.413 232.604 205.147C232.21 204.927 231.829 204.684 231.462 204.421C231.358 204.356 231.501 204.187 231.598 204.187Z" fill="#263238"/>
<path d="M257.074 215.923C257.016 216.04 257.191 216.157 257.256 216.027C257.269 216.046 257.287 216.063 257.307 216.075C257.327 216.087 257.349 216.095 257.373 216.098C260.274 216.797 263.216 217.311 266.183 217.636C268.57 217.85 271.321 217.986 273.403 216.598C276.238 214.723 278.1 209.708 276.569 206.516C274.759 202.734 269.303 204.791 266.565 206.133C262.358 208.192 259.001 211.654 257.074 215.923Z" fill="#407BFF"/>
<path d="M254.962 217.675C256.55 216.134 258.316 214.788 260.223 213.665C261.592 211.493 263.41 209.64 265.556 208.229C265.66 208.158 265.75 208.32 265.653 208.391C263.95 209.759 262.438 211.35 261.157 213.12C263.283 211.961 265.49 210.957 267.762 210.117C268.573 208.615 269.804 207.382 271.304 206.568C271.304 206.568 271.375 206.568 271.343 206.614C270.103 207.557 269.021 208.691 268.138 209.974C269.481 209.475 270.837 209.007 272.192 208.56C272.316 208.521 272.361 208.702 272.244 208.748C269.831 209.695 267.366 210.694 264.978 211.829C267.892 212.296 270.862 212.296 273.775 211.829C273.793 211.829 273.809 211.836 273.821 211.848C273.833 211.861 273.84 211.877 273.84 211.894C273.84 211.912 273.833 211.928 273.821 211.94C273.809 211.952 273.793 211.959 273.775 211.959C270.737 212.857 267.51 212.904 264.446 212.095C262.934 212.834 261.465 213.659 260.048 214.567C261.249 214.471 262.459 214.57 263.629 214.859C265.69 215.339 267.799 215.578 269.915 215.573C269.993 215.573 270.019 215.702 269.915 215.715C266.269 216.364 262.818 214.684 259.205 215.119C257.862 216.031 256.603 217.06 255.442 218.194C253.184 220.445 251.325 223.064 249.947 225.94C248.429 229.034 247.598 232.317 246.372 235.522C246.364 235.552 246.343 235.577 246.316 235.593C246.289 235.608 246.256 235.611 246.226 235.603C246.196 235.594 246.171 235.574 246.155 235.547C246.14 235.519 246.137 235.487 246.145 235.457C247.222 229.132 250.362 222.171 254.962 217.675Z" fill="#263238"/>
<path d="M265.956 209.02C266.198 208.589 266.514 208.205 266.891 207.885C267.198 207.554 267.563 207.281 267.967 207.081C267.975 207.08 267.982 207.081 267.989 207.084C267.996 207.087 268.001 207.092 268.005 207.098C268.009 207.104 268.012 207.111 268.012 207.118C268.012 207.126 268.01 207.133 268.006 207.139C267.708 207.476 267.286 207.729 266.968 208.054C266.651 208.378 266.372 208.761 266.041 209.085C266.032 209.097 266.019 209.104 266.005 209.106C265.991 209.107 265.977 209.104 265.966 209.095C265.955 209.086 265.948 209.074 265.946 209.06C265.944 209.046 265.948 209.032 265.956 209.02Z" fill="#263238"/>
<path d="M271.979 210.98C272.517 210.843 273.088 210.85 273.64 210.74C274.184 210.607 274.722 210.445 275.249 210.253C275.265 210.246 275.283 210.246 275.3 210.253C275.316 210.259 275.329 210.272 275.336 210.289C275.343 210.305 275.343 210.323 275.336 210.34C275.33 210.356 275.317 210.369 275.3 210.376C274.306 210.987 273.141 211.258 271.979 211.148C271.957 211.148 271.935 211.139 271.919 211.124C271.903 211.108 271.895 211.086 271.895 211.064C271.895 211.042 271.903 211.02 271.919 211.004C271.935 210.989 271.957 210.98 271.979 210.98Z" fill="#263238"/>
<path d="M239.93 227.666L240.41 233.102L242.032 251.455H256.408L258.439 233.102L259.035 227.666H239.93Z" fill="#37474F"/>
<path d="M239.93 227.666L240.41 233.102H258.439L259.035 227.666H239.93Z" fill="#263238"/>
<path d="M238.507 230.591H260.461V226.18H238.507V230.591Z" fill="#37474F"/>
<path d="M257.723 40.605V62.1889H251.612V40.605C251.612 32.3983 245.378 25.7227 237.703 25.7227C230.028 25.7227 223.813 32.3983 223.813 40.605V62.1889H217.715V40.605C217.715 28.8497 226.687 19.2871 237.716 19.2871C248.745 19.2871 257.723 28.8497 257.723 40.605Z" fill="#DBDBDB"/>
<path d="M217.715 48.8118L223.813 49.0583V62.189H217.715V48.8118Z" fill="#A6A6A6"/>
<path d="M257.726 50.4401V62.189H251.621V50.1936L257.726 50.4401Z" fill="#A6A6A6"/>
<path d="M265.542 52.8145H209.898V97.2538H265.542V52.8145Z" fill="#455A64"/>
<path d="M265.544 52.8145H237.719V97.2538H265.544V52.8145Z" fill="#37474F"/>
<path d="M240.07 75.6505L242.399 86.6792H232.512L234.841 75.6505C233.929 75.0825 233.228 74.2331 232.842 73.2308C232.456 72.2285 232.407 71.1278 232.702 70.0953C232.998 69.0627 233.621 68.1544 234.479 67.5078C235.336 66.8612 236.381 66.5115 237.455 66.5115C238.529 66.5115 239.574 66.8612 240.431 67.5078C241.289 68.1544 241.913 69.0627 242.208 70.0953C242.503 71.1278 242.454 72.2285 242.069 73.2308C241.683 74.2331 240.981 75.0825 240.07 75.6505Z" fill="#263238"/>
<path d="M0.203125 251.455L34.8334 251.299L69.4636 251.241L138.731 251.137L207.998 251.241L242.628 251.299L277.258 251.455L242.628 251.617L207.998 251.676L138.731 251.779L69.4636 251.669L34.8334 251.617L0.203125 251.455Z" fill="#263238"/>
<path d="M38.0825 77.6809C33.697 83.085 16.7646 107.004 18.6589 114.945C19.8137 119.83 25.2308 118.98 28.3059 117.748C31.9064 116.301 41.4301 87.8144 42.6367 82.021C43.7915 76.5002 42.3837 72.3871 38.0825 77.6809Z" fill="#F7A9A0"/>
<path d="M38.0825 77.6809C33.697 83.085 16.7646 107.004 18.6589 114.945C19.8137 119.83 25.2308 118.98 28.3059 117.748C31.9064 116.301 41.4301 87.8144 42.6367 82.021C43.7915 76.5002 42.3837 72.3871 38.0825 77.6809Z" fill="#455A64"/>
<path d="M43.0198 79.0174C42.9818 80.028 42.8537 81.0332 42.637 82.0211C41.4303 87.8144 31.9067 116.301 28.2997 117.748C26.4767 118.487 23.8103 119.084 21.7148 118.396L38.4785 77.1879L39.7047 74.1907L40.5545 75.4298L43.0198 79.0174Z" fill="#37474F"/>
<path d="M39.6654 102.074C39.6654 102.074 39.7627 108.509 40.8915 110.235C41.2938 110.845 43.3698 111.779 43.3698 111.779H78.6747C78.6747 111.779 79.7841 107.712 78.5644 105.772C74.8601 99.8682 66.7247 89.5076 52.2382 78.3556C46.7952 74.1647 39.9119 73.3603 38.0695 77.5382C37.025 79.9256 32.3994 91.3501 33.2428 96.1703C33.9888 100.42 39.6654 102.074 39.6654 102.074Z" fill="#455A64"/>
<path d="M44.4535 99.5373C46.0203 99.3784 47.5965 99.3328 49.1699 99.401C49.9549 99.4464 50.7269 99.5243 51.5054 99.6216C51.8881 99.6735 52.2774 99.7059 52.6666 99.7449C53.0717 99.7935 53.4812 99.7935 53.8863 99.7449C53.8863 99.7449 53.9317 99.7968 53.8863 99.8033C53.513 99.8965 53.1336 99.9637 52.751 100.004C52.3773 100.03 52.0023 100.03 51.6286 100.004C50.8372 99.9654 50.0457 99.8876 49.2542 99.8422C47.6518 99.7514 46.0559 99.6541 44.4535 99.68C44.3886 99.6735 44.3821 99.5438 44.4535 99.5373Z" fill="#263238"/>
<path d="M40.9201 101.646C42.1622 101.265 43.425 100.955 44.7023 100.718C45.351 100.601 45.9998 100.523 46.6485 100.459C46.9534 100.426 47.2973 100.407 47.5762 100.387C47.8552 100.368 48.2639 100.387 48.6013 100.355C48.6013 100.355 48.6467 100.407 48.6013 100.413C48.2834 100.446 47.9525 100.536 47.6541 100.588L46.6939 100.75L44.7477 101.081C43.4502 101.282 42.1916 101.503 40.9201 101.73C40.9134 101.725 40.9079 101.719 40.9042 101.712C40.9004 101.704 40.8984 101.696 40.8984 101.688C40.8984 101.68 40.9004 101.672 40.9042 101.664C40.9079 101.657 40.9134 101.651 40.9201 101.646Z" fill="#263238"/>
<path d="M52.726 84.1683C58.5648 91.0386 72.8048 109.47 80.4276 110.008C86.9151 110.482 98.9883 105.214 102.323 103.118C104.269 101.912 97.5806 89.2416 95.1867 88.8458C92.7928 88.4501 83.2237 92.4139 81.4332 92.654C79.6426 92.894 64.8057 82.3778 57.0791 78.2647C47.3414 73.0358 48.1458 78.7513 52.726 84.1683Z" fill="#F7A9A0"/>
<path d="M91.8984 90.4353C91.8984 90.4353 95.1422 86.718 96.9392 85.401C98.7363 84.084 107.202 81.6318 107.838 83.4548C108.656 85.7773 104.043 88.1582 101.63 89.034C101.63 89.034 103.531 94.4057 100.592 96.819C97.6529 99.2323 91.8984 90.4353 91.8984 90.4353Z" fill="#F7A9A0"/>
<path d="M100.067 104.001C101.949 103.806 110.499 102.132 112.776 101.14C115.054 100.147 121.392 96.7997 120.801 94.9767C120.211 93.1537 118.284 93.9841 118.284 93.9841C118.284 93.9841 120.737 92.1481 119.978 90.3706C119.219 88.593 116.254 89.9878 116.254 89.9878C116.254 89.9878 118.635 87.9183 117.752 86.1926C116.87 84.4669 114.126 86.3743 114.126 86.3743C114.126 86.3743 116.39 84.5837 115.067 83.4743C113.477 82.1379 109.669 85.9072 107.074 86.8219C106.484 87.0295 94.832 90.1694 94.832 90.1694L100.067 104.001Z" fill="#F7A9A0"/>
<path d="M114.359 86.2185C111.556 88.9822 109.818 89.7088 106.061 90.5392C105.984 90.5392 105.997 90.6689 106.061 90.6559C109.844 90.1824 112.114 89.5855 114.495 86.3418C114.618 86.1861 114.495 86.1147 114.359 86.2185Z" fill="#263238"/>
<path d="M116.471 89.7605C113.305 92.3555 111.463 93.186 107.557 94.3472C107.499 94.3472 107.557 94.4575 107.557 94.4445C111.45 93.6271 113.733 92.9719 116.549 89.9422C116.705 89.806 116.614 89.6438 116.471 89.7605Z" fill="#263238"/>
<path d="M118.082 94.0425C114.838 96.3521 112.853 97.3252 108.915 97.935C108.899 97.9398 108.885 97.9497 108.875 97.9631C108.865 97.9766 108.859 97.9929 108.859 98.0096C108.859 98.0264 108.865 98.0427 108.875 98.0562C108.885 98.0696 108.899 98.0794 108.915 98.0842C112.996 97.8182 115.474 96.631 118.127 94.1204C118.322 93.9712 118.283 93.8998 118.082 94.0425Z" fill="#263238"/>
<path d="M107.85 84.1685C107.065 86.8283 103.827 87.769 101.55 88.7876C101.516 88.8011 101.486 88.8227 101.462 88.8505C101.438 88.8783 101.422 88.9115 101.413 88.9472C101.405 88.9829 101.405 89.02 101.415 89.0555C101.424 89.091 101.441 89.1237 101.466 89.1508C102.115 91.4539 102.355 94.8988 100.746 96.845C100.738 96.8559 100.734 96.8694 100.734 96.883C100.735 96.8966 100.741 96.9095 100.75 96.9195C100.759 96.9295 100.772 96.936 100.785 96.9378C100.799 96.9396 100.812 96.9366 100.824 96.9294C102.835 95.0674 102.874 91.668 102.005 89.1898C104.359 88.1842 107.564 87.0943 107.876 84.1749L107.85 84.1685Z" fill="#263238"/>
<path d="M99.5597 107.283L89.0305 88.9952C89.0305 88.9952 81.8164 91.8951 81.0055 91.5902C73.5578 88.7292 61.7441 79.8543 56.7487 77.2269C48.3928 72.8348 46.6866 76.6949 53.1676 86.6338C56.7811 92.1741 66.2723 105.052 78.6894 110.281C82.9776 112.065 99.5597 107.283 99.5597 107.283Z" fill="#455A64"/>
<path d="M92.4568 105.376C92.2427 104.896 92.0157 104.429 91.8081 103.955C91.3475 102.995 90.8804 102.048 90.4133 101.094C89.4856 99.1999 88.467 97.338 87.4809 95.4826C86.91 94.4251 86.3716 93.3482 85.7488 92.3167C85.7413 92.3074 85.731 92.3009 85.7193 92.2983C85.7077 92.2958 85.6956 92.2973 85.6849 92.3026C85.6743 92.3079 85.6658 92.3167 85.6609 92.3276C85.656 92.3384 85.6549 92.3506 85.6579 92.3621C86.0602 93.3352 86.5532 94.3084 87.0008 95.2426C87.4485 96.1768 87.8961 97.1888 88.3632 98.1165C89.2974 100.011 90.2705 101.879 91.2631 103.748C91.5421 104.267 91.8016 104.805 92.1065 105.318C92.2622 105.577 92.392 105.85 92.5541 106.109C92.7163 106.369 92.898 106.622 93.0472 106.888C93.0472 106.888 93.1121 106.888 93.0991 106.888C92.859 106.369 92.6709 105.863 92.4568 105.376Z" fill="#263238"/>
<path d="M54.5156 88.6252C55.346 89.7087 56.1894 90.7791 57.1106 91.8171C58.0318 92.8551 58.8752 93.8931 59.7964 94.9051C61.6259 96.9228 63.5203 98.882 65.5184 100.744C67.5031 102.606 69.5934 104.351 71.7789 105.973C72.8882 106.758 73.9911 107.562 75.1653 108.25C76.3396 108.938 77.5333 109.599 78.7205 110.281C76.2179 109.18 73.828 107.84 71.5842 106.278C69.3471 104.689 67.2168 102.955 65.207 101.088C63.2149 99.207 61.3203 97.2258 59.5305 95.1517C57.7252 93.0822 56.0503 90.9026 54.5156 88.6252Z" fill="#263238"/>
<path d="M54.543 90.1628C55.049 90.5197 55.5031 90.8959 55.9767 91.2657L56.6774 91.8301C56.9044 92.0183 57.1444 92.1999 57.3715 92.4075C56.7912 92.2079 56.2508 91.907 55.7756 91.5187C55.2896 91.1412 54.8726 90.6825 54.543 90.1628Z" fill="#263238"/>
<path d="M34.8199 72.4909C36.4483 74.8718 38.2648 75.5011 39.0433 77.0321C39.5891 78.2605 39.9855 79.5499 40.224 80.8727C40.224 80.8727 41.8004 78.8421 43.0266 77.4863C44.0386 76.3704 47.6522 75.6114 49.6827 74.515C50.7467 73.9441 53.439 71.5697 53.8802 70.0256C54.1072 69.2342 54.8338 59.983 52.0312 57.8486C49.4362 55.8569 45.946 55.5845 42.4427 55.9024C41.1281 55.9484 39.8553 56.3758 38.7794 57.1327C37.7035 57.8895 36.871 58.9429 36.3834 60.1646C34.7485 63.9144 33.2499 70.1813 34.8199 72.4909Z" fill="#37474F"/>
<path d="M46.8219 75.8515C46.6533 76.5002 43.3836 80.8858 40.2955 80.7041C39.29 80.6458 39.3678 75.1379 39.3678 75.1379L39.2835 74.7356L38.0703 69.0266L44.8043 64.8033L45.7775 64.2454C45.7775 64.2454 46.0045 65.8283 46.2705 67.807L46.3094 68.086C46.3094 68.1962 46.3094 68.3 46.3548 68.4038C46.4003 68.7023 46.4392 69.0007 46.4781 69.3056C46.517 69.6105 46.5365 69.7532 46.556 69.9933C46.5754 70.2333 46.6079 70.4734 46.6338 70.7134C46.815 72.4197 46.8779 74.1365 46.8219 75.8515Z" fill="#F7A9A0"/>
<path d="M38.0703 69.0266L39.0694 73.7301C41.6278 74.2871 44.2815 74.2338 46.8155 73.5744C46.8155 72.718 46.7311 71.706 46.6338 70.7134C46.6338 70.4669 46.5884 70.2333 46.5624 69.9933C46.5365 69.7532 46.5041 69.5327 46.4781 69.3056C46.4522 69.0785 46.3938 68.7023 46.3548 68.4103C46.3548 68.3 46.3548 68.1962 46.3094 68.086C46.264 67.9757 46.3094 67.8978 46.264 67.8005C46.0045 65.8543 45.7775 64.2454 45.7775 64.2454L44.8043 64.8033L38.0703 69.0266Z" fill="#263238"/>
<path d="M53.743 60.6384C55.5271 70.7264 49.6883 72.9646 47.5085 73.3149C45.5623 73.6588 38.7699 74.6124 35.9543 64.7449C33.1387 54.8775 37.2518 50.8812 41.7347 49.8237C46.2175 48.7662 51.959 50.5568 53.743 60.6384Z" fill="#F7A9A0"/>
<path d="M50.1781 59.0878C49.9656 59.1643 49.749 59.2293 49.5294 59.2824C49.2986 59.3829 49.0421 59.4078 48.7963 59.3537C48.7218 59.3213 48.6606 59.2644 48.6229 59.1924C48.5851 59.1204 48.5731 59.0378 48.5887 58.958C48.6393 58.8047 48.7296 58.6676 48.8504 58.5605C48.9712 58.4534 49.1181 58.3801 49.2764 58.3482C49.5846 58.2254 49.9282 58.2254 50.2365 58.3482C50.313 58.3793 50.3776 58.434 50.421 58.5044C50.4644 58.5747 50.4842 58.657 50.4777 58.7393C50.4712 58.8217 50.4387 58.8998 50.3848 58.9625C50.331 59.0251 50.2586 59.069 50.1781 59.0878Z" fill="#263238"/>
<path d="M43.165 62.2083C43.4051 62.2083 43.6321 62.1694 43.8722 62.1499C44.123 62.166 44.372 62.0975 44.5793 61.9553C44.6376 61.8992 44.6751 61.8251 44.6857 61.7449C44.6963 61.6648 44.6794 61.5834 44.6377 61.5141C44.5378 61.3874 44.4054 61.2903 44.2545 61.2332C44.1036 61.176 43.9401 61.161 43.7813 61.1898C43.4504 61.191 43.1325 61.3186 42.8926 61.5466C42.8392 61.601 42.803 61.6698 42.7884 61.7446C42.7739 61.8194 42.7816 61.8968 42.8106 61.9673C42.8396 62.0377 42.8886 62.0981 42.9516 62.141C43.0146 62.1838 43.0888 62.2072 43.165 62.2083Z" fill="#263238"/>
<path d="M44.6024 62.9348C44.6024 62.9348 44.5569 62.9737 44.5569 62.9997C44.6737 63.6939 44.6867 64.5048 44.0898 64.8162C44.0898 64.8162 44.0898 64.8616 44.0898 64.8551C44.8554 64.6475 44.8229 63.5706 44.6024 62.9348Z" fill="#263238"/>
<path d="M43.8909 62.286C42.762 62.3509 42.9696 64.6021 44.0141 64.5437C45.0586 64.4853 44.838 62.2341 43.8909 62.286Z" fill="#263238"/>
<path d="M43.4596 62.4482C43.2714 62.591 43.1028 62.8375 42.8627 62.8829C42.6227 62.9283 42.3632 62.7207 42.1621 62.5066C42.1621 62.5066 42.1231 62.5066 42.1296 62.5066C42.1621 62.9348 42.3697 63.363 42.8368 63.3889C43.3039 63.4149 43.5309 62.9932 43.6023 62.5521C43.6153 62.5002 43.5309 62.3899 43.4596 62.4482Z" fill="#263238"/>
<path d="M48.9902 62.2084C48.9902 62.176 49.0421 62.2084 49.0421 62.2668C49.0421 62.9674 49.1978 63.7654 49.8401 63.9665V64.0054C49.0551 63.9341 48.8929 62.8701 48.9902 62.2084Z" fill="#263238"/>
<path d="M49.572 61.4623C50.6944 61.3196 50.902 63.5708 49.864 63.7005C48.826 63.8303 48.6313 61.5661 49.572 61.4623Z" fill="#263238"/>
<path d="M50.0516 61.5466C50.2462 61.6504 50.4409 61.8515 50.655 61.845C50.869 61.8385 51.0637 61.579 51.1999 61.3325C51.2518 61.7607 51.1545 62.2213 50.7458 62.3446C50.3371 62.4678 50.0646 62.111 49.9219 61.6958C49.9284 61.6309 49.9803 61.5077 50.0516 61.5466Z" fill="#263238"/>
<path d="M45.9608 67.6318C46.8837 67.7128 47.8136 67.6515 48.718 67.4501C48.7958 67.4501 48.8412 67.262 48.8477 67.1841L48.5882 65.7699C48.7893 65.8347 49.8078 66.1202 49.7495 65.8542C49.3294 63.5539 48.6773 61.302 47.8032 59.1332C47.7981 59.1177 47.787 59.1049 47.7724 59.0976C47.7578 59.0903 47.7409 59.0891 47.7254 59.0942C47.7099 59.0994 47.6971 59.1105 47.6898 59.1251C47.6825 59.1397 47.6813 59.1566 47.6864 59.1721C48.0497 61.2935 48.7893 63.3435 49.1915 65.4779C48.8271 65.3705 48.4491 65.3159 48.0692 65.3157C48.0043 65.3157 48.3741 66.8597 48.3806 67.0933C47.5488 67.2219 46.7107 67.3064 45.8699 67.3463C45.5585 67.3593 45.5196 67.5993 45.9608 67.6318Z" fill="#263238"/>
<path d="M36.2287 64.1804C37.896 64.2712 38.1749 60.7744 38.1749 60.7744C38.1749 60.7744 41.5614 60.7031 42.567 55.8115C42.5044 57.2737 42.015 58.6855 41.1592 59.8727C41.1592 59.8727 47.1147 59.1007 49.5086 54.0339C49.5086 54.0339 48.5679 56.6289 47.6467 57.5242C49.1506 57.0283 50.441 56.0354 51.3056 54.7086C51.3056 54.7086 52.4215 57.5696 53.2519 58.3416C53.2519 58.3416 52.7653 47.9097 43.1184 49.2591C43.1184 49.2591 37.0721 49.8041 35.0091 54.6438C32.946 59.4834 36.2287 64.1804 36.2287 64.1804Z" fill="#263238"/>
<path d="M38.404 65.1861C38.404 65.1861 35.8934 62.2018 34.5115 63.1231C33.1297 64.0443 35.2187 68.5142 36.9703 68.9942C37.1911 69.0717 37.4253 69.1035 37.6588 69.0879C37.8923 69.0723 38.1202 69.0096 38.3288 68.9035C38.5373 68.7974 38.7222 68.6501 38.8723 68.4706C39.0224 68.2911 39.1345 68.083 39.202 67.8589L38.404 65.1861Z" fill="#F7A9A0"/>
<path d="M35.1445 64.3879V64.4334C36.3772 64.8096 37.0908 65.8606 37.6422 66.9635C37.563 66.8502 37.46 66.7556 37.3406 66.6861C37.2211 66.6166 37.088 66.5739 36.9504 66.5609C36.8128 66.5479 36.674 66.565 36.5436 66.611C36.4133 66.657 36.2945 66.7308 36.1955 66.8272C36.1955 66.8272 36.1955 66.8986 36.2344 66.8921C36.4373 66.8058 36.662 66.7851 36.8771 66.8328C37.0923 66.8805 37.2872 66.9942 37.4346 67.1581C37.6819 67.4327 37.8994 67.7328 38.0834 68.0534C38.1482 68.1507 38.3364 68.0534 38.2845 67.9626C38.1742 66.412 36.7859 64.3944 35.1445 64.3879Z" fill="#263238"/>
<path d="M31.1735 75.3519C33.1198 77.5123 37.2069 76.1758 37.901 77.136C38.3162 77.7069 40.1652 80.8144 40.0614 81.7162C41.611 81.1237 43.0714 80.3203 44.4015 79.3288C46.4573 77.652 48.7825 76.3358 51.2783 75.4363C52.3876 75.0665 55.8195 74.8524 56.5266 71.7708C57.5841 67.0609 55.6508 50.2194 46.1921 48.5261C39.9576 47.4103 35.3579 50.9589 33.2755 56.5966C32.6267 58.3093 32.1012 61.2546 31.4071 63.7328C30.0966 68.3844 29.0067 72.9645 31.1735 75.3519ZM36.3635 63.6744C36.8695 61.8904 38.1022 60.4307 41.028 59.1851C43.0845 58.3222 48.8844 56.5187 52.0568 59.3797C54.1717 61.2806 53.6527 68.566 53.4451 69.3575C53.0883 70.6939 51.6091 72.452 49.358 73.7949C48.1643 74.5085 44.4015 76.338 43.4089 77.123C42.187 78.2368 41.0985 79.4886 40.1652 80.8533C40.1652 80.8533 40.5933 78.1545 39.8213 76.63C39.0493 75.1054 36.7398 73.6457 35.611 72.1536C34.9298 71.1934 35.5785 66.4446 36.383 63.6809L36.3635 63.6744Z" fill="#455A64"/>
<path d="M51.4156 75.3521L49.943 76.0592C49.4564 76.3057 48.9439 76.5003 48.4898 76.7858C47.575 77.3567 46.6862 77.9795 45.8039 78.6153C45.3628 78.9331 44.9087 79.264 44.448 79.5365L43.0403 80.3669C42.1288 80.9777 41.1226 81.4336 40.0625 81.7163C40.5783 81.5471 41.0709 81.3139 41.5287 81.0221C41.9958 80.7432 42.4499 80.4512 42.8975 80.1463C43.3452 79.8414 43.8382 79.5689 44.2859 79.2835C44.7335 78.998 45.1682 78.6347 45.6223 78.3558C46.5082 77.7173 47.4286 77.1282 48.3795 76.5912C49.3721 76.0981 50.3971 75.7348 51.4156 75.3521Z" fill="#263238"/>
<path d="M39.7105 80.4252C39.3376 79.6025 38.9039 78.8089 38.413 78.0507C38.1742 77.6751 37.9143 77.3134 37.6345 76.9673C37.3642 76.6117 37.0214 76.3176 36.6289 76.1045C37.0877 76.2103 37.5038 76.4522 37.8226 76.7986C38.1493 77.1245 38.4387 77.4857 38.6854 77.8756C38.936 78.2652 39.1531 78.6754 39.3342 79.1017C39.5178 79.5242 39.6443 79.9693 39.7105 80.4252Z" fill="#263238"/>
<path d="M50.6674 76.3834C50.3584 76.3902 50.0513 76.4337 49.7526 76.5131C49.4577 76.5838 49.1813 76.7165 48.9417 76.9024C48.4162 77.2565 47.8132 77.479 47.1836 77.5511C47.4805 77.4669 47.7693 77.3562 48.0464 77.2203C48.3254 77.0939 48.5943 76.9464 48.8509 76.7791C49.11 76.5893 49.4099 76.4627 49.7267 76.4093C50.0363 76.3456 50.3547 76.3369 50.6674 76.3834Z" fill="#263238"/>
<path d="M53.6037 68.1248C53.6716 68.5979 53.6518 69.0795 53.5453 69.5455C53.4701 70.0302 53.286 70.4916 53.0068 70.8949C52.7166 71.2757 52.3836 71.6218 52.0142 71.9264C51.6611 72.2382 51.2812 72.5183 50.8789 72.7633C51.5693 72.1432 52.1992 71.4589 52.7603 70.7198C52.9912 70.3326 53.1618 69.9126 53.2663 69.4742C53.4092 69.0325 53.5219 68.5817 53.6037 68.1248Z" fill="#263238"/>
<path d="M34.7033 67.7876C34.5922 68.3715 34.5747 68.9693 34.6514 69.5587C34.6514 69.8506 34.7227 70.1426 34.7617 70.441C34.8044 70.7158 34.9038 70.9787 35.0536 71.213C35.3805 71.6998 35.7614 72.1481 36.1889 72.5494C36.6269 72.9626 37.0245 73.4166 37.3761 73.9053C36.9544 73.4836 36.4938 73.1073 36.0332 72.7116C35.5517 72.3334 35.1296 71.8851 34.7811 71.3817C34.6025 71.1102 34.4872 70.802 34.4438 70.4799C34.4034 70.1787 34.3796 69.8755 34.3724 69.5717C34.3406 68.9592 34.454 68.3479 34.7033 67.7876Z" fill="#263238"/>
<path d="M43.1378 78.5049C43.6861 80.7127 44.0443 82.9634 44.2082 85.2324C44.3315 86.8154 44.046 92.5244 42.2619 92.4206C40.4779 92.3168 43.1442 88.4891 43.4816 85.466C43.8189 82.4428 42.8847 80.276 42.6771 78.5049H43.1378Z" fill="#263238"/>
<path d="M39.1041 77.9663C38.3234 79.995 37.72 82.0874 37.3006 84.2203C36.9957 85.7059 36.5934 91.1619 38.2867 91.2722C39.9799 91.3824 37.9104 87.4381 37.9493 84.5252C37.9882 81.6123 39.1236 79.692 39.5323 78.0377L39.1041 77.9663Z" fill="#263238"/>
<path d="M22.1234 118.669C17.0826 118.02 18.964 108.425 21.7666 106.245C28.3449 101.127 35.2476 96.2092 42.6757 94.9506C45.0631 94.5419 53.4515 103.968 50.4607 107.076C45.6795 112.065 30.3884 119.759 22.1234 118.669Z" fill="#F7A9A0"/>
<path d="M36.5399 103.423C36.0202 99.6584 36.2405 95.8283 37.1886 92.148C37.8374 89.553 40.3221 85.2388 41.5158 83.7142C43.2934 81.4241 52.2007 72.9709 54.2962 75.0858C56.197 77.0321 47.6205 83.2925 47.6205 83.2925C47.6205 83.2925 55.7104 76.1563 57.5724 78.907C59.4343 81.6577 48.7948 87.451 48.7948 87.451C48.7948 87.451 57.2739 80.3148 58.7466 83.4482C59.8624 85.7967 50.5269 91.6095 50.5269 91.6095C50.5269 91.6095 57.8578 85.5437 59.1034 87.9116C60.4852 90.5066 52.2072 96.4362 52.2072 96.4362C52.9987 99.9265 53.0765 105.201 50.475 107.082C49.8522 107.523 36.5399 103.423 36.5399 103.423Z" fill="#F7A9A0"/>
<path d="M44.6641 85.5631C45.5853 84.6938 46.513 83.8115 47.5056 83.0265C48.4982 82.2415 49.5232 81.489 50.5871 80.8013C51.9583 79.8717 53.432 79.1033 54.9792 78.5112C52.3063 79.7633 48.7058 82.5205 47.7132 83.3055C46.7206 84.0905 45.6891 84.8236 44.69 85.6021C44.6641 85.6215 44.6641 85.5826 44.6641 85.5631Z" fill="#263238"/>
<path d="M47.4338 89.2093C48.6535 88.1453 49.8342 87.0489 51.0993 86.0434C52.3643 85.0378 53.6554 84.2074 54.9918 83.2927C55.0891 83.2213 55.0956 83.2927 54.9918 83.377C53.6943 84.3372 52.5784 85.3233 51.2939 86.3094C50.0094 87.2955 48.6989 88.2167 47.4533 89.2352C47.4338 89.2547 47.4144 89.2222 47.4338 89.2093Z" fill="#263238"/>
<path d="M49.2424 92.758C51.0924 91.0468 53.1092 89.5254 55.2628 88.2168C55.3666 88.1519 55.3601 88.2557 55.2628 88.327C53.2452 89.7543 51.6233 90.9999 49.3138 92.8294C49.2684 92.8488 49.2035 92.7969 49.2424 92.758Z" fill="#263238"/>
<path d="M51.3047 80.6263C51.8152 80.2096 52.3503 79.824 52.9071 79.4715C53.4596 79.1048 54.0411 78.7837 54.6457 78.5114C55.256 78.1876 55.9552 78.0714 56.6374 78.1805C56.9823 78.2559 57.2939 78.4401 57.5262 78.706C57.7397 78.9752 57.8377 79.3182 57.7987 79.6596C57.7721 79.3453 57.6372 79.05 57.4172 78.824C57.1971 78.5981 56.9055 78.4555 56.592 78.4205C55.9628 78.3778 55.334 78.5103 54.7755 78.8033C53.5948 79.3353 52.4465 80.01 51.3047 80.6263Z" fill="#263238"/>
<path d="M35.354 96.7024L47.1871 112.182C47.1871 112.182 25.0843 121.147 21.0685 118.552C18.1491 116.664 17.8247 111.799 20.4197 107.588C22.2298 104.682 35.354 96.7024 35.354 96.7024Z" fill="#455A64"/>
<path d="M41.0674 111.539C40.7819 111.107 40.49 110.674 40.1916 110.242C39.5947 109.377 38.9936 108.512 38.3881 107.647C37.1879 105.915 35.9293 104.215 34.6513 102.535C33.9312 101.581 33.237 100.588 32.465 99.6671C32.4261 99.6217 32.3547 99.6671 32.3871 99.719C32.9321 100.627 33.5549 101.49 34.1452 102.372C34.7356 103.255 35.313 104.143 35.9228 105.013C37.1295 106.743 38.3643 108.453 39.6272 110.144C39.9775 110.618 40.3148 111.111 40.6911 111.572C40.8857 111.805 41.0544 112.058 41.2555 112.292C41.4566 112.525 41.6707 112.739 41.8589 112.979C41.8589 112.979 41.9237 112.979 41.9043 112.979C41.6188 112.467 41.3658 111.993 41.0674 111.539Z" fill="#263238"/>
<path d="M35.7117 97.1435L35.3224 96.7088H35.3743L32.1825 98.8497L28.9777 100.971C26.8433 102.379 24.7219 103.8 22.6523 105.318C23.5759 104.422 24.553 103.584 25.5782 102.807C26.5903 102.016 27.6477 101.282 28.7117 100.562C29.7756 99.8423 30.8655 99.1676 31.9554 98.5123C33.0453 97.8571 34.1741 97.2148 35.3224 96.6375V96.6699L35.7117 97.1435Z" fill="#263238"/>
<path d="M23.0078 104.066C23.1686 103.859 23.3694 103.687 23.5982 103.56C23.8184 103.427 24.0509 103.316 24.2923 103.229C24.5285 103.137 24.7714 103.063 25.0189 103.008C25.2705 102.951 25.5267 102.916 25.7845 102.904C25.343 103.159 24.8807 103.376 24.4026 103.553L23.7085 103.813C23.4701 103.883 23.2362 103.967 23.0078 104.066Z" fill="#263238"/>
<path d="M9.13017 277.022C10.6288 277.489 53.1867 276.477 54.7762 275.407C55.4249 275.011 55.6066 268.803 55.6455 261.29V261.057C55.6455 259.512 54.6464 233.562 54.6464 233.562L26.8281 234.146L28.1839 261.394V261.854C28.1839 261.854 12.069 269.529 10.4406 270.892C8.81228 272.254 7.63156 276.568 9.13017 277.022Z" fill="#F7A9A0"/>
<path d="M55.6148 265.027C55.5239 270.768 55.2904 275.083 54.7779 275.407C53.182 276.477 10.6305 277.489 9.13186 277.022C7.63325 276.555 8.83993 272.26 10.4618 270.905C11.4544 270.074 17.8251 266.902 22.6583 264.547C19.4145 266.311 14.2635 271.034 32.8372 268.712C44.2941 267.272 51.5406 265.909 55.6148 265.027Z" fill="#263238"/>
<path d="M22.6562 264.521C22.6562 264.521 31.6739 261.433 39.4199 267.803L22.6562 264.521Z" fill="#263238"/>
<path d="M70.3769 111.799C70.3769 111.799 55.8255 184.861 54.8069 190.252C54.6383 191.121 58.4724 220.412 58.6994 236.722C58.8018 240.659 57.7339 244.538 55.6309 247.867L26.7874 249.165C26.7874 249.165 23.628 244.89 23.5437 240.498C23.3231 226.394 26.0933 197.194 27.0859 188.98C28.3834 178.198 44.8681 111.779 44.8681 111.779L70.3769 111.799Z" fill="#263238"/>
<path d="M54.0632 242.515C49.4571 242.58 50.7806 242.515 46.1809 242.606C43.9298 242.664 29.1383 243.034 27.0493 243.456C27.0373 243.456 27.0257 243.461 27.0172 243.469C27.0087 243.478 27.0039 243.489 27.0039 243.501C27.0039 243.513 27.0087 243.525 27.0172 243.533C27.0257 243.542 27.0373 243.547 27.0493 243.547C29.1642 243.826 43.9492 243.196 46.1939 243.099C50.7936 242.898 49.4377 242.904 54.0632 242.651C54.0778 242.647 54.0905 242.638 54.0995 242.626C54.1085 242.613 54.1133 242.598 54.1133 242.583C54.1133 242.568 54.1085 242.553 54.0995 242.541C54.0905 242.529 54.0778 242.52 54.0632 242.515Z" fill="#37474F"/>
<path d="M51.0416 190.472C51.3595 186.45 52.2807 182.467 53.0398 178.51C53.8096 174.448 54.5795 170.389 55.3493 166.333C56.8739 158.294 58.3725 150.256 59.8906 142.218C61.6357 133.136 64.1204 124.261 65.9564 115.198C66.0018 114.99 66.3067 115.088 66.2743 115.295C63.4262 131.41 59.644 147.285 56.5949 163.368C55.8251 167.429 55.0552 171.488 54.2854 175.545C53.5393 179.502 52.6959 183.453 52.0537 187.43C51.7068 189.493 51.5569 191.585 51.606 193.677C51.6579 195.624 51.8655 197.602 52.0407 199.568C52.417 203.681 52.7997 207.801 53.1565 211.894C53.5501 216.422 53.9415 220.951 54.3308 225.479C54.72 230.085 55.1547 234.698 55.3818 239.31C55.3818 239.369 55.2844 239.382 55.278 239.31C54.1945 231.188 53.5523 222.988 52.7803 214.827C52.391 210.713 52.0083 206.605 51.632 202.5C51.2881 198.53 50.7172 194.456 51.0416 190.472Z" fill="#37474F"/>
<path d="M47.9062 111.799L56.9887 179.171C61.3159 157.354 70.3854 111.799 70.3854 111.799H47.9062Z" fill="#37474F"/>
<path d="M59.0842 280.409C60.6283 280.688 102.752 274.57 104.205 273.272C104.769 272.805 104.205 266.616 103.368 259.156L103.335 258.922C103.16 257.385 99.0213 231.752 99.0213 231.752L71.4818 235.69L76.1139 262.575L76.1918 263.035C76.1918 263.035 61.1213 272.598 59.6681 274.148C58.2149 275.699 57.5467 280.136 59.0842 280.409Z" fill="#F7A9A0"/>
<path d="M103.782 262.879C104.386 268.595 104.677 272.903 104.204 273.259C102.751 274.511 60.6273 280.655 59.0833 280.396C57.5393 280.136 58.227 275.699 59.6672 274.155C60.556 273.22 66.492 269.296 71.0073 266.37C67.9712 268.511 63.4624 273.824 81.6144 269.27C92.8183 266.467 99.8443 264.255 103.782 262.879Z" fill="#263238"/>
<path d="M71.0078 266.389C71.0078 266.389 79.5908 262.237 88.0505 267.622L71.0078 266.389Z" fill="#263238"/>
<path d="M73.8571 251.695L101.87 248.581C101.87 248.581 104.601 241.224 102.921 234.231C99.3724 219.485 89.2973 196.817 88.5642 194.222C87.4614 190.259 85.0156 158.334 82.6411 138.599C82.6411 138.599 87.15 127.914 78.7097 111.779H44.832C44.832 111.779 47.0962 127.135 50.9822 136.873C50.9822 136.873 50.2621 136.321 54.8293 138.819C54.8293 138.819 57.6319 188.961 59.6819 198.452C61.3687 206.289 64.3205 231.402 67.8172 244.092C69.0499 248.607 73.8571 251.695 73.8571 251.695Z" fill="#263238"/>
<path d="M99.954 242.418C95.3674 242.84 96.7103 242.651 92.1042 243.132C89.866 243.365 75.1458 244.909 73.0958 245.493C73.0504 245.493 73.0634 245.584 73.0958 245.584C75.2237 245.694 89.9114 243.891 92.1431 243.638C96.6843 243.073 95.3868 243.183 99.9281 242.567C100.051 242.535 100.038 242.405 99.954 242.418Z" fill="#37474F"/>
<path d="M49.695 136.205C52.7451 137.316 55.6929 138.69 58.505 140.311C58.5291 140.322 58.5478 140.343 58.5569 140.368C58.5661 140.393 58.5649 140.42 58.5537 140.444C58.5425 140.468 58.5222 140.487 58.4973 140.496C58.4723 140.505 58.4448 140.504 58.4207 140.493C55.4559 139.195 52.4263 137.995 49.5328 136.561C49.4855 136.54 49.4487 136.5 49.4304 136.452C49.4122 136.403 49.414 136.349 49.4355 136.302C49.457 136.255 49.4965 136.218 49.5451 136.199C49.5938 136.181 49.6477 136.183 49.695 136.205Z" fill="#37474F"/>
<path d="M48.7497 115.84C48.7497 115.737 48.9378 115.717 48.9378 115.84C48.9378 119.363 49.1389 122.464 49.4374 125.753C49.5736 127.284 50.8062 135.731 53.4531 135.115C53.9008 135.011 54.1019 134.576 54.1992 133.908C54.1867 133.032 54.0669 132.16 53.8424 131.313C53.5504 129.542 53.3104 127.764 53.1612 125.98C52.8507 122.655 52.8877 119.307 53.2715 115.99C53.2715 115.967 53.2804 115.946 53.2962 115.93C53.312 115.914 53.3335 115.905 53.3558 115.905C53.3782 115.905 53.3996 115.914 53.4155 115.93C53.4313 115.946 53.4402 115.967 53.4402 115.99C53.3607 120.603 53.6296 125.216 54.2446 129.789C54.582 131.981 55.6848 135.29 53.3883 135.627C51.0917 135.965 49.5347 130.437 49.2492 128.919C48.5188 124.599 48.3509 120.203 48.7497 115.84Z" fill="#37474F"/>
<path d="M53.3863 135.329C53.6207 135.899 53.8179 136.484 53.9767 137.08C54.15 137.54 54.2358 138.029 54.2297 138.521C54.2259 138.541 54.2162 138.56 54.2017 138.574C54.1873 138.589 54.1688 138.599 54.1487 138.603C54.1285 138.607 54.1075 138.605 54.0884 138.598C54.0694 138.59 54.053 138.577 54.0415 138.56C53.767 138.126 53.5593 137.654 53.4252 137.158C53.2241 136.62 53.01 136.081 52.8284 135.536C52.8072 135.464 52.8143 135.386 52.8481 135.319C52.882 135.251 52.9401 135.199 53.0108 135.173C53.0814 135.147 53.1595 135.148 53.2291 135.177C53.2988 135.206 53.355 135.26 53.3863 135.329Z" fill="#37474F"/>
<path d="M76.4509 113.421C78.3412 116.569 79.6036 120.055 80.1682 123.684C80.6924 127.335 80.5716 131.051 79.8114 134.661C79.3625 136.777 79.1968 138.943 79.3184 141.103C79.4741 143.302 79.7725 145.501 80.019 147.694C80.4991 151.997 80.977 156.301 81.4528 160.604C82.4064 169.174 83.2758 177.764 84.4046 186.308C84.9388 190.501 85.7253 194.658 86.7595 198.757C87.804 202.805 89.0367 206.802 90.2758 210.791C92.8254 219.024 95.3944 227.257 97.8467 235.515C98.1581 236.553 98.4565 237.585 98.7484 238.623C98.7484 238.707 98.6446 238.733 98.6187 238.655C95.8356 230.539 93.3833 222.3 90.8337 214.113C88.323 206.114 85.767 198.134 84.463 189.83C83.8142 185.607 83.3471 181.345 82.8606 177.095L81.4009 164.192C80.9208 159.936 80.4277 155.674 79.9542 151.418C79.7206 149.264 79.4806 147.11 79.247 144.93C78.9553 142.876 78.8057 140.803 78.7994 138.728C78.9677 136.683 79.2667 134.65 79.6947 132.643C79.9906 130.779 80.0992 128.891 80.019 127.005C79.8591 123.222 78.9668 119.505 77.3916 116.061C77.0088 115.211 76.7948 114.335 76.3341 113.524C76.2044 113.362 76.3406 113.193 76.4509 113.421Z" fill="#37474F"/>
<path d="M66.4864 114.854C67.0313 116.288 67.6477 117.696 68.3094 119.078C68.831 120.354 69.598 121.516 70.567 122.497C71.5599 123.332 72.7321 123.927 73.9924 124.235C74.7221 124.44 75.4629 124.602 76.2112 124.722C76.9706 124.802 77.7231 124.939 78.4623 125.13C78.4921 125.142 78.5178 125.161 78.536 125.188C78.5541 125.214 78.5638 125.245 78.5638 125.276C78.5638 125.308 78.5541 125.339 78.536 125.365C78.5178 125.391 78.4921 125.411 78.4623 125.422C77.6591 125.541 76.8444 125.563 76.036 125.487C75.2567 125.443 74.4822 125.337 73.72 125.169C72.3265 124.864 71.0351 124.205 69.9702 123.256C68.9382 122.195 68.1539 120.919 67.6736 119.519C67.0659 118.03 66.6074 116.485 66.3047 114.906C66.304 114.884 66.3105 114.863 66.3233 114.846C66.3361 114.828 66.3544 114.815 66.3753 114.809C66.3962 114.803 66.4185 114.804 66.4386 114.813C66.4588 114.821 66.4756 114.835 66.4864 114.854Z" fill="#37474F"/>
<path d="M56.6632 199.776H213.122L207.361 91.6226H50.9023L56.6632 199.776Z" fill="#2C67EC"/>
<path d="M151.484 80.4253H206.764L207.361 91.6227H148.902L151.484 80.4253Z" fill="#2E69EE"/>
<g opacity="0.1">
<path d="M56.6632 199.776H213.122L207.361 91.6228H50.9023L56.6632 199.776Z" fill="#407BFF"/>
<path d="M151.484 80.4253H206.764L207.361 91.6227H148.902L151.484 80.4253Z" fill="#407BFF"/>
</g>
<path d="M232.217 125.098L165.5 194.942L75.8359 109.301L125.374 57.44L159.641 55.7727L232.217 125.098Z" fill="#407BFF"/>
<path opacity="0.6" d="M232.217 125.098L165.5 194.942L75.8359 109.301L125.374 57.44L159.641 55.7727L232.217 125.098Z" fill="white"/>
<path d="M125.371 57.44L159.638 55.7727L142.459 73.756L125.371 57.44Z" fill="#407BFF"/>
<path opacity="0.4" d="M125.371 57.44L159.638 55.7727L142.459 73.756L125.371 57.44Z" fill="white"/>
<path d="M99.6891 119.041L136.785 80.2085L134.482 78.0082L97.3858 116.841L99.6891 119.041Z" fill="white"/>
<path d="M105.502 124.596L142.598 85.7637L140.294 83.5634L103.198 122.396L105.502 124.596Z" fill="white"/>
<path d="M111.31 130.147L148.406 91.3145L146.103 89.1141L109.007 127.946L111.31 130.147Z" fill="white"/>
<path d="M117.119 135.697L171.473 78.7991L169.169 76.5988L114.816 133.496L117.119 135.697Z" fill="white"/>
<path d="M122.936 141.247L177.289 84.3499L174.986 82.1495L120.632 139.047L122.936 141.247Z" fill="white"/>
<path d="M128.752 146.798L183.105 89.9004L180.802 87.7001L126.449 144.598L128.752 146.798Z" fill="white"/>
<path d="M134.557 152.348L188.91 95.4509L186.607 93.2506L132.253 150.148L134.557 152.348Z" fill="white"/>
<path d="M140.365 157.899L194.719 101.002L192.415 98.8014L138.062 155.699L140.365 157.899Z" fill="white"/>
<path d="M146.178 163.454L200.531 106.557L198.228 104.357L143.875 161.254L146.178 163.454Z" fill="white"/>
<path d="M151.994 169L206.348 112.103L204.044 109.902L149.691 166.8L151.994 169Z" fill="white"/>
<path d="M157.803 174.551L212.156 117.654L209.853 115.453L155.5 172.351L157.803 174.551Z" fill="white"/>
<path d="M163.615 180.1L217.969 123.202L215.665 121.002L161.312 177.899L163.615 180.1Z" fill="white"/>
<path d="M59.4744 149.374L155.003 138.105L147.399 74.2295L51.8711 85.4918L59.4744 149.374Z" fill="#EBEBEB"/>
<path d="M62.9699 144.93L150.564 134.596L143.901 78.6736L56.3008 89.0017L62.9699 144.93Z" fill="white"/>
<path d="M66.3241 105.499C66.5456 107.383 67.3203 109.159 68.5505 110.603C69.7807 112.046 71.4111 113.093 73.2358 113.61C75.0605 114.128 76.9976 114.093 78.8025 113.51C80.6074 112.927 82.199 111.822 83.3763 110.335C84.5536 108.848 85.2638 107.045 85.4171 105.155C85.5705 103.265 85.1601 101.371 84.2379 99.7137C83.3157 98.0564 81.9229 96.7095 80.2356 95.8433C78.5483 94.9771 76.6421 94.6304 74.7579 94.8469C73.5037 94.9902 72.2901 95.3798 71.1868 95.9932C70.0836 96.6067 69.1123 97.4319 68.3287 98.4216C67.5451 99.4113 66.9647 100.546 66.6207 101.761C66.2767 102.975 66.1759 104.246 66.3241 105.499Z" fill="#DBDBDB"/>
<path d="M90.1797 141.81L150.52 134.693L115.526 97.3574L90.1797 141.81Z" fill="#EBEBEB"/>
<path d="M66.5312 144.619L116.342 138.741L88.2968 115.049L66.5312 144.619Z" fill="#DBDBDB"/>
<path d="M56.7812 199.776H213.247L225.313 97.9739H68.848L56.7812 199.776Z" fill="#407BFF"/>
<path d="M171.28 87.4316H226.56L225.314 97.9738H166.855L171.28 87.4316Z" fill="#407BFF"/>
<path d="M138.731 158.067C136.912 158.069 135.134 157.531 133.622 156.521C132.109 155.512 130.93 154.077 130.233 152.397C129.536 150.717 129.353 148.869 129.707 147.085C130.061 145.302 130.936 143.663 132.221 142.377C133.507 141.09 135.145 140.214 136.928 139.859C138.712 139.504 140.56 139.685 142.24 140.381C143.921 141.077 145.357 142.255 146.367 143.767C147.378 145.279 147.917 147.056 147.917 148.875C147.915 151.311 146.947 153.647 145.225 155.371C143.503 157.094 141.167 158.064 138.731 158.067ZM138.731 142.283C137.425 142.282 136.149 142.668 135.063 143.393C133.977 144.117 133.13 145.147 132.63 146.353C132.13 147.559 131.998 148.886 132.253 150.167C132.507 151.447 133.136 152.623 134.059 153.547C134.982 154.47 136.158 155.098 137.438 155.352C138.719 155.607 140.046 155.476 141.252 154.975C142.458 154.475 143.488 153.629 144.213 152.543C144.937 151.457 145.323 150.18 145.322 148.875C145.32 147.127 144.625 145.452 143.389 144.216C142.154 142.98 140.478 142.285 138.731 142.283Z" fill="white"/>
<path d="M138.905 161.655C130.53 161.655 122.323 157.665 114.486 149.796L113.578 148.881L114.486 147.966C122.738 139.669 131.406 135.686 140.242 136.133C153.788 136.821 162.688 147.603 163.058 148.064L163.707 148.881L163.058 149.699C162.688 150.153 153.788 160.935 140.242 161.616C139.801 161.642 139.379 161.655 138.905 161.655ZM117.257 148.881C124.678 156.017 132.366 159.423 140.112 159.028C150.427 158.509 158.004 151.34 160.314 148.881C157.998 146.448 150.408 139.234 140.093 138.728C132.346 138.346 124.672 141.758 117.257 148.881Z" fill="white"/>
<path d="M155.904 129.872L119.715 166.062L121.55 167.897L157.739 131.707L155.904 129.872Z" fill="white"/>
</svg>
