<svg width="104" height="104" viewBox="0 0 104 104" fill="none" xmlns="http://www.w3.org/2000/svg">
<circle cx="52" cy="52" r="50" fill="#2828C2" stroke="white" stroke-width="4"/>
<path d="M52.0137 51.9963V71.7221" stroke="white" stroke-width="3" stroke-linecap="round" stroke-linejoin="round"/>
<path d="M70.4003 66.0015C72.538 64.8361 74.2267 62.9919 75.1999 60.7602C76.1731 58.5284 76.3754 56.0361 75.7749 53.6766C75.1743 51.3171 73.8051 49.2248 71.8834 47.7299C69.9616 46.2349 67.5967 45.4226 65.162 45.421H62.4004C61.737 42.855 60.5005 40.4727 58.7839 38.4534C57.0673 36.434 54.9152 34.8301 52.4895 33.7622C50.0638 32.6943 47.4276 32.1902 44.779 32.2878C42.1304 32.3854 39.5384 33.0821 37.1979 34.3256C34.8573 35.5691 32.8292 37.3271 31.2658 39.4673C29.7025 41.6075 28.6446 44.0742 28.1719 46.6821C27.6991 49.29 27.8236 51.9711 28.5362 54.5239C29.2487 57.0767 30.5307 59.4347 32.2858 61.4207" stroke="white" stroke-width="3" stroke-linecap="round" stroke-linejoin="round"/>
<path d="M60.7801 60.7633L52.0131 51.9963L43.2461 60.7633" stroke="white" stroke-width="3" stroke-linecap="round" stroke-linejoin="round"/>
</svg>
