<svg width="68" height="68" viewBox="0 0 68 68" fill="none" xmlns="http://www.w3.org/2000/svg">
<circle cx="34" cy="34" r="34" fill="#2828C2"/>
<path d="M32.0312 19.5308H45.1596" stroke="white" stroke-width="2" stroke-linecap="square"/>
<path d="M32.0312 24.4983H45.1596" stroke="white" stroke-width="2" stroke-linecap="square"/>
<path d="M32.0312 29.4657H45.1596" stroke="white" stroke-width="2" stroke-linecap="square"/>
<path d="M23.5156 34.4332H43.0308" stroke="white" stroke-width="2" stroke-linecap="square"/>
<path d="M23.5156 39.4008H38.7729" stroke="white" stroke-width="2" stroke-linecap="square"/>
<path d="M23.0898 46.6878C23.6894 46.5113 24.0211 45.7909 24.6207 45.6144C25.1227 45.4667 26.3945 45.715 26.3945 45.715L28.1008 46.2349L29.5005 46.5373C29.5005 46.5373 30.0861 45.7013 30.5288 45.715C30.9716 45.7288 32.1568 46.9309 32.1568 46.9309L34.3803 46.2349" stroke="white" stroke-width="1.2"/>
<path d="M39.1289 43.9508L51.5477 29.8206" stroke="white" stroke-width="3.75" stroke-linecap="square"/>
<path d="M37.4961 44.1732L36.5599 46.6079L39.1465 45.5765" stroke="white" stroke-width="0.75"/>
<path d="M48.4605 29.5897L48.463 17.4724C48.4632 16.6862 47.8299 16.0477 47.0443 16.0463L21.4629 16C20.6792 15.9986 20.0431 16.628 20.0421 17.4204L20 50.0343C19.999 50.8202 20.6322 51.4567 21.4185 51.456L47.0236 51.433C47.808 51.4323 48.4441 50.7971 48.4442 50.0122L48.4468 37.3018" stroke="white" stroke-width="2"/>
</svg>
