<svg width="43" height="52" viewBox="0 0 43 52" fill="none" xmlns="http://www.w3.org/2000/svg">
<path d="M25.1055 1V8.93656C25.1055 9.67772 25.3999 10.3885 25.924 10.9126C26.4481 11.4367 27.1589 11.7311 27.9 11.7311H35.9065L25.1474 1H25.1055Z" stroke="black" stroke-width="2" stroke-linecap="round" stroke-linejoin="round"/>
<path d="M26.6479 19.8633H10.2578L22.4561 24.0551V37.3852H26.6479V19.8633Z" stroke="black" stroke-width="2" stroke-linecap="round" stroke-linejoin="round"/>
<path d="M10.2578 19.8633V37.3852L22.4561 41.577V24.0551L10.2578 19.8633Z" stroke="black" stroke-width="2" stroke-linecap="round" stroke-linejoin="round"/>
<path d="M25.1055 1V8.93656C25.1055 9.67772 25.3999 10.3885 25.924 10.9126C26.4481 11.4367 27.1589 11.7311 27.9 11.7311H35.9065L25.1474 1H25.1055Z" stroke="black" stroke-width="2" stroke-linecap="round" stroke-linejoin="round"/>
<path d="M35.932 35.3871V11.7311H27.8977C27.1565 11.7311 26.4457 11.4367 25.9216 10.9126C25.3975 10.3885 25.1031 9.67772 25.1031 8.93656V1H3.79456C3.0534 1 2.34259 1.29443 1.81851 1.81851C1.29443 2.34259 1 3.0534 1 3.79456V44.3157C1 45.0569 1.29443 45.7677 1.81851 46.2918C2.34259 46.8159 3.0534 47.1103 3.79456 47.1103H28.3867" stroke="black" stroke-width="2" stroke-linecap="round" stroke-linejoin="round"/>
<path d="M34.7118 45.615C36.1857 45.615 37.3806 44.4201 37.3806 42.9462C37.3806 41.4722 36.1857 40.2773 34.7118 40.2773C33.2378 40.2773 32.043 41.4722 32.043 42.9462C32.043 44.4201 33.2378 45.615 34.7118 45.615Z" stroke="black" stroke-width="2" stroke-miterlimit="10"/>
<path d="M40.4702 41.5911L41.4343 40.9344C41.6092 40.8173 41.7327 40.6377 41.7795 40.4325C41.8263 40.2272 41.7927 40.0119 41.6858 39.8306L40.9173 38.4333C40.814 38.2513 40.6454 38.1153 40.4456 38.0531C40.2458 37.9908 40.0298 38.0068 39.8414 38.0979L38.7795 38.601C38.1178 37.957 37.3135 37.4783 36.432 37.2037L36.2783 36.1557C36.2641 35.9469 36.1711 35.7513 36.018 35.6086C35.8649 35.4659 35.6632 35.3867 35.4539 35.3872H33.9169C33.7076 35.3867 33.506 35.4659 33.3529 35.6086C33.1998 35.7513 33.1067 35.9469 33.0925 36.1557L33.0087 37.3155C32.1177 37.5778 31.3061 38.058 30.6473 38.7127L29.5993 38.2097C29.4109 38.1186 29.1949 38.1026 28.9951 38.1648C28.7953 38.2271 28.6267 38.363 28.5234 38.5451L27.7549 39.9423C27.648 40.1237 27.6145 40.339 27.6612 40.5443C27.708 40.7495 27.8315 40.9291 28.0064 41.0462L28.9706 41.7029C28.7568 42.5986 28.7568 43.532 28.9706 44.4276L28.0064 45.0843C27.8315 45.2014 27.708 45.381 27.6612 45.5863C27.6145 45.7915 27.648 46.0069 27.7549 46.1882L28.5234 47.5855C28.6267 47.7675 28.7953 47.9034 28.9951 47.9657C29.1949 48.028 29.4109 48.0119 29.5993 47.9208L30.6613 47.4178C31.3229 48.0617 32.1272 48.5405 33.0087 48.8151L33.0925 49.9748C33.1067 50.1836 33.1998 50.3792 33.3529 50.522C33.506 50.6647 33.7076 50.7438 33.9169 50.7433H35.4539C35.6632 50.7438 35.8649 50.6647 36.018 50.522C36.1711 50.3792 36.2641 50.1836 36.2783 49.9748L36.3622 48.8151C37.2561 48.5595 38.0693 48.0783 38.7236 47.4178L39.7715 47.9208C39.9599 48.0119 40.1759 48.028 40.3757 47.9657C40.5755 47.9034 40.7442 47.7675 40.8474 47.5855L41.6159 46.1882C41.7229 46.0069 41.7564 45.7915 41.7096 45.5863C41.6629 45.381 41.5394 45.2014 41.3644 45.0843L40.4702 44.3158C40.6839 43.4202 40.6839 42.4868 40.4702 41.5911Z" stroke="black" stroke-width="2" stroke-miterlimit="10"/>
</svg>
