<svg width="68" height="68" viewBox="0 0 68 68" fill="none" xmlns="http://www.w3.org/2000/svg">
<circle cx="34" cy="34" r="34" fill="#2828C2"/>
<path d="M33.1272 32.0834C38.0165 32.0834 41.994 28.2518 41.994 23.5421C41.994 18.832 38.0161 15 33.1272 15C28.2383 15 24.2613 18.832 24.2613 23.5421C24.2608 28.2518 28.2383 32.0834 33.1272 32.0834ZM33.1272 17.068C36.8329 17.068 39.8475 19.9723 39.8475 23.5421C39.8475 27.1115 36.8329 30.0154 33.1272 30.0154C29.4219 30.0154 26.4078 27.1115 26.4078 23.5421C26.4073 19.9719 29.4219 17.068 33.1272 17.068ZM49.4445 47.6786L44.3938 39.2511C43.7764 38.2191 42.6435 37.5706 41.414 37.5239C41.341 37.4321 41.2538 37.3485 41.147 37.2823C38.733 35.7851 35.9597 34.9939 33.1272 34.9939C25.9909 34.9939 19.7824 39.9666 18.0291 47.0867C17.9531 47.3945 18.0278 47.7187 18.2317 47.9665C18.4352 48.2146 18.7452 48.3594 19.0736 48.3594H31.0245C31.6173 48.3594 32.0977 47.8966 32.0977 47.3254C32.0977 46.7542 31.6173 46.2914 31.0245 46.2914H20.4937C22.3947 40.7959 27.4205 37.0619 33.1276 37.0619C35.1239 37.0619 37.0853 37.5301 38.8721 38.4115C38.5939 38.6522 38.3475 38.9305 38.1556 39.2507L33.0345 47.7948C32.3926 48.8652 32.3926 50.195 33.0345 51.2645C33.6758 52.3349 34.8714 53 36.1542 53H46.3977C46.4067 53 46.4196 53 46.4325 52.9996C48.4 52.9818 50 51.4262 50 49.5299C50 48.8718 49.8077 48.232 49.4445 47.6786ZM46.4102 50.932C46.4029 50.932 46.396 50.932 46.3883 50.9324H36.1538C35.6356 50.9324 35.1526 50.6636 34.8925 50.2305C34.6332 49.7987 34.6332 49.2619 34.8929 48.8292L40.0132 40.2851C40.2729 39.852 40.7563 39.5828 41.2745 39.5828C41.7926 39.5828 42.2752 39.8512 42.5345 40.2843L47.5972 48.7325C47.6062 48.7469 47.6148 48.7614 47.6242 48.7755C47.7741 48.9997 47.8531 49.2606 47.8531 49.5303C47.8535 50.2971 47.2061 50.9258 46.4102 50.932ZM41.2762 40.8348C40.6833 40.8348 40.2029 41.2976 40.2029 41.8688V46.6703C40.2029 47.2414 40.6833 47.7043 41.2762 47.7043C41.869 47.7043 42.3494 47.2414 42.3494 46.6703V41.8688C42.3494 41.298 41.869 40.8348 41.2762 40.8348ZM41.2762 48.2767C40.6833 48.2767 40.2029 48.7395 40.2029 49.3107V49.5013C40.2029 50.0725 40.6833 50.5354 41.2762 50.5354C41.869 50.5354 42.3494 50.0725 42.3494 49.5013V49.3107C42.3494 48.7395 41.869 48.2767 41.2762 48.2767Z" fill="white"/>
</svg>
