<svg width="68" height="68" viewBox="0 0 68 68" fill="none" xmlns="http://www.w3.org/2000/svg">
<circle cx="34" cy="34.0001" r="34" fill="#2828C2"/>
<path d="M32.0328 29.9267H40.7579C41.2547 29.9267 41.6579 29.5235 41.6579 29.0267C41.6579 28.5299 41.2547 28.1267 40.7579 28.1267H32.0328C31.536 28.1267 31.1328 28.5299 31.1328 29.0267C31.1328 29.5235 31.5354 29.9267 32.0328 29.9267Z" fill="white"/>
<path d="M25.8096 31.0156C25.9848 31.186 26.211 31.2712 26.4378 31.2712C26.6706 31.2712 26.9028 31.1812 27.0792 31.0024L30.5909 27.4355C30.9395 27.0815 30.9353 26.5115 30.5813 26.1629C30.2273 25.8143 29.6574 25.8185 29.3088 26.1725L26.4252 29.1011L24.8718 27.5861C24.516 27.2393 23.946 27.2465 23.5992 27.6023C23.2524 27.9581 23.2596 28.5281 23.6154 28.8749L25.8096 31.0156Z" fill="white"/>
<path d="M41.6579 36.5368C41.6579 36.04 41.2547 35.6368 40.7579 35.6368H32.0328C31.536 35.6368 31.1328 36.04 31.1328 36.5368C31.1328 37.0336 31.536 37.4368 32.0328 37.4368H40.7579C41.2553 37.4368 41.6579 37.0342 41.6579 36.5368Z" fill="white"/>
<path d="M25.8096 38.5253C25.9848 38.6957 26.211 38.7809 26.4378 38.7809C26.6706 38.7809 26.9028 38.6909 27.0792 38.5121L30.5909 34.9451C30.9395 34.5911 30.9353 34.0211 30.5813 33.6725C30.2273 33.3239 29.6574 33.3281 29.3088 33.6821L26.4252 36.6107L24.8718 35.0957C24.516 34.7489 23.946 34.7561 23.5992 35.1119C23.2524 35.4677 23.2596 36.0377 23.6154 36.3845L25.8096 38.5253Z" fill="white"/>
<path d="M29.3088 41.3026L26.4252 44.2312L24.8718 42.7162C24.516 42.3694 23.946 42.3766 23.5992 42.7324C23.2524 43.0882 23.2596 43.6582 23.6154 44.005L25.8102 46.1452C25.9854 46.3156 26.2116 46.4008 26.4384 46.4008C26.6712 46.4008 26.904 46.3108 27.0798 46.132L30.5915 42.565C30.9401 42.211 30.9359 41.641 30.5813 41.2924C30.2273 40.9438 29.6574 40.948 29.3088 41.3026Z" fill="white"/>
<path d="M32.4625 14.6851C31.9657 14.6851 31.5625 15.0883 31.5625 15.5851V17.3406C31.5625 17.8374 31.9657 18.2406 32.4625 18.2406C32.9593 18.2406 33.3625 17.8374 33.3625 17.3406V15.5851C33.3625 15.0883 32.9593 14.6851 32.4625 14.6851Z" fill="white"/>
<path d="M47.4838 40.7848C47.4868 40.756 47.488 40.7266 47.488 40.6966V20.7834C47.488 18.6534 45.7552 16.9206 43.6253 16.9206H40.2701V15.7884C40.2701 15.2916 39.8669 14.8884 39.3701 14.8884H35.7797C35.5037 13.3068 34.1201 12.1002 32.4605 12.1002C30.801 12.1002 29.418 13.3068 29.1414 14.8884H25.551C25.0542 14.8884 24.651 15.2916 24.651 15.7884V16.9206H21.7104C19.5804 16.9206 17.8477 18.6534 17.8477 20.7834V49.2009C17.8477 51.3309 19.5804 53.0637 21.7104 53.0637H34.5671C36.1961 54.8079 38.5139 55.8999 41.0825 55.8999C45.9988 55.8999 49.9984 51.9003 49.9984 46.984C49.9984 44.5768 49.0396 42.3904 47.4838 40.7848ZM26.4516 16.6884H30.0132C30.2718 16.6884 30.5184 16.5768 30.6894 16.3824C30.8604 16.188 30.939 15.9294 30.906 15.6726C30.897 15.6006 30.8922 15.534 30.8922 15.4686C30.8922 14.6034 31.596 13.8996 32.4611 13.8996C33.3263 13.8996 34.0301 14.6034 34.0301 15.4686C34.0301 15.5334 34.0253 15.6006 34.0163 15.6726C33.9833 15.9294 34.0625 16.1874 34.2329 16.3818C34.4033 16.5762 34.6499 16.6872 34.9085 16.6872H38.4701V20.7804H26.4516V16.6884ZM21.711 51.2637C20.5734 51.2637 19.6482 50.3385 19.6482 49.2009V20.7834C19.6482 19.6458 20.5734 18.7206 21.711 18.7206H24.6516V21.6815C24.6516 22.1783 25.0548 22.5815 25.5516 22.5815H39.3701C39.8669 22.5815 40.2701 22.1783 40.2701 21.6815V18.7206H43.6253C44.7629 18.7206 45.688 19.6458 45.688 20.7834V39.3526C44.3429 38.5378 42.7667 38.068 41.0825 38.068C36.1661 38.068 32.1665 42.0676 32.1665 46.984C32.1665 48.5337 32.5643 49.9929 33.2627 51.2637H21.711ZM41.0825 54.0999C37.1585 54.0999 33.9665 50.9079 33.9665 46.984C33.9665 43.06 37.1585 39.868 41.0825 39.868C45.0065 39.868 48.1984 43.06 48.1984 46.984C48.1984 50.9079 45.0065 54.0999 41.0825 54.0999Z" fill="white"/>
<path d="M46.8884 44.3127C46.5806 43.9227 46.0148 43.8555 45.6242 44.1633L38.9769 49.4073L37.1589 46.5057C36.8949 46.0845 36.3393 45.9567 35.9181 46.2213C35.4969 46.4853 35.3697 47.0409 35.6337 47.4621L37.9845 51.2133C38.1201 51.4299 38.3415 51.5787 38.5935 51.6219C38.6445 51.6309 38.6961 51.6351 38.7471 51.6351C38.9481 51.6351 39.1449 51.5679 39.3045 51.4419L46.739 45.5769C47.1296 45.2685 47.1962 44.7027 46.8884 44.3127Z" fill="white"/>
</svg>
