<svg width="68" height="68" viewBox="0 0 68 68" fill="none" xmlns="http://www.w3.org/2000/svg">
<circle cx="34" cy="34" r="34" fill="#2828C2"/>
<path d="M55.1173 17.5429L50.9786 13.7515C50.4756 13.2906 49.8222 13.0363 49.1402 13.0363C48.3788 13.0363 47.6471 13.3585 47.1329 13.9194C46.1625 14.9788 46.2012 16.5976 47.1752 17.6243L45.2186 19.7598C42.9927 18.1063 40.407 16.9127 37.6021 16.3181V13.1007C37.6021 11.1607 36.0235 9.58264 34.0841 9.58264H32.9533C31.0134 9.58264 29.4353 11.1607 29.4353 13.1007V16.3181C20.5462 18.2033 13.8555 26.1098 13.8555 35.5522C13.8555 46.3942 22.6762 55.2154 33.5187 55.2154C44.3607 55.2154 53.1819 46.3942 53.1819 35.5522C53.1819 31.2486 51.7883 27.2662 49.4337 24.0241L51.5893 21.6716C52.0697 22.054 52.6583 22.2721 53.2764 22.2721C54.0378 22.2721 54.7701 21.9505 55.2847 21.3891C56.2979 20.2825 56.223 18.5576 55.1173 17.5429ZM31.4451 13.0997C31.4451 12.2684 32.1215 11.5919 32.9528 11.5919H34.0836C34.9149 11.5919 35.5913 12.2684 35.5913 13.0997V15.998C34.9098 15.9261 34.2188 15.8879 33.5182 15.8879C32.8176 15.8879 32.1266 15.9261 31.4451 15.998V13.0997ZM33.5182 53.2046C23.7843 53.2046 15.8653 45.2855 15.8653 35.5517C15.8653 25.8178 23.7843 17.8987 33.5182 17.8987C43.2521 17.8987 51.1711 25.8178 51.1711 35.5517C51.1711 45.2855 43.2521 53.2046 33.5182 53.2046ZM46.7716 21.0398L48.6442 18.9969L50.0951 20.3262L48.1577 22.441C47.7184 21.9515 47.2566 21.4831 46.7716 21.0398ZM53.8026 20.0302C53.6664 20.1794 53.479 20.2613 53.2769 20.2613C53.099 20.2613 52.9281 20.195 52.797 20.0744L48.6593 16.2825C48.3698 16.0176 48.3502 15.5663 48.615 15.2768C48.7512 15.128 48.9382 15.0461 49.1402 15.0461C49.3181 15.0461 49.489 15.1125 49.6207 15.2331L53.7584 19.024C54.0479 19.2899 54.0675 19.7412 53.8026 20.0302Z" fill="white"/>
<path d="M49.1603 35.5452C49.1562 26.9225 42.1408 19.9091 33.5176 19.9091C24.8919 19.9091 17.875 26.926 17.875 35.5517C17.875 44.1749 24.8889 51.1903 33.5111 51.1943C33.5131 51.1943 33.5151 51.1948 33.5176 51.1948C33.5201 51.1948 33.5217 51.1943 33.5242 51.1943C42.1443 51.1903 49.1562 44.1784 49.1603 35.5582C49.1603 35.5562 49.1608 35.5542 49.1608 35.5517C49.1608 35.5492 49.1603 35.5472 49.1603 35.5452ZM34.5228 49.1428V46.4671C34.5228 45.9123 34.0725 45.462 33.5176 45.462C32.9628 45.462 32.5125 45.9123 32.5125 46.4671V49.1428C25.7961 48.6508 20.419 43.2732 19.9265 36.5568H22.6032C23.1581 36.5568 23.6084 36.1065 23.6084 35.5517C23.6084 34.9968 23.1581 34.5465 22.6032 34.5465H19.9265C20.419 27.8301 25.7961 22.4531 32.5125 21.9606V24.6368C32.5125 25.1916 32.9628 25.6419 33.5176 25.6419C34.0725 25.6419 34.5228 25.1916 34.5228 24.6368V21.9606C41.2392 22.4531 46.6162 27.8301 47.1088 34.5465H44.4336C43.8787 34.5465 43.4284 34.9968 43.4284 35.5517C43.4284 36.1065 43.8787 36.5568 44.4336 36.5568H47.1088C46.6167 43.2732 41.2397 48.6503 34.5228 49.1428Z" fill="white"/>
<path d="M38.4949 25.4153C37.9989 25.164 37.3948 25.3625 37.144 25.8571L34.0753 31.9121C33.8928 31.8839 33.7074 31.8653 33.5174 31.8653C31.4855 31.8653 29.832 33.5188 29.832 35.5512C29.832 37.5831 31.4855 39.2366 33.5174 39.2366C35.5498 39.2366 37.2033 37.5831 37.2033 35.5512C37.2033 34.43 36.6982 33.4253 35.9051 32.7489L38.9377 26.7662C39.1875 26.2712 38.9899 25.6661 38.4949 25.4153ZM33.5164 37.2268C32.5927 37.2268 31.8413 36.4755 31.8413 35.5517C31.8413 34.628 32.5927 33.8761 33.5164 33.8761C34.4401 33.8761 35.192 34.628 35.192 35.5517C35.192 36.4755 34.4406 37.2268 33.5164 37.2268Z" fill="white"/>
</svg>
