<svg width="68" height="68" viewBox="0 0 68 68" fill="none" xmlns="http://www.w3.org/2000/svg">
<circle cx="34" cy="34" r="34" fill="#2828C2"/>
<path d="M51.3666 43.5747H47.3233V40.2909C48.6054 40.1613 49.7936 39.5619 50.6576 38.6088C51.5216 37.6557 52 36.4168 52 35.1322C52 33.8476 51.5216 32.6087 50.6576 31.6556C49.7936 30.7025 48.6054 30.1031 47.3233 29.9735V20.3375C47.3233 17.3947 45.2579 15 42.7188 15H20.0685C17.8251 15 16 17.1106 16 19.7046V24.1505C15.9999 24.2194 16.0135 24.2876 16.0399 24.3512C16.0663 24.4148 16.105 24.4726 16.1538 24.5213C16.2026 24.57 16.2606 24.6086 16.3244 24.635C16.3882 24.6613 16.4566 24.6749 16.5256 24.6749L23.0841 24.6797V46.1425C23.0845 49.3742 25.359 52 28.1543 52H47.2897C49.8284 52 51.8942 49.6053 51.8942 46.6625V44.0991C51.8942 44.0301 51.8805 43.9618 51.854 43.8981C51.8275 43.8344 51.7886 43.7765 51.7396 43.7278C51.6906 43.6791 51.6324 43.6405 51.5684 43.6142C51.5044 43.5879 51.4358 43.5745 51.3666 43.5747ZM50.9467 35.1312C50.9467 35.9495 50.7033 36.7495 50.2472 37.4299C49.7911 38.1104 49.1429 38.6407 48.3844 38.9539C47.626 39.267 46.7914 39.349 45.9863 39.1893C45.1811 39.0297 44.4416 38.6356 43.8611 38.0569C43.2806 37.4783 42.8853 36.741 42.7251 35.9384C42.565 35.1358 42.6472 34.3038 42.9613 33.5478C43.2755 32.7917 43.8075 32.1455 44.4901 31.6909C45.1726 31.2362 45.9751 30.9935 46.796 30.9935C47.8966 30.9946 48.9517 31.4309 49.7299 32.2066C50.508 32.9823 50.9457 34.0341 50.9467 35.1312ZM17.0524 23.625V19.7046C17.0524 17.6887 18.4054 16.0487 20.0685 16.0487C21.6984 16.0487 23.051 17.6903 23.0845 19.7089V23.6294L17.0524 23.625ZM24.1365 46.1433V19.6966C24.1317 18.5009 23.7162 17.343 22.9592 16.4155C22.8507 16.2867 22.7347 16.1642 22.612 16.0487H42.7188C44.6776 16.0487 46.2708 17.9727 46.2708 20.3375V29.9735C45.3721 30.0658 44.513 30.3893 43.7775 30.9124C43.0421 31.4355 42.4557 32.1402 42.0758 32.9573H30.9664C30.8269 32.9573 30.6931 33.0126 30.5944 33.1109C30.4958 33.2093 30.4404 33.3426 30.4404 33.4817C30.4404 33.6208 30.4958 33.7541 30.5944 33.8525C30.6931 33.9508 30.8269 34.0061 30.9664 34.0061H41.7202C41.4639 35.149 41.6046 36.3449 42.1193 37.3977H30.9664C30.8961 37.3958 30.8262 37.4079 30.7607 37.4334C30.6952 37.4589 30.6355 37.4972 30.5851 37.546C30.5347 37.5949 30.4947 37.6533 30.4673 37.7179C30.44 37.7825 30.4259 37.8518 30.4259 37.9219C30.4259 37.992 30.44 38.0613 30.4673 38.1259C30.4947 38.1905 30.5347 38.2489 30.5851 38.2978C30.6355 38.3466 30.6952 38.3849 30.7607 38.4104C30.8262 38.4359 30.8961 38.448 30.9664 38.4461H42.8022C43.672 39.4893 44.9175 40.1509 46.2712 40.2889V43.5728H32.2579C32.1185 43.5729 31.9848 43.6281 31.8862 43.7265C31.7876 43.8248 31.7323 43.9581 31.7323 44.0971V46.6605C31.7323 49.0253 30.1271 50.9493 28.1543 50.9493C25.9377 50.9513 24.1365 48.7941 24.1365 46.1425V46.1433ZM50.8418 46.6625C50.8418 49.0273 49.2481 50.9513 47.2897 50.9513H30.9065C31.5089 50.4118 31.988 49.7498 32.3116 49.0099C32.6352 48.27 32.7958 47.4695 32.7823 46.6625V44.6235H50.8418V46.6625ZM25.8463 21.2228C25.8463 21.1539 25.8599 21.0858 25.8863 21.0222C25.9128 20.9586 25.9515 20.9008 26.0004 20.8521C26.0492 20.8035 26.1072 20.7649 26.171 20.7386C26.2349 20.7123 26.3033 20.6987 26.3723 20.6988H31.4852C31.6222 20.7026 31.7522 20.7594 31.8478 20.8573C31.9433 20.9552 31.9968 21.0864 31.9968 21.223C31.9968 21.3595 31.9433 21.4907 31.8478 21.5886C31.7522 21.6865 31.6222 21.7434 31.4852 21.7471H26.3723C26.2328 21.7471 26.099 21.6919 26.0004 21.5935C25.9017 21.4952 25.8463 21.3618 25.8463 21.2228ZM25.8463 23.3588C25.8464 23.2198 25.9019 23.0865 26.0005 22.9883C26.0991 22.89 26.2329 22.8348 26.3723 22.8348H36.6293C36.6995 22.8329 36.7695 22.845 36.835 22.8705C36.9005 22.896 36.9602 22.9343 37.0106 22.9832C37.0609 23.032 37.101 23.0905 37.1283 23.155C37.1557 23.2196 37.1698 23.2889 37.1698 23.359C37.1698 23.4291 37.1557 23.4985 37.1283 23.563C37.101 23.6276 37.0609 23.686 37.0106 23.7349C36.9602 23.7837 36.9005 23.822 36.835 23.8475C36.7695 23.873 36.6995 23.8851 36.6293 23.8832H26.3723C26.2328 23.8832 26.099 23.8279 26.0004 23.7296C25.9017 23.6313 25.8463 23.4979 25.8463 23.3588ZM25.8463 25.4949C25.8464 25.3559 25.9019 25.2226 26.0005 25.1243C26.0991 25.0261 26.2329 24.9709 26.3723 24.9709H39.7634C39.9004 24.9747 40.0305 25.0315 40.126 25.1294C40.2215 25.2273 40.275 25.3585 40.275 25.4951C40.275 25.6316 40.2215 25.7628 40.126 25.8607C40.0305 25.9586 39.9004 26.0155 39.7634 26.0192H26.3723C26.2328 26.0192 26.099 25.964 26.0004 25.8657C25.9017 25.7673 25.8463 25.6339 25.8463 25.4949ZM30.9664 28.5189H44.0354C44.175 28.5189 44.3088 28.5742 44.4074 28.6725C44.506 28.7708 44.5615 28.9042 44.5615 29.0433C44.5615 29.1824 44.506 29.3157 44.4074 29.4141C44.3088 29.5124 44.175 29.5677 44.0354 29.5677H30.9664C30.8269 29.5677 30.6931 29.5124 30.5944 29.4141C30.4958 29.3157 30.4404 29.1824 30.4404 29.0433C30.4404 28.9042 30.4958 28.7708 30.5944 28.6725C30.6931 28.5742 30.8269 28.5189 30.9664 28.5189ZM27.4898 27.4344C27.1707 27.4345 26.8587 27.529 26.5934 27.7059C26.3281 27.8827 26.1214 28.134 25.9993 28.428C25.8773 28.7219 25.8454 29.0453 25.9077 29.3574C25.97 29.6694 26.1237 29.956 26.3493 30.181C26.575 30.4059 26.8625 30.5591 27.1755 30.6212C27.4885 30.6833 27.813 30.6516 28.1079 30.5299C28.4028 30.4082 28.6548 30.2021 28.8322 29.9376C29.0096 29.6732 29.1044 29.3622 29.1046 29.0441C29.1044 28.6174 28.9343 28.2082 28.6317 27.9064C28.3291 27.6046 27.9187 27.4348 27.4906 27.4344H27.4898ZM27.4898 29.6039C27.3786 29.6037 27.2699 29.5707 27.1775 29.5089C27.0851 29.4472 27.0132 29.3596 26.9708 29.2571C26.9283 29.1546 26.9174 29.0419 26.9392 28.9331C26.9611 28.8244 27.0148 28.7246 27.0935 28.6463C27.1723 28.5681 27.2726 28.5148 27.3817 28.4933C27.4908 28.4719 27.6038 28.4831 27.7065 28.5257C27.8092 28.5683 27.8969 28.6402 27.9586 28.7325C28.0203 28.8248 28.0531 28.9332 28.0529 29.0441C28.0526 29.1926 27.9932 29.3349 27.8878 29.4398C27.7824 29.5448 27.6396 29.6038 27.4906 29.6039H27.4898ZM27.4898 31.8748C27.1706 31.8748 26.8585 31.9691 26.5931 32.1459C26.3277 32.3227 26.1208 32.574 25.9987 32.868C25.8765 33.162 25.8446 33.4855 25.9068 33.7976C25.9691 34.1097 26.1228 34.3963 26.3485 34.6214C26.5743 34.8464 26.8618 34.9996 27.1749 35.0617C27.488 35.1238 27.8125 35.0919 28.1074 34.9701C28.4024 34.8483 28.6544 34.6421 28.8318 34.3775C29.0091 34.113 29.1038 33.8019 29.1038 33.4837C29.1034 33.0572 28.9333 32.6484 28.6309 32.3468C28.3285 32.0452 27.9184 31.8754 27.4906 31.8748H27.4898ZM27.4898 34.0439C27.3786 34.0437 27.2699 34.0107 27.1776 33.949C27.0852 33.8873 27.0132 33.7996 26.9708 33.6972C26.9284 33.5947 26.9174 33.482 26.9392 33.3733C26.961 33.2646 27.0147 33.1648 27.0934 33.0865C27.1721 33.0082 27.2723 32.9549 27.3814 32.9334C27.4905 32.9119 27.6036 32.9231 27.7063 32.9656C27.809 33.0081 27.8967 33.08 27.9584 33.1722C28.0201 33.2644 28.053 33.3728 28.0529 33.4837C28.0528 33.6323 27.9935 33.7748 27.8881 33.8798C27.7826 33.9849 27.6397 34.0439 27.4906 34.0439H27.4898ZM27.4898 36.3148C27.1705 36.3147 26.8583 36.409 26.5928 36.5858C26.3273 36.7626 26.1203 37.0139 25.998 37.308C25.8758 37.602 25.8438 37.9256 25.906 38.2378C25.9682 38.55 26.122 38.8368 26.3477 39.0619C26.5735 39.287 26.8611 39.4403 27.1743 39.5024C27.4875 39.5646 27.8121 39.5327 28.1071 39.4109C28.4021 39.2891 28.6543 39.0829 28.8317 38.8182C29.0091 38.5536 29.1038 38.2424 29.1038 37.9241C29.1034 37.4976 28.9333 37.0887 28.6309 36.787C28.3285 36.4853 27.9184 36.3155 27.4906 36.3148H27.4898ZM27.4898 38.4843C27.3786 38.4841 27.2699 38.4511 27.1776 38.3894C27.0852 38.3277 27.0132 38.24 26.9708 38.1376C26.9284 38.0351 26.9174 37.9224 26.9392 37.8137C26.961 37.705 27.0147 37.6052 27.0934 37.5269C27.1721 37.4486 27.2723 37.3953 27.3814 37.3738C27.4905 37.3523 27.6036 37.3635 27.7063 37.406C27.809 37.4485 27.8967 37.5204 27.9584 37.6126C28.0201 37.7048 28.053 37.8132 28.0529 37.9241C28.0528 38.0727 27.9935 38.2152 27.8881 38.3202C27.7826 38.4253 27.6397 38.4843 27.4906 38.4843H27.4898ZM30.4404 42.3641C30.4404 42.225 30.4958 42.0916 30.5944 41.9933C30.6931 41.895 30.8269 41.8397 30.9664 41.8397H44.0354C44.1045 41.8397 44.1729 41.8533 44.2367 41.8796C44.3006 41.906 44.3586 41.9446 44.4074 41.9933C44.4562 42.042 44.495 42.0998 44.5214 42.1634C44.5479 42.227 44.5615 42.2952 44.5615 42.3641C44.5615 42.4329 44.5479 42.5011 44.5214 42.5648C44.495 42.6284 44.4562 42.6862 44.4074 42.7349C44.3586 42.7836 44.3006 42.8222 44.2367 42.8485C44.1729 42.8749 44.1045 42.8885 44.0354 42.8885H30.9664C30.827 42.8882 30.6934 42.8329 30.595 42.7346C30.4965 42.6363 30.4412 42.503 30.4412 42.3641H30.4404ZM27.4898 40.7552C27.1706 40.7552 26.8585 40.8495 26.5931 41.0263C26.3277 41.2031 26.1208 41.4544 25.9987 41.7484C25.8765 42.0424 25.8446 42.3659 25.9068 42.678C25.9691 42.9901 26.1228 43.2767 26.3485 43.5018C26.5743 43.7268 26.8618 43.88 27.1749 43.9421C27.488 44.0042 27.8125 43.9723 28.1074 43.8505C28.4024 43.7287 28.6544 43.5225 28.8318 43.2579C29.0091 42.9934 29.1038 42.6823 29.1038 42.3641C29.1034 41.9376 28.9333 41.5288 28.6309 41.2272C28.3285 40.9256 27.9184 40.7558 27.4906 40.7552H27.4898ZM27.4898 42.9247C27.3786 42.9245 27.27 42.8915 27.1776 42.8298C27.0852 42.7681 27.0133 42.6805 26.9708 42.5781C26.9284 42.4756 26.9174 42.3629 26.9392 42.2542C26.961 42.1455 27.0146 42.0457 27.0932 41.9674C27.1719 41.8891 27.2721 41.8358 27.3812 41.8142C27.4902 41.7927 27.6033 41.8038 27.706 41.8463C27.8087 41.8887 27.8965 41.9606 27.9582 42.0527C28.02 42.1449 28.0529 42.2533 28.0529 42.3641C28.0528 42.5127 27.9935 42.6553 27.8881 42.7604C27.7827 42.8655 27.6397 42.9246 27.4906 42.9247H27.4898ZM46.0984 35.8537L48.6467 33.2983C48.745 33.1996 48.8786 33.144 49.0182 33.1435C49.1577 33.1431 49.2917 33.1979 49.3906 33.2959C49.4896 33.3939 49.5454 33.5271 49.5459 33.6662C49.5463 33.8053 49.4913 33.9388 49.393 34.0375L46.4736 36.9657C46.4248 37.0147 46.3668 37.0536 46.3029 37.0802C46.239 37.1068 46.1705 37.1204 46.1012 37.1204C45.9618 37.1204 45.8282 37.0651 45.7296 36.9669L44.2039 35.4495C44.1052 35.3511 44.0498 35.2177 44.0498 35.0787C44.0498 34.9396 44.1052 34.8062 44.2039 34.7079C44.3025 34.6095 44.4363 34.5543 44.5758 34.5543C44.7153 34.5543 44.8491 34.6095 44.9478 34.7079L46.0984 35.8537Z" fill="white"/>
</svg>
