<svg width="68" height="68" viewBox="0 0 68 68" fill="none" xmlns="http://www.w3.org/2000/svg">
<circle cx="34" cy="34" r="34" fill="#2828C2"/>
<path d="M46.4922 33.8703L45.5354 33.0012L52.6205 25.2002C52.9524 24.8347 52.8875 24.2787 52.5154 23.9407L42.1893 14.5623C41.8239 14.2304 41.2575 14.2131 40.9256 14.5786L33.8405 22.3796L32.8836 21.5106C32.5182 21.1787 31.9741 21.2303 31.6362 21.6024L17.3151 37.3706C14.9856 39.9355 15.1747 43.8662 17.7396 46.1957L23.3678 51.3074C25.9327 53.6369 29.8634 53.4478 32.1929 50.8829L46.514 35.1147C46.8586 34.7486 46.8577 34.2022 46.4922 33.8703ZM41.6269 16.4767L50.6639 24.6843L44.2064 31.7942L35.1694 23.5866L41.6269 16.4767ZM44.5942 34.5716L35.7227 44.3395L23.4962 33.2351L32.3677 23.4672L44.5942 34.5716ZM34.5157 45.6685L32.1017 48.3264L19.8753 37.222L22.2892 34.5641L34.5157 45.6685ZM24.5814 49.9844L18.9532 44.8728C17.1193 43.2071 16.9585 40.3934 18.6483 38.5329L30.9213 49.6795C29.2315 51.5401 26.4087 51.6441 24.5814 49.9844Z" fill="white"/>
<path d="M42.4614 20.4973C42.0959 20.1654 41.5253 20.1928 41.1934 20.5583L39.745 22.153C39.4131 22.5185 39.4405 23.0891 39.806 23.421C40.1714 23.7529 40.742 23.7255 41.0739 23.36L42.5223 21.7653C42.8543 21.3998 42.8268 20.8292 42.4614 20.4973Z" fill="white"/>
<path d="M46.5825 24.2386C46.217 23.9067 45.6464 23.9341 45.3145 24.2996L43.8661 25.8944C43.5341 26.2598 43.5616 26.8304 43.9271 27.1624C44.2925 27.4943 44.8631 27.4668 45.195 27.1014L46.6434 25.5066C46.9754 25.1411 46.9479 24.5706 46.5825 24.2386Z" fill="white"/>
</svg>
