<svg width="444" height="331" viewBox="0 0 444 331" fill="none" xmlns="http://www.w3.org/2000/svg">
<path d="M443.135 290.165H0V290.386H443.135V290.165Z" fill="#EBEBEB"/>
<path d="M295.863 297.848H266.51V298.07H295.863V297.848Z" fill="#EBEBEB"/>
<path d="M357.956 305.01H350.254V305.231H357.956V305.01Z" fill="#EBEBEB"/>
<path d="M314.431 301.686H297.424V301.908H314.431V301.686Z" fill="#EBEBEB"/>
<path d="M84.7721 297.689H46.4941V297.911H84.7721V297.689Z" fill="#EBEBEB"/>
<path d="M222.454 297.689H216.844V297.911H222.454V297.689Z" fill="#EBEBEB"/>
<path d="M165.733 301.544H125.576V301.766H165.733V301.544Z" fill="#EBEBEB"/>
<path d="M210.047 250.637H38.917C37.5764 250.635 36.2914 250.1 35.3443 249.152C34.3972 248.203 33.8652 246.917 33.8652 245.576V5.01628C33.8769 3.68336 34.414 2.40886 35.3599 1.46963C36.3057 0.530395 37.584 0.00228337 38.917 0H210.047C211.389 0 212.676 0.533169 213.625 1.48221C214.574 2.43126 215.107 3.71844 215.107 5.0606V245.576C215.107 246.918 214.574 248.206 213.625 249.155C212.676 250.104 211.389 250.637 210.047 250.637ZM38.917 0.177255C37.6351 0.179602 36.4066 0.690461 35.501 1.5977C34.5954 2.50494 34.0868 3.73443 34.0868 5.01628V245.576C34.0868 246.858 34.5954 248.088 35.501 248.995C36.4066 249.902 37.6351 250.413 38.917 250.415H210.047C211.329 250.413 212.559 249.902 213.466 248.995C214.373 248.088 214.883 246.859 214.886 245.576V5.01628C214.883 3.73361 214.373 2.50415 213.466 1.59716C212.559 0.690174 211.329 0.179597 210.047 0.177255H38.917Z" fill="#EBEBEB"/>
<path d="M401.754 250.637H230.615C229.274 250.635 227.988 250.101 227.04 249.152C226.091 248.204 225.557 246.918 225.555 245.576V5.01628C225.569 3.68255 226.108 2.40806 227.055 1.46907C228.002 0.530085 229.281 0.00225847 230.615 0H401.754C403.085 0.00461258 404.361 0.533755 405.305 1.47274C406.249 2.41172 406.785 3.68489 406.797 5.01628V245.576C406.797 246.915 406.266 248.2 405.321 249.148C404.376 250.097 403.093 250.632 401.754 250.637ZM230.615 0.177255C229.333 0.179597 228.103 0.690174 227.196 1.59716C226.289 2.50415 225.779 3.73361 225.776 5.01628V245.576C225.779 246.859 226.289 248.088 227.196 248.995C228.103 249.902 229.333 250.413 230.615 250.415H401.754C403.037 250.413 404.266 249.902 405.173 248.995C406.08 248.088 406.591 246.859 406.593 245.576V5.01628C406.591 3.73361 406.08 2.50415 405.173 1.59716C404.266 0.690174 403.037 0.179597 401.754 0.177255H230.615Z" fill="#EBEBEB"/>
<path d="M190.389 27.9707H64.8398V169.41H190.389V27.9707Z" fill="#EBEBEB"/>
<path d="M183.75 35.4507H71.4863V161.93H183.75V35.4507Z" fill="#FAFAFA"/>
<path d="M110.385 161.93H91.4102L109.277 35.4507H128.252L110.385 161.93Z" fill="white"/>
<path d="M149.195 161.93H139.703L157.57 35.4507H167.062L149.195 161.93Z" fill="white"/>
<path d="M132.089 35.4507H123.146V161.93H132.089V35.4507Z" fill="#EBEBEB"/>
<path d="M132.09 161.93H134.084L134.084 35.4507H132.09L132.09 161.93Z" fill="#E0E0E0"/>
<path d="M190.388 169.41H191.814L191.814 27.9707H190.388L190.388 169.41Z" fill="#E0E0E0"/>
<path d="M70.7871 183.848H65.0884C59.2147 183.848 54.4531 188.609 54.4531 194.483V267.547C54.4531 273.421 59.2147 278.182 65.0884 278.182H70.7871C76.6607 278.182 81.4223 273.421 81.4223 267.547V194.483C81.4223 188.609 76.6607 183.848 70.7871 183.848Z" fill="#F5F5F5"/>
<path d="M76.5479 187.003H74.7842C70.237 187.003 66.5508 190.689 66.5508 195.236V266.802C66.5508 271.35 70.237 275.036 74.7842 275.036H76.5479C81.0951 275.036 84.7813 271.35 84.7813 266.802V195.236C84.7813 190.689 81.0951 187.003 76.5479 187.003Z" fill="#EBEBEB"/>
<path d="M90.3808 183.848H84.6821C78.8084 183.848 74.0469 188.609 74.0469 194.483V267.547C74.0469 273.421 78.8084 278.182 84.6821 278.182H90.3808C96.2545 278.182 101.016 273.421 101.016 267.547V194.483C101.016 188.609 96.2545 183.848 90.3808 183.848Z" fill="#F5F5F5"/>
<path d="M96.125 187.003H94.3702C89.823 187.003 86.1367 190.689 86.1367 195.236V266.802C86.1367 271.35 89.823 275.036 94.3702 275.036H96.125C100.672 275.036 104.358 271.35 104.358 266.802V195.236C104.358 190.689 100.672 187.003 96.125 187.003Z" fill="#EBEBEB"/>
<path d="M109.969 183.848H104.27C98.3963 183.848 93.6348 188.609 93.6348 194.483V267.547C93.6348 273.421 98.3963 278.182 104.27 278.182H109.969C115.842 278.182 120.604 273.421 120.604 267.547V194.483C120.604 188.609 115.842 183.848 109.969 183.848Z" fill="#F5F5F5"/>
<path d="M115.711 187.003H113.956C109.409 187.003 105.723 190.689 105.723 195.236V266.802C105.723 271.35 109.409 275.036 113.956 275.036H115.711C120.258 275.036 123.944 271.35 123.944 266.802V195.236C123.944 190.689 120.258 187.003 115.711 187.003Z" fill="#EBEBEB"/>
<path d="M129.555 183.848H123.856C117.982 183.848 113.221 188.609 113.221 194.483V267.547C113.221 273.421 117.982 278.182 123.856 278.182H129.555C135.428 278.182 140.19 273.421 140.19 267.547V194.483C140.19 188.609 135.428 183.848 129.555 183.848Z" fill="#F5F5F5"/>
<path d="M135.299 187.003H133.544C128.997 187.003 125.311 190.689 125.311 195.236V266.802C125.311 271.35 128.997 275.036 133.544 275.036H135.299C139.846 275.036 143.532 271.35 143.532 266.802V195.236C143.532 190.689 139.846 187.003 135.299 187.003Z" fill="#EBEBEB"/>
<path d="M149.141 183.848H143.442C137.568 183.848 132.807 188.609 132.807 194.483V267.547C132.807 273.421 137.568 278.182 143.442 278.182H149.141C155.014 278.182 159.776 273.421 159.776 267.547V194.483C159.776 188.609 155.014 183.848 149.141 183.848Z" fill="#F5F5F5"/>
<path d="M154.901 187.003H153.138C148.591 187.003 144.904 190.689 144.904 195.236V266.802C144.904 271.35 148.591 275.036 153.138 275.036H154.901C159.449 275.036 163.135 271.35 163.135 266.802V195.236C163.135 190.689 159.449 187.003 154.901 187.003Z" fill="#EBEBEB"/>
<path d="M168.736 183.848H163.038C157.164 183.848 152.402 188.609 152.402 194.483V267.547C152.402 273.421 157.164 278.182 163.038 278.182H168.736C174.61 278.182 179.372 273.421 179.372 267.547V194.483C179.372 188.609 174.61 183.848 168.736 183.848Z" fill="#F5F5F5"/>
<path d="M174.489 187.003H172.726C168.178 187.003 164.492 190.689 164.492 195.236V266.802C164.492 271.35 168.178 275.036 172.726 275.036H174.489C179.037 275.036 182.723 271.35 182.723 266.802V195.236C182.723 190.689 179.037 187.003 174.489 187.003Z" fill="#EBEBEB"/>
<path d="M188.324 183.848H182.625C176.752 183.848 171.99 188.609 171.99 194.483V267.547C171.99 273.421 176.752 278.182 182.625 278.182H188.324C194.198 278.182 198.959 273.421 198.959 267.547V194.483C198.959 188.609 194.198 183.848 188.324 183.848Z" fill="#F5F5F5"/>
<path d="M200.766 267.706H177.298C176.828 267.706 176.377 267.52 176.045 267.187C175.712 266.855 175.525 266.404 175.525 265.934C175.525 265.464 175.712 265.013 176.045 264.681C176.377 264.348 176.828 264.161 177.298 264.161H200.766C201.236 264.161 201.687 264.348 202.02 264.681C202.352 265.013 202.539 265.464 202.539 265.934C202.539 266.404 202.352 266.855 202.02 267.187C201.687 267.52 201.236 267.706 200.766 267.706Z" fill="#F5F5F5"/>
<path d="M200.766 200.199H177.298C176.828 200.199 176.377 200.013 176.045 199.68C175.712 199.348 175.525 198.897 175.525 198.427C175.525 197.957 175.712 197.506 176.045 197.173C176.377 196.841 176.828 196.654 177.298 196.654H200.766C201.236 196.654 201.687 196.841 202.02 197.173C202.352 197.506 202.539 197.957 202.539 198.427C202.539 198.897 202.352 199.348 202.02 199.68C201.687 200.013 201.236 200.199 200.766 200.199Z" fill="#F5F5F5"/>
<path d="M392.077 132.745H321.176L327.459 74.4465H385.794L392.077 132.745Z" fill="#EBEBEB"/>
<path d="M376.513 132.745H364.327L361.748 74.4465H372.995L376.513 132.745Z" fill="#F5F5F5"/>
<path d="M360.17 132.745H353.08V290.164H360.17V132.745Z" fill="#F0F0F0"/>
<path d="M360.109 191.806H353.143C351.41 191.806 350.006 193.211 350.006 194.944V201.91C350.006 203.643 351.41 205.047 353.143 205.047H360.109C361.842 205.047 363.247 203.643 363.247 201.91V194.944C363.247 193.211 361.842 191.806 360.109 191.806Z" fill="#F0F0F0"/>
<path d="M367.846 290.165H345.396C345.396 288.895 345.901 287.678 346.798 286.78C347.696 285.883 348.913 285.379 350.182 285.379H363.069C363.697 285.379 364.319 285.503 364.899 285.743C365.479 285.984 366.006 286.336 366.45 286.781C366.893 287.225 367.245 287.753 367.485 288.334C367.724 288.914 367.847 289.536 367.846 290.165Z" fill="#F0F0F0"/>
<path d="M360.17 132.745H353.08V137.079H360.17V132.745Z" fill="#E0E0E0"/>
<path d="M300.365 37.8171H246.799V157.561H300.365V37.8171Z" fill="#F0F0F0"/>
<path d="M300.366 157.552H302.139V37.8082H300.366V157.552Z" fill="#E0E0E0"/>
<path d="M291.316 44.3135H255.865V151.056H291.316V44.3135Z" fill="#FAFAFA"/>
<path d="M279.849 96.6033C280.061 97.8423 279.9 99.1164 279.388 100.264C278.875 101.412 278.034 102.382 276.97 103.052C275.907 103.722 274.668 104.061 273.411 104.026C272.155 103.992 270.937 103.586 269.911 102.859C268.885 102.132 268.098 101.118 267.649 99.9436C267.201 98.7694 267.11 97.4885 267.389 96.2629C267.668 95.0373 268.305 93.9219 269.218 93.0581C270.131 92.1942 271.28 91.6206 272.519 91.4097C274.179 91.1296 275.883 91.519 277.257 92.4924C278.631 93.4658 279.563 94.9441 279.849 96.6033Z" fill="#F0F0F0"/>
<path d="M275.629 71.8587C275.84 73.0978 275.678 74.3713 275.164 75.5182C274.65 76.6652 273.808 77.6341 272.744 78.3025C271.68 78.9708 270.441 79.3086 269.185 79.2731C267.929 79.2376 266.711 78.8304 265.686 78.103C264.661 77.3756 263.875 76.3606 263.427 75.1865C262.979 74.0123 262.889 72.7317 263.169 71.5065C263.449 70.2813 264.086 69.1666 264.999 68.3033C265.912 67.44 267.061 66.8668 268.3 66.6563C269.123 66.5153 269.966 66.5381 270.78 66.7234C271.594 66.9087 272.364 67.2529 273.045 67.7362C273.725 68.2195 274.304 68.8324 274.748 69.5398C275.191 70.2473 275.491 71.0353 275.629 71.8587Z" fill="#F0F0F0"/>
<path d="M284.059 121.419C284.269 122.658 284.107 123.932 283.594 125.08C283.08 126.227 282.237 127.196 281.173 127.865C280.108 128.533 278.869 128.871 277.612 128.835C276.355 128.799 275.138 128.391 274.113 127.663C273.088 126.934 272.302 125.918 271.855 124.744C271.408 123.569 271.319 122.287 271.6 121.062C271.881 119.837 272.52 118.722 273.434 117.86C274.349 116.997 275.499 116.425 276.738 116.217C277.561 116.076 278.403 116.098 279.217 116.284C280.03 116.469 280.799 116.814 281.479 117.297C282.16 117.78 282.738 118.393 283.18 119.101C283.623 119.808 283.921 120.596 284.059 121.419Z" fill="#F0F0F0"/>
<path d="M221.567 330.188C316.471 330.188 393.406 325.697 393.406 320.156C393.406 314.615 316.471 310.123 221.567 310.123C126.663 310.123 49.7285 314.615 49.7285 320.156C49.7285 325.697 126.663 330.188 221.567 330.188Z" fill="#F5F5F5"/>
<path d="M269.523 91.0022C269.762 90.3386 270.194 89.7616 270.763 89.3449C270.564 88.9676 270.445 88.5529 270.415 88.1272C270.384 87.7015 270.443 87.2741 270.586 86.8722C270.725 86.485 270.939 86.129 271.216 85.8248C271.493 85.5206 271.827 85.2742 272.199 85.0997C271.856 84.6908 271.642 84.1896 271.583 83.6591C271.524 83.1286 271.624 82.5926 271.87 82.1187C272.115 81.6448 272.495 81.2542 272.963 80.9961C273.43 80.738 273.963 80.6239 274.495 80.6683C274.472 80.37 274.502 80.0699 274.583 79.782C274.78 79.146 275.217 78.6113 275.8 78.2906C276.384 77.9699 277.069 77.8882 277.712 78.0627C277.499 77.5413 277.47 76.9627 277.632 76.4231C277.829 75.7777 278.273 75.2364 278.867 74.9176C279.462 74.5987 280.158 74.5282 280.805 74.7214H280.902C280.904 74.4848 280.936 74.2493 281 74.0213C281.197 73.3756 281.64 72.8337 282.234 72.5134C282.829 72.1931 283.525 72.1203 284.173 72.3108C284.358 72.3723 284.536 72.4525 284.704 72.5501C284.658 72.0732 284.769 71.5943 285.02 71.1863C285.272 70.7783 285.649 70.4636 286.096 70.29C286.542 70.1164 287.033 70.0934 287.494 70.2246C287.955 70.3558 288.36 70.634 288.648 71.0168C288.806 70.6235 289.073 70.284 289.419 70.0392C289.765 69.7944 290.174 69.6547 290.597 69.6369C291.02 69.6192 291.439 69.724 291.804 69.939C292.169 70.1539 292.465 70.4697 292.654 70.8484C292.831 70.7123 293.037 70.621 293.257 70.5826C293.453 70.5441 293.654 70.5448 293.849 70.5847C294.045 70.6246 294.23 70.7029 294.395 70.815C294.56 70.9271 294.701 71.0708 294.81 71.2378C294.919 71.4048 294.993 71.5918 295.029 71.7879C295.047 71.9084 295.047 72.0308 295.029 72.1513C295.344 71.849 295.737 71.6402 296.164 71.548C296.59 71.4558 297.034 71.4838 297.446 71.629C297.857 71.7742 298.221 72.0308 298.495 72.3702C298.77 72.7097 298.944 73.1186 299 73.5516L299.177 73.5073C299.892 73.4191 300.613 73.6161 301.184 74.0557C301.754 74.4954 302.129 75.1421 302.226 75.8559C302.262 76.1057 302.262 76.3594 302.226 76.6092C302.264 76.6042 302.303 76.6042 302.341 76.6092C303.057 76.5186 303.779 76.7148 304.35 77.1548C304.921 77.5949 305.295 78.243 305.39 78.9578C305.465 79.5526 305.337 80.1554 305.027 80.6683C305.734 80.5925 306.444 80.7953 307.005 81.2337C307.566 81.6722 307.934 82.3117 308.031 83.0169C308.112 83.6567 307.961 84.3043 307.606 84.8426C308.17 84.9088 308.7 85.1507 309.12 85.5343C309.539 85.9178 309.828 86.4236 309.945 86.9801C310.061 87.5366 310 88.1157 309.769 88.6354C309.539 89.1552 309.151 89.5894 308.66 89.8766C309.036 90.1216 309.344 90.4576 309.554 90.8535C309.765 91.2493 309.873 91.692 309.866 92.1404C309.86 92.5889 309.741 93.0284 309.519 93.4183C309.297 93.8081 308.981 94.1355 308.598 94.37C309.112 94.7998 309.444 95.4075 309.529 96.0717C309.62 96.7857 309.425 97.5066 308.986 98.0776C308.548 98.6485 307.902 99.0233 307.189 99.1204C306.571 99.1943 305.946 99.0568 305.417 98.7305C305.313 99.219 305.076 99.6693 304.733 100.032C304.389 100.395 303.953 100.655 303.471 100.785C302.988 100.916 302.48 100.91 302.001 100.77C301.521 100.629 301.09 100.359 300.755 99.989C300.611 100.494 300.324 100.946 299.928 101.291C299.532 101.636 299.045 101.858 298.525 101.932C298.005 102.005 297.475 101.925 296.999 101.703C296.523 101.481 296.122 101.126 295.845 100.68C295.407 101.229 294.77 101.583 294.072 101.664C293.684 101.717 293.289 101.683 292.915 101.565C292.541 101.447 292.198 101.248 291.91 100.982C291.694 101.636 291.236 102.183 290.631 102.513C290.026 102.842 289.318 102.929 288.651 102.755C287.984 102.581 287.409 102.16 287.041 101.577C286.673 100.994 286.541 100.293 286.672 99.6167C286.353 99.8398 285.99 99.9915 285.608 100.061C285.225 100.131 284.832 100.118 284.455 100.022C284.078 99.9261 283.726 99.75 283.424 99.5057C283.121 99.2614 282.875 98.9546 282.701 98.6064C282.34 98.9798 281.879 99.2411 281.372 99.359C280.866 99.4769 280.337 99.4463 279.848 99.2711C279.354 99.0864 278.924 98.7632 278.61 98.3403C278.296 97.9174 278.11 97.4128 278.075 96.887C277.732 97.147 277.33 97.3196 276.906 97.39C276.481 97.4605 276.045 97.4267 275.636 97.2916C275.227 97.1564 274.857 96.924 274.558 96.6142C274.259 96.3045 274.039 95.9267 273.919 95.5133C273.289 95.7072 272.618 95.7218 271.98 95.5555C271.343 95.3892 270.764 95.0486 270.31 94.5719C269.855 94.0951 269.542 93.5011 269.406 92.8565C269.27 92.2119 269.317 91.5421 269.54 90.9224L269.523 91.0022Z" fill="#263238"/>
<path d="M276.515 119.487C276.515 120.675 276.515 121.712 276.418 122.81C276.32 123.909 276.276 124.964 276.178 126.045C275.983 128.19 275.664 130.326 275.292 132.453C274.583 136.75 273.468 140.97 271.96 145.056L271.676 145.827C271.57 146.102 271.525 146.261 271.286 146.793C270.845 147.76 270.165 148.599 269.31 149.23C268.521 149.811 267.613 150.208 266.651 150.391C265.891 150.548 265.113 150.605 264.338 150.56C261.921 150.349 259.56 149.716 257.363 148.69C253.417 146.889 249.691 144.64 246.258 141.989L248.19 138.941C249.962 139.827 251.868 140.669 253.72 141.44C255.541 142.224 257.405 142.905 259.304 143.478C260.95 144.043 262.677 144.342 264.417 144.365C265.1 144.365 265.481 144.099 265.366 144.108C265.251 144.116 265.277 144.178 265.277 144.108L265.641 142.902C266.757 139.101 267.598 135.223 268.158 131.301C268.441 129.325 268.645 127.339 268.831 125.354C269.017 123.369 269.132 121.313 269.194 119.469L276.515 119.487Z" fill="#FFB573"/>
<path d="M270.951 111.147C268.079 112.104 266.9 124.308 266.9 124.308L275.373 129.209C275.373 129.209 282.224 116.491 279.742 113.434C277.261 110.376 275.143 109.747 270.951 111.147Z" fill="#407BFF"/>
<path opacity="0.7" d="M270.951 111.147C268.079 112.104 266.9 124.308 266.9 124.308L275.373 129.209C275.373 129.209 282.224 116.491 279.742 113.434C277.261 110.376 275.143 109.747 270.951 111.147Z" fill="black"/>
<path opacity="0.2" d="M271.412 113.824L270.047 126.134L274.806 128.881L271.412 113.824Z" fill="black"/>
<path d="M249.466 139.339L244.609 132.852L242.65 139.827C242.65 139.827 245.921 143.035 248.748 142.149L249.466 139.339Z" fill="#FFB573"/>
<path d="M239.815 130.636L237.307 136.175L242.669 139.827L244.627 132.852L239.815 130.636Z" fill="#FFB573"/>
<path d="M297.592 312.88H290.466L288.809 296.377H295.934L297.592 312.88Z" fill="#FFB573"/>
<path d="M354.605 283.03L348.623 286.903L337.73 274.309L343.704 270.427L354.605 283.03Z" fill="#FFB573"/>
<path d="M347.222 286.168L353.222 280.85C353.325 280.758 353.457 280.708 353.594 280.708C353.732 280.708 353.864 280.758 353.967 280.85L358.841 284.998C358.962 285.104 359.059 285.235 359.125 285.382C359.191 285.528 359.225 285.688 359.225 285.848C359.225 286.009 359.191 286.169 359.125 286.315C359.059 286.462 358.962 286.593 358.841 286.699C356.723 288.516 355.606 289.278 352.965 291.609C351.343 293.045 349.119 295.305 346.885 297.29C344.652 299.275 342.56 297.157 343.34 296.138C346.726 291.538 346.292 289.713 346.655 287.275C346.709 286.851 346.91 286.459 347.222 286.168Z" fill="#263238"/>
<path d="M289.633 312.055H297.609C297.747 312.054 297.88 312.103 297.985 312.192C298.089 312.282 298.157 312.407 298.176 312.543L299.063 318.871C299.08 319.031 299.064 319.193 299.014 319.347C298.965 319.5 298.883 319.641 298.775 319.761C298.667 319.88 298.535 319.976 298.388 320.041C298.24 320.106 298.081 320.139 297.919 320.138C295.128 320.094 293.781 319.926 290.262 319.926C288.1 319.926 281.878 320.156 278.891 320.156C275.905 320.156 275.736 317.196 276.986 316.93C282.569 315.725 286.504 314.076 288.383 312.499C288.733 312.205 289.177 312.048 289.633 312.055Z" fill="#263238"/>
<g opacity="0.2">
<path d="M288.809 296.386L289.659 304.886H296.794L295.934 296.386H288.809Z" fill="black"/>
<path d="M343.713 270.436L337.73 274.309L343.349 280.806L349.332 276.924L343.713 270.436Z" fill="black"/>
</g>
<path d="M270.951 111.147C270.951 111.147 267.654 112.556 277.465 153.786L306.322 151.694C304.983 139.978 304.443 132.737 308.307 108.267C304.194 107.724 300.047 107.484 295.899 107.549C291.513 107.551 287.132 107.868 282.791 108.497C277.234 109.375 270.951 111.147 270.951 111.147Z" fill="#407BFF"/>
<path opacity="0.7" d="M270.951 111.147C270.951 111.147 267.654 112.556 277.465 153.786L306.322 151.694C304.983 139.978 304.443 132.737 308.307 108.267C304.194 107.724 300.047 107.484 295.899 107.549C291.513 107.551 287.132 107.868 282.791 108.497C277.234 109.375 270.951 111.147 270.951 111.147Z" fill="black"/>
<path d="M293.559 92.8369C293.045 97.1176 292.779 104.899 295.934 107.505C295.934 107.505 295.048 111.865 287.257 112.432C278.643 113.062 282.826 108.453 282.826 108.453C287.452 106.991 287.071 103.508 286.017 100.29L293.559 92.8369Z" fill="#FFB573"/>
<path opacity="0.2" d="M290.484 95.8767L286.053 100.308C286.315 101.054 286.508 101.822 286.629 102.604C288.401 102.214 290.732 100.06 290.785 98.1722C290.826 97.395 290.724 96.617 290.484 95.8767Z" fill="black"/>
<path d="M298.381 85.72C296.768 92.6063 296.236 95.5576 292.106 98.5266C285.902 102.958 277.802 99.5015 277.332 92.3227C276.906 85.8175 279.618 75.652 286.895 74.0478C288.494 73.6887 290.158 73.7431 291.73 74.2059C293.303 74.6686 294.731 75.5246 295.881 76.6928C297.03 77.861 297.863 79.3029 298.3 80.8824C298.738 82.4619 298.766 84.1268 298.381 85.72Z" fill="#FFB573"/>
<path d="M277.463 153.785C277.463 153.785 275.841 208.938 277.88 230.572C279.998 253.074 288.134 303.246 288.134 303.246H297.785C297.785 303.246 296.465 253.198 295.703 231.006C294.87 206.802 298.61 152.252 298.61 152.252L277.463 153.785Z" fill="#407BFF"/>
<path d="M298.602 303.591H287.293L286.469 299.984L299.125 299.541L298.602 303.591Z" fill="#263238"/>
<path opacity="0.2" d="M290.901 166.503C284.847 181.277 292.407 206.882 295.616 216.374C295.846 201.741 296.723 183.821 297.459 170.651C295.855 163.348 293.692 159.688 290.901 166.503Z" fill="black"/>
<path d="M285.086 153.236C285.086 153.236 295.721 209.665 302.023 227.576C309.458 248.847 341.018 280.354 341.018 280.354L349.172 275.036C349.172 275.036 326.235 238.752 320.927 227.647C309.591 203.957 315.13 167.017 306.33 151.658L285.086 153.236Z" fill="#407BFF"/>
<path d="M350.377 274.894L340.264 281.444L337.127 278.962L348.675 270.711L350.377 274.894Z" fill="#263238"/>
<path d="M286.514 85.6757C286.416 86.2429 286.044 86.6506 285.672 86.5619C285.299 86.4733 285.078 85.9859 285.175 85.4187C285.273 84.8514 285.654 84.4438 286.062 84.5324C286.469 84.621 286.611 85.0819 286.514 85.6757Z" fill="#263238"/>
<path d="M280.115 84.5858C280.017 85.153 279.636 85.5606 279.273 85.472C278.909 85.3834 278.679 84.9048 278.776 84.3376C278.874 83.7704 279.246 83.3627 279.618 83.4513C279.991 83.54 280.212 84.0185 280.115 84.5858Z" fill="#263238"/>
<path d="M279.776 83.5045L278.482 82.8752C278.482 82.8752 278.996 84.0629 279.776 83.5045Z" fill="#263238"/>
<path d="M282.374 85.9683C281.64 87.1737 280.745 88.2739 279.715 89.2386C279.969 89.4944 280.276 89.6918 280.614 89.8173C280.952 89.9428 281.314 89.9933 281.674 89.9653L282.374 85.9683Z" fill="#ED893E"/>
<path d="M284.394 92.6772C284.111 92.6758 283.83 92.6491 283.552 92.5974C283.514 92.5847 283.482 92.5589 283.462 92.5248C283.441 92.4906 283.433 92.4503 283.44 92.411C283.446 92.3716 283.466 92.3358 283.496 92.3099C283.527 92.284 283.565 92.2697 283.605 92.2695C284.308 92.4072 285.034 92.3762 285.722 92.179C286.411 91.9818 287.043 91.624 287.567 91.1351C287.599 91.1052 287.642 91.0886 287.686 91.0886C287.731 91.0886 287.773 91.1052 287.806 91.1351C287.822 91.1508 287.834 91.1694 287.843 91.1899C287.852 91.2105 287.856 91.2325 287.856 91.2547C287.856 91.277 287.852 91.299 287.843 91.3196C287.834 91.3401 287.822 91.3587 287.806 91.3744C287.353 91.8076 286.817 92.1459 286.231 92.3696C285.645 92.5933 285.021 92.6979 284.394 92.6772Z" fill="#263238"/>
<path d="M278.289 76.9638L290.156 72.6211C290.375 72.8601 290.539 73.1446 290.635 73.4542C290.857 73.181 291.136 72.96 291.453 72.8069C291.77 72.6537 292.117 72.5721 292.469 72.5679C292.772 72.5613 293.074 72.6156 293.356 72.7274C293.851 72.7869 294.309 73.0192 294.65 73.3833C294.948 73.7055 295.142 74.11 295.208 74.5443C295.646 74.7288 296.02 75.0381 296.283 75.4337C296.546 75.8293 296.687 76.2937 296.688 76.7688C296.692 76.8367 296.692 76.9048 296.688 76.9727C296.931 76.9835 297.171 77.0344 297.397 77.1233C297.964 77.3482 298.424 77.7796 298.686 78.3305C298.947 78.8814 298.99 79.511 298.806 80.0923C299.265 80.4015 299.604 80.8592 299.765 81.3886C299.926 81.9179 299.901 82.4866 299.692 82.9993L299.648 83.0879C299.993 83.4266 300.23 83.8603 300.327 84.3337C300.425 84.8072 300.38 85.299 300.198 85.7467C299.99 86.2498 299.623 86.6703 299.152 86.9432C299.152 87.0496 299.205 87.1648 299.223 87.28C299.541 87.2712 299.858 87.3285 300.153 87.4484C300.712 87.7103 301.15 88.1752 301.379 88.7486C301.607 89.322 301.609 89.9609 301.383 90.5353C301.157 91.1098 300.721 91.5767 300.164 91.8413C299.606 92.1058 298.968 92.1481 298.381 91.9595C297.98 91.8026 297.629 91.5402 297.365 91.2C297.102 90.8599 296.935 90.4547 296.883 90.0274C296.561 90.0289 296.243 89.9687 295.944 89.8502C295.408 89.6365 294.967 89.2388 294.699 88.7286C294.431 88.2184 294.354 87.6293 294.481 87.0673C294.089 87.1985 293.669 87.2265 293.263 87.1486C292.856 87.0707 292.477 86.8894 292.161 86.6223C291.845 86.3552 291.603 86.0112 291.458 85.6235C291.313 85.2358 291.271 84.8173 291.335 84.4085L291.087 84.3376C290.488 84.0971 290.009 83.629 289.755 83.0359C289.501 82.4428 289.492 81.773 289.731 81.1736C289.841 80.9063 289.997 80.6603 290.192 80.4468C289.837 80.3279 289.515 80.1283 289.25 79.8638C288.986 79.5993 288.786 79.2771 288.667 78.9225C288.604 79.0085 288.533 79.0886 288.455 79.1618C288.093 79.5015 287.626 79.7078 287.132 79.7465C286.637 79.7852 286.144 79.6539 285.734 79.3745L285.583 79.5429C285.329 79.7892 285.018 79.9691 284.677 80.0666C284.337 80.1641 283.978 80.1761 283.631 80.1016C283.285 80.0271 282.963 79.8684 282.693 79.6395C282.422 79.4107 282.213 79.1187 282.082 78.7895C281.766 79.1192 281.355 79.3409 280.906 79.4231C280.457 79.5054 279.993 79.444 279.581 79.2478C279.169 79.0515 278.829 78.7303 278.61 78.3298C278.391 77.9293 278.303 77.47 278.36 77.017L278.289 76.9638Z" fill="#263238"/>
<path d="M299.178 92.4202C298.837 93.0115 298.381 93.529 297.838 93.9428C297.295 94.3566 296.675 94.6585 296.014 94.8309C294.242 95.2829 293.418 93.7053 293.94 92.0657C294.41 90.5945 295.89 88.5827 297.636 88.8574C298.016 88.9235 298.372 89.0829 298.675 89.3212C298.977 89.5595 299.216 89.8693 299.369 90.2227C299.522 90.576 299.584 90.9619 299.551 91.3455C299.518 91.7291 299.39 92.0985 299.178 92.4202Z" fill="#FFB573"/>
<path d="M289.305 84.8073C289.234 84.8076 289.165 84.7842 289.109 84.7409C289.053 84.6975 289.012 84.6367 288.995 84.568C288.534 83.0791 286.628 82.441 286.611 82.4321C286.526 82.4036 286.455 82.3434 286.414 82.2641C286.373 82.1848 286.364 82.0925 286.389 82.0067C286.417 81.9222 286.478 81.8523 286.558 81.8124C286.638 81.7725 286.73 81.7659 286.815 81.794C286.912 81.794 289.074 82.5473 289.642 84.373C289.664 84.4599 289.653 84.5522 289.61 84.6312C289.568 84.7101 289.496 84.7699 289.411 84.7984L289.305 84.8073Z" fill="#263238"/>
<path d="M278.696 81.2976C278.621 81.298 278.549 81.2736 278.49 81.2285C278.431 81.1833 278.388 81.1198 278.369 81.0479C278.35 80.9761 278.355 80.8998 278.383 80.8312C278.412 80.7625 278.463 80.7053 278.527 80.6684C278.985 80.3886 279.504 80.2239 280.04 80.1884C280.575 80.1529 281.112 80.2477 281.603 80.4646C281.642 80.4843 281.677 80.5117 281.706 80.5451C281.735 80.5786 281.758 80.6174 281.772 80.6594C281.786 80.7013 281.791 80.7456 281.788 80.7898C281.785 80.8339 281.773 80.877 281.753 80.9166C281.733 80.9561 281.706 80.9914 281.673 81.0204C281.639 81.0494 281.6 81.0715 281.558 81.0855C281.516 81.0995 281.472 81.1051 281.428 81.1019C281.384 81.0988 281.341 81.087 281.301 81.0672C280.91 80.901 280.484 80.8312 280.06 80.8636C279.636 80.896 279.226 81.0296 278.864 81.2533C278.812 81.2803 278.754 81.2955 278.696 81.2976Z" fill="#263238"/>
<path d="M312.233 116.261C313.421 120.497 314.351 124.689 315.167 128.979C315.592 131.115 315.938 133.277 316.239 135.449C316.399 136.53 316.523 137.629 316.647 138.719L316.806 140.376V140.793V141.05C316.806 141.254 316.806 141.466 316.806 141.67C316.757 142.641 316.404 143.571 315.796 144.329C315.309 144.9 314.704 145.359 314.024 145.676C313.58 145.88 313.117 146.037 312.641 146.146C311.921 146.303 311.188 146.392 310.452 146.412C309.238 146.438 308.023 146.376 306.818 146.226C304.596 145.95 302.392 145.547 300.215 145.02C298.077 144.495 295.967 143.927 293.887 143.319C291.805 142.663 289.757 142.016 287.684 141.245L288.641 137.762C290.715 138.108 292.815 138.489 294.907 138.799C296.998 139.109 299.081 139.446 301.155 139.685C303.229 139.924 305.285 140.146 307.261 140.208C308.187 140.244 309.113 140.22 310.035 140.137C310.37 140.107 310.7 140.038 311.019 139.933C311.143 139.933 311.17 139.862 311.143 139.871C310.957 139.96 310.793 140.09 310.665 140.252C310.388 140.596 310.224 141.017 310.195 141.458C310.19 141.531 310.19 141.605 310.195 141.679C310.191 141.632 310.191 141.585 310.195 141.537L310.133 141.156L309.885 139.623L309.317 136.557C308.919 134.509 308.475 132.462 308.032 130.406C307.589 128.35 307.084 126.311 306.588 124.264C306.091 122.217 305.577 120.152 305.09 118.149L312.233 116.261Z" fill="#FFB573"/>
<path d="M308.306 108.222C311.257 108.896 315.458 118.601 315.458 118.601L304.823 127.463C304.823 127.463 300.125 119.487 301.074 115.623C302.057 111.608 304.929 107.46 308.306 108.222Z" fill="#407BFF"/>
<path opacity="0.7" d="M308.306 108.222C311.257 108.896 315.458 118.601 315.458 118.601L304.823 127.463C304.823 127.463 300.125 119.487 301.074 115.623C302.057 111.608 304.929 107.46 308.306 108.222Z" fill="black"/>
<path d="M345.042 289.331H344.954C344.789 289.327 344.628 289.279 344.486 289.194C344.345 289.108 344.228 288.988 344.147 288.844C344.089 288.761 344.053 288.665 344.043 288.564C344.032 288.463 344.046 288.361 344.085 288.268C344.457 287.444 347.01 287.054 347.294 287.009C347.326 287.007 347.358 287.013 347.388 287.027C347.417 287.042 347.441 287.064 347.459 287.091C347.476 287.119 347.485 287.15 347.486 287.183C347.487 287.215 347.478 287.247 347.462 287.275C346.93 288.038 345.929 289.269 345.042 289.331ZM346.939 287.408C345.929 287.594 344.59 287.967 344.395 288.41C344.371 288.446 344.357 288.49 344.357 288.534C344.357 288.578 344.371 288.621 344.395 288.658C344.447 288.755 344.524 288.837 344.617 288.896C344.71 288.955 344.817 288.989 344.927 288.995C345.441 289.004 346.177 288.419 346.939 287.408Z" fill="#407BFF"/>
<path d="M347.098 287.382C346.212 287.444 344.564 287.142 344.191 286.495C344.125 286.379 344.1 286.244 344.12 286.112C344.141 285.979 344.207 285.858 344.307 285.769C344.391 285.67 344.496 285.592 344.614 285.538C344.731 285.484 344.86 285.457 344.989 285.459C346.026 285.459 347.391 286.992 347.444 287.054C347.458 287.08 347.465 287.109 347.465 287.138C347.465 287.167 347.458 287.196 347.444 287.222C347.435 287.25 347.418 287.275 347.397 287.296C347.375 287.316 347.349 287.33 347.32 287.337L347.098 287.382ZM344.936 285.813C344.863 285.817 344.792 285.835 344.726 285.867C344.661 285.899 344.603 285.944 344.555 285.999C344.413 286.159 344.44 286.265 344.484 286.336C344.732 286.761 346.106 287.098 346.965 287.054C346.487 286.566 345.61 285.804 344.989 285.804L344.936 285.813Z" fill="#407BFF"/>
<path d="M286.957 313.296C286.348 313.355 285.737 313.201 285.228 312.862C285.114 312.76 285.027 312.632 284.975 312.488C284.922 312.344 284.906 312.189 284.927 312.038C284.932 311.946 284.961 311.856 285.01 311.779C285.06 311.701 285.129 311.638 285.211 311.595C286.097 311.116 288.924 312.561 289.243 312.729C289.274 312.747 289.299 312.773 289.315 312.804C289.33 312.836 289.336 312.871 289.332 312.906C289.327 312.941 289.312 312.973 289.288 312.998C289.264 313.024 289.233 313.041 289.199 313.048C288.461 313.198 287.71 313.281 286.957 313.296ZM285.689 311.825C285.579 311.819 285.47 311.84 285.37 311.887C285.336 311.904 285.307 311.93 285.288 311.963C285.269 311.997 285.26 312.035 285.264 312.073C285.248 312.172 285.256 312.273 285.289 312.367C285.321 312.461 285.377 312.546 285.45 312.614C285.884 312.995 287.054 313.066 288.641 312.809C287.719 312.317 286.722 311.984 285.689 311.825Z" fill="#407BFF"/>
<path d="M289.163 313.048H289.092C288.25 312.667 286.566 311.134 286.699 310.327C286.699 310.132 286.867 309.893 287.328 309.849C287.496 309.83 287.667 309.846 287.829 309.896C287.99 309.947 288.14 310.03 288.268 310.141C289.154 310.886 289.322 312.8 289.331 312.88C289.336 312.91 289.332 312.942 289.319 312.97C289.307 312.998 289.286 313.022 289.26 313.039C289.229 313.051 289.195 313.054 289.163 313.048ZM287.47 310.194H287.364C287.062 310.194 287.036 310.345 287.036 310.389C286.956 310.868 288.09 312.082 288.959 312.605C288.902 311.797 288.592 311.028 288.073 310.407C287.905 310.264 287.69 310.188 287.47 310.194Z" fill="#407BFF"/>
<path d="M286.177 84.5945L284.883 83.9741C284.883 83.9741 285.379 85.1529 286.177 84.5945Z" fill="#263238"/>
<path d="M306.649 149.966L307.536 152.491C307.651 152.686 307.42 152.908 307.092 152.935L277.402 155.097C277.145 155.097 276.924 155 276.897 154.84L276.445 152.27C276.445 152.093 276.631 151.924 276.915 151.907L306.162 149.78C306.252 149.766 306.345 149.776 306.43 149.809C306.515 149.841 306.591 149.895 306.649 149.966Z" fill="white"/>
<path d="M302.944 153.52L303.724 153.458C303.884 153.458 303.999 153.36 303.981 153.263L303.37 149.93C303.37 149.833 303.21 149.771 303.05 149.78L302.271 149.833C302.111 149.833 301.996 149.939 302.014 150.037L302.625 153.36C302.643 153.458 302.785 153.529 302.944 153.52Z" fill="#407BFF"/>
<path d="M279.635 155.212L280.415 155.159C280.575 155.159 280.69 155.053 280.672 154.955L280.061 151.632C280.061 151.534 279.901 151.464 279.742 151.472L278.962 151.526C278.802 151.526 278.687 151.632 278.705 151.729L279.316 155.053C279.334 155.15 279.476 155.221 279.635 155.212Z" fill="#407BFF"/>
<path d="M291.29 154.362L292.07 154.308C292.229 154.308 292.344 154.211 292.327 154.114L291.715 150.781C291.715 150.684 291.556 150.613 291.396 150.622L290.616 150.684C290.457 150.684 290.341 150.781 290.359 150.879L290.971 154.211C290.988 154.308 291.13 154.379 291.29 154.362Z" fill="#407BFF"/>
<path d="M248.085 111.351L287.169 122.172L270.853 175.375L231.76 164.554L248.085 111.351Z" fill="#407BFF"/>
<g opacity="0.3">
<path d="M248.085 111.351L287.169 122.172L270.853 175.375L231.76 164.554L248.085 111.351Z" fill="black"/>
</g>
<path d="M247.801 111.271L286.894 122.093L270.578 175.295L231.484 164.474L247.801 111.271Z" fill="#407BFF"/>
<path d="M284.553 123.387L270.267 169.978L234.754 160.149L249.041 113.558L284.553 123.387Z" fill="white"/>
<path d="M255.768 115.614C256.427 114.865 257.288 114.32 258.248 114.045C259.208 113.77 260.226 113.777 261.183 114.063L262.734 114.488C263.011 114.583 263.31 114.599 263.596 114.535C263.882 114.47 264.145 114.329 264.356 114.125C264.875 113.634 265.517 113.292 266.214 113.136C266.912 112.98 267.638 113.015 268.317 113.239C269.005 113.389 269.637 113.731 270.139 114.225C270.64 114.719 270.992 115.345 271.153 116.03C271.22 116.309 271.364 116.563 271.57 116.762C271.776 116.962 272.034 117.098 272.314 117.156L273.865 117.59C274.818 117.822 275.678 118.335 276.335 119.062C276.993 119.789 277.417 120.696 277.552 121.667C277.57 121.731 277.57 121.798 277.552 121.862C277.513 121.991 277.426 122.099 277.309 122.165C277.191 122.231 277.053 122.25 276.923 122.217L256.042 116.438C255.957 116.42 255.877 116.379 255.812 116.32C255.747 116.262 255.698 116.187 255.67 116.104C255.643 116.021 255.637 115.932 255.654 115.846C255.671 115.76 255.71 115.68 255.768 115.614Z" fill="#407BFF"/>
<path opacity="0.4" d="M255.768 115.614C256.427 114.865 257.288 114.32 258.248 114.045C259.208 113.77 260.226 113.777 261.183 114.063L262.734 114.488C263.011 114.583 263.31 114.599 263.596 114.535C263.882 114.47 264.145 114.329 264.356 114.125C264.875 113.634 265.517 113.292 266.214 113.136C266.912 112.98 267.638 113.015 268.317 113.239C269.005 113.389 269.637 113.731 270.139 114.225C270.64 114.719 270.992 115.345 271.153 116.03C271.22 116.309 271.364 116.563 271.57 116.762C271.776 116.962 272.034 117.098 272.314 117.156L273.865 117.59C274.818 117.822 275.678 118.335 276.335 119.062C276.993 119.789 277.417 120.696 277.552 121.667C277.57 121.731 277.57 121.798 277.552 121.862C277.513 121.991 277.426 122.099 277.309 122.165C277.191 122.231 277.053 122.25 276.923 122.217L256.042 116.438C255.957 116.42 255.877 116.379 255.812 116.32C255.747 116.262 255.698 116.187 255.67 116.104C255.643 116.021 255.637 115.932 255.654 115.846C255.671 115.76 255.71 115.68 255.768 115.614Z" fill="#FAFAFA"/>
<path d="M280.611 127.313L280.097 128.979L249.645 120.55L250.159 118.884L280.611 127.313Z" fill="#E0E0E0"/>
<path d="M279.37 131.345L278.865 133.011L250.105 125.053L250.611 123.378L279.37 131.345Z" fill="#E0E0E0"/>
<path d="M278.137 135.378L277.623 137.044L262.396 132.825L262.911 131.159L278.137 135.378Z" fill="#E0E0E0"/>
<path d="M260.456 130.477L259.942 132.152L251.895 129.918L252.4 128.252L260.456 130.477Z" fill="#E0E0E0"/>
<path d="M276.896 139.401L276.391 141.076L245.93 132.648L246.444 130.973L276.896 139.401Z" fill="#E0E0E0"/>
<path d="M275.664 143.434L275.15 145.109L248.633 137.762L249.147 136.096L275.664 143.434Z" fill="#E0E0E0"/>
<path d="M273.193 151.499L272.679 153.165L242.227 144.737L242.741 143.071L273.193 151.499Z" fill="#E0E0E0"/>
<path d="M271.951 155.532L271.446 157.198L245.709 150.081L246.223 148.406L271.951 155.532Z" fill="#E0E0E0"/>
<path d="M251.097 162.551C246.276 162.551 244.317 159.892 243.555 158.119C241.88 154.264 243.209 148.503 246.347 146.022C248.332 144.462 250.619 144.497 252.79 146.128C252.849 146.168 252.9 146.219 252.938 146.279C252.977 146.339 253.003 146.406 253.015 146.476C253.027 146.546 253.024 146.618 253.007 146.687C252.991 146.756 252.96 146.821 252.917 146.878C252.874 146.935 252.82 146.983 252.758 147.018C252.696 147.053 252.627 147.075 252.557 147.083C252.486 147.091 252.414 147.084 252.346 147.063C252.278 147.042 252.215 147.007 252.161 146.961C249.909 145.269 248.11 145.96 246.994 146.846C244.468 148.84 242.864 153.936 244.512 157.703C245.398 159.821 247.703 162.134 253.286 161.319C254.776 161.169 256.194 160.606 257.381 159.693C258.568 158.78 259.477 157.553 260.004 156.152C260.556 154.534 260.683 152.802 260.373 151.121C260.062 149.44 259.325 147.867 258.232 146.554C257.371 145.547 256.245 144.802 254.983 144.403C253.72 144.004 252.371 143.966 251.088 144.294C250.954 144.323 250.814 144.298 250.698 144.226C250.582 144.153 250.5 144.037 250.468 143.904C250.439 143.767 250.464 143.625 250.539 143.508C250.613 143.39 250.731 143.306 250.867 143.274C252.33 142.902 253.869 142.946 255.309 143.404C256.749 143.861 258.031 144.713 259.011 145.862C260.22 147.32 261.036 149.062 261.38 150.924C261.724 152.785 261.586 154.704 260.979 156.498C260.392 158.079 259.375 159.464 258.042 160.498C256.709 161.531 255.114 162.172 253.437 162.347C252.663 162.471 251.881 162.539 251.097 162.551Z" fill="#407BFF"/>
<path d="M251.701 160.521C251.628 160.519 251.556 160.504 251.488 160.477C251.425 160.449 251.369 160.409 251.321 160.359C251.274 160.309 251.237 160.251 251.212 160.186C251.187 160.122 251.175 160.054 251.177 159.985C251.179 159.916 251.194 159.848 251.222 159.786C252.858 156.297 254.124 152.646 254.998 148.893C255.051 148.61 255.113 148.291 255.157 148.007C252.995 151.701 249.895 154.759 246.171 156.87C246.049 156.938 245.906 156.955 245.772 156.919C245.638 156.882 245.523 156.795 245.453 156.675C245.419 156.615 245.397 156.549 245.388 156.481C245.38 156.412 245.386 156.343 245.405 156.277C245.424 156.211 245.456 156.149 245.499 156.096C245.542 156.042 245.596 155.998 245.657 155.966C249.416 153.825 252.501 150.675 254.564 146.873C254.657 146.686 254.813 146.539 255.004 146.456C255.196 146.374 255.41 146.361 255.609 146.421C255.803 146.473 255.973 146.588 256.092 146.749C256.211 146.91 256.272 147.107 256.265 147.307C256.228 147.903 256.145 148.496 256.017 149.079C255.125 152.899 253.836 156.615 252.171 160.167C252.136 160.265 252.073 160.352 251.989 160.415C251.906 160.478 251.806 160.515 251.701 160.521Z" fill="#407BFF"/>
<path d="M254.828 156.595C254.7 156.594 254.578 156.546 254.482 156.462C252.291 154.563 249.973 152.816 247.543 151.233C247.428 151.156 247.348 151.036 247.32 150.9C247.292 150.765 247.318 150.623 247.392 150.506C247.47 150.391 247.589 150.311 247.725 150.283C247.861 150.255 248.002 150.281 248.119 150.356C250.601 151.963 252.97 153.74 255.209 155.673C255.311 155.765 255.374 155.893 255.384 156.03C255.394 156.168 255.35 156.303 255.262 156.409C255.21 156.472 255.143 156.522 255.068 156.555C254.992 156.587 254.91 156.601 254.828 156.595Z" fill="#407BFF"/>
<path d="M289.605 137.895L283.835 132.808L283.676 140.048C283.676 140.048 287.629 142.344 290.154 140.784L289.605 137.895Z" fill="#FFB573"/>
<path d="M277.854 132.453L278.048 138.524L283.676 140.048L283.836 132.808L277.854 132.453Z" fill="#FFB573"/>
<path d="M161.141 46.6267C163.445 49.0108 165.749 55.711 163.8 58.8927C159.989 55.0817 159.43 45.8025 161.141 46.6267Z" fill="#263238"/>
<path d="M184.893 307.083L192.01 305.444L190.282 288.56L183.156 290.191L184.893 307.083Z" fill="#FFB573"/>
<path d="M133.764 312.711H141.058L143.123 295.828H135.829L133.764 312.711Z" fill="#FFB573"/>
<path d="M142.006 311.869H133.143C132.999 311.87 132.859 311.919 132.746 312.009C132.633 312.099 132.555 312.225 132.523 312.366L131.016 318.844C130.979 319.001 130.979 319.164 131.015 319.321C131.052 319.479 131.124 319.625 131.225 319.75C131.327 319.875 131.456 319.975 131.603 320.042C131.749 320.11 131.909 320.142 132.071 320.138C134.933 320.094 137.016 319.925 140.623 319.925C142.839 319.925 149.486 320.156 152.579 320.156C155.672 320.156 156.071 317.125 154.821 316.85C149.211 315.627 145.001 313.934 143.211 312.312C142.879 312.019 142.449 311.861 142.006 311.869Z" fill="#263238"/>
<path d="M191.78 304.637L184.007 306.41C183.865 306.443 183.738 306.524 183.646 306.638C183.555 306.752 183.504 306.893 183.502 307.039V313.677C183.5 313.838 183.535 313.996 183.604 314.141C183.673 314.286 183.774 314.413 183.9 314.513C184.026 314.612 184.173 314.681 184.33 314.714C184.487 314.748 184.649 314.745 184.805 314.705C187.597 314.014 191.611 312.933 195.139 312.109C199.26 311.16 203.222 310.336 208.052 309.202C210.976 308.537 211.136 305.399 209.824 305.408C203.984 305.479 199.056 306.64 193.588 304.788C193.011 304.571 192.385 304.519 191.78 304.637Z" fill="#263238"/>
<path d="M177.254 87.8381C178.237 89.6107 179.159 91.4896 180.09 93.3241C181.02 95.1587 181.942 97.0022 182.837 98.8545C184.61 102.559 186.382 106.29 188.066 110.083C188.952 111.98 189.715 113.886 190.53 115.871C190.719 116.4 190.938 116.918 191.186 117.422C191.372 117.785 191.469 117.909 191.558 118.06C191.647 118.211 191.886 118.37 192.391 118.397C193.042 118.431 193.694 118.347 194.314 118.149C195.114 117.917 195.893 117.62 196.645 117.262C197.044 117.076 197.452 116.872 197.851 116.66L198.994 116.039L202.893 119.877C202.477 120.435 202.158 120.861 201.759 121.313C201.38 121.767 200.974 122.199 200.545 122.606C199.66 123.474 198.689 124.25 197.647 124.92C196.45 125.695 195.136 126.272 193.756 126.63C192.943 126.824 192.11 126.928 191.274 126.94C190.347 126.929 189.426 126.792 188.536 126.533C186.784 125.987 185.205 124.995 183.954 123.652C182.938 122.554 182.084 121.315 181.419 119.974C180.533 118.202 179.576 116.429 178.645 114.657L172.964 103.844C171.097 100.199 169.248 96.5472 167.416 92.8899L177.254 87.8381Z" fill="#FFB573"/>
<path d="M164.288 88.1129C162.276 94.8042 175.986 112.999 175.986 112.999L190.007 103.977C187.42 98.1913 184.214 92.7028 180.444 87.6077C174.781 80.3403 166.494 80.7657 164.288 88.1129Z" fill="#407BFF"/>
<path opacity="0.2" d="M173.273 97.268C176.818 98.8899 180.62 104.899 181.179 109.676L175.985 113.017C172.714 108.609 169.775 103.964 167.193 99.1203C168.266 97.4009 169.214 95.4157 173.273 97.268Z" fill="black"/>
<path opacity="0.2" d="M190.282 288.56L191.177 297.263L184.051 298.903L183.156 290.2L190.282 288.56Z" fill="black"/>
<path opacity="0.2" d="M135.828 295.828H143.122L142.05 304.531H134.756L135.828 295.828Z" fill="black"/>
<path d="M131.805 85.2591C133.927 93.1099 135.459 101.109 136.387 109.188C137.06 114.834 137.459 120.222 137.707 125.141C138.292 136.601 138.017 145.339 138.354 148.291L177.261 145.286C182.65 103.773 172.582 82.4851 172.582 82.4851C169.505 81.9349 166.397 81.5738 163.276 81.4038C162.611 81.4038 161.947 81.3507 161.264 81.3418C155.729 81.4485 150.204 81.8746 144.718 82.618C143.681 82.751 142.626 82.9105 141.607 83.0877C136.396 83.9563 131.805 85.2591 131.805 85.2591Z" fill="#407BFF"/>
<path d="M157.25 88.4852C159.545 94.0421 157.693 94.5916 159.599 102.063C160.724 103.534 161.788 105.023 162.798 106.494C163.312 104.858 163.755 103.233 164.127 101.62C162.452 94.1396 159.997 91.9771 159.519 88.0066" fill="#263238"/>
<path d="M159.21 91.3743L160.654 87.6165L157.942 86.6682L156.055 88.0242L159.21 91.3743Z" fill="#263238"/>
<path opacity="0.5" d="M141.607 83.0699C150.23 90.7007 157.391 98.5087 162.798 106.512C165.545 97.8618 166.174 89.4777 164.171 81.4392C166.992 81.6268 169.799 81.97 172.582 82.4673C172.582 82.4673 182.65 103.738 177.261 145.268L138.354 148.273C138.017 145.321 138.292 136.583 137.707 125.123C137.459 120.24 137.06 114.852 136.387 109.171C135.459 101.091 133.927 93.0921 131.805 85.2413C131.805 85.2413 136.396 83.9562 141.607 83.0699Z" fill="black"/>
<path d="M145.108 63.8645C146.508 69.1024 148.21 78.7627 144.727 82.6002C146.486 84.1838 148.566 85.3688 150.825 86.0739C153.084 86.7791 155.469 86.9878 157.817 86.6859C162.39 86.2251 162.408 83.0168 161.264 81.324C155.229 80.3668 155.06 75.9532 155.84 71.7434L145.108 63.8645Z" fill="#FFB573"/>
<path d="M157.942 86.6682C157.942 86.6682 153.449 90.3639 152.058 94.0065C148.911 92.6682 143.08 86.1187 143.018 82.1393C143.727 81.3652 144.582 80.7387 145.535 80.2959C149.308 83.0617 153.496 85.2124 157.942 86.6682Z" fill="#407BFF"/>
<path opacity="0.2" d="M157.942 86.6682C157.942 86.6682 153.449 90.3639 152.058 94.0065C148.911 92.6682 143.08 86.1187 143.018 82.1393C143.727 81.3652 144.582 80.7387 145.535 80.2959C149.308 83.0617 153.496 85.2124 157.942 86.6682Z" fill="#FAFAFA"/>
<path d="M157.941 86.6683C157.941 86.6683 163.339 89.0701 165.749 93.2799C168.913 91.9417 163.977 81.6875 161.664 80.7392C160.709 80.1735 159.584 79.9662 158.491 80.1543C158.491 80.1543 161.3 85.5162 157.941 86.6683Z" fill="#407BFF"/>
<path opacity="0.2" d="M157.941 86.6683C157.941 86.6683 163.339 89.0701 165.749 93.2799C168.913 91.9417 163.977 81.6875 161.664 80.7392C160.709 80.1735 159.584 79.9662 158.491 80.1543C158.491 80.1543 161.3 85.5162 157.941 86.6683Z" fill="#FAFAFA"/>
<path opacity="0.2" d="M149.486 67.0818L155.84 71.7347C155.646 72.7158 155.543 73.7126 155.53 74.7126C153.235 74.5619 149.955 72.3108 149.557 69.9622C149.354 69.0147 149.33 68.038 149.486 67.0818Z" fill="black"/>
<path d="M143.93 55.9148C144.816 63.0759 145.038 67.3211 148.928 70.7421C154.778 75.8736 163.454 71.8854 164.686 64.5382C165.794 57.9444 164.092 47.3357 156.843 45.0403C155.236 44.5264 153.526 44.4284 151.871 44.7554C150.217 45.0824 148.672 45.8238 147.382 46.9103C146.092 47.9967 145.099 49.3926 144.495 50.9674C143.891 52.5422 143.697 54.2444 143.93 55.9148Z" fill="#FFB573"/>
<path d="M161.23 47.6724C159.324 49.0993 153.865 48.6385 150.506 47.6724C147.147 46.7064 144.71 53.185 147.351 57.0226C149.992 60.8601 151.073 61.126 147.785 63.2265C144.497 65.3269 135.262 56.1984 139.809 49.4538C139.569 43.764 151.374 39.9619 157.685 42.6207C163.995 45.2795 161.23 47.6724 161.23 47.6724Z" fill="#263238"/>
<path d="M141.563 62.1009C141.892 62.9356 142.385 63.6963 143.012 64.3385C143.639 64.9806 144.387 65.4914 145.214 65.8409C147.43 66.7272 148.848 64.8394 148.493 62.5794C148.174 60.5499 146.632 57.6341 144.275 57.6695C143.76 57.6867 143.258 57.8314 142.813 58.0906C142.368 58.3498 141.994 58.7155 141.725 59.1547C141.456 59.594 141.301 60.0931 141.272 60.6073C141.244 61.1215 141.344 61.6347 141.563 62.1009Z" fill="#FFB573"/>
<path d="M193.48 295.012L181.418 297.786C181.418 297.786 173.326 253.925 171.244 231.316C170.605 224.439 168.806 214.876 166.546 204.639C163.684 191.735 160.094 177.794 157.152 166.884C154.05 155.363 151.684 147.245 151.684 147.245L177.252 145.268C177.252 145.268 192.62 205.597 193.321 227.833C194.092 250.947 193.48 295.012 193.48 295.012Z" fill="#263238"/>
<path opacity="0.2" d="M166.547 204.639C163.684 191.735 160.095 177.794 157.152 166.884L159.811 161.141C166.148 168.63 167.796 191.948 166.547 204.639Z" fill="black"/>
<path d="M163.462 146.332C163.462 146.332 160.564 208.769 157.436 229.934C154.015 253.11 145.435 302.847 145.435 302.847H132.053C132.053 302.847 131.831 255.875 136.068 233.452C140.889 207.874 138.319 148.282 138.319 148.282L163.462 146.332Z" fill="#263238"/>
<path d="M147.04 303.139H131.309L131.362 298.442L148.936 298.132L147.04 303.139Z" fill="#407BFF"/>
<path d="M195.059 294.941L180.692 298.247L179.664 293.612L195.67 289.677L195.059 294.941Z" fill="#407BFF"/>
<path d="M154.999 57.0758C154.999 57.6608 155.38 58.1128 155.761 58.0862C156.142 58.0596 156.426 57.5544 156.381 56.9695C156.337 56.3845 156 55.9325 155.619 55.9591C155.238 55.9857 154.954 56.4909 154.999 57.0758Z" fill="#263238"/>
<path d="M161.628 56.5617C161.628 57.1466 162.009 57.5986 162.399 57.572C162.789 57.5454 163.055 57.0402 163.02 56.4553C162.984 55.8704 162.639 55.4184 162.249 55.445C161.859 55.4716 161.593 55.9767 161.628 56.5617Z" fill="#263238"/>
<path d="M159.963 62.3225C159.06 62.134 158.123 62.1836 157.245 62.4664C156.367 62.7492 155.578 63.2554 154.955 63.9355C157.472 64.485 163.995 63.8468 163.995 63.8468C163.619 63.1497 163.004 62.6116 162.263 62.3316C161.523 62.0515 160.706 62.0483 159.963 62.3225Z" fill="#263238"/>
<path d="M159.527 57.0225C160.371 58.6977 161.442 60.2486 162.709 61.6311C162.325 61.9345 161.88 62.1531 161.405 62.2722C160.93 62.3914 160.435 62.4085 159.953 62.3224L159.527 57.0225Z" fill="#ED893E"/>
<path d="M156.478 66.3727C156.732 66.3946 156.987 66.3946 157.24 66.3727C157.285 66.3727 157.328 66.355 157.36 66.3234C157.391 66.2918 157.409 66.249 157.409 66.2043C157.409 66.1597 157.391 66.1168 157.36 66.0853C157.328 66.0537 157.285 66.0359 157.24 66.0359C156.514 66.1085 155.78 66.0083 155.099 65.7433C154.418 65.4784 153.81 65.0564 153.323 64.5116C153.308 64.4958 153.289 64.4832 153.268 64.4746C153.248 64.4661 153.226 64.4617 153.204 64.4617C153.181 64.4617 153.159 64.4661 153.139 64.4746C153.118 64.4832 153.1 64.4958 153.084 64.5116C153.051 64.5447 153.033 64.5893 153.033 64.6356C153.033 64.682 153.051 64.7266 153.084 64.7597C153.513 65.2422 154.034 65.6335 154.617 65.9106C155.201 66.1877 155.833 66.3448 156.478 66.3727Z" fill="#263238"/>
<path d="M152.81 55.0995C152.871 55.1002 152.931 55.0861 152.985 55.0583C153.039 55.0305 153.085 54.9898 153.12 54.9399C153.348 54.5694 153.658 54.2571 154.027 54.0278C154.397 53.7986 154.814 53.6587 155.247 53.6194C155.339 53.6194 155.427 53.583 155.492 53.5182C155.556 53.4533 155.593 53.3654 155.593 53.2737C155.594 53.228 155.586 53.1825 155.569 53.14C155.552 53.0975 155.527 53.059 155.494 53.0266C155.462 52.9943 155.423 52.9689 155.381 52.9519C155.338 52.935 155.293 52.9269 155.247 52.9281C154.706 52.9728 154.184 53.1446 153.722 53.4295C153.259 53.7144 152.871 54.1044 152.588 54.5677C152.538 54.6441 152.52 54.7374 152.538 54.8272C152.556 54.9169 152.61 54.9957 152.686 55.0463C152.725 55.0692 152.767 55.0871 152.81 55.0995Z" fill="#263238"/>
<path d="M164.331 54.0623C164.395 54.0796 164.462 54.0796 164.526 54.0623C164.606 54.0158 164.665 53.9397 164.69 53.8502C164.715 53.7607 164.704 53.665 164.659 53.5837C164.396 53.1013 164.021 52.6887 163.566 52.3804C163.112 52.0721 162.59 51.8769 162.044 51.8112C161.953 51.8086 161.864 51.8413 161.797 51.9024C161.729 51.9634 161.688 52.0482 161.681 52.1391C161.677 52.1848 161.683 52.2307 161.698 52.2741C161.712 52.3175 161.736 52.3574 161.766 52.3914C161.797 52.4254 161.834 52.4528 161.876 52.4719C161.918 52.491 161.963 52.5014 162.009 52.5025C162.439 52.5528 162.85 52.7075 163.207 52.9531C163.564 53.1987 163.855 53.5277 164.056 53.9116C164.087 53.9566 164.128 53.9937 164.175 54.0199C164.223 54.0461 164.276 54.0606 164.331 54.0623Z" fill="#263238"/>
<path d="M144.408 313.137C144.906 313.177 145.403 313.046 145.817 312.764C145.944 312.657 146.044 312.52 146.107 312.366C146.17 312.211 146.195 312.044 146.18 311.878C146.18 311.778 146.152 311.68 146.101 311.594C146.049 311.509 145.976 311.438 145.888 311.391C145.09 310.974 142.724 312.428 142.458 312.587C142.428 312.605 142.404 312.631 142.39 312.663C142.376 312.695 142.371 312.73 142.378 312.764C142.381 312.798 142.395 312.83 142.417 312.856C142.439 312.881 142.469 312.899 142.502 312.906C143.127 313.055 143.766 313.132 144.408 313.137ZM145.507 311.63C145.583 311.628 145.659 311.643 145.728 311.674C145.763 311.695 145.791 311.725 145.81 311.761C145.829 311.797 145.837 311.838 145.835 311.878C145.85 311.995 145.836 312.113 145.794 312.223C145.753 312.333 145.684 312.43 145.595 312.507C145.196 312.835 144.239 312.88 143.007 312.631C143.769 312.141 144.617 311.801 145.507 311.63Z" fill="#407BFF"/>
<path d="M142.547 312.853C142.572 312.861 142.6 312.861 142.626 312.853C143.388 312.445 144.86 310.841 144.709 310.035C144.688 309.907 144.622 309.791 144.522 309.709C144.423 309.626 144.298 309.581 144.168 309.583C144.037 309.562 143.903 309.571 143.775 309.61C143.648 309.648 143.531 309.715 143.433 309.804C142.547 310.496 142.378 312.596 142.369 312.685C142.368 312.716 142.375 312.747 142.389 312.775C142.403 312.802 142.423 312.826 142.449 312.844C142.48 312.856 142.514 312.859 142.547 312.853ZM144.044 309.902H144.124C144.346 309.902 144.363 310.035 144.372 310.079C144.461 310.558 143.486 311.763 142.759 312.339C142.822 311.506 143.13 310.71 143.645 310.052C143.759 309.964 143.901 309.92 144.044 309.928V309.902Z" fill="#407BFF"/>
<path d="M192.701 305.453C193.898 305.453 196.007 305.231 196.636 304.362C196.726 304.235 196.785 304.089 196.808 303.935C196.831 303.781 196.818 303.624 196.769 303.476C196.744 303.385 196.695 303.302 196.628 303.236C196.562 303.169 196.479 303.12 196.388 303.095C195.413 302.803 192.843 304.921 192.586 305.16C192.567 305.189 192.557 305.223 192.557 305.258C192.557 305.292 192.567 305.326 192.586 305.355C192.595 305.38 192.61 305.402 192.63 305.419C192.651 305.436 192.675 305.448 192.701 305.453ZM196.246 303.405H196.317C196.354 303.416 196.388 303.436 196.415 303.464C196.441 303.492 196.459 303.527 196.468 303.565C196.501 303.662 196.51 303.766 196.494 303.868C196.479 303.97 196.439 304.066 196.379 304.15C196.025 304.637 194.872 304.974 193.242 305.08C194.243 304.292 195.661 303.343 196.237 303.405H196.246Z" fill="#407BFF"/>
<path d="M192.701 305.453C192.741 305.468 192.785 305.468 192.825 305.453C193.596 304.877 194.961 302.945 194.651 302.174C194.58 301.987 194.394 301.792 193.924 301.846C193.75 301.865 193.581 301.92 193.429 302.006C193.276 302.093 193.143 302.21 193.038 302.351C192.293 303.299 192.524 305.258 192.542 305.337C192.544 305.368 192.554 305.397 192.571 305.422C192.588 305.447 192.612 305.467 192.639 305.479L192.701 305.453ZM194.137 302.147C194.287 302.147 194.323 302.236 194.332 302.271C194.518 302.732 193.623 304.203 192.861 304.93C192.767 304.101 192.927 303.263 193.321 302.528C193.395 302.424 193.49 302.336 193.6 302.272C193.71 302.208 193.833 302.168 193.96 302.156L194.137 302.147Z" fill="#407BFF"/>
<path d="M137.371 96.2843C136.21 98.1898 134.969 100.255 133.826 102.267C132.683 104.278 131.522 106.335 130.449 108.382C129.377 110.429 128.331 112.468 127.418 114.515C126.513 116.462 125.752 118.474 125.141 120.533C124.905 121.351 124.736 122.187 124.635 123.032C124.635 123.351 124.635 123.608 124.635 123.705H124.573C124.529 123.705 124.529 123.767 124.573 123.892C124.731 124.073 124.916 124.229 125.123 124.352C125.837 124.758 126.599 125.071 127.392 125.283C129.456 125.815 131.566 126.151 133.693 126.284C134.819 126.373 135.962 126.426 137.114 126.479C138.266 126.533 139.463 126.524 140.553 126.55L141.554 131.93C140.26 132.373 139.073 132.683 137.805 132.985C136.552 133.297 135.283 133.546 134.003 133.729C131.308 134.163 128.568 134.255 125.85 134.004C124.251 133.854 122.681 133.478 121.188 132.887C120.283 132.524 119.424 132.057 118.627 131.496C117.174 130.46 116.036 129.043 115.339 127.401C115.106 126.846 114.925 126.27 114.798 125.682C114.589 124.718 114.488 123.734 114.497 122.748C114.522 121.179 114.709 119.617 115.055 118.087C115.668 115.454 116.486 112.873 117.501 110.367C118.476 107.965 119.522 105.652 120.638 103.392C121.755 101.132 122.934 98.9608 124.183 96.7717C125.433 94.5826 126.674 92.4999 128.11 90.3374L137.371 96.2843Z" fill="#FFB573"/>
<path d="M131.805 85.2591C125.131 87.333 116.969 106.53 116.969 106.53L133.205 114.019C136.316 108.712 138.941 103.135 141.049 97.3567C144.266 88.0509 139.888 82.7421 131.805 85.2591Z" fill="#407BFF"/>
<path d="M138.869 127.215L144.665 122.633L146.81 131.735C146.81 131.735 141.014 134.527 139.206 131.593L138.869 127.215Z" fill="#FFB573"/>
<path d="M150.728 122.598L152.146 130.211L146.811 131.735L144.666 122.633L150.728 122.598Z" fill="#FFB573"/>
<path d="M198.701 116.013L204.675 111.581L206.243 119.673C206.243 119.673 200.678 123.289 198.932 120.347L198.701 116.013Z" fill="#FFB573"/>
<path d="M212.003 110.934L210.993 118.352L206.243 119.691L204.674 111.599L212.003 110.934Z" fill="#FFB573"/>
</svg>
