<svg width="380" height="284" viewBox="0 0 380 284" fill="none" xmlns="http://www.w3.org/2000/svg">
<path d="M380 248.824H0V249.014H380V248.824Z" fill="#EBEBEB"/>
<path d="M341.923 261.052H316.752V261.242H341.923V261.052Z" fill="#EBEBEB"/>
<path d="M251.727 263.12H245.123V263.31H251.727V263.12Z" fill="#EBEBEB"/>
<path d="M315.993 254H301.408V254.19H315.993V254Z" fill="#EBEBEB"/>
<path d="M72.6935 255.276H39.8691V255.466H72.6935V255.276Z" fill="#EBEBEB"/>
<path d="M84.2756 255.276H79.4648V255.466H84.2756V255.276Z" fill="#EBEBEB"/>
<path d="M171.115 258.484H99.918V258.674H171.115V258.484Z" fill="#EBEBEB"/>
<path d="M180.119 214.928H33.3711C32.2214 214.926 31.1196 214.468 30.3074 213.654C29.4952 212.841 29.0391 211.738 29.0391 210.588V4.3016C29.0491 3.15858 29.5096 2.06566 30.3208 1.26025C31.1319 0.454828 32.228 0.00195805 33.3711 0H180.119C181.27 0 182.374 0.457207 183.188 1.27104C184.002 2.08487 184.459 3.18867 184.459 4.3396V210.588C184.459 211.739 184.002 212.843 183.188 213.657C182.374 214.471 181.27 214.928 180.119 214.928ZM33.3711 0.152001C32.2718 0.154014 31.2183 0.592089 30.4418 1.37007C29.6652 2.14806 29.2291 3.20237 29.2291 4.3016V210.588C29.2291 211.688 29.6652 212.742 30.4418 213.52C31.2183 214.298 32.2718 214.736 33.3711 214.738H180.119C181.219 214.736 182.274 214.298 183.051 213.52C183.829 212.743 184.267 211.688 184.269 210.588V4.3016C184.267 3.20167 183.829 2.14737 183.051 1.36961C182.274 0.591843 181.219 0.15401 180.119 0.152001H33.3711Z" fill="#EBEBEB"/>
<path d="M344.516 214.928H197.76C196.609 214.926 195.507 214.468 194.693 213.655C193.88 212.841 193.422 211.739 193.42 210.588V4.3016C193.432 3.15789 193.894 2.06498 194.707 1.25977C195.519 0.454563 196.616 0.0019367 197.76 0H344.516C345.657 0.00395542 346.751 0.457709 347.561 1.26291C348.37 2.06812 348.83 3.15989 348.84 4.3016V210.588C348.84 211.737 348.385 212.838 347.574 213.652C346.764 214.465 345.664 214.924 344.516 214.928ZM197.76 0.152001C196.66 0.15401 195.605 0.591843 194.828 1.36961C194.05 2.14737 193.612 3.20167 193.61 4.3016V210.588C193.612 211.688 194.05 212.743 194.828 213.52C195.605 214.298 196.66 214.736 197.76 214.738H344.516C345.615 214.736 346.67 214.298 347.448 213.52C348.225 212.743 348.663 211.688 348.665 210.588V4.3016C348.663 3.20167 348.225 2.14737 347.448 1.36961C346.67 0.591843 345.615 0.15401 344.516 0.152001H197.76Z" fill="#EBEBEB"/>
<path d="M341.925 43.092H261.76V248.756H341.925V43.092Z" fill="#EBEBEB"/>
<path d="M341.924 43.092H327.803V248.756H341.924V43.092Z" fill="#F5F5F5"/>
<path d="M279.476 51.7483H268.479V71.8503H279.476V51.7483Z" fill="#E6E6E6"/>
<path d="M293.132 51.7483H282.135V71.8503H293.132V51.7483Z" fill="#E6E6E6"/>
<path d="M306.79 51.7483H295.793V71.8503H306.79V51.7483Z" fill="#E6E6E6"/>
<path d="M320.446 51.7483H309.449V71.8503H320.446V51.7483Z" fill="#E6E6E6"/>
<path d="M279.476 77.7251H268.479V97.8271H279.476V77.7251Z" fill="#E6E6E6"/>
<path d="M293.132 77.7251H282.135V97.8271H293.132V77.7251Z" fill="#E6E6E6"/>
<path d="M306.79 77.7251H295.793V97.8271H306.79V77.7251Z" fill="#E6E6E6"/>
<path d="M320.446 77.7251H309.449V97.8271H320.446V77.7251Z" fill="#E6E6E6"/>
<path d="M279.476 103.702H268.479V123.804H279.476V103.702Z" fill="#E6E6E6"/>
<path d="M293.132 103.702H282.135V123.804H293.132V103.702Z" fill="#E6E6E6"/>
<path d="M306.79 103.702H295.793V123.804H306.79V103.702Z" fill="#E6E6E6"/>
<path d="M320.446 103.702H309.449V123.804H320.446V103.702Z" fill="#E6E6E6"/>
<path d="M279.476 129.687H268.479V149.789H279.476V129.687Z" fill="#E6E6E6"/>
<path d="M293.132 129.687H282.135V149.789H293.132V129.687Z" fill="#E6E6E6"/>
<path d="M306.79 129.687H295.793V149.789H306.79V129.687Z" fill="#E6E6E6"/>
<path d="M320.446 129.687H309.449V149.789H320.446V129.687Z" fill="#E6E6E6"/>
<path d="M279.476 155.663H268.479V175.765H279.476V155.663Z" fill="#E6E6E6"/>
<path d="M293.132 155.663H282.135V175.765H293.132V155.663Z" fill="#E6E6E6"/>
<path d="M306.79 155.663H295.793V175.765H306.79V155.663Z" fill="#E6E6E6"/>
<path d="M320.446 155.663H309.449V175.765H320.446V155.663Z" fill="#E6E6E6"/>
<path d="M279.476 181.64H268.479V201.742H279.476V181.64Z" fill="#E6E6E6"/>
<path d="M293.132 181.64H282.135V201.742H293.132V181.64Z" fill="#E6E6E6"/>
<path d="M306.79 181.64H295.793V201.742H306.79V181.64Z" fill="#E6E6E6"/>
<path d="M320.446 181.64H309.449V201.742H320.446V181.64Z" fill="#E6E6E6"/>
<path d="M220.142 77.9077H92.4238V248.003H220.142V77.9077Z" fill="#F0F0F0"/>
<path d="M196.962 82.1711H95.1367V105.199H196.962V82.1711Z" fill="#E6E6E6"/>
<path d="M196.962 109.736H95.1367V132.764H196.962V109.736Z" fill="#E6E6E6"/>
<path d="M196.962 137.294H95.1367V160.322H196.962V137.294Z" fill="#E6E6E6"/>
<path d="M196.962 164.859H95.1367V187.887H196.962V164.859Z" fill="#E6E6E6"/>
<path d="M196.962 192.424H95.1367V215.452H196.962V192.424Z" fill="#E6E6E6"/>
<path d="M196.962 219.99H95.1367V243.018H196.962V219.99Z" fill="#E6E6E6"/>
<path d="M220.143 77.9077H202.191V248.003H220.143V77.9077Z" fill="#F5F5F5"/>
<path d="M115.087 89.8777H104.098V105.199H115.087V89.8777Z" fill="#EBEBEB"/>
<path d="M129.702 89.8777H118.713V105.199H129.702V89.8777Z" fill="#EBEBEB"/>
<path d="M144.324 89.8777H133.334V105.199H144.324V89.8777Z" fill="#EBEBEB"/>
<path d="M158.939 89.8777H147.949V105.199H158.939V89.8777Z" fill="#EBEBEB"/>
<path d="M173.562 89.8777H162.572V105.199H173.562V89.8777Z" fill="#EBEBEB"/>
<path d="M188.183 89.8777H177.193V105.199H188.183V89.8777Z" fill="#EBEBEB"/>
<path d="M114.638 117.39H103.648V132.711H114.638V117.39Z" fill="#EBEBEB"/>
<path d="M129.253 117.39H118.264V132.711H129.253V117.39Z" fill="#EBEBEB"/>
<path d="M143.876 117.39H132.887V132.711H143.876V117.39Z" fill="#EBEBEB"/>
<path d="M158.497 117.39H147.508V132.711H158.497V117.39Z" fill="#EBEBEB"/>
<path d="M173.113 117.39H162.123V132.711H173.113V117.39Z" fill="#EBEBEB"/>
<path d="M187.736 117.39H176.746V132.711H187.736V117.39Z" fill="#EBEBEB"/>
<path d="M114.191 144.902H103.201V160.223H114.191V144.902Z" fill="#EBEBEB"/>
<path d="M128.812 144.902H117.822V160.223H128.812V144.902Z" fill="#EBEBEB"/>
<path d="M143.427 144.902H132.438V160.223H143.427V144.902Z" fill="#EBEBEB"/>
<path d="M158.05 144.902H147.061V160.223H158.05V144.902Z" fill="#EBEBEB"/>
<path d="M172.671 144.902H161.682V160.223H172.671V144.902Z" fill="#EBEBEB"/>
<path d="M187.286 144.902H176.297V160.223H187.286V144.902Z" fill="#EBEBEB"/>
<path d="M113.742 172.414H102.752V187.735H113.742V172.414Z" fill="#EBEBEB"/>
<path d="M128.365 172.414H117.375V187.735H128.365V172.414Z" fill="#EBEBEB"/>
<path d="M142.986 172.414H131.996V187.735H142.986V172.414Z" fill="#EBEBEB"/>
<path d="M157.601 172.414H146.611V187.735H157.601V172.414Z" fill="#EBEBEB"/>
<path d="M172.224 172.414H161.234V187.735H172.224V172.414Z" fill="#EBEBEB"/>
<path d="M186.839 172.414H175.85V187.735H186.839V172.414Z" fill="#EBEBEB"/>
<path d="M113.3 199.926H102.311V215.247H113.3V199.926Z" fill="#EBEBEB"/>
<path d="M127.915 199.926H116.926V215.247H127.915V199.926Z" fill="#EBEBEB"/>
<path d="M142.538 199.926H131.549V215.247H142.538V199.926Z" fill="#EBEBEB"/>
<path d="M157.16 199.926H146.17V215.247H157.16V199.926Z" fill="#EBEBEB"/>
<path d="M171.775 199.926H160.785V215.247H171.775V199.926Z" fill="#EBEBEB"/>
<path d="M186.398 199.926H175.408V215.247H186.398V199.926Z" fill="#EBEBEB"/>
<path d="M112.853 227.438H101.863V242.759H112.853V227.438Z" fill="#EBEBEB"/>
<path d="M127.474 227.438H116.484V242.759H127.474V227.438Z" fill="#EBEBEB"/>
<path d="M142.089 227.438H131.1V242.759H142.089V227.438Z" fill="#EBEBEB"/>
<path d="M156.712 227.438H145.723V242.759H156.712V227.438Z" fill="#EBEBEB"/>
<path d="M171.327 227.438H160.338V242.759H171.327V227.438Z" fill="#EBEBEB"/>
<path d="M185.949 227.438H174.959V242.759H185.949V227.438Z" fill="#EBEBEB"/>
<path d="M167.587 71.8809H39.8691V248.003H167.587V71.8809Z" fill="#F0F0F0"/>
<path d="M144.407 76.2964H42.582V100.138H144.407V76.2964Z" fill="#E6E6E6"/>
<path d="M144.407 104.834H42.582V128.676H144.407V104.834Z" fill="#E6E6E6"/>
<path d="M144.407 133.372H42.582V157.213H144.407V133.372Z" fill="#E6E6E6"/>
<path d="M144.407 161.918H42.582V185.759H144.407V161.918Z" fill="#E6E6E6"/>
<path d="M144.407 190.456H42.582V214.297H144.407V190.456Z" fill="#E6E6E6"/>
<path d="M144.407 218.994H42.582V242.835H144.407V218.994Z" fill="#E6E6E6"/>
<path d="M167.588 71.8809H149.637V248.003H167.588V71.8809Z" fill="#F5F5F5"/>
<path d="M62.5326 84.2764H51.543V100.138H62.5326V84.2764Z" fill="#EBEBEB"/>
<path d="M77.1478 84.2764H66.1582V100.138H77.1478V84.2764Z" fill="#EBEBEB"/>
<path d="M91.7708 84.2764H80.7812V100.138H91.7708V84.2764Z" fill="#EBEBEB"/>
<path d="M106.384 84.2764H95.3945V100.138H106.384V84.2764Z" fill="#EBEBEB"/>
<path d="M121.007 84.2764H110.018V100.138H121.007V84.2764Z" fill="#EBEBEB"/>
<path d="M135.63 84.2764H124.641V100.138H135.63V84.2764Z" fill="#EBEBEB"/>
<path d="M62.0853 112.761H51.0957V128.622H62.0853V112.761Z" fill="#EBEBEB"/>
<path d="M76.7064 112.761H65.7168V128.622H76.7064V112.761Z" fill="#EBEBEB"/>
<path d="M91.3216 112.761H80.332V128.622H91.3216V112.761Z" fill="#EBEBEB"/>
<path d="M105.945 112.761H94.9551V128.622H105.945V112.761Z" fill="#EBEBEB"/>
<path d="M120.558 112.761H109.568V128.622H120.558V112.761Z" fill="#EBEBEB"/>
<path d="M135.181 112.761H124.191V128.622H135.181V112.761Z" fill="#EBEBEB"/>
<path d="M61.6361 141.246H50.6465V157.107H61.6361V141.246Z" fill="#EBEBEB"/>
<path d="M76.2591 141.246H65.2695V157.107H76.2591V141.246Z" fill="#EBEBEB"/>
<path d="M90.8724 141.246H79.8828V157.107H90.8724V141.246Z" fill="#EBEBEB"/>
<path d="M105.495 141.246H94.5059V157.107H105.495V141.246Z" fill="#EBEBEB"/>
<path d="M120.119 141.246H109.129V157.107H120.119V141.246Z" fill="#EBEBEB"/>
<path d="M134.734 141.246H123.744V157.107H134.734V141.246Z" fill="#EBEBEB"/>
<path d="M61.1947 169.738H50.2051V185.599H61.1947V169.738Z" fill="#EBEBEB"/>
<path d="M75.8099 169.738H64.8203V185.599H75.8099V169.738Z" fill="#EBEBEB"/>
<path d="M90.433 169.738H79.4434V185.599H90.433V169.738Z" fill="#EBEBEB"/>
<path d="M105.046 169.738H94.0566V185.599H105.046V169.738Z" fill="#EBEBEB"/>
<path d="M119.669 169.738H108.68V185.599H119.669V169.738Z" fill="#EBEBEB"/>
<path d="M134.292 169.738H123.303V185.599H134.292V169.738Z" fill="#EBEBEB"/>
<path d="M60.7474 198.223H49.7578V214.084H60.7474V198.223Z" fill="#EBEBEB"/>
<path d="M75.3607 198.223H64.3711V214.084H75.3607V198.223Z" fill="#EBEBEB"/>
<path d="M89.9837 198.223H78.9941V214.084H89.9837V198.223Z" fill="#EBEBEB"/>
<path d="M104.607 198.223H93.6172V214.084H104.607V198.223Z" fill="#EBEBEB"/>
<path d="M119.222 198.223H108.232V214.084H119.222V198.223Z" fill="#EBEBEB"/>
<path d="M133.843 198.223H122.854V214.084H133.843V198.223Z" fill="#EBEBEB"/>
<path d="M60.2982 226.716H49.3086V242.577H60.2982V226.716Z" fill="#EBEBEB"/>
<path d="M74.9212 226.716H63.9316V242.577H74.9212V226.716Z" fill="#EBEBEB"/>
<path d="M89.5365 226.716H78.5469V242.577H89.5365V226.716Z" fill="#EBEBEB"/>
<path d="M104.158 226.716H93.168V242.577H104.158V226.716Z" fill="#EBEBEB"/>
<path d="M118.781 226.716H107.791V242.577H118.781V226.716Z" fill="#EBEBEB"/>
<path d="M133.396 226.716H122.406V242.577H133.396V226.716Z" fill="#EBEBEB"/>
<path d="M81.8669 0.1521H78.9941V21.3485H81.8669V0.1521Z" fill="#F5F5F5"/>
<path d="M154.068 0.1521H151.195V21.3485H154.068V0.1521Z" fill="#F5F5F5"/>
<path d="M163.879 17.2671H67.1465V48.0699H163.879V17.2671Z" fill="#EBEBEB"/>
<path d="M163.872 17.2671H159.844V48.0699H163.872V17.2671Z" fill="#E6E6E6"/>
<path d="M190.001 283.146C271.384 283.146 337.357 279.294 337.357 274.542C337.357 269.791 271.384 265.939 190.001 265.939C108.618 265.939 42.6445 269.791 42.6445 274.542C42.6445 279.294 108.618 283.146 190.001 283.146Z" fill="#F5F5F5"/>
<path d="M61.925 253.445C61.925 253.445 57.631 244.074 62.5406 234.84C67.4502 225.606 68.8638 223.44 65.7402 221.54C62.6166 219.64 61.1802 228.927 61.1802 228.927C61.1802 228.927 58.5506 222.543 60.7242 215.863C62.8978 209.182 64.2658 198.299 61.2942 197.129C58.3226 195.958 60.7242 210.702 58.1478 215.734C56.8335 212.203 55.9853 208.517 55.6246 204.767C55.2674 199.401 55.8222 190.836 53.4738 188.64C51.1254 186.443 49.6282 187.963 51.9538 199.804C53.3375 206.881 54.1004 214.065 54.2338 221.274C54.2338 221.274 49.1342 205.74 45.7142 205.314C42.2942 204.888 42.3018 209.874 45.2278 214.252C48.1538 218.629 53.8006 226.412 54.7278 230.455C54.7278 230.455 49.1342 218.766 44.0878 222.353C39.0414 225.94 48.4654 232.993 52.6606 235.547C56.8558 238.1 59.7666 254.091 59.7666 254.091L61.925 253.445Z" fill="#407BFF"/>
<path opacity="0.6" d="M61.925 253.445C61.925 253.445 57.631 244.074 62.5406 234.84C67.4502 225.606 68.8638 223.44 65.7402 221.54C62.6166 219.64 61.1802 228.927 61.1802 228.927C61.1802 228.927 58.5506 222.543 60.7242 215.863C62.8978 209.182 64.2658 198.299 61.2942 197.129C58.3226 195.958 60.7242 210.702 58.1478 215.734C56.8335 212.203 55.9853 208.517 55.6246 204.767C55.2674 199.401 55.8222 190.836 53.4738 188.64C51.1254 186.443 49.6282 187.963 51.9538 199.804C53.3375 206.881 54.1004 214.065 54.2338 221.274C54.2338 221.274 49.1342 205.74 45.7142 205.314C42.2942 204.888 42.3018 209.874 45.2278 214.252C48.1538 218.629 53.8006 226.412 54.7278 230.455C54.7278 230.455 49.1342 218.766 44.0878 222.353C39.0414 225.94 48.4654 232.993 52.6606 235.547C56.8558 238.1 59.7666 254.091 59.7666 254.091L61.925 253.445Z" fill="white"/>
<path d="M58.5201 257.283C58.5201 257.283 62.7001 247.851 57.6841 238.693C52.6681 229.535 51.2241 227.377 54.3249 225.439C57.4257 223.501 58.9761 232.757 58.9761 232.757C58.9761 232.757 61.5373 226.335 59.2801 219.685C57.0229 213.035 55.5257 202.205 58.5201 200.967C61.5145 199.728 59.2801 214.533 61.8945 219.518C63.1652 215.972 63.9674 212.275 64.2809 208.521C64.5773 203.148 63.9161 194.59 66.2341 192.356C68.5521 190.121 70.0797 191.596 67.9137 203.497C66.6114 210.591 65.9325 217.786 65.8845 224.998C65.8845 224.998 70.7941 209.395 74.2445 208.886C77.6949 208.377 77.7101 213.446 74.8373 217.823C71.9645 222.201 66.4165 230.128 65.5349 234.163C65.5349 234.163 70.9841 222.391 76.0609 225.895C81.1377 229.398 71.8125 236.603 67.6477 239.217C63.4829 241.832 60.7621 257.868 60.7621 257.868L58.5201 257.283Z" fill="#407BFF"/>
<path opacity="0.7" d="M58.5201 257.283C58.5201 257.283 62.7001 247.851 57.6841 238.693C52.6681 229.535 51.2241 227.377 54.3249 225.439C57.4257 223.501 58.9761 232.757 58.9761 232.757C58.9761 232.757 61.5373 226.335 59.2801 219.685C57.0229 213.035 55.5257 202.205 58.5201 200.967C61.5145 199.728 59.2801 214.533 61.8945 219.518C63.1652 215.972 63.9674 212.275 64.2809 208.521C64.5773 203.148 63.9161 194.59 66.2341 192.356C68.5521 190.121 70.0797 191.596 67.9137 203.497C66.6114 210.591 65.9325 217.786 65.8845 224.998C65.8845 224.998 70.7941 209.395 74.2445 208.886C77.6949 208.377 77.7101 213.446 74.8373 217.823C71.9645 222.201 66.4165 230.128 65.5349 234.163C65.5349 234.163 70.9841 222.391 76.0609 225.895C81.1377 229.398 71.8125 236.603 67.6477 239.217C63.4829 241.832 60.7621 257.868 60.7621 257.868L58.5201 257.283Z" fill="white"/>
<path d="M77.8156 250.557H43.2812L46.078 275.272H75.0264L77.8156 250.557Z" fill="#407BFF"/>
<path d="M197.228 140.311H148.086V103.77H178.988L181.792 118.932L197.228 125.195V140.311Z" fill="#263238"/>
<path opacity="0.1" d="M197.228 140.311H148.086V103.77H178.988L181.792 118.932L197.228 125.195V140.311Z" fill="white"/>
<path opacity="0.1" d="M174.428 140.311H146.566V103.77H156.188L158.992 118.932L174.428 125.195V140.311Z" fill="white"/>
<path opacity="0.2" d="M178.045 110.74L177.216 106.248H159.463L160.291 110.74H178.045Z" fill="black"/>
<path opacity="0.2" d="M160.664 112.746L161.257 115.953H179.01L178.418 112.746H160.664Z" fill="black"/>
<path opacity="0.3" d="M158.992 118.932H181.792L197.228 125.195H174.428L158.992 118.932Z" fill="white"/>
<path d="M233.998 76.5471C238.801 78.9943 237.425 90.7743 225.144 112.769L216.73 105.929C218.73 99.0927 221.314 92.441 224.452 86.0471C229.43 76.1215 233.998 76.5471 233.998 76.5471Z" fill="#407BFF"/>
<path opacity="0.4" d="M233.998 76.5471C238.801 78.9943 237.425 90.7743 225.144 112.769L216.73 105.929C218.73 99.0927 221.314 92.441 224.452 86.0471C229.43 76.1215 233.998 76.5471 233.998 76.5471Z" fill="white"/>
<path d="M275.25 129.489H242.57C239.462 146.475 229.726 206.568 236.711 260.11L247.761 258.734C247.761 258.734 246.735 187.652 256.516 161.378C257.641 175.438 258.971 190.403 260.134 198.368C262.961 217.96 269.041 260.794 269.041 260.794H280.312C280.312 260.794 278.032 219.8 276.938 200.534C275.798 179.626 275.296 133.76 275.25 129.489Z" fill="#263238"/>
<path d="M231.657 76.7143C235.039 75.9543 252.876 71.9567 267.271 72.5191C267.271 72.5191 271.899 119.951 276.238 139.232L238.596 145.829C238.596 145.829 230.144 98.6327 231.064 77.4287C231.07 77.2609 231.131 77.0997 231.239 76.9705C231.346 76.8412 231.493 76.7511 231.657 76.7143Z" fill="#407BFF"/>
<path opacity="0.6" d="M231.657 76.7143C235.039 75.9543 252.876 71.9567 267.271 72.5191C267.271 72.5191 271.899 119.951 276.238 139.232L238.596 145.829C238.596 145.829 230.144 98.6327 231.064 77.4287C231.07 77.2609 231.131 77.0997 231.239 76.9705C231.346 76.8412 231.493 76.7511 231.657 76.7143Z" fill="white"/>
<path d="M263.912 71.8806C263.912 71.8806 259.603 89.999 271.383 105.389L274.293 124.716L277.675 140.721L258.949 145.661L252.238 130.636L251.562 147.227L236.658 149.401L235.039 130.401C235.039 130.401 232.463 115.398 231.802 107.16C231.802 107.16 229.567 88.0686 233.048 75.8934L237.95 74.837C237.95 74.837 238.224 86.4726 245.672 95.8054C245.672 95.8054 252.74 77.1778 259.154 71.9034L263.912 71.8806Z" fill="#407BFF"/>
<path opacity="0.2" d="M263.912 71.8806C263.912 71.8806 259.603 89.999 271.383 105.389L274.293 124.716L277.675 140.721L258.949 145.661L252.238 130.636L251.562 147.227L236.658 149.401L235.039 130.401C235.039 130.401 232.463 115.398 231.802 107.16C231.802 107.16 229.567 88.0686 233.048 75.8934L237.95 74.837C237.95 74.837 238.224 86.4726 245.672 95.8054C245.672 95.8054 252.74 77.1778 259.154 71.9034L263.912 71.8806Z" fill="black"/>
<path d="M218.334 102.387C218.334 102.387 216.099 108.505 214.389 108.703C212.679 108.9 201.561 90.2499 201.561 90.2499C201.561 90.2499 200.284 86.5487 198.179 85.5455C196.073 84.5423 189.819 80.9855 188.207 81.7911C186.596 82.5967 187.447 88.7527 187.447 90.1511C187.447 91.3823 192.767 93.1911 194.363 93.4951C195.396 93.7083 196.469 93.6132 197.449 93.2215C197.449 93.2215 206.364 115.17 212.147 119.016C217.931 122.861 226.641 109.782 226.641 109.782L218.334 102.387Z" fill="#EBB376"/>
<path d="M215.287 105.503L216.868 104.234L226.482 112.366L224.939 115.125L215.287 105.503Z" fill="#407BFF"/>
<path opacity="0.3" d="M215.287 105.503L216.868 104.234L226.482 112.366L224.939 115.125L215.287 105.503Z" fill="white"/>
<path d="M246.56 269.435L240.207 270.104L239.014 256.393L245.367 255.717L246.56 269.435Z" fill="#EBB376"/>
<path d="M278.298 268.972H272.134L271.625 254.699H277.789L278.298 268.972Z" fill="#EBB376"/>
<path d="M271.275 268.28H278.761C278.884 268.282 279.003 268.324 279.1 268.402C279.196 268.479 279.264 268.586 279.293 268.706L280.501 274.193C280.527 274.31 280.529 274.43 280.508 274.548C280.486 274.666 280.442 274.778 280.377 274.878C280.312 274.979 280.228 275.065 280.129 275.133C280.03 275.2 279.919 275.248 279.802 275.272C279.736 275.28 279.67 275.28 279.604 275.272C277.18 275.234 275.417 275.09 272.377 275.09C270.5 275.09 264.853 275.28 262.261 275.28C259.67 275.28 259.343 272.726 260.399 272.49C265.149 271.457 268.721 270.02 270.241 268.69C270.522 268.428 270.891 268.281 271.275 268.28Z" fill="#263238"/>
<path d="M269.239 269.344C268.821 269.374 268.406 269.262 268.061 269.025C267.95 268.934 267.863 268.817 267.808 268.684C267.754 268.552 267.734 268.407 267.749 268.265C267.748 268.181 267.771 268.098 267.816 268.027C267.86 267.955 267.924 267.898 268 267.862C268.684 267.505 270.675 268.728 270.896 268.873C270.92 268.885 270.94 268.905 270.952 268.93C270.965 268.955 270.969 268.982 270.964 269.01C270.96 269.039 270.948 269.066 270.929 269.089C270.91 269.112 270.886 269.129 270.858 269.139C270.326 269.26 269.784 269.329 269.239 269.344ZM268.327 268.06C268.261 268.058 268.195 268.074 268.137 268.105C268.099 268.105 268.046 268.158 268.038 268.272C268.027 268.369 268.039 268.467 268.074 268.558C268.108 268.649 268.164 268.731 268.236 268.797C268.926 269.114 269.712 269.155 270.432 268.911C269.79 268.497 269.076 268.209 268.327 268.06Z" fill="#407BFF"/>
<path d="M270.819 269.124H270.743C270.112 268.774 268.881 267.421 269.003 266.768C269.025 266.66 269.085 266.563 269.17 266.494C269.256 266.425 269.363 266.387 269.474 266.388C269.585 266.373 269.697 266.382 269.805 266.413C269.912 266.445 270.011 266.498 270.097 266.57C270.811 267.155 270.956 268.926 270.963 269.01C270.964 269.036 270.959 269.063 270.947 269.087C270.935 269.111 270.917 269.131 270.895 269.146C270.868 269.147 270.841 269.139 270.819 269.124ZM269.58 266.623H269.504C269.322 266.623 269.307 266.73 269.291 266.768C269.215 267.17 269.998 268.196 270.637 268.675C270.583 267.97 270.319 267.297 269.877 266.745C269.793 266.673 269.689 266.631 269.58 266.623Z" fill="#407BFF"/>
<path d="M239.53 268.059H247.001C247.123 268.063 247.24 268.106 247.335 268.183C247.43 268.26 247.497 268.366 247.525 268.485L248.741 273.972C248.791 274.208 248.745 274.454 248.614 274.656C248.483 274.858 248.277 275 248.042 275.051H247.844C245.42 275.006 243.657 274.861 240.617 274.861C238.74 274.861 233.085 275.059 230.501 275.059C227.917 275.059 227.575 272.498 228.639 272.262C233.389 271.229 236.961 269.792 238.481 268.462C238.766 268.199 239.142 268.055 239.53 268.059Z" fill="#263238"/>
<path d="M237.494 269.146C237.075 269.178 236.657 269.068 236.308 268.835C236.201 268.741 236.117 268.624 236.064 268.491C236.011 268.359 235.991 268.217 236.004 268.075C236.002 267.991 236.025 267.908 236.069 267.836C236.114 267.764 236.178 267.707 236.255 267.672C236.939 267.315 238.93 268.538 239.15 268.683C239.174 268.696 239.193 268.716 239.205 268.741C239.218 268.765 239.222 268.793 239.219 268.82C239.215 268.85 239.202 268.879 239.182 268.902C239.161 268.925 239.135 268.941 239.105 268.949C238.577 269.075 238.036 269.142 237.494 269.146ZM236.574 267.87C236.511 267.863 236.447 267.876 236.392 267.908C236.346 267.908 236.3 267.961 236.293 268.082C236.283 268.179 236.296 268.277 236.33 268.368C236.364 268.459 236.419 268.54 236.49 268.607C237.184 268.915 237.967 268.953 238.687 268.713C238.042 268.302 237.325 268.015 236.574 267.87Z" fill="#407BFF"/>
<path d="M239.067 268.926H238.999C238.36 268.584 237.137 267.223 237.258 266.57C237.281 266.462 237.341 266.365 237.426 266.296C237.512 266.227 237.619 266.189 237.73 266.19C237.84 266.175 237.952 266.184 238.059 266.216C238.165 266.249 238.263 266.305 238.345 266.38C239.06 266.957 239.212 268.728 239.219 268.812C239.219 268.838 239.213 268.864 239.201 268.888C239.189 268.912 239.172 268.933 239.151 268.949C239.121 268.949 239.092 268.941 239.067 268.926ZM237.828 266.425H237.76C237.57 266.425 237.555 266.532 237.547 266.57C237.471 266.973 238.254 267.999 238.892 268.477C238.839 267.772 238.574 267.099 238.132 266.547C238.046 266.476 237.94 266.433 237.828 266.425Z" fill="#407BFF"/>
<path opacity="0.2" d="M245.367 255.717L239.014 256.393L239.629 263.469L245.99 262.793L245.367 255.717Z" fill="black"/>
<path opacity="0.2" d="M277.789 254.706H271.625L271.891 262.063H278.062L277.789 254.706Z" fill="black"/>
<path d="M235.418 262.686L249.121 260.65L248.703 256.85L234.445 258.727L235.418 262.686Z" fill="#407BFF"/>
<path opacity="0.6" d="M235.418 262.686L249.121 260.65L248.703 256.85L234.445 258.727L235.418 262.686Z" fill="white"/>
<path d="M267.703 260.885H280.995V256.91L267.201 256.652L267.703 260.885Z" fill="#407BFF"/>
<path opacity="0.6" d="M267.703 260.885H280.995V256.91L267.201 256.652L267.703 260.885Z" fill="white"/>
<path opacity="0.2" d="M256.501 161.378C254.891 165.995 253.671 170.739 252.853 175.56C251.934 163.043 255.597 149.773 255.597 149.773L256.501 161.378Z" fill="black"/>
<path d="M255.262 72.9142C252.891 76.1974 245.481 76.7142 245.481 76.7142C245.481 76.7142 240.731 76.4331 241.377 74.8295C243.93 73.8339 244.949 72.329 245.177 70.6342C245.26 69.5937 245.133 68.547 244.804 67.5562C244.644 66.9984 244.451 66.4503 244.227 65.9146L251.728 57.4482C251.454 62.069 251.72 70.3682 255.262 72.9142Z" fill="#EBB376"/>
<path opacity="0.2" d="M250.527 62.092C251.287 67.5032 247.228 69.9048 245.146 70.6572C245.229 69.6167 245.102 68.57 244.773 67.5792L250.527 62.092Z" fill="black"/>
<path d="M235.464 44.9234C235.464 44.9234 233.61 53.2834 237.889 56.8782C242.167 60.473 243.209 44.665 243.209 44.665L235.464 44.9234Z" fill="#263238"/>
<path d="M250.488 64.4936C249.451 65.8254 248.005 66.7801 246.373 67.2111C244.74 67.6422 243.012 67.5259 241.452 66.88C239.423 66.082 237.773 64.5413 236.839 62.5708C236.702 62.2977 236.582 62.0159 236.482 61.7272C234.62 56.4072 234.528 47.2872 240.228 44.2472C241.485 43.5724 242.893 43.2304 244.319 43.2535C245.745 43.2767 247.142 43.6644 248.376 44.3796C249.61 45.0949 250.64 46.1139 251.369 47.3399C252.098 48.5658 252.501 49.9579 252.54 51.3836C252.806 57.5016 253.247 61.0812 250.488 64.4936Z" fill="#EBB376"/>
<path d="M243.496 54.0436C243.58 54.53 243.329 54.9632 243.002 55.0012C242.676 55.0392 242.379 54.6516 242.326 54.1576C242.273 53.6636 242.501 53.238 242.82 53.2076C243.139 53.1772 243.443 53.542 243.496 54.0436Z" fill="#263238"/>
<path d="M237.881 54.6135C237.965 55.0999 237.706 55.5331 237.379 55.5711C237.053 55.6091 236.756 55.2215 236.703 54.7351C236.65 54.2487 236.878 53.8079 237.197 53.7775C237.516 53.7471 237.881 54.1499 237.881 54.6135Z" fill="#263238"/>
<path d="M239.712 54.6743C239.273 56.2466 238.623 57.7523 237.781 59.1507C238.145 59.3583 238.55 59.4836 238.968 59.5178C239.385 59.5519 239.805 59.4941 240.198 59.3483L239.712 54.6743Z" fill="#D58745"/>
<path d="M245.047 52.06C244.995 52.0715 244.94 52.0699 244.889 52.0553C244.837 52.0408 244.79 52.0137 244.751 51.9764C244.507 51.7062 244.204 51.4967 243.864 51.3648C243.525 51.2328 243.16 51.182 242.798 51.2164C242.727 51.2177 242.658 51.1935 242.603 51.1483C242.549 51.1031 242.512 51.0399 242.5 50.9701C242.488 50.9002 242.502 50.8284 242.538 50.7677C242.575 50.7069 242.632 50.6612 242.699 50.6388C243.158 50.5904 243.623 50.652 244.053 50.8185C244.484 50.9851 244.869 51.2517 245.177 51.5964C245.204 51.6233 245.225 51.6552 245.24 51.6905C245.255 51.7257 245.262 51.7635 245.262 51.8016C245.262 51.8398 245.255 51.8776 245.24 51.9128C245.225 51.948 245.204 51.98 245.177 52.0068C245.137 52.0322 245.093 52.0503 245.047 52.06Z" fill="#263238"/>
<path d="M235.313 52.934C235.256 52.9526 235.195 52.9526 235.138 52.934C235.102 52.9213 235.069 52.9015 235.04 52.8758C235.012 52.8501 234.989 52.8191 234.973 52.7844C234.956 52.7498 234.947 52.7122 234.946 52.674C234.944 52.6357 234.95 52.5975 234.963 52.5616C235.113 52.1234 235.366 51.7275 235.7 51.4074C236.035 51.0873 236.442 50.8524 236.886 50.7224C236.923 50.7134 236.961 50.7117 236.999 50.7175C237.036 50.7233 237.073 50.7364 237.105 50.7562C237.137 50.776 237.166 50.802 237.188 50.8327C237.211 50.8634 237.227 50.8983 237.236 50.9352C237.252 51.0107 237.238 51.0895 237.196 51.1548C237.155 51.2201 237.09 51.2667 237.015 51.2848C236.659 51.3983 236.335 51.5956 236.07 51.86C235.806 52.1245 235.609 52.4485 235.495 52.8048C235.452 52.8685 235.387 52.9144 235.313 52.934Z" fill="#263238"/>
<path d="M247.313 44.2852L247.131 46.9908C247.596 47.184 247.972 47.5454 248.183 48.0031C248.395 48.4607 248.426 48.9811 248.271 49.4608C247.511 51.7408 249.031 55.1988 250.809 56.506C250.809 56.506 250.809 55.518 251.645 55.746C252.481 55.974 252.534 61.066 251.052 63.5664C251.052 63.5664 253.37 61.2332 254.457 55.8068C255.468 50.7908 255.4 46.6868 254.275 44.7944L247.313 44.2852Z" fill="#263238"/>
<path d="M255.704 56.1106C255.438 56.8282 255.032 57.4858 254.51 58.0455C253.989 58.6052 253.361 59.0557 252.664 59.371C250.809 60.2146 249.571 58.611 249.829 56.711C250.065 55.0162 251.303 52.4778 253.295 52.455C255.286 52.4322 256.335 54.3322 255.704 56.1106Z" fill="#EBB376"/>
<path d="M247.13 46.9907C245.043 46.8279 242.944 47.0337 240.929 47.5987C239.181 48.1601 237.313 48.2363 235.525 47.8191C235.525 47.8191 232.819 42.3471 236.399 39.0335C239.979 35.7199 245.967 37.0119 247.905 38.1367C249.843 39.2615 245.907 39.0715 245.907 39.0715C245.907 39.0715 252.245 40.2495 254.989 42.6587C257.732 45.0679 257.071 49.0351 256.509 49.7039C255.946 50.3727 255.445 48.8983 255.445 48.8983C254.27 49.4907 252.957 49.7533 251.645 49.6583C249.281 49.6279 250.269 47.5379 247.13 46.9907Z" fill="#263238"/>
<path d="M240.564 61.3395C240.981 62.0131 241.347 62.7168 241.659 63.4447C241.795 63.4173 241.93 63.3818 242.062 63.3383C243.901 62.8671 244.592 62.0387 244.805 61.2635C244.897 60.8839 244.897 60.488 244.805 60.1083C244.762 59.891 244.688 59.681 244.585 59.4851C243.582 60.2802 242.421 60.8527 241.18 61.1647L240.564 61.3395Z" fill="#263238"/>
<path d="M241.188 61.1647L241.529 61.7803C243.255 61.3243 244.41 60.7695 244.813 60.1083C244.77 59.891 244.696 59.681 244.592 59.4851C243.589 60.2802 242.429 60.8527 241.188 61.1647Z" fill="white"/>
<path d="M242.061 63.3382C243.9 62.867 244.591 62.0386 244.804 61.2634C244.11 61.4573 243.456 61.7739 242.874 62.1982C242.49 62.4835 242.205 62.8823 242.061 63.3382Z" fill="#DE5753"/>
<path d="M253.378 70.5051C251.487 72.9254 249.08 74.8935 246.333 76.2659C245.454 75.1194 244.86 73.7805 244.6 72.3595C243.118 73.0626 241.754 73.9906 240.557 75.1107C240.744 76.8881 241.36 78.5935 242.35 80.0811L246.203 77.3223L250.877 80.7347C250.877 80.7347 257.018 76.7675 258.394 72.6939L253.378 70.5051Z" fill="#407BFF"/>
<path opacity="0.4" d="M253.378 70.5051C251.487 72.9254 249.08 74.8935 246.333 76.2659C245.454 75.1194 244.86 73.7805 244.6 72.3595C243.118 73.0626 241.754 73.9906 240.557 75.1107C240.744 76.8881 241.36 78.5935 242.35 80.0811L246.203 77.3223L250.877 80.7347C250.877 80.7347 257.018 76.7675 258.394 72.6939L253.378 70.5051Z" fill="white"/>
<path d="M204.866 101.407C199.683 101.027 200.36 105.313 201.287 108.383L205.315 117.503L213.508 117.207C213.508 117.207 210.05 101.779 204.866 101.407ZM204.494 112.092C203.293 110.116 199.828 103.96 203.514 102.904C207.2 101.847 211.554 110.048 210.506 113.202C209.457 116.356 206.873 116.006 204.494 112.092Z" fill="#407BFF"/>
<path opacity="0.5" d="M204.866 101.407C199.683 101.027 200.36 105.313 201.287 108.383L205.315 117.503L213.508 117.207C213.508 117.207 210.05 101.779 204.866 101.407ZM204.494 112.092C203.293 110.116 199.828 103.96 203.514 102.904C207.2 101.847 211.554 110.048 210.506 113.202C209.457 116.356 206.873 116.006 204.494 112.092Z" fill="white"/>
<path d="M203.361 116.964L205.915 107.502L218.318 110.641L215.149 126.282L203.361 116.964Z" fill="#407BFF"/>
<path d="M217.193 124.48L214.184 105.549L221.7 102.159L227.62 105.549L228.244 125.385L217.193 124.48Z" fill="#407BFF"/>
<path opacity="0.2" d="M217.193 124.48L214.184 105.549L221.7 102.159L227.62 105.549L228.244 125.385L217.193 124.48Z" fill="black"/>
<path d="M222.605 118.841C222.605 118.841 226.74 93.0011 229.749 92.1575C232.759 91.3139 235.533 95.3191 235.533 95.3191C235.533 95.3191 232.972 112.153 231.095 118.119C229.217 124.085 222.605 118.841 222.605 118.841Z" fill="#407BFF"/>
<path opacity="0.8" d="M222.605 118.841C222.605 118.841 226.74 93.0011 229.749 92.1575C232.759 91.3139 235.533 95.3191 235.533 95.3191C235.533 95.3191 232.972 112.153 231.095 118.119C229.217 124.085 222.605 118.841 222.605 118.841Z" fill="white"/>
<path d="M232.752 119.723C232.752 115.923 237.768 105.283 231.528 104.234C225.288 103.185 220.326 114.509 213.288 114.486C206.25 114.463 201.265 108.406 201.265 108.406L202.344 110.648C202.344 110.648 188.778 137.195 195.246 139.832C201.265 142.279 235.047 139.832 235.047 139.832C239.987 136.443 232.752 123.53 232.752 119.723ZM231.992 115.793C231.232 115.983 227.637 112.092 227.637 112.092C227.333 105.039 231.171 104.561 233.048 106.59C234.925 108.619 232.752 115.611 231.999 115.793H231.992Z" fill="#407BFF"/>
<path opacity="0.7" d="M232.752 119.723C232.752 115.923 237.768 105.283 231.528 104.234C225.288 103.185 220.326 114.509 213.288 114.486C206.25 114.463 201.265 108.406 201.265 108.406L202.344 110.648C202.344 110.648 188.778 137.195 195.246 139.832C201.265 142.279 235.047 139.832 235.047 139.832C239.987 136.443 232.752 123.53 232.752 119.723ZM231.992 115.793C231.232 115.983 227.637 112.092 227.637 112.092C227.333 105.039 231.171 104.561 233.048 106.59C234.925 108.619 232.752 115.611 231.999 115.793H231.992Z" fill="white"/>
<path opacity="0.6" d="M258.746 97.1834L251.129 98.0015L251.689 103.215L259.306 102.397L258.746 97.1834Z" fill="white"/>
<path d="M253.613 95.1672L254.373 97.6828C254.419 97.8412 254.523 97.9771 254.663 98.064C254.803 98.151 254.971 98.1831 255.133 98.154C255.277 98.1311 255.411 98.0627 255.513 97.9588C255.616 97.8549 255.682 97.7209 255.703 97.5764L256.106 94.658L253.613 95.1672Z" fill="#407BFF"/>
<path opacity="0.4" d="M253.613 95.1672L254.373 97.6828C254.419 97.8412 254.523 97.9771 254.663 98.064C254.803 98.151 254.971 98.1831 255.133 98.154C255.277 98.1311 255.411 98.0627 255.513 97.9588C255.616 97.8549 255.682 97.7209 255.703 97.5764L256.106 94.658L253.613 95.1672Z" fill="black"/>
<path d="M259.214 102.342C259.214 102.342 256.387 110.831 255.171 112.678C253.955 114.524 222.605 122.634 222.605 122.634C222.605 122.634 219.975 121.296 218.319 121.44C216.662 121.585 210.202 123.09 210.05 124.29C209.898 125.491 213.363 130.902 214.184 131.351C215.005 131.799 223.304 130.553 224.186 128.394C224.186 128.394 256.205 122.649 259.214 121.44C262.224 120.232 268.676 105.952 268.676 105.952L259.214 102.342Z" fill="#EBB376"/>
<path d="M267.271 72.519C272.119 72.8458 276.352 83.2882 275.524 91.709C274.696 100.13 266.951 114.509 266.951 114.509L256.129 109.189C256.129 109.189 258.835 99.5598 261.92 90.4398C265.006 81.3198 263.607 72.2682 267.271 72.519Z" fill="#407BFF"/>
<path opacity="0.4" d="M267.271 72.519C272.119 72.8458 276.352 83.2882 275.524 91.709C274.696 100.13 266.951 114.509 266.951 114.509L256.129 109.189C256.129 109.189 258.835 99.5598 261.92 90.4398C265.006 81.3198 263.607 72.2682 267.271 72.519Z" fill="white"/>
<path d="M254.836 110.139L256.037 108.384L268.676 112.655L268.022 115.794L254.836 110.139Z" fill="#407BFF"/>
<path opacity="0.3" d="M254.836 110.139L256.037 108.384L268.676 112.655L268.022 115.794L254.836 110.139Z" fill="white"/>
<path d="M155.04 126.973H177.278C177.638 126.973 177.985 127.116 178.24 127.372C178.495 127.627 178.638 127.973 178.638 128.334V140.843H153.68V128.326C153.682 127.966 153.826 127.622 154.081 127.369C154.336 127.115 154.681 126.973 155.04 126.973Z" fill="#407BFF"/>
<path opacity="0.3" d="M178.6 128.326V140.836H153.68V128.326C153.68 127.967 153.822 127.623 154.076 127.369C154.33 127.116 154.674 126.973 155.032 126.973H177.278C177.631 126.981 177.968 127.127 178.215 127.38C178.462 127.633 178.6 127.972 178.6 128.326Z" fill="white"/>
<path opacity="0.4" d="M172.52 128.326V140.836H153.68V128.326C153.68 127.967 153.822 127.623 154.076 127.369C154.33 127.116 154.674 126.973 155.032 126.973H171.198C171.551 126.981 171.888 127.127 172.135 127.38C172.382 127.633 172.52 127.972 172.52 128.326Z" fill="white"/>
<path d="M311.813 144.56H137.834V275.272H311.813V144.56Z" fill="#407BFF"/>
<path opacity="0.3" d="M311.813 144.56H137.834V275.272H311.813V144.56Z" fill="white"/>
<path opacity="0.4" d="M266.669 144.56H137.834V275.272H266.669V144.56Z" fill="white"/>
<path d="M313.143 139.749H137.188C136.533 139.749 136.002 140.28 136.002 140.934V146.125C136.002 146.78 136.533 147.311 137.188 147.311H313.143C313.798 147.311 314.328 146.78 314.328 146.125V140.934C314.328 140.28 313.798 139.749 313.143 139.749Z" fill="#407BFF"/>
<path opacity="0.2" d="M267.543 139.749H137.188C136.533 139.749 136.002 140.28 136.002 140.934V146.125C136.002 146.78 136.533 147.311 137.188 147.311H267.543C268.198 147.311 268.728 146.78 268.728 146.125V140.934C268.728 140.28 268.198 139.749 267.543 139.749Z" fill="white"/>
<path d="M336.55 256.432C336.706 256.103 336.782 255.741 336.77 255.377C336.757 255.013 336.658 254.658 336.48 254.34C336.302 254.022 336.051 253.752 335.747 253.551C335.443 253.35 335.096 253.225 334.734 253.186C335.055 252.251 335.082 251.239 334.81 250.287C334.539 249.336 333.981 248.491 333.214 247.866C333.033 247.697 332.8 247.593 332.553 247.57C332.286 247.599 332.035 247.708 331.831 247.882L327.597 250.922C327.254 251.127 326.965 251.411 326.754 251.75C325.887 253.43 329.034 255.55 327.727 256.964C327.362 257.359 326.769 257.442 326.305 257.724C325.295 258.354 325.173 259.738 324.709 260.832C324.246 261.926 322.597 262.77 321.973 261.759C322.437 260.71 321.031 259.814 319.899 259.677C318.766 259.54 317.573 259.479 316.942 258.415C315.323 259.821 311.713 255.892 311.797 254.304C310.467 254.402 309.563 255.649 309.274 256.888C309.088 258.196 309.042 259.521 309.137 260.84C309.099 263.416 308.271 265.932 308.316 268.5C308.316 270.499 309.122 272.718 310.953 273.524C311.861 273.849 312.827 273.979 313.788 273.904L334.635 273.775C335.136 273.807 335.638 273.724 336.102 273.532C337.044 273.038 337.242 271.799 337.333 270.742L338.45 257.161L336.55 256.432Z" fill="#407BFF"/>
<path opacity="0.3" d="M336.55 256.432C336.706 256.103 336.782 255.741 336.77 255.377C336.757 255.013 336.658 254.658 336.48 254.34C336.302 254.022 336.051 253.752 335.747 253.551C335.443 253.35 335.096 253.225 334.734 253.186C335.055 252.251 335.082 251.239 334.81 250.287C334.539 249.336 333.981 248.491 333.214 247.866C333.033 247.697 332.8 247.593 332.553 247.57C332.286 247.599 332.035 247.708 331.831 247.882L327.597 250.922C327.254 251.127 326.965 251.411 326.754 251.75C325.887 253.43 329.034 255.55 327.727 256.964C327.362 257.359 326.769 257.442 326.305 257.724C325.295 258.354 325.173 259.738 324.709 260.832C324.246 261.926 322.597 262.77 321.973 261.759C322.437 260.71 321.031 259.814 319.899 259.677C318.766 259.54 317.573 259.479 316.942 258.415C315.323 259.821 311.713 255.892 311.797 254.304C310.467 254.402 309.563 255.649 309.274 256.888C309.088 258.196 309.042 259.521 309.137 260.84C309.099 263.416 308.271 265.932 308.316 268.5C308.316 270.499 309.122 272.718 310.953 273.524C311.861 273.849 312.827 273.979 313.788 273.904L334.635 273.775C335.136 273.807 335.638 273.724 336.102 273.532C337.044 273.038 337.242 271.799 337.333 270.742L338.45 257.161L336.55 256.432Z" fill="white"/>
<path d="M337.766 234.399H305.42L305.686 237.667L305.876 240L306.37 246.08L306.651 249.569L307.024 254.212L307.183 256.204L307.236 256.796L307.426 259.137L307.685 262.344L307.844 264.336L308.012 266.357L308.202 268.698L308.346 270.469L308.506 272.46L308.574 273.326H338.26L338.328 272.46L338.488 270.476L338.632 268.69L338.822 266.35L338.989 264.336L339.149 262.344L339.407 259.13L339.597 256.796L339.643 256.204L339.802 254.212L340.182 249.569L340.464 246.088L340.95 240.008L341.14 237.675L341.406 234.407L337.766 234.399ZM339.711 236.542L339.088 235.919H339.764L339.711 236.542ZM339.552 238.526L339.491 239.286L336.595 242.182L333.274 238.86L336.246 235.889H336.945L339.552 238.526ZM338.716 248.877L336.595 250.998L333.274 247.676L336.595 244.363L338.875 246.643L338.716 248.877ZM307.936 246.658L310.216 244.378L313.537 247.692L310.216 251.013L308.103 248.892L307.936 246.658ZM335.524 243.284L332.202 246.605L328.881 243.284L332.202 239.962L335.524 243.284ZM330.302 235.919H334.102L332.202 237.819L330.302 235.919ZM331.123 247.676L327.81 250.998L324.519 247.676L327.84 244.363L331.123 247.676ZM320.096 252.069L323.417 248.756L326.73 252.069L323.417 255.36L320.096 252.069ZM322.338 256.462L319.016 259.783L315.703 256.47L319.024 253.148L322.338 256.462ZM327.81 253.148L331.123 256.47L327.81 259.783L324.519 256.462L327.81 253.148ZM323.417 246.605L320.096 243.284L323.417 239.962L326.73 243.284L323.417 246.605ZM322.338 247.676L319.024 250.998L315.703 247.676L319.024 244.363L322.338 247.676ZM314.639 246.605L311.325 243.284L314.639 239.962L317.96 243.284L314.639 246.605ZM314.639 248.756L317.96 252.069L314.639 255.36L311.325 252.039L314.639 248.756ZM317.96 260.862L314.639 264.176L311.325 260.862L314.639 257.541L317.96 260.862ZM319.032 261.934L322.353 265.255L319.039 268.576L315.703 265.24L319.032 261.934ZM320.111 260.862L323.432 257.541L326.746 260.862L323.432 264.176L320.111 260.862ZM327.825 261.934L331.138 265.255L327.825 268.576L324.519 265.24L327.825 261.934ZM332.218 266.327L335.539 269.648L333.388 271.799H331.047L328.896 269.648L332.218 266.327ZM328.896 260.862L332.218 257.541L335.539 260.862L332.218 264.176L328.896 260.862ZM328.896 252.069L332.218 248.756L335.539 252.069L332.202 255.36L328.896 252.069ZM331.138 238.891L327.825 242.212L324.519 238.891L327.49 235.919H328.19L331.138 238.891ZM323.432 237.819L321.532 235.919H325.332L323.432 237.819ZM322.353 238.891L319.039 242.212L315.718 238.891L318.69 235.919H319.389L322.353 238.891ZM316.539 235.919L314.639 237.819L312.746 235.919H316.539ZM310.596 235.919L313.567 238.891L310.246 242.212L307.358 239.316L307.297 238.556L309.896 235.95L310.596 235.919ZM307.753 235.919L307.138 236.535L307.084 235.919H307.753ZM307.548 241.657L309.174 243.284L307.799 244.667L307.548 241.657ZM308.452 252.791L308.323 251.218L309.174 252.069L308.414 252.791H308.452ZM308.612 254.79L310.246 253.148L313.567 256.47L310.246 259.783L308.908 258.446L308.612 254.79ZM309.106 260.931V260.786L309.182 260.862L309.114 260.931H309.106ZM309.684 268.006L309.266 262.914L310.246 261.934L313.567 265.255L310.246 268.569L309.684 268.006ZM309.988 271.806L309.927 271.046L310.246 270.727L311.325 271.806H309.988ZM311.325 269.656L314.639 266.334L317.96 269.656L315.809 271.806H313.468L311.325 269.656ZM317.96 271.806L319.039 270.727L320.118 271.806H317.96ZM322.262 271.806L320.111 269.656L323.432 266.334L326.746 269.656L324.602 271.806H322.262ZM326.746 271.806L327.825 270.727L328.904 271.806H326.746ZM336.869 271.806H335.531L336.61 270.727L336.93 271.046L336.869 271.806ZM337.18 268.006L336.61 268.569L333.274 265.24L336.595 261.919L337.576 262.899L337.18 268.006ZM337.766 260.779V260.931L337.697 260.862L337.781 260.779H337.766ZM337.956 258.446L336.61 259.783L333.289 256.47L336.61 253.148L338.252 254.79L337.956 258.446ZM338.412 252.799L337.652 252.039L338.51 251.188L338.412 252.799ZM339.301 241.68L339.058 244.72L337.667 243.329L339.301 241.695V241.68Z" fill="#407BFF"/>
<g opacity="0.6">
<path d="M337.766 234.399H305.42L305.686 237.667L305.876 240L306.37 246.08L306.651 249.569L307.024 254.212L307.183 256.204L307.236 256.796L307.426 259.137L307.685 262.344L307.844 264.336L308.012 266.357L308.202 268.698L308.346 270.469L308.506 272.46L308.574 273.326H338.26L338.328 272.46L338.488 270.476L338.632 268.69L338.822 266.35L338.989 264.336L339.149 262.344L339.407 259.13L339.597 256.796L339.643 256.204L339.802 254.212L340.182 249.569L340.464 246.088L340.95 240.008L341.14 237.675L341.406 234.407L337.766 234.399ZM339.711 236.542L339.088 235.919H339.764L339.711 236.542ZM339.552 238.526L339.491 239.286L336.595 242.182L333.274 238.86L336.246 235.889H336.945L339.552 238.526ZM338.716 248.877L336.595 250.998L333.274 247.676L336.595 244.363L338.875 246.643L338.716 248.877ZM307.936 246.658L310.216 244.378L313.537 247.692L310.216 251.013L308.103 248.892L307.936 246.658ZM335.524 243.284L332.202 246.605L328.881 243.284L332.202 239.962L335.524 243.284ZM330.302 235.919H334.102L332.202 237.819L330.302 235.919ZM331.123 247.676L327.81 250.998L324.519 247.676L327.84 244.363L331.123 247.676ZM320.096 252.069L323.417 248.756L326.73 252.069L323.417 255.36L320.096 252.069ZM322.338 256.462L319.016 259.783L315.703 256.47L319.024 253.148L322.338 256.462ZM327.81 253.148L331.123 256.47L327.81 259.783L324.519 256.462L327.81 253.148ZM323.417 246.605L320.096 243.284L323.417 239.962L326.73 243.284L323.417 246.605ZM322.338 247.676L319.024 250.998L315.703 247.676L319.024 244.363L322.338 247.676ZM314.639 246.605L311.325 243.284L314.639 239.962L317.96 243.284L314.639 246.605ZM314.639 248.756L317.96 252.069L314.639 255.36L311.325 252.039L314.639 248.756ZM317.96 260.862L314.639 264.176L311.325 260.862L314.639 257.541L317.96 260.862ZM319.032 261.934L322.353 265.255L319.039 268.576L315.703 265.24L319.032 261.934ZM320.111 260.862L323.432 257.541L326.746 260.862L323.432 264.176L320.111 260.862ZM327.825 261.934L331.138 265.255L327.825 268.576L324.519 265.24L327.825 261.934ZM332.218 266.327L335.539 269.648L333.388 271.799H331.047L328.896 269.648L332.218 266.327ZM328.896 260.862L332.218 257.541L335.539 260.862L332.218 264.176L328.896 260.862ZM328.896 252.069L332.218 248.756L335.539 252.069L332.202 255.36L328.896 252.069ZM331.138 238.891L327.825 242.212L324.519 238.891L327.49 235.919H328.19L331.138 238.891ZM323.432 237.819L321.532 235.919H325.332L323.432 237.819ZM322.353 238.891L319.039 242.212L315.718 238.891L318.69 235.919H319.389L322.353 238.891ZM316.539 235.919L314.639 237.819L312.746 235.919H316.539ZM310.596 235.919L313.567 238.891L310.246 242.212L307.358 239.316L307.297 238.556L309.896 235.95L310.596 235.919ZM307.753 235.919L307.138 236.535L307.084 235.919H307.753ZM307.548 241.657L309.174 243.284L307.799 244.667L307.548 241.657ZM308.452 252.791L308.323 251.218L309.174 252.069L308.414 252.791H308.452ZM308.612 254.79L310.246 253.148L313.567 256.47L310.246 259.783L308.908 258.446L308.612 254.79ZM309.106 260.931V260.786L309.182 260.862L309.114 260.931H309.106ZM309.684 268.006L309.266 262.914L310.246 261.934L313.567 265.255L310.246 268.569L309.684 268.006ZM309.988 271.806L309.927 271.046L310.246 270.727L311.325 271.806H309.988ZM311.325 269.656L314.639 266.334L317.96 269.656L315.809 271.806H313.468L311.325 269.656ZM317.96 271.806L319.039 270.727L320.118 271.806H317.96ZM322.262 271.806L320.111 269.656L323.432 266.334L326.746 269.656L324.602 271.806H322.262ZM326.746 271.806L327.825 270.727L328.904 271.806H326.746ZM336.869 271.806H335.531L336.61 270.727L336.93 271.046L336.869 271.806ZM337.18 268.006L336.61 268.569L333.274 265.24L336.595 261.919L337.576 262.899L337.18 268.006ZM337.766 260.779V260.931L337.697 260.862L337.781 260.779H337.766ZM337.956 258.446L336.61 259.783L333.289 256.47L336.61 253.148L338.252 254.79L337.956 258.446ZM338.412 252.799L337.652 252.039L338.51 251.188L338.412 252.799ZM339.301 241.68L339.058 244.72L337.667 243.329L339.301 241.695V241.68Z" fill="white"/>
</g>
<path d="M304.601 237.272H342.236C342.924 237.272 343.482 236.714 343.482 236.026V234.285C343.482 233.597 342.924 233.039 342.236 233.039H304.601C303.912 233.039 303.354 233.597 303.354 234.285V236.026C303.354 236.714 303.912 237.272 304.601 237.272Z" fill="#407BFF"/>
<path d="M339.34 271.046H307.489C306.8 271.046 306.242 271.604 306.242 272.293V274.033C306.242 274.722 306.8 275.28 307.489 275.28H339.34C340.029 275.28 340.587 274.722 340.587 274.033V272.293C340.587 271.604 340.029 271.046 339.34 271.046Z" fill="#407BFF"/>
<path d="M135.021 117.899C137.643 118.72 138.061 133.958 138.061 133.958H136.541C136.541 133.958 137.301 117.808 133.387 118.309L135.021 117.899Z" fill="#263238"/>
<path opacity="0.2" d="M135.021 117.899C137.643 118.72 138.061 133.958 138.061 133.958H136.541C136.541 133.958 137.301 117.808 133.387 118.309L135.021 117.899Z" fill="black"/>
<path d="M138.327 262.063L133.532 262.907L131.563 256.371L129.77 250.374L135.302 248.444L136.906 255.657L138.327 262.063Z" fill="#E4897B"/>
<path opacity="0.2" d="M136.929 255.801L131.586 256.508L129.785 250.443L135.303 248.474L136.929 255.801Z" fill="black"/>
<path d="M106.323 264.275H101.452L100.654 257.412L99.9316 251.157L105.708 250.2L106.034 257.648L106.323 264.275Z" fill="#E4897B"/>
<path opacity="0.2" d="M106.034 257.708L100.654 257.473L99.9316 251.188L105.708 250.215L106.034 257.708Z" fill="black"/>
<path d="M112.92 273.912C112.145 273.29 111.264 272.811 110.321 272.498C110.321 272.498 107.494 269.694 106.133 261.25L102.432 260.285C101.804 260.135 101.145 260.18 100.543 260.415C99.9411 260.65 99.4255 261.063 99.0652 261.6C98.9626 261.749 98.8831 261.913 98.8296 262.086C98.6379 262.991 98.5059 263.907 98.4344 264.83C98.062 267.687 98.3812 274.102 98.3812 274.102H99.05L99.316 268.28C99.4148 266.304 100.927 268.622 101.36 270.75C101.794 272.878 102.713 275.143 107.045 275.249C112.099 275.348 114.197 275.12 112.92 273.912Z" fill="#263238"/>
<path d="M145.221 273.342C144.445 272.72 143.565 272.241 142.622 271.928C142.622 271.928 139.794 269.124 138.434 260.68L134.733 259.715C134.105 259.565 133.445 259.61 132.844 259.845C132.242 260.08 131.726 260.494 131.366 261.03C131.263 261.179 131.184 261.343 131.13 261.516C130.939 262.421 130.807 263.337 130.735 264.26C130.363 267.117 130.682 273.532 130.682 273.532H131.351L131.617 267.71C131.716 265.734 133.228 268.052 133.661 270.18C134.094 272.308 135.014 274.573 139.346 274.679C144.4 274.778 146.498 274.581 145.221 273.342Z" fill="#263238"/>
<path d="M137.385 252.001L129.504 253.384C121.547 233.571 115.892 217.033 111.895 203.308C109.744 195.905 107.95 189.324 106.666 183.479L106.902 205.048V253.635H99.1345C79.6709 160.915 93.4649 139.779 93.4649 139.779L116.759 135.903C117.676 140.211 118.326 144.572 118.704 148.96L119.753 156.682L128.873 203.711L137.385 252.001Z" fill="#407BFF"/>
<g opacity="0.4">
<path d="M137.385 252.001L129.504 253.384C121.547 233.571 115.892 217.033 111.895 203.308C109.744 195.905 107.95 189.324 106.666 183.479L106.902 205.048V253.635H99.1345C79.6709 160.915 93.4649 139.779 93.4649 139.779L116.759 135.903C117.676 140.211 118.326 144.572 118.704 148.96L119.753 156.682L128.873 203.711L137.385 252.001Z" fill="white"/>
</g>
<path d="M144.332 113.012L152.19 105.245C152.19 105.245 152.464 103.162 153.224 102.585C153.984 102.007 159.38 100.046 160.064 100.48C160.748 100.913 161.637 105.275 160.718 106.073C159.798 106.871 154.888 107.89 154.387 107.806L145.882 117.899L144.332 113.012Z" fill="#EEC1BB"/>
<path d="M116.181 98.8533C119.571 100.654 131.602 117.473 133.38 118.309C135.159 119.145 148.702 108.156 148.702 108.156L150.982 112.054C150.982 112.054 139.84 127.764 133.585 127.004C127.331 126.244 115.262 112.944 115.262 112.944L116.181 98.8533Z" fill="#263238"/>
<path opacity="0.4" d="M116.181 98.8533C119.571 100.654 131.602 117.473 133.38 118.309C135.159 119.145 148.702 108.156 148.702 108.156L150.982 112.054C150.982 112.054 139.84 127.764 133.585 127.004C127.331 126.244 115.262 112.944 115.262 112.944L116.181 98.8533Z" fill="white"/>
<path d="M147.957 108.574L148.892 107.684L151.362 111.864L150.48 113.574L147.957 108.574Z" fill="#407BFF"/>
<path opacity="0.2" d="M120.08 117.853C117.268 115.17 115.246 112.944 115.246 112.944L115.459 109.6L116.515 106.354C117.969 107.858 119.049 109.681 119.669 111.679C120.288 113.676 120.429 115.791 120.08 117.853Z" fill="black"/>
<path opacity="0.2" d="M111.894 203.308C109.743 195.905 108.094 189.324 106.779 183.479C106.893 176.56 107.401 169.653 108.299 162.792C108.299 162.792 111.719 189.468 111.894 203.308Z" fill="black"/>
<path d="M117.314 134.467C118.264 117.747 117.846 108.536 117.413 103.938C116.934 99.0358 116.182 98.8534 116.182 98.8534C116.182 98.8534 110.862 98.3366 106.249 98.3746C102.68 98.4951 99.1238 98.871 95.6085 99.4994C92.2627 100.056 88.9609 100.851 85.7285 101.878C86.2656 103.398 86.7596 104.857 87.2105 106.256C87.8185 108.065 88.3581 109.752 88.8445 111.317C89.7641 114.259 90.4709 116.797 91.0409 119.069C92.4906 124.792 93.3388 130.65 93.5717 136.549C93.5717 136.549 87.7197 151.825 86.5797 163.035L105.96 165.125L108.62 153.915L111.28 165.505L122.11 161.705L117.314 134.467Z" fill="#263238"/>
<path opacity="0.4" d="M117.314 134.467C118.264 117.747 117.846 108.536 117.413 103.938C116.934 99.0358 116.182 98.8534 116.182 98.8534C116.182 98.8534 110.862 98.3366 106.249 98.3746C102.68 98.4951 99.1238 98.871 95.6085 99.4994C92.2627 100.056 88.9609 100.851 85.7285 101.878C86.2656 103.398 86.7596 104.857 87.2105 106.256C87.8185 108.065 88.3581 109.752 88.8445 111.317C89.7641 114.259 90.4709 116.797 91.0409 119.069C92.4906 124.792 93.3388 130.65 93.5717 136.549C93.5717 136.549 87.7197 151.825 86.5797 163.035L105.96 165.125L108.62 153.915L111.28 165.505L122.11 161.705L117.314 134.467Z" fill="white"/>
<path d="M97.2794 97.4929C97.2794 97.4929 100.069 95.2661 105.054 97.0445L105.731 99.5829C105.731 99.5829 101.452 101.202 99.2934 100.776C97.135 100.351 97.2794 97.4929 97.2794 97.4929Z" fill="#407BFF"/>
<path opacity="0.2" d="M97.2794 97.4929C97.2794 97.4929 100.069 95.2661 105.054 97.0445L105.731 99.5829C105.731 99.5829 101.452 101.202 99.2934 100.776C97.135 100.351 97.2794 97.4929 97.2794 97.4929Z" fill="black"/>
<path opacity="0.2" d="M91.9604 123.166C91.702 121.889 91.398 120.528 91.0256 119.069C90.79 118.142 90.5316 117.169 90.2656 116.136C91.0256 113.544 91.7856 115.566 91.7856 115.566C92.2586 118.072 92.3176 120.64 91.9604 123.166Z" fill="black"/>
<path d="M105.981 99.3927C105.735 99.2717 105.481 99.1676 105.221 99.0811C104.674 98.6479 104.012 97.6068 104.043 95.076C104.062 94.0801 104.154 93.087 104.316 92.1043L97.2788 90.7896C97.2788 90.7896 99.6804 95.5319 97.674 99.0583C96.99 99.3623 96.5796 99.8183 96.648 100.366C97.18 104.439 105.928 108.376 105.928 108.376C105.928 108.376 110.199 101.726 105.981 99.3927Z" fill="#EEC1BB"/>
<path opacity="0.2" d="M104.348 92.1043C104.185 93.087 104.094 94.0801 104.074 95.076C99.3167 95.076 97.3027 90.7896 97.3027 90.7896L104.348 92.1043Z" fill="black"/>
<path d="M101.201 68.8561C101.201 68.8561 109.44 67.8149 110.96 74.4801C111.401 76.3702 111.296 78.3469 110.657 80.1797C110.018 82.0124 108.871 83.6257 107.35 84.8313L101.201 68.8561Z" fill="#263238"/>
<path d="M100.456 72.4053C106.582 72.0709 108.732 75.2401 109.523 81.5253C110.518 89.3837 109.074 95.0837 101.322 93.8221C90.7965 92.1045 90.2796 72.9601 100.456 72.4053Z" fill="#EEC1BB"/>
<path d="M105.549 81.4036C106.089 82.2911 106.735 83.1103 107.472 83.8432C107.304 84.1032 107.067 84.3118 106.788 84.4459C106.509 84.58 106.199 84.6344 105.891 84.6032L105.549 81.4036Z" fill="#D4827D"/>
<path d="M101.771 81.1073C101.809 81.6089 101.565 82.0345 101.231 82.0649C100.897 82.0953 100.593 81.7077 100.555 81.1985C100.517 80.6893 100.76 80.2713 101.094 80.2409C101.429 80.2105 101.733 80.6057 101.771 81.1073Z" fill="#263238"/>
<path d="M100.957 80.2788L102.013 79.762C102.013 79.762 101.542 80.7272 100.957 80.2788Z" fill="#263238"/>
<path d="M108.011 80.5145C108.011 81.0161 107.806 81.4417 107.471 81.4721C107.137 81.5025 106.833 81.1073 106.795 80.6057C106.757 80.1041 106.993 79.6785 107.335 79.6481C107.677 79.6177 107.973 80.0129 108.011 80.5145Z" fill="#263238"/>
<path d="M107.16 79.686L108.224 79.1692C108.224 79.1692 107.783 80.1344 107.16 79.686Z" fill="#263238"/>
<path d="M101.474 76.8817C100.987 76.8495 100.498 76.9293 100.046 77.115C99.5944 77.3008 99.191 77.5876 98.8672 77.9533" stroke="#263238" stroke-width="0.686238" stroke-linecap="round" stroke-linejoin="round"/>
<path d="M105.914 76.3801C106.327 76.25 106.763 76.2153 107.191 76.2785C107.619 76.3417 108.027 76.5011 108.384 76.7449" stroke="#263238" stroke-width="0.686238" stroke-linecap="round" stroke-linejoin="round"/>
<path d="M94.3231 83.0909C94.3231 83.0909 96.9147 77.9077 96.2687 74.0469C96.2687 74.0469 108.132 68.4229 109.409 80.7045C109.409 80.7045 109.994 69.6997 99.4531 70.0645C88.9119 70.4293 89.7935 85.8041 95.4859 90.0905C95.4859 90.0601 92.7195 86.3361 94.3231 83.0909Z" fill="#263238"/>
<path d="M102.25 68.4001C102.25 68.4001 107.281 67.1613 108.71 68.4913C110.139 69.8213 99.9702 79.2301 94.6502 80.1801C94.6502 80.1801 92.8414 86.0701 94.2702 88.8213C94.2702 88.8213 88.2814 86.7313 88.0002 77.6113C87.719 68.4913 97.2798 65.0561 102.25 68.4001Z" fill="#263238"/>
<path d="M95.3949 84.36C95.2933 83.655 94.9162 83.019 94.3463 82.5916C93.7764 82.1641 93.0603 81.9802 92.3549 82.08C90.4701 82.3916 89.7785 86.336 94.5513 87.02C95.2505 87.0656 95.5925 86.3892 95.3949 84.36Z" fill="#EEC1BB"/>
<path d="M92.7197 71.9948C92.7197 71.9948 90.6297 66.6748 85.0209 67.0548C79.4121 67.4348 78.5609 76.1748 81.5097 82.6348C84.4585 89.0948 82.4901 91.2 82.4901 91.2C82.4901 91.2 85.6213 90.82 85.6213 85.0212C85.7945 86.2494 85.8581 87.4906 85.8113 88.73C85.8113 88.73 87.9013 85.7812 85.9101 80.18C83.9189 74.5788 90.2801 77.14 90.2801 77.14L92.7197 71.9948Z" fill="#263238"/>
<path d="M108.23 68.9548C108.23 68.9548 105.57 77.5048 98.4492 80.066" stroke="#263238" stroke-width="0.686238" stroke-linecap="round" stroke-linejoin="round"/>
<path d="M101.08 86.8149C101.542 87.2729 102.09 87.6344 102.693 87.8784C103.296 88.1224 103.941 88.244 104.591 88.2361" stroke="#263238" stroke-width="0.686238" stroke-linecap="round" stroke-linejoin="round"/>
<path d="M97.2789 97.4928C97.2789 97.4928 98.5405 100.054 102.842 101.878L104.598 104.713V101.483C105.082 100.057 105.238 98.5394 105.054 97.0444L106.483 99.7424C106.915 99.8432 107.309 100.068 107.615 100.389C107.922 100.711 108.128 101.114 108.208 101.551C108.664 103.208 106.216 109.151 106.216 109.151C106.216 109.151 98.3961 106.347 96.6405 102.828C95.3409 100.206 96.8989 99.5752 96.8989 99.5752L97.2789 97.4928Z" fill="#407BFF"/>
<path d="M107.486 111.325C107.486 111.436 107.453 111.545 107.391 111.637C107.33 111.73 107.242 111.802 107.139 111.844C107.036 111.887 106.923 111.898 106.814 111.876C106.705 111.855 106.605 111.801 106.526 111.723C106.447 111.644 106.394 111.544 106.372 111.435C106.35 111.325 106.362 111.212 106.404 111.11C106.447 111.007 106.519 110.919 106.611 110.857C106.704 110.795 106.812 110.762 106.924 110.762C107.073 110.762 107.216 110.822 107.321 110.927C107.427 111.033 107.486 111.176 107.486 111.325Z" fill="#263238"/>
<path d="M108.855 120.118C108.855 120.229 108.822 120.338 108.76 120.431C108.699 120.523 108.611 120.595 108.508 120.638C108.405 120.68 108.292 120.691 108.183 120.67C108.074 120.648 107.974 120.594 107.895 120.516C107.817 120.437 107.763 120.337 107.741 120.228C107.72 120.119 107.731 120.006 107.773 119.903C107.816 119.8 107.888 119.712 107.98 119.65C108.073 119.589 108.182 119.556 108.293 119.556C108.442 119.556 108.585 119.615 108.691 119.72C108.796 119.826 108.855 119.969 108.855 120.118Z" fill="#263238"/>
<path d="M109.439 130.773C109.439 130.885 109.406 130.993 109.344 131.086C109.283 131.178 109.195 131.25 109.092 131.293C108.989 131.335 108.876 131.347 108.767 131.325C108.658 131.303 108.558 131.25 108.479 131.171C108.401 131.092 108.347 130.992 108.325 130.883C108.304 130.774 108.315 130.661 108.357 130.558C108.4 130.455 108.472 130.368 108.564 130.306C108.657 130.244 108.766 130.211 108.877 130.211C109.026 130.211 109.169 130.27 109.275 130.376C109.38 130.481 109.439 130.624 109.439 130.773Z" fill="#263238"/>
<path d="M109.904 141.938C109.904 142.049 109.871 142.158 109.809 142.25C109.748 142.343 109.66 142.415 109.557 142.457C109.454 142.5 109.341 142.511 109.232 142.489C109.123 142.468 109.023 142.414 108.944 142.335C108.865 142.257 108.812 142.156 108.79 142.047C108.768 141.938 108.78 141.825 108.822 141.722C108.865 141.62 108.937 141.532 109.029 141.47C109.122 141.408 109.23 141.375 109.342 141.375C109.491 141.375 109.634 141.434 109.739 141.54C109.845 141.645 109.904 141.788 109.904 141.938Z" fill="#263238"/>
<path d="M154.051 104.12C157.624 102.317 161.607 101.484 165.603 101.703L169.836 106.157C169.836 106.157 166.226 105.283 158.079 107.16L154.051 104.12Z" fill="#407BFF"/>
<path opacity="0.4" d="M154.051 104.12C157.624 102.317 161.607 101.484 165.603 101.703L169.836 106.157C169.836 106.157 166.226 105.283 158.079 107.16L154.051 104.12Z" fill="black"/>
<path d="M154.006 103.778C157.475 101.786 161.405 100.738 165.406 100.738L169.875 104.956C169.875 104.956 166.219 104.31 158.178 106.59L154.006 103.778Z" fill="#407BFF"/>
<path opacity="0.2" d="M154.006 103.778C157.475 101.786 161.405 100.738 165.406 100.738L169.875 104.956C169.875 104.956 166.219 104.31 158.178 106.59L154.006 103.778Z" fill="black"/>
<path d="M154.332 103.193L158.428 106.605C162.435 104.523 167.01 103.803 171.462 104.553L166.317 100.031C166.317 100.031 158.839 99.1649 154.332 103.193Z" fill="#407BFF"/>
<path opacity="0.2" d="M155.375 103.276L158.248 105.815C158.248 105.815 164.107 102.684 169.899 103.839L166.099 100.381C166.099 100.381 159.601 99.56 155.375 103.276Z" fill="black"/>
<path d="M163.438 102.159C163.438 102.775 162.77 103.276 161.918 103.276C161.067 103.276 160.398 102.775 160.398 102.159C160.398 101.544 161.067 101.034 161.918 101.034C162.77 101.034 163.438 101.536 163.438 102.159Z" fill="#407BFF"/>
<path d="M125.316 150.685C125.597 146.452 128.219 133.965 128.219 133.965C129.368 133.19 130.578 132.508 131.836 131.928C133.764 131.237 135.787 130.85 137.833 130.781C137.833 130.781 139.026 146.536 137.833 148.261C136.64 149.986 124.981 155.694 125.316 150.685Z" fill="#263238"/>
<path d="M128.219 133.958C128.219 133.958 130.096 117.184 135.021 117.899C135.021 117.899 131.13 118.72 129.701 134.505L128.219 133.958Z" fill="#263238"/>
<path d="M110.838 126.008C111.712 125.818 113.977 120.11 113.688 119.411C113.399 118.712 96.5195 121.068 96.5195 121.068L97.6291 127.224L110.838 126.008Z" fill="#407BFF"/>
<path opacity="0.2" d="M110.838 126.008C111.712 125.818 113.977 120.11 113.688 119.411C113.399 118.712 96.5195 121.068 96.5195 121.068L97.6291 127.224L110.838 126.008Z" fill="black"/>
<path d="M89.5577 121.182C89.5577 121.182 107.57 118.621 108.375 118.902C109.181 119.183 110.838 126.016 110.838 126.016C110.838 126.016 95.2349 128.486 93.8745 128.09C92.5141 127.695 88.9193 122.124 89.5577 121.182Z" fill="#407BFF"/>
<path d="M83.4395 133.243L92.7874 127.346C92.7874 127.346 93.5019 125.377 94.3683 124.974C95.2347 124.572 100.927 123.819 101.482 124.389C102.037 124.959 101.983 129.405 100.912 129.99C99.8403 130.576 94.8319 130.507 94.3607 130.317L83.8803 138.32L83.4395 133.243Z" fill="#EEC1BB"/>
<path d="M85.72 101.878C85.72 101.878 91.8 110.755 90.9412 118.355L82.8396 131.776L88.2812 128.995L90.7512 133.646C90.7512 133.646 84.4812 143.306 76.5012 141.026C68.5212 138.746 85.72 101.878 85.72 101.878Z" fill="#263238"/>
<path opacity="0.4" d="M85.72 101.878C85.72 101.878 91.8 110.755 90.9412 118.355L82.8396 131.776L88.2812 128.995L90.7512 133.646C90.7512 133.646 84.4812 143.306 76.5012 141.026C68.5212 138.746 85.72 101.878 85.72 101.878Z" fill="white"/>
<path d="M87.7109 128.737L90.8193 134.505L91.5109 132.856L89.0409 128.167L87.7109 128.737Z" fill="#407BFF"/>
</svg>
