<svg width="380" height="284" viewBox="0 0 380 284" fill="none" xmlns="http://www.w3.org/2000/svg">
<path d="M380 248.824H0V249.014H380V248.824Z" fill="#EBEBEB"/>
<path d="M59.6291 256.059H39.8691V256.249H59.6291V256.059Z" fill="#EBEBEB"/>
<path d="M152.327 254H111.211V254.19H152.327V254Z" fill="#EBEBEB"/>
<path d="M80.3919 263.12H60.3887V263.31H80.3919V263.12Z" fill="#EBEBEB"/>
<path d="M341.923 261.843H327.309V262.033H341.923V261.843Z" fill="#EBEBEB"/>
<path d="M320.538 261.843H297.518V262.033H320.538V261.843Z" fill="#EBEBEB"/>
<path d="M237.72 258.635H196.254V258.825H237.72V258.635Z" fill="#EBEBEB"/>
<path d="M180.119 214.928H33.3711C32.2214 214.926 31.1196 214.468 30.3074 213.654C29.4952 212.841 29.0391 211.738 29.0391 210.588V4.3016C29.0491 3.15858 29.5096 2.06566 30.3208 1.26025C31.1319 0.454828 32.228 0.00195805 33.3711 0H180.119C181.27 0 182.374 0.457207 183.188 1.27104C184.002 2.08487 184.459 3.18867 184.459 4.3396V210.588C184.459 211.739 184.002 212.843 183.188 213.657C182.374 214.471 181.27 214.928 180.119 214.928ZM33.3711 0.152001C32.2718 0.154014 31.2183 0.592089 30.4418 1.37007C29.6652 2.14806 29.2291 3.20237 29.2291 4.3016V210.588C29.2291 211.688 29.6652 212.742 30.4418 213.52C31.2183 214.298 32.2718 214.736 33.3711 214.738H180.119C181.219 214.736 182.274 214.298 183.051 213.52C183.829 212.743 184.267 211.688 184.269 210.588V4.3016C184.267 3.20167 183.829 2.14737 183.051 1.36961C182.274 0.591843 181.219 0.15401 180.119 0.152001H33.3711Z" fill="#EBEBEB"/>
<path d="M344.516 214.928H197.76C196.609 214.926 195.507 214.468 194.693 213.655C193.88 212.841 193.422 211.739 193.42 210.588V4.3016C193.432 3.15789 193.894 2.06498 194.707 1.25977C195.519 0.454563 196.616 0.0019367 197.76 0H344.516C345.657 0.00395542 346.751 0.457709 347.561 1.26291C348.37 2.06812 348.83 3.15989 348.84 4.3016V210.588C348.84 211.737 348.385 212.838 347.574 213.652C346.764 214.465 345.664 214.924 344.516 214.928ZM197.76 0.152001C196.66 0.15401 195.605 0.591843 194.828 1.36961C194.05 2.14737 193.612 3.20167 193.61 4.3016V210.588C193.612 211.688 194.05 212.743 194.828 213.52C195.605 214.298 196.66 214.736 197.76 214.738H344.516C345.615 214.736 346.67 214.298 347.448 213.52C348.225 212.743 348.663 211.688 348.665 210.588V4.3016C348.663 3.20167 348.225 2.14737 347.448 1.36961C346.67 0.591843 345.615 0.15401 344.516 0.152001H197.76Z" fill="#EBEBEB"/>
<path d="M335.349 168.979H314.449V248.824H335.349V168.979Z" fill="#E6E6E6"/>
<path d="M331.384 248.824H335.351V237.531H327.219L331.384 248.824Z" fill="#F0F0F0"/>
<path d="M216.091 168.979H195.191V248.824H216.091V168.979Z" fill="#E6E6E6"/>
<path d="M335.35 168.979H212.625V241.893H335.35V168.979Z" fill="#F0F0F0"/>
<path d="M216.707 172.672V227.772H253.088V172.672H216.707Z" fill="#E6E6E6"/>
<path d="M238.495 175.834H231.298C229.751 175.834 228.22 175.52 226.799 174.909C225.377 174.299 224.095 173.406 223.029 172.284H246.764C245.699 173.406 244.416 174.299 242.995 174.909C241.573 175.52 240.042 175.834 238.495 175.834Z" fill="#F0F0F0"/>
<path d="M255.801 172.68V227.78H292.182V172.68H255.801Z" fill="#E6E6E6"/>
<path d="M277.954 175.834H270.757C269.212 175.833 267.682 175.518 266.262 174.908C264.842 174.298 263.561 173.405 262.496 172.284H286.223C285.158 173.406 283.875 174.299 282.454 174.909C281.032 175.52 279.501 175.834 277.954 175.834Z" fill="#F0F0F0"/>
<path d="M294.887 172.68V227.78H331.268V172.68H294.887Z" fill="#E6E6E6"/>
<path d="M317.05 175.834H309.853C308.306 175.834 306.775 175.52 305.353 174.909C303.932 174.299 302.649 173.406 301.584 172.284H325.281C324.22 173.401 322.943 174.292 321.529 174.902C320.114 175.512 318.591 175.829 317.05 175.834Z" fill="#F0F0F0"/>
<path d="M216.592 248.824H212.625V237.531H220.757L216.592 248.824Z" fill="#F0F0F0"/>
<path d="M167.017 14.4324H51.877V122.276H167.017V14.4324Z" fill="#E6E6E6"/>
<path d="M171.153 14.4324H53.8086V122.276H171.153V14.4324Z" fill="#F0F0F0"/>
<path d="M167.017 122.276H51.877V129.96H167.017V122.276Z" fill="#E6E6E6"/>
<path d="M178.037 122.276H60.6934V129.96H178.037V122.276Z" fill="#F0F0F0"/>
<path d="M165.369 116.485V20.2236L59.5999 20.2236V116.485H165.369Z" fill="#FAFAFA"/>
<path d="M70.6719 116.485L104.651 20.2236H120.687L86.7079 116.485H70.6719Z" fill="white"/>
<path d="M62.2737 83.828C62.3845 83.828 62.4909 83.784 62.5693 83.7056C62.6476 83.6272 62.6917 83.5209 62.6917 83.41V23.9856C62.6897 23.8761 62.6448 23.7717 62.5666 23.6949C62.4884 23.6182 62.3832 23.5752 62.2737 23.5752C62.1648 23.5752 62.0604 23.6184 61.9835 23.6954C61.9065 23.7724 61.8633 23.8768 61.8633 23.9856V83.41C61.8633 83.5196 61.9063 83.6247 61.983 83.7029C62.0598 83.7811 62.1641 83.826 62.2737 83.828Z" fill="#F0F0F0"/>
<path d="M90.1582 116.485L124.138 20.2236H130.385L96.413 116.485H90.1582Z" fill="white"/>
<path d="M165.361 116.485V20.2236H164.624V116.485H165.361Z" fill="#E6E6E6"/>
<path opacity="0.5" d="M172.52 30.2023H57.3797L56.8477 22.4731H171.988L172.52 30.2023Z" fill="#E6E6E6"/>
<path opacity="0.5" d="M172.52 35.8569H57.3797L56.8477 28.1277H171.988L172.52 35.8569Z" fill="#E6E6E6"/>
<path opacity="0.5" d="M172.52 42.6435H57.3797L56.8477 34.9143H171.988L172.52 42.6435Z" fill="#E6E6E6"/>
<path opacity="0.5" d="M172.52 50.198H57.3797L56.8477 42.4688H171.988L172.52 50.198Z" fill="#E6E6E6"/>
<path opacity="0.5" d="M172.52 59.2497H57.3797L56.8477 51.5205H171.988L172.52 59.2497Z" fill="#E6E6E6"/>
<path opacity="0.5" d="M172.52 69.426H57.3797L56.8477 61.6968H171.988L172.52 69.426Z" fill="#E6E6E6"/>
<path d="M173.758 177.232H139.68V248.824H173.758V177.232Z" fill="#E6E6E6"/>
<path d="M170.331 248.824H173.759V239.073H166.736L170.331 248.824Z" fill="#F0F0F0"/>
<path d="M89.93 177.232H55.8516V248.824H89.93V177.232Z" fill="#E6E6E6"/>
<path d="M173.75 177.232H86.9355V242.843H173.75V177.232Z" fill="#F0F0F0"/>
<path d="M171.098 180.135H89.5957V198.132H171.098V180.135Z" fill="#E6E6E6"/>
<path d="M134.194 185.729H126.495C123.151 185.729 119.959 183.509 117.656 179.588H143.04C140.737 183.509 137.561 185.729 134.194 185.729Z" fill="#F0F0F0"/>
<path d="M90.3631 248.824H86.9355V239.073H93.9579L90.3631 248.824Z" fill="#F0F0F0"/>
<path d="M171.098 201.035H89.5957V219.032H171.098V201.035Z" fill="#E6E6E6"/>
<path d="M134.194 206.629H126.495C123.151 206.629 119.959 204.41 117.656 200.488H143.04C140.737 204.44 137.561 206.629 134.194 206.629Z" fill="#F0F0F0"/>
<path d="M171.098 221.935H89.5957V239.932H171.098V221.935Z" fill="#E6E6E6"/>
<path d="M134.194 227.529H126.495C123.151 227.529 119.959 225.31 117.656 221.388H143.04C140.737 225.31 137.561 227.529 134.194 227.529Z" fill="#F0F0F0"/>
<path d="M311.349 29.2373H245.184V117.732H311.349V29.2373Z" fill="#E6E6E6"/>
<path d="M315.651 29.2373H246.111V117.732H315.651V29.2373Z" fill="#F0F0F0"/>
<path d="M306.021 108.103V38.8589H255.732V108.103H306.021Z" fill="white"/>
<path d="M306.021 108.103V38.8589H305.269V108.103H306.021Z" fill="#E6E6E6"/>
<path d="M281.815 58.8391H266.76C266.612 58.8391 266.47 58.8973 266.365 59.0011C266.259 59.105 266.199 59.2461 266.197 59.3939V74.4191C266.209 78.0436 267.654 81.5162 270.217 84.0791C272.78 86.6419 276.253 88.0871 279.877 88.0991H294.902C295.052 88.0991 295.195 88.0399 295.3 87.9344C295.406 87.8289 295.465 87.6859 295.465 87.5367V72.5419C295.461 68.9181 294.023 65.4431 291.466 62.8757C288.908 60.3084 285.439 58.8572 281.815 58.8391ZM279.938 87.0123C276.6 87.0083 273.4 85.68 271.04 83.3189C268.681 80.9579 267.354 77.7571 267.352 74.4191V59.9791H281.792C285.13 59.9831 288.329 61.3102 290.69 63.6693C293.051 66.0285 294.38 69.2273 294.386 72.5647L279.938 87.0123Z" fill="#F0F0F0"/>
<path d="M190.001 283.146C271.384 283.146 337.357 279.294 337.357 274.542C337.357 269.791 271.384 265.939 190.001 265.939C108.618 265.939 42.6445 269.791 42.6445 274.542C42.6445 279.294 108.618 283.146 190.001 283.146Z" fill="#F5F5F5"/>
<path d="M187.409 25.08C186.717 20.8848 189.552 17.48 193.747 17.48H163.097C158.901 17.48 156.067 20.8772 156.758 25.08H187.409Z" fill="#407BFF"/>
<path opacity="0.3" d="M187.409 25.08C186.717 20.8848 189.552 17.48 193.747 17.48H163.097C158.901 17.48 156.067 20.8772 156.758 25.08H187.409Z" fill="black"/>
<path d="M193.746 17.48H163.096C165.217 17.5505 167.251 18.3417 168.862 19.7234C170.472 21.105 171.564 22.9944 171.957 25.08L178.668 65.6032C179.062 67.6882 180.155 69.5768 181.765 70.9582C183.376 72.3396 185.409 73.1313 187.53 73.2032H202.988C207.183 73.2032 210.018 69.7984 209.326 65.6032L202.608 25.08C202.215 22.9944 201.123 21.105 199.512 19.7234C197.901 18.3417 195.868 17.5505 193.746 17.48Z" fill="#407BFF"/>
<path d="M193.87 65.626C194.561 69.8212 191.726 73.226 187.531 73.226H218.182C219.136 73.2582 220.085 73.0723 220.956 72.6822C221.827 72.2922 222.598 71.7084 223.209 70.9754C223.82 70.2424 224.256 69.3794 224.484 68.4524C224.711 67.5253 224.723 66.5586 224.52 65.626H193.87Z" fill="#407BFF"/>
<path opacity="0.3" d="M193.87 65.626C194.561 69.8212 191.726 73.226 187.531 73.226H218.182C219.136 73.2582 220.085 73.0723 220.956 72.6822C221.827 72.2922 222.598 71.7084 223.209 70.9754C223.82 70.2424 224.256 69.3794 224.484 68.4524C224.711 67.5253 224.723 66.5586 224.52 65.626H193.87Z" fill="black"/>
<path d="M198.801 28.5987H176.92C176.793 28.5941 176.671 28.5465 176.575 28.4636C176.478 28.3808 176.412 28.2677 176.389 28.1427C176.376 28.0867 176.376 28.0284 176.389 27.9725C176.402 27.9165 176.428 27.8644 176.465 27.8203C176.502 27.7761 176.549 27.7411 176.601 27.7179C176.654 27.6947 176.711 27.684 176.769 27.6867H198.649C198.776 27.6913 198.898 27.7389 198.995 27.8217C199.091 27.9045 199.157 28.0177 199.181 28.1427C199.194 28.1987 199.194 28.2569 199.18 28.3129C199.167 28.3688 199.141 28.4209 199.104 28.4651C199.067 28.5093 199.021 28.5443 198.968 28.5675C198.916 28.5907 198.858 28.6013 198.801 28.5987Z" fill="white"/>
<path d="M186.68 31.7603H177.446C177.319 31.7557 177.197 31.7081 177.1 31.6253C177.004 31.5424 176.938 31.4293 176.914 31.3043C176.901 31.2483 176.901 31.19 176.914 31.1341C176.928 31.0782 176.954 31.0261 176.991 30.9819C177.027 30.9377 177.074 30.9027 177.127 30.8795C177.179 30.8563 177.236 30.8456 177.294 30.8483H186.528C186.655 30.8529 186.777 30.9005 186.874 30.9833C186.97 31.0662 187.036 31.1793 187.06 31.3043C187.071 31.3602 187.07 31.4179 187.056 31.4731C187.042 31.5284 187.016 31.5799 186.98 31.6236C186.943 31.6674 186.897 31.7025 186.845 31.7261C186.793 31.7498 186.737 31.7615 186.68 31.7603Z" fill="white"/>
<path d="M195.223 31.7603H188.839C188.712 31.7553 188.592 31.7075 188.496 31.6245C188.401 31.5416 188.337 31.4286 188.314 31.3043C188.301 31.2489 188.302 31.1913 188.314 31.136C188.327 31.0807 188.353 31.029 188.389 30.985C188.425 30.941 188.47 30.9058 188.522 30.8821C188.573 30.8584 188.63 30.8468 188.687 30.8483H195.071C195.197 30.8532 195.318 30.9011 195.413 30.984C195.508 31.0669 195.573 31.1799 195.595 31.3043C195.608 31.3596 195.608 31.4172 195.595 31.4725C195.582 31.5279 195.557 31.5795 195.521 31.6235C195.485 31.6676 195.439 31.7028 195.387 31.7265C195.336 31.7502 195.279 31.7617 195.223 31.7603Z" fill="white"/>
<path d="M199.88 34.96H177.969C177.843 34.9571 177.721 34.9111 177.624 34.8295C177.528 34.748 177.462 34.6358 177.437 34.5116C177.424 34.4556 177.425 34.3973 177.438 34.3414C177.451 34.2854 177.477 34.2333 177.514 34.1892C177.551 34.145 177.597 34.11 177.65 34.0868C177.703 34.0636 177.76 34.0529 177.817 34.0556H199.698C199.825 34.0602 199.947 34.1078 200.043 34.1906C200.14 34.2734 200.206 34.3866 200.23 34.5116C200.241 34.5646 200.24 34.6193 200.228 34.672C200.216 34.7247 200.192 34.7742 200.159 34.8168C200.126 34.8595 200.083 34.8944 200.035 34.9192C199.987 34.9439 199.934 34.9578 199.88 34.96Z" fill="white"/>
<path d="M198.217 38.0913H178.495C178.368 38.0867 178.246 38.0391 178.149 37.9562C178.052 37.8734 177.987 37.7603 177.963 37.6353C177.951 37.5794 177.953 37.5217 177.967 37.4664C177.98 37.4112 178.007 37.3597 178.043 37.3159C178.08 37.2721 178.126 37.2371 178.177 37.2135C178.229 37.1898 178.286 37.1781 178.343 37.1793H198.103C198.23 37.1839 198.352 37.2315 198.448 37.3143C198.545 37.3971 198.611 37.5103 198.635 37.6353C198.647 37.6945 198.646 37.7558 198.63 37.8142C198.614 37.8726 198.584 37.9263 198.543 37.9709C198.502 38.0155 198.451 38.0497 198.395 38.0706C198.338 38.0916 198.277 38.0986 198.217 38.0913Z" fill="white"/>
<path d="M192.28 41.2529H179.018C178.891 41.2483 178.769 41.2007 178.673 41.1178C178.576 41.035 178.51 40.9219 178.486 40.7969C178.475 40.7414 178.476 40.684 178.49 40.629C178.504 40.5741 178.53 40.523 178.567 40.4798C178.603 40.4365 178.65 40.4022 178.701 40.3795C178.753 40.3567 178.81 40.3461 178.866 40.3485H192.136C192.262 40.354 192.382 40.401 192.478 40.4821C192.575 40.5632 192.641 40.6739 192.668 40.7969C192.68 40.8534 192.678 40.9118 192.664 40.9676C192.65 41.0235 192.623 41.0753 192.585 41.1193C192.548 41.1632 192.501 41.1981 192.448 41.2212C192.395 41.2444 192.338 41.2552 192.28 41.2529Z" fill="white"/>
<path d="M201.401 44.4221H179.544C179.416 44.4175 179.295 44.3699 179.198 44.2871C179.101 44.2042 179.036 44.0911 179.012 43.9661C179 43.9102 179.001 43.8525 179.015 43.7973C179.029 43.742 179.055 43.6905 179.092 43.6467C179.128 43.6029 179.174 43.5679 179.226 43.5443C179.278 43.5206 179.335 43.5089 179.392 43.5101H201.272C201.399 43.5147 201.521 43.5623 201.618 43.6451C201.714 43.7279 201.78 43.8411 201.804 43.9661C201.818 44.0241 201.817 44.0846 201.803 44.1424C201.788 44.2002 201.76 44.2537 201.721 44.2984C201.681 44.3431 201.632 44.3777 201.576 44.3992C201.52 44.4207 201.46 44.4286 201.401 44.4221Z" fill="white"/>
<path d="M201.947 47.5837H180.067C179.94 47.5791 179.818 47.5315 179.721 47.4487C179.625 47.3659 179.559 47.2527 179.535 47.1277C179.524 47.0719 179.525 47.0142 179.539 46.9589C179.553 46.9036 179.579 46.8522 179.615 46.8084C179.652 46.7646 179.698 46.7295 179.75 46.7059C179.802 46.6822 179.858 46.6706 179.915 46.6717H201.803C201.929 46.6766 202.05 46.7245 202.145 46.8074C202.241 46.8904 202.305 47.0033 202.327 47.1277C202.34 47.1837 202.34 47.242 202.327 47.2979C202.314 47.3538 202.288 47.4059 202.251 47.4501C202.214 47.4943 202.167 47.5293 202.115 47.5525C202.062 47.5757 202.005 47.5864 201.947 47.5837Z" fill="white"/>
<path d="M193.862 50.7453H180.592C180.467 50.7398 180.346 50.6928 180.25 50.6117C180.154 50.5306 180.087 50.4199 180.06 50.2969C180.049 50.241 180.05 50.1833 180.064 50.1281C180.078 50.0728 180.104 50.0213 180.141 49.9775C180.177 49.9338 180.223 49.8987 180.275 49.8751C180.327 49.8514 180.383 49.8397 180.44 49.8409H193.71C193.837 49.8455 193.959 49.8931 194.056 49.9759C194.152 50.0588 194.218 50.1719 194.242 50.2969C194.254 50.3524 194.252 50.4098 194.239 50.4647C194.225 50.5197 194.198 50.5707 194.162 50.614C194.125 50.6572 194.079 50.6915 194.027 50.7143C193.975 50.7371 193.919 50.7477 193.862 50.7453Z" fill="white"/>
<path d="M206.424 59.4466L207.793 60.2959L228.796 26.4341L227.427 25.5848L206.424 59.4466Z" fill="#263238"/>
<path opacity="0.3" d="M206.424 59.4466L207.793 60.2959L228.796 26.4341L227.427 25.5848L206.424 59.4466Z" fill="black"/>
<path d="M203.689 57.7538L205.059 58.603L226.062 24.7412L224.693 23.8919L203.689 57.7538Z" fill="#263238"/>
<path opacity="0.3" d="M203.689 57.7538L205.059 58.603L226.062 24.7412L224.693 23.8919L203.689 57.7538Z" fill="black"/>
<path d="M205.066 58.597L206.436 59.4463L227.439 25.5844L226.07 24.7352L205.066 58.597Z" fill="#263238"/>
<path d="M203.658 61.0128L204.889 61.7804L207.8 60.2984L203.696 57.7524L203.658 61.0128Z" fill="#FF8B7B"/>
<path d="M203.643 62.4187L204.889 61.7803L203.658 61.0127L203.643 62.4187Z" fill="#263238"/>
<path d="M202.921 62.6999H202.868C201.849 62.2804 200.949 61.6176 200.246 60.7695C199.804 60.2965 199.324 59.8617 198.809 59.4699C198.731 59.405 198.633 59.3695 198.532 59.3695C198.43 59.3695 198.332 59.405 198.254 59.4699C198.192 59.5373 198.158 59.6254 198.158 59.7169C198.158 59.8084 198.192 59.8966 198.254 59.9639C198.437 60.2375 198.642 60.4959 198.847 60.7239C198.93 60.8144 198.981 60.929 198.993 61.0508C199.006 61.1726 198.978 61.2952 198.916 61.4003C198.85 61.4927 198.755 61.5612 198.647 61.5955C198.539 61.6297 198.422 61.6279 198.315 61.5903C198.026 61.496 197.742 61.3869 197.464 61.2635C197.439 61.2416 197.407 61.23 197.374 61.2309C197.341 61.2319 197.31 61.2454 197.287 61.2687C197.264 61.292 197.25 61.3234 197.249 61.3563C197.248 61.3892 197.26 61.4213 197.282 61.4459L197.32 61.5447C197.365 61.6449 197.383 61.7551 197.372 61.8644C197.361 61.9737 197.322 62.0783 197.259 62.1679C197.194 62.2538 197.108 62.3218 197.01 62.3656C196.911 62.4095 196.804 62.4277 196.696 62.4187C193.351 62.2609 190.001 62.2736 186.657 62.4567C186.606 62.4567 186.558 62.4367 186.522 62.4011C186.487 62.3654 186.467 62.3171 186.467 62.2667C186.467 62.2163 186.487 62.168 186.522 62.1324C186.558 62.0967 186.606 62.0767 186.657 62.0767C190.013 61.8936 193.377 61.8809 196.734 62.0387C196.777 62.0459 196.821 62.0413 196.861 62.0252C196.901 62.0091 196.936 61.9822 196.962 61.9475C196.985 61.9082 196.997 61.8637 196.997 61.8183C196.997 61.773 196.985 61.7284 196.962 61.6891L196.924 61.6055C196.871 61.5089 196.851 61.3976 196.866 61.2884C196.882 61.1792 196.932 61.078 197.01 61C197.088 60.922 197.19 60.8714 197.299 60.8559C197.408 60.8404 197.519 60.8607 197.616 60.9139C197.877 61.0367 198.146 61.1409 198.422 61.2255C198.446 61.244 198.475 61.254 198.505 61.254C198.535 61.254 198.565 61.244 198.589 61.2255C198.608 61.1898 198.614 61.1487 198.608 61.1088C198.601 61.0689 198.581 61.0324 198.551 61.0051C198.33 60.7467 198.125 60.4731 197.935 60.1995C197.826 60.0571 197.77 59.8804 197.779 59.701C197.787 59.5215 197.859 59.3508 197.981 59.2191C198.121 59.0888 198.306 59.0164 198.498 59.0164C198.689 59.0164 198.874 59.0888 199.014 59.2191C199.562 59.6189 200.071 60.0693 200.534 60.5643C201.184 61.3253 202.001 61.926 202.921 62.3199C202.945 62.3276 202.967 62.3401 202.986 62.3566C203.006 62.3731 203.021 62.3932 203.033 62.4159C203.044 62.4386 203.051 62.4633 203.052 62.4885C203.054 62.5138 203.051 62.5392 203.042 62.5631C203.035 62.5943 203.02 62.6232 202.999 62.6471C202.978 62.671 202.951 62.6892 202.921 62.6999Z" fill="white"/>
<path d="M199.661 90.5464L204.745 81.7532H194.584L199.661 90.5464Z" fill="#407BFF"/>
<path d="M256.712 64.7215C254.551 62.8097 251.737 61.8028 248.854 61.9095C247.007 58.1855 243.2 56.0119 239.172 56.7491C233.396 57.8055 231.632 64.7443 235.645 67.2751C236.972 68.116 238.41 68.7682 239.916 69.2131V69.3955C237.557 70.2466 235.492 71.7605 233.972 73.7557C232.451 75.7509 231.539 78.1425 231.344 80.6435C230.751 89.2467 239.992 94.2779 245.024 89.4899C245.719 88.8294 246.379 88.1317 247 87.3999C247.972 88.7679 249.021 90.1663 250.154 91.6255C262.724 85.8343 264.844 71.7363 256.712 64.7215Z" fill="#263238"/>
<path d="M231.443 98.169C231.367 99.233 231.275 100.16 231.139 101.133C231.002 102.106 230.873 103.048 230.713 103.998C230.394 105.906 229.953 107.798 229.505 109.66C228.58 113.448 227.287 117.137 225.644 120.673L225.484 121.007C225.423 121.136 225.408 121.182 225.294 121.41C225.104 121.786 224.877 122.142 224.618 122.474C224.128 123.076 223.539 123.59 222.877 123.994C221.783 124.646 220.577 125.087 219.321 125.293C217.25 125.612 215.144 125.64 213.066 125.377C209.218 124.905 205.436 123.995 201.795 122.664L202.631 119.624C204.387 119.89 206.218 120.133 208.012 120.293C209.778 120.485 211.555 120.576 213.332 120.566C214.963 120.596 216.592 120.422 218.181 120.049C218.755 119.911 219.299 119.666 219.784 119.327C219.904 119.24 220.005 119.129 220.081 119.001C220.101 118.962 220.116 118.921 220.126 118.879L220.339 118.332C220.658 117.519 220.97 116.698 221.236 115.854C221.502 115.011 221.783 114.175 222.049 113.331C222.528 111.621 222.999 109.911 223.387 108.163C223.774 106.415 224.093 104.667 224.39 102.904C224.686 101.141 224.922 99.3166 225.097 97.675L231.443 98.169Z" fill="#FFB573"/>
<path d="M227.118 90.5615C224.549 91.2075 222.756 101.764 222.756 101.764L229.824 106.567C229.824 106.567 236.603 95.9271 234.627 93.1075C232.56 90.1663 230.857 89.6039 227.118 90.5615Z" fill="#263238"/>
<path opacity="0.2" d="M227.345 92.9175L225.377 103.55L229.344 106.248L227.345 92.9175Z" fill="black"/>
<path d="M199.985 119.761L195.189 121.6L200.608 124.868C200.608 124.868 204.066 122.869 203.975 120.308L203.443 120.004C202.921 119.709 202.34 119.534 201.742 119.492C201.143 119.45 200.543 119.542 199.985 119.761Z" fill="#FFB573"/>
<path opacity="0.1" d="M199.628 119.996L197.257 120.84C196.793 120.997 196.339 121.179 195.896 121.387C195.896 121.387 197.462 122.041 198.245 121.6C199.432 121.689 200.626 121.618 201.794 121.387L199.628 119.996Z" fill="black"/>
<path d="M192.203 125.164L196.284 128.562L200.601 124.898L195.19 121.63L192.203 125.164Z" fill="#FFB573"/>
<path d="M240.988 268.189H234.772L234.354 253.779H240.578L240.988 268.189Z" fill="#FFB573"/>
<path d="M234.558 267.467H241.543C241.664 267.464 241.782 267.505 241.875 267.584C241.967 267.662 242.028 267.772 242.044 267.892L242.804 273.425C242.819 273.565 242.805 273.705 242.761 273.839C242.718 273.972 242.647 274.095 242.553 274.199C242.459 274.303 242.344 274.386 242.216 274.443C242.088 274.499 241.949 274.528 241.809 274.527C239.377 274.489 238.199 274.345 235.121 274.345C233.236 274.345 227.802 274.542 225.188 274.542C222.573 274.542 222.436 271.958 223.523 271.723C228.402 270.674 231.883 269.23 233.487 267.847C233.788 267.598 234.168 267.463 234.558 267.467Z" fill="#263238"/>
<g opacity="0.2">
<path d="M234.354 253.779L234.566 261.212H240.791L240.578 253.779H234.354Z" fill="black"/>
</g>
<path d="M227.117 90.5614C227.117 90.5614 224.153 91.6026 230.089 128.113H255.359C254.933 117.83 254.925 111.484 259.843 90.379C256.305 89.6468 252.718 89.1743 249.111 88.9654C245.291 88.6915 241.456 88.6915 237.635 88.9654C232.703 89.4138 227.117 90.5614 227.117 90.5614Z" fill="#263238"/>
<path d="M244.522 100.571C242.435 100.509 240.406 99.8664 238.662 98.7163C238.642 98.7026 238.625 98.685 238.611 98.6644C238.598 98.6439 238.589 98.6209 238.585 98.5968C238.581 98.5726 238.581 98.5479 238.587 98.5241C238.592 98.5002 238.602 98.4777 238.617 98.4579C238.631 98.4367 238.649 98.4186 238.669 98.4044C238.69 98.3902 238.714 98.3804 238.739 98.3755C238.763 98.3705 238.789 98.3705 238.814 98.3756C238.838 98.3806 238.862 98.3905 238.883 98.4047C240.746 99.6262 242.941 100.242 245.168 100.168C245.996 99.6435 251.727 95.8207 252.16 89.2011C252.162 89.1761 252.169 89.1518 252.18 89.1294C252.192 89.1071 252.207 89.0872 252.226 89.071C252.245 89.0547 252.267 89.0424 252.291 89.0348C252.315 89.0271 252.34 89.0242 252.365 89.0263C252.39 89.0282 252.415 89.035 252.437 89.0464C252.459 89.0578 252.479 89.0734 252.495 89.0925C252.512 89.1116 252.524 89.1337 252.532 89.1575C252.539 89.1814 252.542 89.2065 252.54 89.2315C252.099 96.0031 246.46 99.8183 245.328 100.51C245.3 100.517 245.271 100.517 245.244 100.51C245.001 100.563 244.758 100.571 244.522 100.571Z" fill="white"/>
<path d="M233.768 99.4002C233.736 99.4112 233.701 99.4112 233.669 99.4002C233.392 99.1849 233.165 98.9113 233.005 98.5988C232.844 98.2862 232.755 97.9424 232.742 97.5914C232.385 95.2734 233.243 91.2226 235.022 89.125C235.039 89.1067 235.061 89.092 235.084 89.082C235.108 89.072 235.133 89.0669 235.159 89.0669C235.184 89.0669 235.209 89.072 235.233 89.082C235.256 89.092 235.278 89.1067 235.295 89.125C235.33 89.1606 235.35 89.2083 235.35 89.258C235.35 89.3078 235.33 89.3555 235.295 89.391C233.608 91.3594 232.734 95.319 233.076 97.5534C233.11 98.1315 233.363 98.6749 233.783 99.0734C234.835 98.8906 235.858 98.5659 236.823 98.1082C236.87 98.0899 236.921 98.0899 236.968 98.1082C237.014 98.1266 237.052 98.1619 237.074 98.207C237.084 98.23 237.089 98.2547 237.09 98.2797C237.09 98.3048 237.086 98.3297 237.077 98.353C237.067 98.3763 237.054 98.3976 237.036 98.4156C237.019 98.4336 236.998 98.4479 236.975 98.4578C235.956 98.9225 234.876 99.2398 233.768 99.4002Z" fill="white"/>
<path d="M247.972 76.0457C247.25 79.7317 246.528 86.5033 249.112 88.9657C249.112 88.9657 248.101 92.7125 241.238 92.7125C233.691 92.7125 237.636 88.9657 237.636 88.9657C241.747 87.9777 241.641 84.9225 240.927 82.0573L247.972 76.0457Z" fill="#FFB573"/>
<path d="M249.104 88.9654C245.284 88.6915 241.448 88.6915 237.628 88.9654L236.868 89.0414C235.948 90.7742 235.72 93.4418 237.917 97.4014C237.917 97.4014 247.979 93.343 250.601 89.1022C250.115 89.0262 249.613 88.9882 249.104 88.9654Z" fill="#FFB573"/>
<path opacity="0.2" d="M245.1 78.5002L240.92 82.0798C241.101 82.7465 241.22 83.4282 241.277 84.1166C242.85 83.8886 245.009 82.1635 245.176 80.5143C245.276 79.844 245.25 79.161 245.1 78.5002Z" fill="black"/>
<path d="M251.954 69.6464C250.548 75.658 250.077 78.2345 246.475 80.8261C241.063 84.7325 233.988 81.6924 233.555 75.3768C233.175 69.6996 235.546 60.8152 241.915 59.4168C243.315 59.1011 244.773 59.1483 246.15 59.554C247.527 59.9597 248.778 60.7105 249.784 61.7352C250.789 62.7599 251.517 64.0244 251.896 65.4089C252.276 66.7935 252.296 68.2521 251.954 69.6464Z" fill="#FFB573"/>
<path d="M230.09 128.113C230.09 128.113 225.18 176.046 225.591 194.993C226.016 214.753 233.244 259.738 233.244 259.738H241.68C241.68 259.738 240.35 215.878 241.095 196.498C241.908 175.362 248.619 128.098 248.619 128.098L230.09 128.113Z" fill="#407BFF"/>
<path opacity="0.3" d="M230.09 128.113C230.09 128.113 225.18 176.046 225.591 194.993C226.016 214.753 233.244 259.738 233.244 259.738H241.68C241.68 259.738 240.35 215.878 241.095 196.498C241.908 175.362 248.619 128.098 248.619 128.098L230.09 128.113Z" fill="white"/>
<path d="M242.385 260.072H232.513L231.791 256.925L242.849 256.538L242.385 260.072Z" fill="#263238"/>
<path opacity="0.2" d="M240.988 140.037C234.786 152.524 239.741 175.301 241.938 183.775C243.063 171.053 244.978 155.488 246.445 144.065C245.479 137.605 243.853 134.284 240.988 140.037Z" fill="black"/>
<path d="M270.073 268.189H263.848L261.568 253.779H267.785L270.073 268.189Z" fill="#FFB573"/>
<path d="M263.544 267.467H270.559C270.684 267.469 270.805 267.512 270.903 267.588C271.002 267.665 271.073 267.772 271.106 267.892L272.626 273.425C272.663 273.556 272.669 273.694 272.643 273.827C272.617 273.961 272.559 274.086 272.476 274.194C272.392 274.301 272.284 274.387 272.161 274.445C272.038 274.503 271.903 274.531 271.767 274.527C269.328 274.489 268.134 274.345 265.056 274.345C263.164 274.345 257.76 274.542 255.176 274.542C252.592 274.542 252.091 271.958 253.147 271.723C257.89 270.674 261.142 269.23 262.609 267.847C262.865 267.612 263.197 267.477 263.544 267.467Z" fill="#263238"/>
<g opacity="0.2">
<path d="M261.568 253.779L262.746 261.212H268.971L267.793 253.779H261.568Z" fill="black"/>
</g>
<path d="M237.119 128.113C237.119 128.113 242.34 176.046 245.213 194.993C248.2 214.753 261.272 259.738 261.272 259.738H269.647C269.647 259.738 262.625 215.878 260.854 196.498C258.924 175.362 255.587 128.098 255.587 128.098L237.119 128.113Z" fill="#407BFF"/>
<path opacity="0.3" d="M237.119 128.113C237.119 128.113 242.34 176.046 245.213 194.993C248.2 214.753 261.272 259.738 261.272 259.738H269.647C269.647 259.738 262.625 215.878 260.854 196.498C258.924 175.362 255.587 128.098 255.587 128.098L237.119 128.113Z" fill="white"/>
<path d="M270.415 260.072H260.543L259.41 256.925L270.415 256.538V260.072Z" fill="#263238"/>
<path d="M261.347 268.554C260.801 268.597 260.254 268.464 259.789 268.174C259.679 268.088 259.589 267.979 259.527 267.854C259.466 267.729 259.433 267.591 259.432 267.452C259.424 267.375 259.438 267.297 259.473 267.228C259.508 267.159 259.562 267.102 259.63 267.064C260.337 266.646 262.981 267.908 263.278 268.06C263.308 268.072 263.333 268.093 263.351 268.12C263.368 268.147 263.377 268.179 263.377 268.212C263.377 268.24 263.367 268.268 263.349 268.29C263.331 268.313 263.306 268.328 263.278 268.333C262.643 268.469 261.996 268.542 261.347 268.554ZM260.071 267.269C259.979 267.263 259.887 267.281 259.805 267.322C259.777 267.338 259.755 267.361 259.741 267.39C259.727 267.419 259.723 267.451 259.729 267.482C259.73 267.572 259.751 267.662 259.79 267.743C259.829 267.824 259.886 267.896 259.957 267.953C260.382 268.295 261.408 268.348 262.761 268.12C261.915 267.695 261.007 267.408 260.071 267.269Z" fill="#407BFF"/>
<path d="M263.248 268.333H263.187C262.427 267.991 260.763 266.654 260.785 265.947C260.785 265.78 260.884 265.574 261.287 265.529C261.591 265.503 261.893 265.596 262.131 265.787C262.767 266.449 263.2 267.28 263.377 268.181C263.382 268.206 263.38 268.232 263.372 268.256C263.364 268.28 263.35 268.301 263.331 268.318C263.306 268.331 263.277 268.336 263.248 268.333ZM261.439 265.81H261.355C261.089 265.81 261.082 265.947 261.082 265.977C261.082 266.403 262.199 267.459 263.012 267.915C262.855 267.19 262.494 266.526 261.971 266C261.82 265.879 261.633 265.812 261.439 265.81Z" fill="#407BFF"/>
<path d="M241.99 69.6084C241.906 70.1024 241.572 70.4596 241.23 70.3684C240.888 70.2772 240.706 69.8668 240.797 69.3728C240.888 68.8788 241.207 68.5216 241.557 68.5748C241.906 68.628 242.074 69.1144 241.99 69.6084Z" fill="#263238"/>
<path d="M236.397 68.6583C236.314 69.1523 235.979 69.5095 235.637 69.4183C235.295 69.3271 235.121 68.9243 235.204 68.4227C235.288 67.9211 235.615 67.5715 235.964 67.6627C236.314 67.7539 236.481 68.1643 236.397 68.6583Z" fill="#263238"/>
<path d="M236.101 67.7159L234.969 67.1687C234.969 67.1687 235.425 68.2023 236.101 67.7159Z" fill="#263238"/>
<path d="M237.969 69.844C237.343 70.896 236.576 71.8574 235.689 72.7016C235.912 72.9234 236.181 73.0946 236.476 73.2035C236.771 73.3123 237.086 73.3563 237.399 73.3324L237.969 69.844Z" fill="#ED893E"/>
<path d="M239.741 75.7264C239.486 75.7266 239.232 75.7037 238.981 75.658C238.962 75.6553 238.944 75.6487 238.927 75.6388C238.911 75.6288 238.896 75.6157 238.885 75.6001C238.874 75.5845 238.866 75.5668 238.861 75.548C238.857 75.5293 238.856 75.5098 238.859 75.4908C238.867 75.4517 238.889 75.4171 238.922 75.3943C238.955 75.3716 238.995 75.3626 239.034 75.3692C239.647 75.4867 240.278 75.4585 240.877 75.2869C241.477 75.1152 242.027 74.805 242.485 74.3812C242.498 74.3665 242.515 74.3547 242.533 74.3467C242.551 74.3386 242.571 74.3345 242.591 74.3345C242.611 74.3345 242.631 74.3386 242.649 74.3467C242.667 74.3547 242.684 74.3665 242.697 74.3812C242.711 74.3947 242.722 74.4107 242.729 74.4283C242.736 74.4459 242.74 74.4648 242.74 74.4838C242.74 74.5029 242.736 74.5218 242.729 74.5394C242.722 74.557 242.711 74.573 242.697 74.5864C241.902 75.3425 240.839 75.7525 239.741 75.7264Z" fill="#263238"/>
<path d="M254.888 60.2831C254.174 59.7826 253.364 59.4357 252.509 59.2647C251.818 53.3367 247.068 49.5671 241.77 50.7603C235.766 52.1131 233.676 59.5611 237.712 62.0995C240.086 63.55 242.767 64.4221 245.54 64.6455C245.646 69.5627 248.709 73.7655 250.86 73.9935C257.001 71.5463 258.589 62.8899 254.888 60.2831Z" fill="#263238"/>
<path d="M252.654 75.4983C252.048 76.5273 251.063 77.2777 249.91 77.5883C248.39 77.9759 247.63 76.6004 248.102 75.1716C248.504 73.8872 249.796 72.1316 251.324 72.3672C251.656 72.4278 251.967 72.5698 252.231 72.7806C252.494 72.9913 252.701 73.2641 252.833 73.5745C252.964 73.8849 253.017 74.2231 252.986 74.5589C252.955 74.8947 252.841 75.2175 252.654 75.4983Z" fill="#FFB573"/>
<path d="M244.431 68.8483C244.369 68.8481 244.308 68.8282 244.257 68.7913C244.207 68.7545 244.169 68.7026 244.15 68.6431C243.747 67.3435 242.083 66.7811 242.067 66.7811C241.993 66.7567 241.931 66.7039 241.896 66.6341C241.86 66.5643 241.854 66.4833 241.877 66.4087C241.889 66.3712 241.907 66.3364 241.932 66.3064C241.957 66.2763 241.988 66.2517 242.023 66.2339C242.058 66.2162 242.096 66.2057 242.135 66.203C242.174 66.2004 242.213 66.2057 242.25 66.2187C242.326 66.2187 244.226 66.8799 244.712 68.4987C244.736 68.5733 244.73 68.6543 244.694 68.7241C244.659 68.7939 244.597 68.8467 244.522 68.8711L244.431 68.8483Z" fill="#263238"/>
<path d="M235.159 65.7856C235.107 65.7855 235.056 65.7722 235.011 65.747C234.966 65.7217 234.928 65.6853 234.901 65.6412C234.863 65.5726 234.853 65.4917 234.874 65.4162C234.896 65.3407 234.946 65.2768 235.015 65.2384C235.415 64.9963 235.867 64.8534 236.334 64.8217C236.801 64.79 237.268 64.8703 237.698 65.056C237.757 65.0965 237.8 65.1574 237.818 65.2272C237.836 65.297 237.828 65.3709 237.795 65.4352C237.763 65.4995 237.708 65.5498 237.641 65.5765C237.574 65.6032 237.499 65.6046 237.432 65.5804C237.088 65.44 236.717 65.382 236.348 65.411C235.978 65.44 235.62 65.5553 235.304 65.7476C235.26 65.7742 235.21 65.7874 235.159 65.7856Z" fill="#263238"/>
<path d="M262.746 97.6218C263.506 101.201 264.008 104.72 264.433 108.315C264.883 111.924 265.136 115.554 265.193 119.191C265.193 119.373 265.193 119.753 265.193 120.087C265.193 120.422 265.14 120.695 265.102 120.977C265.011 121.531 264.912 122.048 264.783 122.497C264.54 123.469 264.251 124.374 263.947 125.263C263.339 127.034 262.617 128.713 261.887 130.37C260.401 133.656 258.75 136.865 256.94 139.984L254.082 138.654L255.777 133.653C256.347 131.997 256.894 130.325 257.403 128.66C257.912 126.996 258.406 125.347 258.832 123.72C259.037 122.907 259.212 122.101 259.334 121.341C259.394 120.961 259.44 120.581 259.47 120.277C259.47 120.118 259.47 119.973 259.47 119.844L259.432 119.411C259.296 117.709 259.098 115.999 258.893 114.281L258.178 109.113C257.654 105.678 257.069 102.197 256.484 98.7998L262.746 97.6218Z" fill="#FFB573"/>
<path d="M259.842 90.3791C262.373 91.1391 265.413 99.8639 265.413 99.8639L255.586 106.886C255.586 106.886 252.007 99.6131 253.071 96.3375C254.18 92.9327 256.947 89.4975 259.842 90.3791Z" fill="#263238"/>
<path d="M232.216 268.554C231.681 268.607 231.144 268.473 230.696 268.174C230.595 268.085 230.518 267.972 230.472 267.846C230.425 267.72 230.411 267.585 230.43 267.452C230.434 267.371 230.458 267.294 230.501 267.226C230.543 267.158 230.603 267.102 230.674 267.064C231.434 266.646 233.919 267.908 234.2 268.06C234.227 268.074 234.249 268.096 234.263 268.123C234.276 268.15 234.281 268.181 234.276 268.212C234.272 268.241 234.259 268.269 234.238 268.29C234.218 268.312 234.191 268.327 234.162 268.333C233.522 268.467 232.87 268.54 232.216 268.554ZM231.107 267.269C231.012 267.264 230.918 267.282 230.833 267.322C230.804 267.337 230.779 267.36 230.762 267.388C230.744 267.417 230.735 267.449 230.734 267.482C230.723 267.568 230.732 267.656 230.761 267.738C230.79 267.82 230.838 267.894 230.902 267.953C231.282 268.295 232.308 268.348 233.683 268.12C232.88 267.691 232.008 267.403 231.107 267.269Z" fill="#407BFF"/>
<path d="M234.148 268.333H234.08C233.32 267.991 231.868 266.654 231.99 265.947C231.99 265.78 232.134 265.574 232.537 265.529C232.684 265.514 232.833 265.53 232.974 265.574C233.115 265.618 233.245 265.691 233.358 265.787C234.118 266.441 234.285 268.113 234.285 268.181C234.289 268.207 234.286 268.234 234.275 268.259C234.264 268.283 234.246 268.304 234.224 268.318C234.2 268.33 234.174 268.335 234.148 268.333ZM232.666 265.81H232.56C232.294 265.81 232.278 265.947 232.271 265.977C232.202 266.403 233.198 267.459 233.95 267.915C233.901 267.214 233.636 266.544 233.19 266C233.046 265.872 232.859 265.805 232.666 265.81Z" fill="#407BFF"/>
<path d="M241.679 68.6659L240.547 68.1187C240.547 68.1187 241.018 69.1599 241.679 68.6659Z" fill="#263238"/>
<path d="M255.739 126.631L256.385 128.911C256.477 129.093 256.264 129.268 255.975 129.268H229.96C229.732 129.268 229.55 129.154 229.535 129.017L229.307 126.737C229.307 126.578 229.489 126.449 229.732 126.449H255.359C255.433 126.447 255.505 126.462 255.571 126.494C255.637 126.526 255.695 126.573 255.739 126.631Z" fill="#407BFF"/>
<path d="M252.32 129.489H253.004C253.141 129.489 253.239 129.42 253.232 129.337L252.913 126.395C252.913 126.312 252.783 126.236 252.647 126.236H251.963C251.826 126.236 251.719 126.312 251.727 126.395L252.054 129.337C252.046 129.42 252.168 129.489 252.32 129.489Z" fill="#407BFF"/>
<g opacity="0.3">
<path d="M252.32 129.489H253.004C253.141 129.489 253.239 129.42 253.232 129.337L252.913 126.395C252.913 126.312 252.783 126.236 252.647 126.236H251.963C251.826 126.236 251.719 126.312 251.727 126.395L252.054 129.337C252.046 129.42 252.168 129.489 252.32 129.489Z" fill="white"/>
</g>
<path d="M231.891 129.489H232.575C232.712 129.489 232.819 129.42 232.811 129.337L232.484 126.395C232.484 126.312 232.355 126.236 232.218 126.236H231.534C231.397 126.236 231.291 126.312 231.306 126.395L231.625 129.337C231.633 129.42 231.755 129.489 231.891 129.489Z" fill="#407BFF"/>
<path opacity="0.3" d="M231.891 129.489H232.575C232.712 129.489 232.819 129.42 232.811 129.337L232.484 126.395C232.484 126.312 232.355 126.236 232.218 126.236H231.534C231.397 126.236 231.291 126.312 231.306 126.395L231.625 129.337C231.633 129.42 231.755 129.489 231.891 129.489Z" fill="white"/>
<path d="M242.096 129.489H242.78C242.917 129.489 243.024 129.42 243.008 129.337L242.689 126.395C242.689 126.312 242.56 126.236 242.423 126.236H241.739C241.602 126.236 241.496 126.312 241.511 126.395L241.83 129.337C241.838 129.42 241.96 129.489 242.096 129.489Z" fill="#407BFF"/>
<path opacity="0.3" d="M242.096 129.489H242.78C242.917 129.489 243.024 129.42 243.008 129.337L242.689 126.395C242.689 126.312 242.56 126.236 242.423 126.236H241.739C241.602 126.236 241.496 126.312 241.511 126.395L241.83 129.337C241.838 129.42 241.96 129.489 242.096 129.489Z" fill="white"/>
<path d="M254.197 138.092L249.371 142.774L255.664 143.404C255.664 143.404 257.944 140.114 256.751 137.818L254.197 138.092Z" fill="#FFB573"/>
<path d="M248.656 147.957L253.961 148.2L255.663 143.404L249.371 142.773L248.656 147.957Z" fill="#FFB573"/>
<path d="M125.628 269.124C126.227 269.194 126.832 269.045 127.331 268.706C127.4 268.628 127.444 268.532 127.458 268.429C127.471 268.325 127.453 268.221 127.407 268.128C127.372 268.051 127.321 267.983 127.256 267.929C127.192 267.875 127.116 267.837 127.034 267.816C126.137 267.566 123.994 268.675 123.933 268.728C123.907 268.74 123.886 268.76 123.871 268.784C123.856 268.808 123.849 268.837 123.85 268.865C123.851 268.891 123.861 268.915 123.877 268.934C123.894 268.953 123.916 268.967 123.941 268.972C124.498 269.072 125.062 269.123 125.628 269.124ZM126.677 268.044C126.76 268.032 126.845 268.032 126.928 268.044C126.977 268.054 127.024 268.076 127.064 268.108C127.103 268.14 127.135 268.18 127.156 268.227C127.224 268.394 127.156 268.478 127.156 268.523C126.844 268.88 125.431 268.888 124.412 268.744C125.12 268.38 125.887 268.143 126.677 268.044Z" fill="#407BFF"/>
<path d="M123.964 268.971H124.025C124.739 268.667 126.252 267.451 126.244 266.828C126.244 266.676 126.161 266.494 125.803 266.456C125.531 266.437 125.261 266.518 125.043 266.684C124.458 267.277 124.05 268.022 123.865 268.835C123.858 268.856 123.857 268.88 123.864 268.902C123.871 268.924 123.885 268.943 123.903 268.956C123.922 268.967 123.943 268.973 123.964 268.971ZM125.659 266.691H125.743C125.971 266.691 125.978 266.805 125.978 266.836C125.978 267.216 124.937 268.166 124.185 268.576C124.353 267.925 124.695 267.332 125.173 266.859C125.315 266.758 125.485 266.705 125.659 266.707V266.691Z" fill="#407BFF"/>
<path d="M117.846 268.842H123.432L125.887 255.907H120.3L117.846 268.842Z" fill="#B55B52"/>
<path d="M123.485 268.196H117.405C117.289 268.2 117.177 268.239 117.082 268.306C116.988 268.374 116.915 268.468 116.873 268.576L115.042 273.539C114.99 273.647 114.968 273.766 114.976 273.885C114.985 274.004 115.024 274.118 115.089 274.218C115.155 274.317 115.245 274.398 115.352 274.452C115.458 274.506 115.576 274.532 115.695 274.527C117.907 274.527 121.099 274.367 123.865 274.367C127.095 274.367 126.799 274.542 130.591 274.542C132.871 274.542 133.859 272.224 132.932 272.011C128.706 271.061 128.212 270.955 124.785 268.629C124.406 268.355 123.953 268.204 123.485 268.196Z" fill="#263238"/>
<path opacity="0.2" d="M125.886 255.915L124.617 262.58H119.031L120.3 255.915H125.886Z" fill="black"/>
<path d="M126.305 129.542L129.961 133.38L124.063 135.44C124.063 135.44 121.92 132.308 123.569 130.165L126.305 129.542Z" fill="#B55B52"/>
<path d="M131.054 138.745L125.218 139.597L124.062 135.439L129.96 133.38L131.054 138.745Z" fill="#B55B52"/>
<path d="M104.394 161.394L132.879 162.64C133.548 162.65 134.201 162.429 134.725 162.014C135.25 161.598 135.616 161.014 135.759 160.36L139.164 142.956C139.235 142.661 139.238 142.354 139.174 142.058C139.11 141.761 138.98 141.483 138.794 141.244C138.608 141.004 138.37 140.81 138.099 140.675C137.828 140.54 137.529 140.467 137.226 140.463L108.741 139.209C108.073 139.201 107.423 139.423 106.899 139.838C106.376 140.253 106.012 140.837 105.868 141.489L102.456 158.893C102.384 159.189 102.379 159.496 102.443 159.794C102.506 160.091 102.636 160.37 102.822 160.611C103.008 160.851 103.247 161.046 103.519 161.182C103.791 161.317 104.09 161.39 104.394 161.394Z" fill="#263238"/>
<path d="M106.347 166.744L141.535 168.264C142.333 168.294 143.112 168.017 143.712 167.49C144.312 166.962 144.686 166.225 144.757 165.429L146.619 143.83C146.657 143.446 146.616 143.059 146.497 142.691C146.379 142.324 146.187 141.985 145.933 141.695C145.679 141.405 145.368 141.171 145.019 141.006C144.67 140.841 144.292 140.749 143.906 140.737L108.726 139.217C107.928 139.19 107.15 139.468 106.55 139.995C105.95 140.521 105.573 141.257 105.496 142.051L103.634 163.651C103.597 164.034 103.64 164.421 103.758 164.788C103.877 165.155 104.069 165.493 104.323 165.783C104.577 166.072 104.888 166.307 105.236 166.472C105.584 166.638 105.962 166.73 106.347 166.744Z" fill="#407BFF"/>
<path opacity="0.2" d="M106.347 166.744L141.535 168.264C142.333 168.294 143.112 168.017 143.712 167.49C144.312 166.962 144.686 166.225 144.757 165.429L146.619 143.83C146.657 143.446 146.616 143.059 146.497 142.691C146.379 142.324 146.187 141.985 145.933 141.695C145.679 141.405 145.368 141.171 145.019 141.006C144.67 140.841 144.292 140.749 143.906 140.737L108.726 139.217C107.928 139.19 107.15 139.468 106.55 139.995C105.95 140.521 105.573 141.257 105.496 142.051L103.634 163.651C103.597 164.034 103.64 164.421 103.758 164.788C103.877 165.155 104.069 165.493 104.323 165.783C104.577 166.072 104.888 166.307 105.236 166.472C105.584 166.638 105.962 166.73 106.347 166.744Z" fill="black"/>
<path d="M132.164 146.46H132.073L121.859 146.011C121.592 146.002 121.331 145.938 121.09 145.825C120.85 145.711 120.635 145.549 120.459 145.349C120.283 145.149 120.15 144.915 120.068 144.661C119.986 144.408 119.956 144.141 119.981 143.876L120.384 139.217C120.483 138.264 120.939 137.384 121.659 136.753C122.379 136.122 123.31 135.786 124.268 135.812L131.108 136.108C131.602 136.128 132.087 136.248 132.534 136.461C132.98 136.674 133.379 136.975 133.705 137.347C134.031 137.719 134.278 138.153 134.432 138.624C134.585 139.094 134.641 139.591 134.596 140.083L134.209 144.598C134.158 145.106 133.921 145.577 133.543 145.921C133.166 146.265 132.675 146.456 132.164 146.46ZM122.284 143.739L131.944 144.164L132.316 139.878C132.337 139.69 132.319 139.5 132.263 139.32C132.207 139.14 132.115 138.973 131.991 138.83C131.868 138.688 131.716 138.572 131.546 138.491C131.375 138.409 131.19 138.364 131.001 138.358L124.161 138.054C123.789 138.051 123.429 138.185 123.148 138.43C122.868 138.675 122.688 139.015 122.641 139.384L122.284 143.739Z" fill="#407BFF"/>
<path d="M145.297 168.454L110.117 166.934C109.313 166.887 108.556 166.541 107.993 165.965C107.431 165.389 107.104 164.623 107.077 163.818L106.606 142.12C106.59 141.737 106.655 141.355 106.796 140.999C106.937 140.642 107.152 140.319 107.425 140.051C107.699 139.782 108.025 139.574 108.384 139.44C108.743 139.305 109.126 139.247 109.509 139.27L144.697 140.79C145.502 140.835 146.26 141.18 146.823 141.757C147.385 142.334 147.712 143.1 147.737 143.906L148.201 165.604C148.215 165.987 148.149 166.368 148.008 166.724C147.866 167.08 147.652 167.402 147.379 167.67C147.105 167.939 146.779 168.147 146.421 168.282C146.062 168.417 145.68 168.475 145.297 168.454Z" fill="#407BFF"/>
<path d="M134.878 87.0351C134.506 87.7951 134.065 88.6615 133.67 89.4899C133.275 90.3183 132.91 91.2 132.492 92.0588C131.732 93.7839 130.972 95.5167 130.318 97.2571C129.665 98.9975 129.057 100.753 128.517 102.494C128.266 103.368 128.008 104.234 127.818 105.093C127.704 105.526 127.605 105.959 127.529 106.377L127.407 107.016C127.362 107.236 127.316 107.456 127.301 107.608C127.301 107.943 127.21 108.247 127.195 108.695C127.179 109.144 127.141 109.508 127.141 109.972C127.141 110.861 127.141 111.796 127.141 112.731C127.179 114.623 127.293 116.531 127.407 118.492C127.628 122.375 127.955 126.32 128.259 130.211L121.297 131.336C120.355 127.376 119.61 123.454 118.941 119.434C118.622 117.428 118.348 115.406 118.12 113.354C118.014 112.305 117.907 111.264 117.854 110.162C117.809 109.638 117.801 109.045 117.793 108.467C117.786 107.89 117.793 107.236 117.862 106.582C117.877 106.285 117.907 105.988 117.953 105.693L118.059 104.857C118.12 104.295 118.204 103.748 118.303 103.216C118.485 102.121 118.713 101.065 118.941 100.008C119.435 97.9183 119.997 95.8587 120.666 93.8675C121.335 91.8763 122.042 89.9003 122.832 87.9699C123.227 87.0047 123.592 86.0472 124.063 85.0896C124.535 84.132 124.907 83.2199 125.431 82.1711L134.878 87.0351Z" fill="#407BFF"/>
<path d="M150.108 126.821C150.108 126.821 144.735 168.568 141.626 185.592C138.389 203.3 126.92 261.288 126.92 261.288H117.428C117.428 261.288 122.246 204.333 124.382 186.945C126.715 167.945 130.462 126.821 130.462 126.821H150.108Z" fill="#263238"/>
<path d="M129.261 257.518C129.306 257.518 128.151 261.448 128.151 261.448H116.645L116.85 257.944L129.261 257.518Z" fill="#407BFF"/>
<path d="M154.684 57.494C154.684 57.9652 154.934 58.3528 155.246 58.3528C155.558 58.3528 155.801 57.9652 155.801 57.494C155.801 57.0228 155.55 56.6428 155.246 56.6428C154.942 56.6428 154.684 57 154.684 57.494Z" fill="#263238"/>
<path d="M154.889 58.3528C155.459 59.7988 156.227 61.1593 157.169 62.396C156.843 62.6296 156.47 62.7888 156.076 62.8623C155.682 62.9359 155.277 62.922 154.889 62.8216V58.3528Z" fill="#A02724"/>
<path d="M153.012 54.8718C153.069 54.8721 153.124 54.8563 153.172 54.8262C153.448 54.612 153.772 54.4672 154.115 54.4037C154.459 54.3402 154.813 54.36 155.148 54.4614C155.216 54.4864 155.292 54.4837 155.359 54.4539C155.425 54.4242 155.478 54.3696 155.505 54.3018C155.518 54.2679 155.525 54.2317 155.524 54.1953C155.523 54.1588 155.515 54.1229 155.5 54.0897C155.485 54.0564 155.464 54.0264 155.437 54.0015C155.411 53.9766 155.38 53.9573 155.345 53.9446C154.925 53.8091 154.478 53.7771 154.043 53.8512C153.608 53.9253 153.197 54.1033 152.845 54.3702C152.786 54.4142 152.747 54.4793 152.736 54.5517C152.724 54.6241 152.742 54.6981 152.784 54.7578C152.81 54.7939 152.844 54.8232 152.884 54.843C152.924 54.8629 152.968 54.8728 153.012 54.8718Z" fill="#263238"/>
<path d="M139.719 62.7151C140.479 66.8039 141.315 74.2899 138.457 77.0107C138.457 77.0107 139.574 81.1527 147.167 81.1527C155.527 81.1527 151.149 77.0107 151.149 77.0107C146.589 75.9239 146.718 72.5495 147.509 69.3727L139.719 62.7151Z" fill="#B55B52"/>
<path d="M137.363 78.432C136.77 77.1248 136.109 75.62 137.47 75.1488C138.99 74.632 147.175 74.1076 150.002 75.0804C150.375 75.1837 150.724 75.3601 151.028 75.5992C151.332 75.8382 151.586 76.1353 151.775 76.4732C151.964 76.8111 152.084 77.183 152.128 77.5675C152.172 77.952 152.139 78.3414 152.031 78.7132L137.363 78.432Z" fill="#263238"/>
<path d="M127.46 78.6142C122.573 80.8334 119.533 97.6598 119.533 97.6598L129.117 100.7C131 96.2566 132.564 91.685 133.798 87.0198C135.539 79.9974 132.461 76.3494 127.46 78.6142Z" fill="#407BFF"/>
<path d="M186.96 120.278H192.857L191.824 127.33C191.824 127.33 187.203 127.163 185.105 123.682L186.96 120.278Z" fill="#B55B52"/>
<path d="M198.407 122.732L195.443 128.182L191.795 127.346L192.829 120.293L198.407 122.732Z" fill="#B55B52"/>
<path d="M138.913 56.4907C139.271 62.2971 139.187 65.7171 142.121 68.6963C146.529 73.1803 153.695 70.5203 155.079 64.7215C156.333 59.5079 155.535 50.8895 149.85 48.5791C148.6 48.0639 147.238 47.8768 145.895 48.0356C144.552 48.1944 143.272 48.6939 142.176 49.4865C141.081 50.2792 140.206 51.3387 139.635 52.5646C139.064 53.7905 138.815 55.1419 138.913 56.4907Z" fill="#B55B52"/>
<path d="M138.244 64.3871C138.244 64.3871 132.985 56.4983 134.125 51.3531C135.166 46.6487 145.783 44.9691 150.191 45.4403C154.873 45.9495 156.697 47.9635 154.128 52.0219C152.612 52.7404 151.018 53.281 149.378 53.6331C149.378 53.6331 151.985 56.8327 152.007 58.9531C151.247 59.3483 148.899 60.2907 148.899 60.2907C148.899 60.2907 145.57 68.5063 145.471 68.4911C144.187 68.3391 141.215 68.2935 140.151 68.6963C139.398 67.3151 138.76 65.8738 138.244 64.3871Z" fill="#263238"/>
<path d="M146.598 59.4396C146.981 60.8285 147.808 62.0537 148.954 62.928C150.474 64.068 151.606 62.9888 151.492 61.2788C151.393 59.7588 150.481 57.304 148.809 56.8252C147.137 56.3464 146.157 57.76 146.598 59.4396Z" fill="#B55B52"/>
<path opacity="0.3" d="M146.08 142.424C138.609 144.157 140 171.182 141.436 186.588C141.505 186.238 141.558 185.911 141.619 185.592C143.473 175.454 146.126 156.56 147.972 142.925C147.397 142.593 146.744 142.42 146.08 142.424Z" fill="black"/>
<path d="M153.308 269.124C154.022 269.124 154.714 269.025 154.949 268.706C155.01 268.621 155.042 268.52 155.042 268.417C155.042 268.313 155.01 268.212 154.949 268.128C154.904 268.05 154.844 267.983 154.772 267.929C154.7 267.876 154.618 267.837 154.531 267.816C153.604 267.566 151.651 268.675 151.567 268.728C151.544 268.742 151.526 268.763 151.515 268.787C151.504 268.812 151.501 268.839 151.506 268.865C151.512 268.891 151.525 268.915 151.544 268.934C151.563 268.953 151.587 268.966 151.613 268.972C152.173 269.07 152.739 269.121 153.308 269.124ZM154.197 268.044C154.28 268.032 154.365 268.032 154.448 268.044C154.501 268.055 154.552 268.077 154.596 268.108C154.641 268.139 154.678 268.18 154.706 268.227C154.805 268.394 154.767 268.478 154.706 268.523C154.448 268.88 153.034 268.888 151.993 268.744C152.675 268.369 153.424 268.132 154.197 268.044Z" fill="#407BFF"/>
<path d="M151.62 268.972H151.673C152.349 268.668 153.687 267.452 153.58 266.828C153.58 266.676 153.451 266.494 153.086 266.456C152.951 266.439 152.813 266.451 152.683 266.49C152.552 266.53 152.43 266.596 152.326 266.684C151.612 267.269 151.468 268.774 151.46 268.835C151.457 268.858 151.46 268.882 151.47 268.903C151.479 268.924 151.494 268.943 151.513 268.956C151.545 268.975 151.584 268.98 151.62 268.972ZM152.98 266.692H153.064C153.299 266.692 153.314 266.806 153.322 266.836C153.383 267.216 152.471 268.166 151.802 268.576C151.872 267.939 152.137 267.339 152.562 266.859C152.681 266.764 152.828 266.711 152.98 266.707V266.692Z" fill="#407BFF"/>
<path d="M145.48 268.842H151.066L151.621 255.907H146.043L145.48 268.842Z" fill="#B55B52"/>
<path d="M151.027 268.196H144.947C144.837 268.197 144.729 268.234 144.642 268.303C144.555 268.372 144.494 268.468 144.469 268.576L143.367 273.539C143.34 273.659 143.341 273.783 143.37 273.902C143.398 274.022 143.453 274.133 143.531 274.228C143.608 274.323 143.706 274.399 143.817 274.451C143.928 274.503 144.05 274.529 144.172 274.527C146.369 274.527 149.545 274.367 152.312 274.367C155.549 274.367 158.339 274.542 162.131 274.542C164.411 274.542 165.057 272.224 164.099 272.011C159.729 271.061 156.165 270.955 152.388 268.629C151.984 268.361 151.513 268.21 151.027 268.196Z" fill="#263238"/>
<path opacity="0.2" d="M151.621 255.915L151.332 262.58H145.746L146.035 255.915H151.621Z" fill="black"/>
<path d="M160.072 126.821C160.072 126.821 160.832 168.568 160.232 185.592C159.601 203.3 153.392 261.288 153.392 261.288H143.96C143.96 261.288 143.611 204.333 143.2 186.945C142.737 167.945 140.449 126.821 140.449 126.821H160.072Z" fill="#263238"/>
<path d="M155.238 257.518C155.276 257.518 154.699 261.448 154.699 261.448H143.2L142.881 257.944L155.238 257.518Z" fill="#407BFF"/>
<path d="M159.737 78.5611C159.737 78.5611 166.44 88.7755 160.824 130.325H129.284C129.078 125.765 132.886 99.8715 128.463 78.2723C131.764 77.6367 135.102 77.2153 138.457 77.0107C142.684 76.7673 146.922 76.7673 151.149 77.0107C154.048 77.3027 156.919 77.8211 159.737 78.5611Z" fill="#407BFF"/>
<path opacity="0.2" d="M163.065 99.8183L156.453 88.8591C156.453 88.8591 158.938 104.394 162.746 111.401C163.004 107.016 163.096 103.17 163.065 99.8183Z" fill="black"/>
<path d="M165.885 86.5564C166.972 90.0296 168.165 93.5864 169.389 97.0672C170.613 100.548 171.889 104.006 173.288 107.327L173.82 108.558C173.866 108.65 173.906 108.744 173.941 108.84C173.972 108.91 174.008 108.979 174.048 109.045C174.385 109.548 174.778 110.012 175.218 110.428C176.417 111.545 177.706 112.561 179.071 113.468C180.5 114.456 182.013 115.414 183.571 116.318C185.129 117.222 186.74 118.15 188.275 118.948L185.319 125.848C181.578 124.475 177.947 122.819 174.458 120.893C172.591 119.851 170.812 118.659 169.138 117.329C168.141 116.525 167.236 115.612 166.44 114.608C166.212 114.281 165.992 113.992 165.771 113.628C165.551 113.263 165.308 112.807 165.239 112.655L164.571 111.325C162.83 107.783 161.272 104.242 159.836 100.685C158.399 97.128 157.062 93.5484 155.777 89.8472L165.885 86.5564Z" fill="#407BFF"/>
<path d="M152.289 81.0842C150.336 86.0546 162.215 106.065 162.215 106.065L169.944 98.6706C169.944 98.6706 168.257 92.3854 166.007 84.8158C163.788 77.3754 154.151 76.3342 152.289 81.0842Z" fill="#407BFF"/>
</svg>
