<svg width="444" height="331" viewBox="0 0 444 331" fill="none" xmlns="http://www.w3.org/2000/svg">
<path d="M443.951 290.164H0.816406V290.386H443.951V290.164Z" fill="#EBEBEB"/>
<path d="M399.549 304.425H370.195V304.646H399.549V304.425Z" fill="#EBEBEB"/>
<path d="M294.366 306.835H286.664V307.057H294.366V306.835Z" fill="#EBEBEB"/>
<path d="M369.31 296.2H352.303V296.422H369.31V296.2Z" fill="#EBEBEB"/>
<path d="M85.5885 297.689H47.3105V297.911H85.5885V297.689Z" fill="#EBEBEB"/>
<path d="M99.0945 297.689H93.4844V297.911H99.0945V297.689Z" fill="#EBEBEB"/>
<path d="M200.36 301.429H117.334V301.651H200.36V301.429Z" fill="#EBEBEB"/>
<path d="M210.863 250.637H39.7334C38.3928 250.635 37.1079 250.1 36.1607 249.152C35.2136 248.203 34.6816 246.917 34.6816 245.576V5.01628C34.6933 3.68336 35.2304 2.40886 36.1763 1.46963C37.1222 0.530395 38.4004 0.00228337 39.7334 0H210.863C212.205 0 213.492 0.533169 214.441 1.48221C215.391 2.43126 215.924 3.71844 215.924 5.0606V245.576C215.924 246.918 215.391 248.206 214.441 249.155C213.492 250.104 212.205 250.637 210.863 250.637ZM39.7334 0.177255C38.4515 0.179602 37.223 0.690461 36.3174 1.5977C35.4118 2.50494 34.9032 3.73443 34.9032 5.01628V245.576C34.9032 246.858 35.4118 248.088 36.3174 248.995C37.223 249.902 38.4515 250.413 39.7334 250.415H210.863C212.146 250.413 213.375 249.902 214.282 248.995C215.189 248.088 215.7 246.859 215.702 245.576V5.01628C215.7 3.73361 215.189 2.50415 214.282 1.59716C213.375 0.690174 212.146 0.179597 210.863 0.177255H39.7334Z" fill="#EBEBEB"/>
<path d="M402.57 250.637H231.432C230.09 250.635 228.804 250.101 227.856 249.152C226.907 248.204 226.373 246.918 226.371 245.576V5.01628C226.385 3.68255 226.924 2.40806 227.871 1.46907C228.819 0.530085 230.098 0.00225847 231.432 0H402.57C403.902 0.00461258 405.178 0.533755 406.122 1.47274C407.066 2.41172 407.602 3.68489 407.613 5.01628V245.576C407.613 246.915 407.082 248.2 406.137 249.148C405.192 250.097 403.909 250.632 402.57 250.637ZM231.432 0.177255C230.149 0.179597 228.92 0.690174 228.013 1.59716C227.106 2.50415 226.595 3.73361 226.593 5.01628V245.576C226.595 246.859 227.106 248.088 228.013 248.995C228.92 249.902 230.149 250.413 231.432 250.415H402.57C403.853 250.413 405.082 249.902 405.989 248.995C406.896 248.088 407.407 246.859 407.409 245.576V5.01628C407.407 3.73361 406.896 2.50415 405.989 1.59716C405.082 0.690174 403.853 0.179597 402.57 0.177255H231.432Z" fill="#EBEBEB"/>
<path d="M259.474 26.2513H178.912V126.701H259.474V26.2513Z" fill="#F5F5F5"/>
<path d="M193.668 39.3592C203.816 32.0918 203.842 28.1036 211.11 36.2484C218.377 44.3932 223.438 54.2485 236.626 49.1081C249.813 43.9678 257.16 57.2707 248.714 69.4923C240.268 81.714 243.397 98.4645 248.714 106.467C254.032 114.47 251.568 125.256 243.042 119.221C234.516 113.185 222.977 113.194 214.726 117.448C206.475 121.702 196.823 132.222 197.559 113.832C198.294 95.4423 188.838 101.203 186.401 91.9061C183.963 82.6091 195.724 88.5028 193.668 68.1363C191.612 47.7699 184.672 45.8112 193.668 39.3592Z" fill="#E0E0E0"/>
<path d="M243.301 36.2483C230.964 30.78 225.735 28.0858 219.956 40.272C214.178 52.4582 202.532 68.6769 194.13 64.2012C185.729 59.7256 188.272 80.1541 204.411 75.0315C220.55 69.9088 224.441 72.4967 230.113 84.7804C235.785 97.0641 234.447 103.924 241.298 99.4393C248.148 94.9548 238.692 81.1467 242.574 69.9974C246.456 58.8482 254.379 41.1582 243.301 36.2483Z" fill="#EBEBEB"/>
<path d="M200.068 98.4557C205.04 88.9106 198.295 73.6402 211.306 80.0568C224.316 86.4733 218.866 111.076 230.05 105.245C241.235 99.4129 233.657 82.5826 243.203 81.7584C252.748 80.9342 251.711 118.477 237.787 119.239C223.864 120.001 211.846 107.637 207.654 111.909C203.462 116.181 191.763 125.948 189.335 113.85C186.907 101.753 196.239 105.776 200.068 98.4557Z" fill="#EBEBEB"/>
<path d="M281.117 128.979H359.41V23.9647L281.117 23.9647V128.979Z" fill="#F5F5F5"/>
<path d="M292.177 34.5114C294.437 30.3105 350.458 51.4303 348.951 55.9946C347.445 60.5589 305.178 64.3432 301.456 70.5205C297.734 76.6978 346.222 84.9313 345.344 89.1322C344.467 93.3331 298.602 89.593 297.716 93.7674C296.83 97.9417 346.053 105.191 342.774 111.493C339.495 117.794 298.629 113.265 294.135 102.63C289.642 91.9948 314.378 92.7216 315.087 85.6757C315.796 78.6299 288.72 77.2562 292.159 65.9385C295.598 54.6208 331.155 62.7834 327.84 52.9103C324.526 43.0373 287.887 42.4612 292.177 34.5114Z" fill="#E6E6E6"/>
<path d="M335.028 35.0786C342.34 33.3592 350.786 46.4317 342.119 43.507C333.451 40.5823 327.717 36.7891 335.028 35.0786Z" fill="#EBEBEB"/>
<path d="M302.032 51.6074C302.395 47.9648 291.61 48.6118 291.485 51.6074C291.361 54.603 301.651 55.4095 302.032 51.6074Z" fill="#EBEBEB"/>
<path d="M342.792 73.5603C338.84 67.0463 327.221 69.8646 327.345 72.8691C327.469 75.8735 347.055 80.5707 342.792 73.5603Z" fill="#EBEBEB"/>
<path d="M158.404 23.9647H80.1113V128.979H158.404V23.9647Z" fill="#F5F5F5"/>
<path d="M94.6806 100.636C94.6806 100.636 87.2891 43.4273 91.8534 36.5764C96.4177 29.7256 105.794 54.4702 107.478 48.674C109.162 42.8778 110.226 30.541 116.279 31.6133C122.332 32.6857 120.205 43.3298 124.885 43.7464C129.564 44.1629 135.281 30.1333 137.301 31.6133C139.322 33.0934 137.629 42.9133 141.449 43.7464C145.269 44.5795 144.223 34.219 149.204 37.4893C154.185 40.7596 146.315 100.636 146.315 100.636C146.315 100.636 149.301 53.5042 144.099 53.5042C138.897 53.5042 136.778 68.1365 133.375 61.2413C129.972 54.3461 133.73 49.3742 131.434 48.674C129.139 47.9739 124.344 60.3196 120.799 58.6091C117.254 56.8986 118.734 49.7996 116.288 48.674C113.842 47.5485 123.139 65.5131 109.57 61.392C96.0011 57.2708 98.1902 46.095 96.2759 50.225C94.3615 54.355 94.6806 100.636 94.6806 100.636Z" fill="#EBEBEB"/>
<path d="M134.839 85.0109C129.521 77.9916 126.171 91.587 120.145 96.0627C114.118 100.538 116.263 79.5426 108.49 84.4614C100.718 89.3802 106.257 102.089 101.108 105.927C95.9584 109.764 96.8181 123.528 102.597 116.491C108.375 109.454 108.269 90.878 112.62 102.719C116.972 114.559 118.877 126.107 122.706 115.871C126.535 105.634 123.167 90.0095 128.83 98.9342C134.493 107.859 134.626 119.903 140.298 114.993C145.971 110.083 136.913 106.937 137.134 101.504C137.356 96.0715 137.081 87.9799 134.839 85.0109Z" fill="#EBEBEB"/>
<path d="M365.57 260.2C365.703 259.313 368.805 237.892 362.592 230.501C361.974 229.722 361.191 229.09 360.299 228.65C359.407 228.21 358.428 227.974 357.434 227.957C344.893 227.665 343.174 237.706 343.156 237.839L344.636 238.07C344.698 237.706 346.187 229.207 357.399 229.455C358.181 229.468 358.95 229.655 359.651 230.003C360.352 230.351 360.966 230.851 361.449 231.467C367.236 238.344 364.108 259.765 364.108 259.978L365.57 260.2Z" fill="#EBEBEB"/>
<path d="M366.331 259.225L367.82 259.172C367.82 258.977 367.324 239.461 376.949 235.42C386.37 231.476 390.615 239.594 390.792 239.94L392.13 239.266C392.077 239.169 387.105 229.517 376.364 234.046C365.799 238.477 366.305 258.374 366.331 259.225Z" fill="#EBEBEB"/>
<path d="M366.287 260.758C366.287 260.448 366.375 229.57 372.393 220.539C378.172 211.872 387.46 215.948 387.894 216.108L388.515 214.752C388.399 214.699 377.64 209.948 371.152 219.688C364.878 229.092 364.789 259.446 364.789 260.74L366.287 260.758Z" fill="#EBEBEB"/>
<path d="M355.633 228.702C355.633 228.702 361.111 230.722 359.489 235.491C357.867 240.259 340.54 248.102 340.54 248.102C340.54 248.102 333.291 241.446 339.946 230.643C346.602 219.839 355.492 225.29 355.633 228.702Z" fill="#E0E0E0"/>
<path d="M372.668 218.909C372.668 218.909 368.778 218.492 369.123 216.126C369.469 213.759 384.243 207.662 392.973 217.517C392.973 217.517 387.38 227.124 379.298 227.266C371.215 227.408 372.668 218.909 372.668 218.909Z" fill="#E0E0E0"/>
<path d="M376.657 234.737C376.657 234.737 373.998 232.566 376.869 231.511C379.741 230.457 393.974 230.749 394.125 244.805C394.125 244.805 377.57 247.553 375.513 242.191C373.457 236.829 376.657 234.737 376.657 234.737Z" fill="#E0E0E0"/>
<path d="M352.691 288.871H378.375L381.149 260.758H349.926L352.691 288.871Z" fill="#EBEBEB"/>
<path d="M348.562 263.851H382.523V257.647H348.562V263.851Z" fill="#E0E0E0"/>
<path d="M83.3539 263.417C83.3539 263.417 88.3614 252.489 82.6449 241.721C76.9285 230.953 75.2623 228.427 78.9137 226.211C82.5652 223.996 84.2313 234.826 84.2313 234.826C84.2313 234.826 87.3067 227.381 84.7631 219.591C82.2195 211.801 80.6331 199.109 84.1073 197.744C87.5814 196.38 84.7631 213.573 87.7764 219.44C89.3081 215.323 90.2973 211.024 90.7188 206.651C91.1265 200.394 90.4795 190.406 93.2181 187.845C95.9567 185.283 97.7115 187.056 94.9907 200.864C93.3794 209.117 92.4897 217.494 92.3318 225.901C92.3318 225.901 98.2698 207.786 102.258 207.29C106.246 206.793 106.246 212.607 102.825 217.712C99.4043 222.817 92.837 231.892 91.7558 236.607C91.7558 236.607 98.2787 222.976 104.164 227.16C110.048 231.343 99.0498 239.567 94.1664 242.545C89.2831 245.523 85.8975 264.108 85.8975 264.108L83.3539 263.417Z" fill="#E0E0E0"/>
<path d="M87.3077 267.892C87.3077 267.892 82.4333 256.894 88.2826 246.214C94.132 235.535 95.8248 233.018 92.1999 230.758C88.5751 228.498 86.7848 239.293 86.7848 239.293C86.7848 239.293 83.807 231.804 86.4392 224.049C89.0714 216.294 90.8085 203.665 87.3255 202.22C83.8424 200.775 86.4392 218.04 83.3993 223.854C81.9171 219.718 80.9787 215.407 80.6075 211.029C80.2708 204.763 81.033 194.784 78.3298 192.178C75.6267 189.573 73.8985 191.292 76.3712 205.171C77.9105 213.442 78.726 221.831 78.8084 230.244C78.8084 230.244 73.0477 212.049 69.0595 211.455C65.0712 210.861 65.0092 216.772 68.3593 221.877C71.7094 226.982 78.188 236.226 79.2072 240.932C79.2072 240.932 72.8527 227.204 66.9413 231.29C61.0299 235.375 71.8955 243.777 76.7523 246.826C81.609 249.875 84.7287 268.575 84.7287 268.575L87.3077 267.892Z" fill="#EBEBEB"/>
<path d="M64.8223 260.049H105.103L101.842 288.871H68.0837L64.8223 260.049Z" fill="#EBEBEB"/>
<path d="M222.384 330.188C317.288 330.188 394.222 325.697 394.222 320.156C394.222 314.615 317.288 310.123 222.384 310.123C127.48 310.123 50.5449 314.615 50.5449 320.156C50.5449 325.697 127.48 330.188 222.384 330.188Z" fill="#F5F5F5"/>
<path d="M214.329 305.391C214.333 306.67 214.029 307.932 213.443 309.069C212.95 310.065 212.169 310.889 211.2 311.435C211.2 311.435 207.877 313.429 207.425 313.624C206.811 313.885 206.151 314.021 205.484 314.023C201.868 314.023 198.943 310.203 198.943 305.488C198.916 303.436 199.519 301.425 200.671 299.727L198.553 288.038L193.138 257.736L181.439 192.79H190.16L201.833 257.736L207.319 288.038L209.091 298.238L210.917 299.213C212.911 300.091 214.329 302.519 214.329 305.391Z" fill="#263238"/>
<path opacity="0.4" d="M214.329 305.391C214.333 306.67 214.029 307.932 213.443 309.069C212.95 310.065 212.169 310.889 211.2 311.435C211.2 311.435 207.877 313.429 207.425 313.624C206.811 313.885 206.151 314.021 205.484 314.023C201.868 314.023 198.943 310.203 198.943 305.488C198.916 303.436 199.519 301.425 200.671 299.727L198.553 288.038L193.138 257.736L181.439 192.79H190.16L201.833 257.736L207.319 288.038L209.091 298.238L210.917 299.213C212.911 300.091 214.329 302.519 214.329 305.391Z" fill="white"/>
<path opacity="0.2" d="M214.328 305.391C214.328 308.998 212.086 311.931 209.321 311.931C206.556 311.931 204.305 308.998 204.305 305.391C204.305 301.784 206.547 298.85 209.321 298.85C212.095 298.85 214.328 301.775 214.328 305.391Z" fill="white"/>
<path opacity="0.2" d="M207.274 288.038H198.553L193.112 257.736L181.439 192.79H190.16L201.833 257.736L207.274 288.038Z" fill="black"/>
<path d="M365.411 212.527H326.354V223.694H365.411V212.527Z" fill="#263238"/>
<path d="M361.99 246.879L374.31 185.124C374.371 184.814 374.363 184.495 374.287 184.189C374.21 183.883 374.067 183.598 373.867 183.354C373.667 183.109 373.415 182.913 373.13 182.778C372.845 182.642 372.533 182.572 372.218 182.571H368.469C367.738 182.572 367.029 182.825 366.463 183.289C365.898 183.753 365.51 184.398 365.367 185.115L353.039 246.87C352.978 247.18 352.985 247.499 353.062 247.805C353.138 248.111 353.282 248.397 353.482 248.641C353.682 248.885 353.933 249.081 354.219 249.217C354.504 249.352 354.815 249.422 355.131 249.423H358.871C359.605 249.427 360.318 249.175 360.887 248.711C361.456 248.247 361.846 247.599 361.99 246.879Z" fill="#263238"/>
<path d="M371.853 209.744H364.284C362.006 209.744 360.172 213.289 360.172 217.721C360.172 222.152 362.006 225.697 364.284 225.697H371.853C374.122 225.697 375.965 222.152 375.965 217.721C375.965 213.289 374.122 209.744 371.853 209.744Z" fill="#263238"/>
<path opacity="0.2" d="M375.462 217.739C375.462 221.027 374.159 223.685 372.546 223.685C370.933 223.685 369.621 221.027 369.621 217.739C369.621 214.451 370.933 211.783 372.546 211.783C374.159 211.783 375.462 214.477 375.462 217.739Z" fill="white"/>
<path opacity="0.2" d="M361.99 246.879L374.31 185.124C374.371 184.814 374.363 184.495 374.287 184.189C374.21 183.883 374.067 183.598 373.867 183.354C373.667 183.109 373.415 182.913 373.13 182.778C372.845 182.642 372.533 182.572 372.218 182.571H368.469C367.738 182.572 367.029 182.825 366.463 183.289C365.898 183.753 365.51 184.398 365.367 185.115L353.039 246.87C352.978 247.18 352.985 247.499 353.062 247.805C353.138 248.111 353.282 248.397 353.482 248.641C353.682 248.885 353.933 249.081 354.219 249.217C354.504 249.352 354.815 249.422 355.131 249.423H358.871C359.605 249.427 360.318 249.175 360.887 248.711C361.456 248.247 361.846 247.599 361.99 246.879Z" fill="white"/>
<path d="M361.449 297.893V317.604H160.957V312.118H202.7L209.09 297.893H361.449Z" fill="#263238"/>
<path opacity="0.2" d="M361.449 297.893V317.604H285.035V312.118H326.778L333.168 297.893H361.449Z" fill="white"/>
<path d="M356.132 305.391C356.135 306.67 355.831 307.932 355.245 309.069C354.753 310.065 353.971 310.889 353.003 311.435C353.003 311.435 349.68 313.429 349.228 313.624C348.614 313.885 347.954 314.021 347.287 314.023C343.671 314.023 340.746 310.203 340.746 305.488C340.732 303.432 341.351 301.42 342.519 299.727L340.356 288.038L334.941 257.736L323.242 192.79H331.963L343.635 257.736L349.121 288.038L350.894 298.238L352.72 299.213C354.714 300.091 356.132 302.519 356.132 305.391Z" fill="#263238"/>
<path opacity="0.4" d="M356.132 305.391C356.135 306.67 355.831 307.932 355.245 309.069C354.753 310.065 353.971 310.889 353.003 311.435C353.003 311.435 349.68 313.429 349.228 313.624C348.614 313.885 347.954 314.021 347.287 314.023C343.671 314.023 340.746 310.203 340.746 305.488C340.732 303.432 341.351 301.42 342.519 299.727L340.356 288.038L334.941 257.736L323.242 192.79H331.963L343.635 257.736L349.121 288.038L350.894 298.238L352.72 299.213C354.714 300.091 356.132 302.519 356.132 305.391Z" fill="white"/>
<path opacity="0.2" d="M356.131 305.391C356.131 308.998 353.889 311.931 351.124 311.931C348.359 311.931 346.107 308.998 346.107 305.391C346.107 301.784 348.35 298.85 351.124 298.85C353.898 298.85 356.131 301.775 356.131 305.391Z" fill="white"/>
<path opacity="0.2" d="M349.077 288.038H340.356L334.914 257.736L323.242 192.79H331.963L343.635 257.736L349.077 288.038Z" fill="black"/>
<path d="M334.701 282.791H149.32C145.394 282.791 142.851 279.556 143.648 275.577L168.818 149.478C169.251 147.502 170.324 145.724 171.87 144.42C173.417 143.115 175.35 142.358 177.371 142.264H362.752C366.678 142.264 369.222 145.499 368.433 149.478L343.263 275.577C342.828 277.553 341.754 279.332 340.206 280.636C338.658 281.94 336.723 282.698 334.701 282.791Z" fill="#263238"/>
<path opacity="0.1" d="M334.701 282.791H149.32C145.394 282.791 142.851 279.556 143.648 275.577L168.818 149.478C169.251 147.502 170.324 145.724 171.87 144.42C173.417 143.115 175.35 142.358 177.371 142.264H362.752C366.678 142.264 369.222 145.499 368.433 149.478L343.263 275.577C342.828 277.553 341.754 279.332 340.206 280.636C338.658 281.94 336.723 282.698 334.701 282.791Z" fill="white"/>
<path d="M325.236 262.043H167.072L188.635 154.025H346.79L325.236 262.043Z" fill="#407BFF"/>
<path opacity="0.2" d="M345.904 229.402H338.894C338.521 229.414 338.15 229.338 337.811 229.18C337.473 229.023 337.176 228.788 336.945 228.495C336.714 228.202 336.555 227.859 336.481 227.493C336.407 227.127 336.42 226.749 336.518 226.389L342.031 198.666C342.211 197.845 342.655 197.105 343.296 196.559C343.936 196.013 344.736 195.692 345.576 195.644H352.666C353.041 195.632 353.412 195.708 353.752 195.866C354.091 196.024 354.389 196.26 354.621 196.554C354.853 196.848 355.012 197.192 355.087 197.559C355.162 197.926 355.149 198.305 355.05 198.666L349.511 226.389C349.329 227.22 348.876 227.967 348.223 228.512C347.57 229.058 346.754 229.371 345.904 229.402Z" fill="white"/>
<path opacity="0.2" d="M352.453 203.904C352.152 205.283 351.404 206.524 350.326 207.434C349.247 208.344 347.898 208.873 346.488 208.938C345.866 208.956 345.248 208.827 344.684 208.563C344.12 208.299 343.626 207.907 343.241 207.418C342.856 206.929 342.591 206.356 342.467 205.746C342.343 205.136 342.363 204.505 342.527 203.904C342.829 202.527 343.578 201.288 344.656 200.379C345.735 199.471 347.083 198.943 348.491 198.879C349.113 198.86 349.731 198.987 350.295 199.25C350.859 199.512 351.354 199.904 351.739 200.393C352.124 200.881 352.39 201.454 352.514 202.063C352.638 202.673 352.617 203.304 352.453 203.904Z" fill="black"/>
<path opacity="0.2" d="M345.178 225.759H341.083C340.944 225.765 340.805 225.737 340.678 225.678C340.552 225.62 340.44 225.532 340.354 225.422C340.268 225.312 340.208 225.184 340.181 225.047C340.154 224.91 340.159 224.768 340.197 224.634L342.989 210.657C343.055 210.349 343.221 210.072 343.462 209.868C343.702 209.665 344.004 209.546 344.318 209.532H348.413C348.552 209.527 348.691 209.554 348.818 209.613C348.945 209.672 349.056 209.759 349.142 209.869C349.229 209.979 349.288 210.108 349.315 210.245C349.342 210.381 349.337 210.523 349.299 210.657L346.507 224.634C346.441 224.942 346.275 225.219 346.034 225.423C345.794 225.627 345.493 225.745 345.178 225.759Z" fill="black"/>
<path d="M192.03 203.186C192.03 203.186 205.758 185.248 214.329 181.207C222.899 177.165 221.499 199.969 227.109 205.925C232.719 211.88 244.994 187.003 253.404 184.893C261.815 182.784 256.692 215.86 264.164 223.686C271.635 231.511 324.377 177.174 324.377 177.174L321.487 183.839L328.87 176.128L321.487 187.003L326.353 182.571C326.353 182.571 301.857 211.225 279.904 225.759C257.951 240.294 254.459 224.873 254.459 219.449C254.459 214.025 254.583 196.238 251.011 195.644C247.44 195.05 233.419 215.789 226.754 217.517C220.089 219.245 217.989 209.541 217.989 209.541C217.989 209.541 220.648 212.829 224.574 212.536C224.574 212.536 220.098 212.722 218.37 203.195C216.642 193.668 215.561 186.303 211.705 189.103C207.85 191.904 196.284 205.942 196.284 205.942L197.915 200.997L187.82 212.527L196.24 201.006L192.03 203.186Z" fill="white"/>
<path d="M181.34 257.381H172.93L174.516 249.44H182.927L181.34 257.381Z" fill="white"/>
<path opacity="0.8" d="M191.259 257.381H182.84L184.426 249.44H192.837L191.259 257.381Z" fill="white"/>
<path opacity="0.6" d="M201.159 257.381H192.748L194.334 249.44H202.745L201.159 257.381Z" fill="white"/>
<path opacity="0.4" d="M211.067 257.381H202.656L204.243 249.44H212.653L211.067 257.381Z" fill="white"/>
<path opacity="0.2" d="M220.975 257.381H212.564L214.151 249.44H222.562L220.975 257.381Z" fill="white"/>
<path d="M101.488 81.4834C101.488 81.4834 115.456 81.6163 119.435 83.5839C123.414 85.5514 110.936 98.8543 106.894 96.5588C102.853 94.2634 97.5884 87.0314 101.488 81.4834Z" fill="#407BFF"/>
<path opacity="0.2" d="M101.488 81.4834C101.488 81.4834 115.456 81.6163 119.435 83.5839C123.414 85.5514 110.936 98.8543 106.894 96.5588C102.853 94.2634 97.5884 87.0314 101.488 81.4834Z" fill="black"/>
<path d="M101.416 309.184H92.4382C92.2916 309.184 92.1495 309.234 92.0352 309.326C91.9208 309.418 91.8411 309.546 91.8089 309.689L90.3289 316.274C90.2995 316.417 90.2992 316.565 90.3282 316.709C90.3571 316.852 90.4147 316.988 90.4974 317.109C90.5801 317.23 90.6863 317.333 90.8096 317.411C90.9329 317.49 91.0708 317.543 91.2151 317.568H91.4544C94.3614 317.515 96.4796 317.337 100.131 317.337C102.373 317.337 109.162 317.577 112.264 317.577C115.366 317.577 115.809 314.51 114.497 314.227C108.799 312.986 104.509 311.266 102.683 309.627C102.335 309.319 101.88 309.159 101.416 309.184Z" fill="#407BFF"/>
<path d="M139.517 308.944H130.53C130.383 308.947 130.24 308.999 130.126 309.092C130.012 309.186 129.933 309.315 129.901 309.458L128.438 316.043C128.38 316.326 128.436 316.621 128.594 316.863C128.751 317.105 128.998 317.276 129.28 317.337H129.528C132.427 317.293 134.545 317.116 138.196 317.116C140.447 317.116 147.227 317.346 150.329 317.346C153.431 317.346 153.874 314.28 152.571 313.996C146.873 312.755 142.583 311.036 140.757 309.396C140.418 309.092 139.973 308.93 139.517 308.944Z" fill="#407BFF"/>
<path d="M96.6581 142.689H135.902C139.633 163.073 151.314 245.807 142.93 310.052H129.636C129.636 310.052 130.868 212.483 119.143 180.949C117.787 197.789 104.076 309.99 104.076 309.99H90.5605C90.5605 309.99 92.5812 267.795 94.6019 227.939C95.8782 202.823 96.6049 147.83 96.6581 142.689Z" fill="#263238"/>
<path opacity="0.2" d="M119.15 180.941C121.081 186.466 122.549 192.143 123.537 197.913C124.628 182.899 120.24 166.973 120.24 166.973L119.15 180.941Z" fill="black"/>
<path d="M89.6016 86.3403C102.328 85.0264 115.158 85.0888 127.871 86.5264C127.871 86.5264 134.402 116.438 135.058 145.02H95.5484C95.5484 145.02 95.513 104.668 89.6016 86.3403Z" fill="#407BFF"/>
<path opacity="0.6" d="M89.6016 86.3403C102.328 85.0264 115.158 85.0888 127.871 86.5264C127.871 86.5264 134.402 116.438 135.058 145.02H95.5484C95.5484 145.02 95.513 104.668 89.6016 86.3403Z" fill="white"/>
<path d="M103.5 87.1289C106.894 90.2131 115.208 89.0787 115.208 89.0787C115.208 89.0787 120.401 87.6518 119.311 86.0299C116.253 85.5248 114.773 84.0979 114.162 82.2721C113.827 81.1404 113.721 79.9533 113.852 78.7802C113.902 78.1262 113.988 77.4753 114.109 76.8305L103.828 69.2174C105.175 74.2426 106.824 83.4863 103.5 87.1289Z" fill="#E4897B"/>
<path opacity="0.2" d="M106.203 74.0564C106.611 80.2603 111.68 81.9265 114.18 82.2721C113.845 81.1404 113.739 79.9532 113.869 78.7802L106.203 74.0564Z" fill="black"/>
<path d="M124.894 54.9485C124.894 54.9485 126.428 64.8481 121.181 68.668C115.934 72.4878 115.863 54.0623 115.863 54.0623L124.894 54.9485Z" fill="#263238"/>
<path d="M105.953 76.5823C107.063 78.2069 108.673 79.4235 110.54 80.0461C112.406 80.6687 114.424 80.663 116.287 80.0299C118.713 79.257 120.752 77.5861 121.986 75.3593C122.158 75.0513 122.315 74.7348 122.455 74.411C125.026 68.3489 125.814 57.758 119.407 53.8141C117.217 52.4509 114.576 52.0111 112.063 52.5908C109.55 53.1705 107.369 54.7226 105.997 56.9072C105.179 58.201 104.68 59.6716 104.544 61.1967C103.782 68.2425 103.002 72.3991 105.953 76.5823Z" fill="#E4897B"/>
<path d="M114.869 64.9457C114.736 65.504 114.993 66.0358 115.375 66.0978C115.756 66.1598 116.128 65.7433 116.261 65.1672C116.394 64.5911 116.128 64.086 115.756 64.0239C115.383 63.9619 114.976 64.3696 114.869 64.9457Z" fill="#263238"/>
<path d="M121.349 66.0358C121.216 66.5941 121.482 67.117 121.854 67.1791C122.227 67.2411 122.608 66.8246 122.741 66.2928C122.874 65.761 122.608 65.2027 122.235 65.1406C121.863 65.0786 121.429 65.4863 121.349 66.0358Z" fill="#263238"/>
<path d="M119.23 65.9648C119.623 67.8164 120.267 69.6055 121.145 71.2825C120.704 71.4965 120.222 71.6121 119.732 71.6213C119.243 71.6305 118.757 71.533 118.309 71.3356L119.23 65.9648Z" fill="#DE5753"/>
<path d="M124.194 63.6694C124.134 63.6907 124.07 63.6962 124.008 63.6854C123.946 63.6745 123.888 63.6476 123.839 63.6074C123.527 63.3175 123.151 63.1048 122.741 62.9863C122.332 62.8678 121.901 62.8468 121.482 62.9249C121.395 62.9446 121.304 62.9309 121.227 62.8866C121.15 62.8423 121.092 62.7705 121.065 62.6857C121.053 62.6426 121.05 62.5975 121.055 62.5532C121.061 62.5088 121.075 62.466 121.097 62.4272C121.12 62.3884 121.15 62.3545 121.185 62.3273C121.221 62.3002 121.261 62.2804 121.304 62.2691C121.832 62.1589 122.378 62.1761 122.898 62.3195C123.417 62.4629 123.895 62.7282 124.291 63.0933C124.359 63.1518 124.402 63.2344 124.41 63.3237C124.418 63.413 124.392 63.502 124.336 63.5719C124.295 63.6136 124.247 63.6467 124.194 63.6694Z" fill="#263238"/>
<path d="M114.029 62.1538C113.962 62.1379 113.901 62.1042 113.851 62.0563C113.805 61.9796 113.789 61.8876 113.809 61.7999C113.829 61.7122 113.882 61.6357 113.958 61.5866C114.415 61.2945 114.936 61.1178 115.476 61.0714C116.016 61.0251 116.56 61.1107 117.06 61.3207C117.138 61.3624 117.197 61.4325 117.225 61.5166C117.253 61.6008 117.248 61.6924 117.21 61.7727C117.169 61.8511 117.099 61.9109 117.015 61.9405C116.932 61.97 116.84 61.9671 116.758 61.9322C116.36 61.7788 115.932 61.7205 115.507 61.7621C115.082 61.8036 114.673 61.9438 114.312 62.1715C114.219 62.2034 114.117 62.197 114.029 62.1538Z" fill="#263238"/>
<path d="M111.165 53.3089V56.464C110.607 56.6533 110.142 57.0458 109.861 57.5633C109.58 58.0808 109.504 58.6851 109.649 59.2558C110.34 61.9944 108.373 65.8762 106.166 67.2322C106.166 67.2322 106.246 66.0889 105.28 66.2484C104.314 66.408 103.853 72.346 105.386 75.3859C105.386 75.3859 102.86 72.4966 102.001 66.1066C101.212 60.1864 101.593 55.3828 103.038 53.3L111.165 53.3089Z" fill="#263238"/>
<path d="M100.511 66.47C100.765 67.3207 101.183 68.1131 101.743 68.802C102.302 69.4909 102.992 70.0627 103.773 70.4848C105.873 71.6015 107.433 69.8467 107.318 67.6044C107.167 65.6103 105.918 62.5615 103.596 62.3932C101.274 62.2248 99.9088 64.3252 100.511 66.47Z" fill="#E4897B"/>
<path d="M117.574 73.1082C117.077 73.8612 116.636 74.649 116.253 75.4657C116.097 75.4296 115.943 75.3852 115.792 75.3327C113.718 74.7301 112.965 73.764 112.743 72.8777C112.635 72.4442 112.635 71.9907 112.743 71.5572C112.797 71.312 112.887 71.0761 113.009 70.8571C114.124 71.797 115.426 72.4889 116.829 72.8866C117.29 73.0373 117.574 73.1082 117.574 73.1082Z" fill="#263238"/>
<path d="M116.865 72.8866L116.457 73.5779C114.508 72.993 113.214 72.3283 112.779 71.5572C112.833 71.312 112.923 71.0761 113.045 70.8571C114.16 71.797 115.462 72.4889 116.865 72.8866Z" fill="white"/>
<path d="M115.791 75.3328C113.717 74.7301 112.964 73.7641 112.742 72.8778C113.527 73.1222 114.262 73.5032 114.914 74.0034C115.338 74.3441 115.644 74.8089 115.791 75.3328Z" fill="#DE5753"/>
<path d="M111.175 56.464C111.175 56.464 126.924 61.8436 125.107 51.2261C125.107 51.2261 116.617 46.2099 109.154 47.619C101.692 49.0282 102.33 56.6944 102.33 56.6944L111.175 56.464Z" fill="#263238"/>
<path d="M101.442 84.1067C101.442 84.1067 102.497 120.24 94.5913 154.335L89.6016 150.045C89.6016 150.045 91.9945 107.061 89.6016 86.3401L101.442 84.1067Z" fill="#407BFF"/>
<path d="M119.434 84.6917C119.434 84.6917 129.732 101.823 134.305 153.183L138.347 151.188C138.347 151.188 133.738 101.974 127.871 86.4908L119.434 84.6917Z" fill="#407BFF"/>
<path opacity="0.2" d="M94.5913 154.335L89.6016 150.045C89.6016 150.045 90.6296 131.575 90.6651 113.017C90.6651 109.649 90.6651 106.272 90.5676 103.011C90.4347 96.8069 90.1422 91.0107 89.6016 86.3401L101.442 84.1067C101.442 84.1067 102.497 120.24 94.5913 154.335Z" fill="white"/>
<path opacity="0.2" d="M119.434 84.6917C119.434 84.6917 129.732 101.823 134.305 153.183L138.347 151.188C138.347 151.188 133.738 101.974 127.871 86.4908L119.434 84.6917Z" fill="white"/>
<path d="M101.487 81.4834C101.487 81.4834 102.373 84.4878 104.252 85.7552L101.452 93.0581V89.0255L100.654 90.7981L97.1621 84.9487L101.487 81.4834Z" fill="#407BFF"/>
<path d="M116.678 82.7418C116.678 82.7418 119.859 83.6813 122.474 91.6045V88.3608L125.257 89.7345C125.257 89.7345 121.251 84.3637 120.267 83.7167C119.129 83.2057 117.918 82.8767 116.678 82.7418Z" fill="#407BFF"/>
<path d="M122.918 108.018C122.924 108.103 122.913 108.189 122.886 108.27C122.859 108.35 122.816 108.425 122.76 108.489C122.704 108.553 122.636 108.606 122.56 108.644C122.483 108.682 122.4 108.704 122.315 108.71L105.166 109.738C105.082 109.743 104.999 109.731 104.92 109.703C104.841 109.675 104.769 109.632 104.707 109.576C104.645 109.52 104.595 109.452 104.56 109.376C104.524 109.3 104.504 109.219 104.501 109.135L104.147 103.046L103.792 96.9843C103.787 96.8991 103.8 96.8137 103.828 96.7333C103.857 96.6529 103.902 96.5792 103.96 96.5164C104.018 96.4536 104.087 96.403 104.165 96.3677C104.243 96.3324 104.327 96.313 104.412 96.3108L121.314 95.8499C121.476 95.8449 121.634 95.9031 121.755 96.0121C121.875 96.1211 121.949 96.2726 121.961 96.4348L122.448 102.32L122.918 108.018Z" fill="#407BFF"/>
<path opacity="0.4" d="M122.918 108.018C122.924 108.103 122.913 108.189 122.886 108.27C122.859 108.35 122.816 108.425 122.76 108.489C122.704 108.553 122.636 108.606 122.56 108.644C122.483 108.682 122.4 108.704 122.315 108.71L105.166 109.738C105.082 109.743 104.999 109.731 104.92 109.703C104.841 109.675 104.769 109.632 104.707 109.576C104.645 109.52 104.595 109.452 104.56 109.376C104.524 109.3 104.504 109.219 104.501 109.135L104.147 103.046L103.792 96.9843C103.787 96.8991 103.8 96.8137 103.828 96.7333C103.857 96.6529 103.902 96.5792 103.96 96.5164C104.018 96.4536 104.087 96.403 104.165 96.3677C104.243 96.3324 104.327 96.313 104.412 96.3108L121.314 95.8499C121.476 95.8449 121.634 95.9031 121.755 96.0121C121.875 96.1211 121.949 96.2726 121.961 96.4348L122.448 102.32L122.918 108.018Z" fill="white"/>
<path opacity="0.2" d="M122.918 108.018C122.924 108.103 122.913 108.189 122.886 108.27C122.859 108.35 122.816 108.425 122.76 108.489C122.704 108.554 122.636 108.606 122.559 108.644C122.483 108.682 122.4 108.704 122.315 108.71L105.166 109.738C105.082 109.743 104.999 109.731 104.92 109.703C104.841 109.675 104.769 109.632 104.707 109.576C104.645 109.52 104.595 109.452 104.56 109.376C104.524 109.3 104.504 109.219 104.501 109.135L104.146 103.046C105.254 100.742 106.734 98.1719 107.762 98.2074C109.632 98.2694 108.746 104.137 109.703 104.934C110.661 105.732 113.514 100.246 113.833 100.778C114.152 101.309 114.073 103.179 114.215 103.64C114.321 103.968 119.532 102.931 122.448 102.32L122.918 108.018Z" fill="black"/>
<path opacity="0.3" d="M90.6658 113.017C90.6658 109.649 90.6658 106.272 90.5684 103.011C91.2242 101.575 91.6762 100.636 91.6762 100.636C92.3707 102.657 92.6394 104.801 92.4655 106.932C92.2917 109.063 91.6789 111.134 90.6658 113.017Z" fill="black"/>
<path d="M83.399 97.2946C83.399 97.2946 73.8893 119.859 72.0282 119.646C70.167 119.434 67.9868 113.93 67.9868 113.93L63.4668 116.101C63.4668 116.101 66.8612 124.742 72.0282 127.082C77.1951 129.422 87.9101 107.097 87.9101 107.097L83.399 97.2946Z" fill="#407BFF"/>
<path opacity="0.6" d="M83.399 97.2946C83.399 97.2946 73.8893 119.859 72.0282 119.646C70.167 119.434 67.9868 113.93 67.9868 113.93L63.4668 116.101C63.4668 116.101 66.8612 124.742 72.0282 127.082C77.1951 129.422 87.9101 107.097 87.9101 107.097L83.399 97.2946Z" fill="white"/>
<path d="M89.6019 86.3402C87.2267 87.4126 75.6875 108.772 75.6875 108.772L85.5517 115.738L90.373 108.772C90.373 108.772 91.5251 108.222 91.5251 100.68C91.4698 95.8397 90.824 91.0241 89.6019 86.3402Z" fill="#407BFF"/>
<path d="M186.277 183.467L186.39 183.308C186.586 183.032 186.521 182.651 186.245 182.455L182.234 179.609C181.959 179.413 181.577 179.478 181.381 179.753L181.269 179.912C181.073 180.188 181.138 180.57 181.413 180.765L185.425 183.612C185.7 183.807 186.082 183.742 186.277 183.467Z" fill="#263238"/>
<path d="M64.5879 91.1661L59.0384 98.9866L53.6031 95.1297C52.7941 94.5556 52.2463 93.6837 52.0802 92.7058C51.9141 91.7279 52.1433 90.7241 52.7173 89.9151L53.938 88.1949C54.5121 87.3859 55.3839 86.8382 56.3619 86.6721C57.3398 86.506 58.3436 86.7351 59.1526 87.3092L64.5879 91.1661Z" fill="#263238"/>
<path d="M166.195 182.713L184 182.952L185.108 181.392L178.957 164.66C173.558 163.611 168.442 161.433 163.943 158.27L62.9708 87.7403C62.7128 87.5601 62.3941 87.4888 62.0839 87.5419C61.7737 87.595 61.4969 87.7682 61.3135 88.0239L55.0032 96.8866C54.9124 97.0135 54.8475 97.157 54.8121 97.3089C54.7768 97.4609 54.7717 97.6183 54.7972 97.7722C54.8228 97.9261 54.8783 98.0735 54.9608 98.2059C55.0433 98.3383 55.1511 98.4532 55.278 98.544L155.187 170.589C159.663 173.791 163.414 177.901 166.195 182.651V182.713Z" fill="#263238"/>
<path opacity="0.3" d="M166.184 182.713C163.414 177.959 159.668 173.845 155.194 170.642L131.097 153.271L130.264 152.669L129.439 152.075L63.0313 104.216L62.207 103.614L61.3739 103.02L55.2675 98.5884C55.1416 98.4978 55.0348 98.3832 54.9533 98.2513C54.8718 98.1193 54.8171 97.9725 54.7924 97.8194C54.7677 97.6662 54.7735 97.5097 54.8094 97.3588C54.8453 97.2079 54.9106 97.0656 55.0017 96.94L61.3119 88.0773C61.4923 87.8207 61.767 87.6459 62.0758 87.5911C62.3847 87.5363 62.7027 87.606 62.9604 87.7848L69.1642 92.0921L70.0505 92.6859L70.8925 93.2708L138.01 140.119L139.694 141.289L164.039 158.288C166.314 159.877 168.747 161.228 171.298 162.32C173.793 163.386 176.396 164.18 179.062 164.686L179.336 165.422L179.762 166.592L185.177 181.41L184.069 182.97L168.285 182.766H167.035L166.184 182.713Z" fill="white"/>
<path d="M163.718 167.655L163.959 167.316C164.389 166.709 164.246 165.868 163.64 165.438L142.585 150.497C141.978 150.066 141.137 150.209 140.707 150.816L140.466 151.156C140.035 151.762 140.178 152.603 140.785 153.034L161.839 167.975C162.446 168.405 163.287 168.262 163.718 167.655Z" fill="#263238"/>
<g opacity="0.2">
<path d="M166.965 182.722L179.266 165.395L179.692 166.565L168.214 182.74L166.965 182.722Z" fill="black"/>
</g>
<g opacity="0.2">
<path d="M139.623 141.271L137.939 140.101L129.439 152.075L130.273 152.677L131.097 153.28L139.623 141.271Z" fill="black"/>
</g>
<g opacity="0.2">
<path d="M70.8307 93.2442L69.9445 92.6592L69.1114 92.0654L61.3477 103.002L62.2339 103.596L63.0582 104.198L70.8307 93.2442Z" fill="black"/>
</g>
<path d="M140.182 137.221L139.349 138.736C138.791 138.685 138.228 138.748 137.696 138.924C137.164 139.099 136.674 139.382 136.256 139.756C136.256 139.756 136.841 143.221 137.045 143.664C137.505 144.639 142.513 147.032 143.718 147.023C144.099 147.023 144.454 144.479 144.223 143.664C143.672 142.604 142.997 141.613 142.212 140.713L142.894 139.374L140.182 137.221Z" fill="#E4897B"/>
<path d="M130.07 94.3077C130.07 94.3077 145.412 105.377 149.808 117.475C153.104 126.568 143.24 140.775 143.24 140.775L139.075 137.699C139.075 137.699 146.005 124.317 144.233 118.724C142.46 113.132 133.996 107.584 133.996 107.584L130.07 94.3077Z" fill="#407BFF"/>
<path opacity="0.6" d="M130.07 94.3077C130.07 94.3077 145.412 105.377 149.808 117.475C153.104 126.568 143.24 140.775 143.24 140.775L139.075 137.699C139.075 137.699 146.005 124.317 144.233 118.724C142.46 113.132 133.996 107.584 133.996 107.584L130.07 94.3077Z" fill="white"/>
<path d="M145.1 106.352L140.155 114.825L137.718 113.77L133.605 111.998L131.23 101.46L127.871 86.5529C131.983 88.5026 145.1 106.352 145.1 106.352Z" fill="#407BFF"/>
<path d="M67.4897 114.178L66.4705 110.925C66.4705 110.925 67.9772 110.615 67.986 109.286C67.9949 107.956 67.8531 104.695 67.2238 104.048C65.6714 102.807 64.0303 101.681 62.3139 100.68C61.534 100.281 60.692 103.268 60.6566 104.571C60.6211 105.873 63.4661 110.145 63.4661 110.145L64.6271 115.543L67.4897 114.178Z" fill="#E4897B"/>
<path opacity="0.2" d="M137.718 113.753L133.606 111.98L131.23 101.442C133.756 104.199 137.567 109.073 137.718 113.753Z" fill="black"/>
</svg>
