<svg width="466" height="344" viewBox="0 0 466 344" fill="none" xmlns="http://www.w3.org/2000/svg">
<path d="M289.128 81.5391V304.589H235.271L235.383 304.226H281.114V87.85H186.041V304.226H215.464L235.271 304.589H178.883V81.5391H289.128Z" fill="#F0F0F0"/>
<path d="M281.116 87.8499V304.226H235.385L235.274 304.589L215.466 304.226H186.043V87.8499H281.116Z" fill="#F0F0F0"/>
<path d="M281.125 87.8499H186.043V304.226H281.125V87.8499Z" fill="#FAFAFA"/>
<path d="M281.115 87.8499V146.258L235.384 304.226L235.273 304.589L215.465 304.226L278.937 87.8499H281.115Z" fill="white"/>
<path d="M197.194 173.196H186.043V205.504H197.194V173.196Z" fill="white"/>
<path d="M249.515 87.8406L186.043 304.226L205.851 304.589L268.606 87.8406H249.515Z" fill="white"/>
<path d="M80.9805 211.294L86.2861 207.431C87.6451 213.267 93.3323 217.717 97.6234 220.332C99.6805 221.58 100.5 224.54 99.0941 225.563L95.6501 228.077C91.4335 231.092 80.9805 211.294 80.9805 211.294Z" fill="#E0E0E0"/>
<path d="M78.85 212.802L90.9505 203.95C92.8452 202.56 94.1125 200.477 94.4753 198.155C94.8381 195.833 94.2669 193.463 92.8866 191.561C91.4968 189.666 89.4132 188.399 87.0916 188.036C84.77 187.673 82.3992 188.245 80.4975 189.625L68.397 198.477C66.5023 199.867 65.2351 201.95 64.8723 204.272C64.5095 206.593 65.0806 208.964 66.4609 210.866C67.8508 212.761 69.9343 214.028 72.2559 214.391C74.5775 214.754 76.9483 214.182 78.85 212.802Z" fill="#F5F5F5"/>
<path d="M116.481 198.551L93.5739 208.874C91.7775 210.186 74.8367 186.963 76.6332 185.65L93.4622 167.034L116.481 198.551Z" fill="#EBEBEB"/>
<path d="M103.32 183.975C109.678 192.697 115.57 199.222 116.482 198.551C117.394 197.881 112.992 190.286 106.625 181.564C100.258 172.842 94.3754 166.327 93.4632 166.988C92.551 167.648 96.963 175.262 103.32 183.975Z" fill="#E0E0E0"/>
<path d="M108.839 180.968C107.285 178.837 104.111 178.176 103.096 178.893C102.081 179.609 102.519 181.964 104.027 184.096C105.535 186.227 107.657 187.354 108.681 186.609C109.705 185.864 110.394 183.1 108.839 180.968Z" fill="#F0F0F0"/>
<path d="M117.18 172.489L119.507 149.414L127.437 151.117L117.18 172.489Z" fill="#EBEBEB"/>
<path d="M119.973 180.326L143.159 180.512L142.331 172.442L119.973 180.326Z" fill="#EBEBEB"/>
<path d="M122.588 173.215L139.789 152.206L146.984 159.727L122.588 173.215Z" fill="#EBEBEB"/>
<path d="M111.149 135.787C110.354 135.787 109.591 135.471 109.029 134.909C108.467 134.347 108.151 133.584 108.151 132.79V125.408H106.699C105.679 125.408 104.7 125.003 103.978 124.283C103.255 123.562 102.848 122.584 102.846 121.564V86.6213C102.851 85.6066 103.257 84.635 103.975 83.9183C104.693 83.2017 105.666 82.7981 106.681 82.7957H161.235C162.25 82.7957 163.223 83.1987 163.941 83.9162C164.658 84.6336 165.061 85.6067 165.061 86.6213V121.564C165.061 122.583 164.656 123.561 163.935 124.282C163.214 125.003 162.236 125.408 161.217 125.408H125.576L112.945 135.182C112.427 135.572 111.797 135.784 111.149 135.787Z" fill="#E6E6E6"/>
<path d="M115.253 132.091C114.458 132.091 113.695 131.776 113.133 131.213C112.571 130.651 112.255 129.889 112.255 129.094V121.713H110.813C110.307 121.714 109.806 121.616 109.339 121.423C108.871 121.23 108.446 120.947 108.088 120.59C107.73 120.233 107.446 119.809 107.252 119.342C107.059 118.875 106.959 118.374 106.959 117.869V82.9259C106.969 81.9192 107.373 80.9565 108.085 80.2447C108.797 79.5328 109.759 79.1286 110.766 79.1189H165.312C166.327 79.1189 167.301 79.5217 168.02 80.2388C168.739 80.956 169.144 81.9291 169.146 82.9445V117.887C169.144 118.908 168.737 119.885 168.014 120.606C167.292 121.327 166.313 121.731 165.293 121.731H129.689L117.049 131.505C116.529 131.89 115.899 132.095 115.253 132.091Z" fill="#F5F5F5"/>
<path d="M152.234 95.3802H122.271C121.85 95.3487 121.456 95.159 121.168 94.8491C120.881 94.5393 120.721 94.1322 120.721 93.7094C120.721 93.2866 120.881 92.8795 121.168 92.5696C121.456 92.2598 121.85 92.0701 122.271 92.0386H152.234C152.464 92.0214 152.695 92.0519 152.913 92.1281C153.13 92.2042 153.33 92.3245 153.499 92.4813C153.668 92.6382 153.802 92.8282 153.895 93.0395C153.987 93.2508 154.034 93.4789 154.034 93.7094C154.034 93.9399 153.987 94.168 153.895 94.3793C153.802 94.5906 153.668 94.7806 153.499 94.9374C153.33 95.0943 153.13 95.2146 152.913 95.2907C152.695 95.3669 152.464 95.3974 152.234 95.3802Z" fill="#E0E0E0"/>
<path d="M152.234 101.989H122.271C121.85 101.957 121.456 101.768 121.168 101.458C120.881 101.148 120.721 100.741 120.721 100.318C120.721 99.8953 120.881 99.4882 121.168 99.1783C121.456 98.8684 121.85 98.6787 122.271 98.6472H152.234C152.464 98.6301 152.695 98.6605 152.913 98.7367C153.13 98.8129 153.33 98.9332 153.499 99.09C153.668 99.2468 153.802 99.4368 153.895 99.6481C153.987 99.8594 154.034 100.087 154.034 100.318C154.034 100.549 153.987 100.777 153.895 100.988C153.802 101.199 153.668 101.389 153.499 101.546C153.33 101.703 153.13 101.823 152.913 101.899C152.695 101.976 152.464 102.006 152.234 101.989Z" fill="#E0E0E0"/>
<path d="M152.234 108.598H122.271C121.85 108.566 121.456 108.377 121.168 108.067C120.881 107.757 120.721 107.35 120.721 106.927C120.721 106.504 120.881 106.097 121.168 105.787C121.456 105.477 121.85 105.288 122.271 105.256H152.234C152.464 105.239 152.695 105.269 152.913 105.346C153.13 105.422 153.33 105.542 153.499 105.699C153.668 105.856 153.802 106.046 153.895 106.257C153.987 106.468 154.034 106.696 154.034 106.927C154.034 107.157 153.987 107.386 153.895 107.597C153.802 107.808 153.668 107.998 153.499 108.155C153.33 108.312 153.13 108.432 152.913 108.508C152.695 108.584 152.464 108.615 152.234 108.598Z" fill="#E0E0E0"/>
<path d="M371.963 192.119C371.966 190.46 371.721 188.81 371.237 187.223L375.528 183.444L372.828 178.79L367.411 180.652C365.132 178.215 362.181 176.511 358.931 175.756L357.805 170.171H352.406L351.28 175.756C348.031 176.511 345.079 178.215 342.8 180.652L337.383 178.79L334.684 183.444L338.975 187.223C338.007 190.416 338.007 193.823 338.975 197.015L334.684 200.739L337.383 205.393L342.8 203.531C345.081 205.967 348.031 207.674 351.28 208.437L352.406 214.021H357.805L358.931 208.437C362.18 207.674 365.131 205.967 367.411 203.531L372.828 205.393L375.528 200.739L371.237 197.015C371.72 195.428 371.964 193.778 371.963 192.119ZM355.106 201.213C353.373 201.213 351.68 200.7 350.239 199.737C348.799 198.775 347.676 197.407 347.013 195.806C346.35 194.206 346.177 192.445 346.515 190.746C346.853 189.047 347.687 187.486 348.912 186.261C350.137 185.036 351.698 184.202 353.397 183.864C355.096 183.526 356.857 183.699 358.457 184.362C360.058 185.025 361.426 186.148 362.388 187.588C363.351 189.029 363.865 190.722 363.865 192.455C363.865 193.605 363.638 194.744 363.198 195.806C362.758 196.869 362.112 197.835 361.299 198.648C360.486 199.461 359.52 200.107 358.457 200.547C357.395 200.987 356.256 201.213 355.106 201.213Z" fill="#EBEBEB"/>
<path d="M395.856 207.236C395.409 206.112 394.797 205.061 394.04 204.118L395.902 200.394L392.803 197.946L389.628 200.664C387.421 199.63 384.954 199.276 382.545 199.65L380.255 196.15L376.588 197.62L377.351 201.725C375.363 203.112 373.828 205.055 372.939 207.31L368.76 207.543L368.201 211.452L372.138 212.849C372.356 215.275 373.286 217.584 374.81 219.485L372.948 223.208L376.057 225.647L379.231 222.929C381.439 223.963 383.905 224.316 386.315 223.944L388.605 227.444L392.272 225.973L391.509 221.868C393.504 220.469 395.04 218.509 395.921 216.237L400.1 216.004L400.659 212.095L396.721 210.698C396.604 209.508 396.312 208.341 395.856 207.236ZM386.901 217.996C385.726 218.468 384.437 218.581 383.198 218.32C381.958 218.06 380.824 217.438 379.938 216.532C379.052 215.627 378.455 214.48 378.221 213.235C377.987 211.99 378.128 210.704 378.625 209.539C379.122 208.374 379.953 207.383 381.014 206.691C382.074 205.998 383.316 205.636 384.583 205.65C385.849 205.663 387.083 206.052 388.129 206.766C389.174 207.481 389.985 208.49 390.457 209.665C390.771 210.446 390.927 211.28 390.918 212.121C390.909 212.962 390.735 213.793 390.405 214.567C390.075 215.341 389.595 216.042 388.994 216.63C388.393 217.218 387.682 217.682 386.901 217.996Z" fill="#EBEBEB"/>
<path d="M342.762 132.11H312.753C311.629 132.132 310.513 131.913 309.48 131.469C308.447 131.024 307.52 130.365 306.763 129.534C306.005 128.703 305.433 127.72 305.086 126.651C304.738 125.581 304.623 124.45 304.748 123.332L307.373 93.3417C307.616 90.9664 308.721 88.7626 310.479 87.1469C312.237 85.5312 314.526 84.6157 316.914 84.5735H346.904C348.027 84.5537 349.142 84.7731 350.173 85.2173C351.205 85.6615 352.13 86.3203 352.887 87.1497C353.644 87.9792 354.216 88.9603 354.565 90.028C354.914 91.0956 355.031 92.2252 354.909 93.3417L352.284 123.332C352.042 125.706 350.94 127.908 349.186 129.525C347.432 131.142 345.147 132.061 342.762 132.11Z" fill="#E0E0E0"/>
<path d="M340.034 129.383H310.043C308.92 129.404 307.805 129.186 306.772 128.742C305.74 128.298 304.814 127.64 304.057 126.81C303.299 125.98 302.727 124.998 302.379 123.93C302.031 122.862 301.915 121.731 302.038 120.614L304.654 90.6237C304.897 88.2475 306.001 86.0426 307.759 84.4254C309.517 82.8082 311.806 81.8907 314.194 81.8462H344.185C345.309 81.8247 346.425 82.0433 347.458 82.4876C348.491 82.9318 349.418 83.5914 350.175 84.4222C350.933 85.2531 351.505 86.236 351.852 87.3055C352.2 88.3749 352.315 89.5062 352.19 90.6237L349.565 120.614C349.324 122.989 348.221 125.193 346.464 126.809C344.708 128.424 342.42 129.34 340.034 129.383Z" fill="#F5F5F5"/>
<path d="M320.945 119.647C321.099 118.218 321.793 116.901 322.884 115.966C323.975 115.03 325.382 114.546 326.818 114.611C329.983 114.611 332.049 116.761 331.798 119.647C331.64 121.083 330.949 122.407 329.861 123.359C328.774 124.31 327.369 124.819 325.924 124.785C325.244 124.836 324.56 124.738 323.921 124.495C323.283 124.253 322.705 123.873 322.23 123.383C321.755 122.893 321.393 122.304 321.171 121.658C320.949 121.012 320.872 120.325 320.945 119.647ZM324.175 84.769H334.683L330.672 110.599H323.663L324.175 84.769Z" fill="#E0E0E0"/>
<path d="M418.772 319.724H387.943V319.957H418.772V319.724Z" fill="#EBEBEB"/>
<path d="M308.304 322.256H300.215V322.489H308.304V322.256Z" fill="#EBEBEB"/>
<path d="M387.013 311.086H369.15V311.319H387.013V311.086Z" fill="#EBEBEB"/>
<path d="M89.0318 312.65H48.8301V312.883H89.0318V312.65Z" fill="#EBEBEB"/>
<path d="M103.218 312.65H97.3262V312.883H103.218V312.65Z" fill="#EBEBEB"/>
<path d="M209.573 316.578H122.375V316.811H209.573V316.578Z" fill="#EBEBEB"/>
<path d="M221.906 263.233H42.1665C40.7569 263.233 39.405 262.673 38.4083 261.677C37.4115 260.68 36.8516 259.328 36.8516 257.918V5.26839C36.8638 3.86686 37.4292 2.52692 38.4246 1.54022C39.42 0.553518 40.7649 -5.37319e-05 42.1665 3.91178e-09H221.906C222.604 3.91178e-09 223.295 0.137474 223.94 0.404574C224.585 0.671674 225.171 1.06317 225.664 1.55671C226.158 2.05024 226.549 2.63616 226.816 3.281C227.084 3.92583 227.221 4.61696 227.221 5.31493V257.918C227.221 258.616 227.084 259.308 226.816 259.952C226.549 260.597 226.158 261.183 225.664 261.677C225.171 262.17 224.585 262.562 223.94 262.829C223.295 263.096 222.604 263.233 221.906 263.233ZM42.1665 0.186163C40.8194 0.188623 39.5281 0.72486 38.5755 1.67743C37.623 2.63 37.0867 3.92126 37.0843 5.26839V257.918C37.0867 259.266 37.623 260.557 38.5755 261.509C39.5281 262.462 40.8194 262.998 42.1665 263.001H221.906C223.253 262.998 224.545 262.462 225.497 261.509C226.45 260.557 226.986 259.266 226.988 257.918V5.26839C226.986 3.92126 226.45 2.63 225.497 1.67743C224.545 0.72486 223.253 0.188623 221.906 0.186163H42.1665Z" fill="#EBEBEB"/>
<path d="M423.238 263.233H243.499C242.089 263.233 240.737 262.673 239.74 261.677C238.744 260.68 238.184 259.328 238.184 257.918V5.26839C238.196 3.86686 238.761 2.52692 239.757 1.54022C240.752 0.553518 242.097 -5.37319e-05 243.499 3.91178e-09H423.238C424.648 3.91179e-09 426 0.559965 426.996 1.55671C427.993 2.55345 428.553 3.90532 428.553 5.31493V257.918C428.553 259.328 427.993 260.68 426.996 261.677C426 262.673 424.648 263.233 423.238 263.233ZM243.499 0.186163C242.151 0.188623 240.86 0.72486 239.908 1.67743C238.955 2.63 238.419 3.92126 238.416 5.26839V257.918C238.419 259.266 238.955 260.557 239.908 261.509C240.86 262.462 242.151 262.998 243.499 263.001H423.238C424.585 262.998 425.877 262.462 426.829 261.509C427.782 260.557 428.318 259.266 428.32 257.918V5.26839C428.318 3.92126 427.782 2.63 426.829 1.67743C425.877 0.72486 424.585 0.188623 423.238 0.186163H243.499Z" fill="#EBEBEB"/>
<path d="M465.406 304.748H0V304.98H465.406V304.748Z" fill="#EBEBEB"/>
<path d="M232.702 343.264C332.375 343.264 413.177 338.547 413.177 332.728C413.177 326.908 332.375 322.191 232.702 322.191C133.028 322.191 52.2266 326.908 52.2266 332.728C52.2266 338.547 133.028 343.264 232.702 343.264Z" fill="#F5F5F5"/>
<path d="M138.236 319.594L137.519 318.821C145.952 311.04 148.866 297.943 144.779 286.243C142.918 281.002 139.52 277.168 135.89 273.109C132.837 269.693 129.672 266.165 127.606 261.753C125.344 256.941 124.813 252.24 125.949 248.154C126.75 245.362 128.639 243.016 130.761 242.15C131.536 241.833 132.375 241.7 133.21 241.763C134.046 241.826 134.855 242.083 135.574 242.513C136.43 242.949 137.129 243.642 137.571 244.495C138.014 245.348 138.178 246.319 138.04 247.27C137.91 248.295 137.478 249.258 136.801 250.039C136.123 250.819 135.23 251.381 134.233 251.654C133.536 251.737 132.829 251.595 132.218 251.248C131.607 250.902 131.123 250.369 130.836 249.727C130.551 249.119 130.454 248.441 130.557 247.778C130.66 247.115 130.958 246.497 131.413 246.004L132.185 246.721C131.882 247.056 131.682 247.471 131.611 247.918C131.54 248.364 131.601 248.821 131.785 249.234C131.975 249.655 132.286 250.01 132.68 250.252C133.073 250.494 133.53 250.613 133.991 250.593C134.778 250.365 135.482 249.912 136.016 249.291C136.55 248.669 136.891 247.905 136.998 247.093C137.113 246.347 136.988 245.584 136.64 244.914C136.291 244.245 135.739 243.704 135.062 243.37C134.482 243.016 133.827 242.803 133.149 242.748C132.472 242.693 131.791 242.798 131.162 243.053C130.123 243.591 129.211 244.344 128.487 245.262C127.763 246.18 127.244 247.242 126.964 248.378C125.567 253.227 127.057 258.049 128.555 261.241C130.566 265.514 133.675 268.986 136.672 272.346C140.218 276.302 143.876 280.388 145.775 285.824C150.066 298.176 147.069 311.412 138.236 319.594Z" fill="#407BFF"/>
<path d="M144.518 285.582C141.81 282.594 137.491 280.267 134.894 280.398L134.838 279.346C137.761 279.197 142.35 281.626 145.3 284.884L144.518 285.582Z" fill="#407BFF"/>
<path d="M146.444 288.43L145.439 288.738C145.086 287.563 144.986 286.326 145.147 285.11C145.307 283.894 145.724 282.725 146.37 281.682L147.301 282.25C146.728 283.161 146.356 284.183 146.208 285.248C146.061 286.314 146.141 287.398 146.444 288.43Z" fill="#407BFF"/>
<path d="M130.985 267.32C128.28 265.068 125.397 263.038 122.365 261.251L122.905 260.32C125.984 262.145 128.916 264.208 131.673 266.491L130.985 267.32Z" fill="#407BFF"/>
<path d="M132.562 264.704L132.053 268.232L133.094 268.383L133.603 264.854L132.562 264.704Z" fill="#407BFF"/>
<path d="M140.797 250.332C139.235 250.579 137.637 250.439 136.143 249.923L136.496 248.927C137.831 249.395 139.262 249.52 140.657 249.29L140.797 250.332Z" fill="#407BFF"/>
<path d="M134.548 239.003L134.34 243.047L135.39 243.101L135.598 239.057L134.548 239.003Z" fill="#407BFF"/>
<path d="M135.117 255.731C135.445 255.428 135.86 255.237 136.302 255.183C136.745 255.13 137.194 255.217 137.584 255.433C138.45 256.02 138.515 257.295 138.375 258.291C138.077 260.869 136.839 268.269 132.93 266.389C129.225 264.611 132.995 257.472 135.117 255.731Z" fill="#407BFF"/>
<path d="M124.73 259.538C125.076 259.82 125.326 260.203 125.443 260.634C125.56 261.065 125.538 261.521 125.382 261.939C124.925 262.87 123.706 263.103 122.673 263.14C120.076 263.215 112.574 263.066 113.867 258.924C115.068 255.042 122.673 257.695 124.73 259.538Z" fill="#407BFF"/>
<path d="M136.979 275.948C132.939 272.476 125.865 271.629 120.373 273.956C117.804 275.045 118.512 279.178 119.926 281.123C121.341 283.069 123.966 284.232 126.731 284.633C129.625 285.127 132.6 284.558 135.108 283.032C137.444 281.44 138.943 277.633 136.979 275.948Z" fill="#407BFF"/>
<path d="M155.531 270.68C152.375 271.099 149.108 271.788 146.66 273.817C144.212 275.846 142.937 279.597 144.594 282.306C145.198 283.273 146.123 283.996 147.208 284.348C148.292 284.701 149.466 284.66 150.523 284.233C152.729 283.376 154.246 281.384 155.484 279.364C156.382 278.078 156.916 276.573 157.029 275.008C157.048 273.454 157.076 270.475 155.531 270.68Z" fill="#407BFF"/>
<path d="M135.072 241.387C134.212 240.435 133.635 239.262 133.406 237.999C133.303 237.367 133.372 236.718 133.606 236.122C133.84 235.526 134.231 235.004 134.737 234.611C135.263 234.248 135.909 234.106 136.539 234.214C137.169 234.322 137.731 234.671 138.106 235.188C138.456 235.833 138.647 236.552 138.661 237.286C138.676 238.02 138.514 238.746 138.19 239.405C137.914 239.999 137.474 240.501 136.921 240.852C136.369 241.204 135.727 241.389 135.072 241.387Z" fill="#407BFF"/>
<path d="M150.226 250.695C149.566 251.711 148.639 252.526 147.546 253.052C146.454 253.577 145.239 253.792 144.033 253.674C142.827 253.556 141.676 253.109 140.707 252.382C139.737 251.655 138.986 250.675 138.535 249.55C139.222 248.61 140.137 247.86 141.194 247.371C142.251 246.883 143.415 246.672 144.576 246.758C145.769 246.9 146.908 247.334 147.893 248.02C148.879 248.707 149.68 249.626 150.226 250.695Z" fill="#407BFF"/>
<g opacity="0.3">
<path d="M138.236 319.594L137.519 318.821C145.952 311.04 148.866 297.943 144.779 286.243C142.918 281.002 139.52 277.168 135.89 273.109C132.837 269.693 129.672 266.165 127.606 261.753C125.344 256.941 124.813 252.24 125.949 248.154C126.75 245.362 128.639 243.016 130.761 242.15C131.536 241.833 132.375 241.7 133.21 241.763C134.046 241.826 134.855 242.083 135.574 242.513C136.43 242.949 137.129 243.642 137.571 244.495C138.014 245.348 138.178 246.319 138.04 247.27C137.91 248.295 137.478 249.258 136.801 250.039C136.123 250.819 135.23 251.381 134.233 251.654C133.536 251.737 132.829 251.595 132.218 251.248C131.607 250.902 131.123 250.369 130.836 249.727C130.551 249.119 130.454 248.441 130.557 247.778C130.66 247.115 130.958 246.497 131.413 246.004L132.185 246.721C131.882 247.056 131.682 247.471 131.611 247.918C131.54 248.364 131.601 248.821 131.785 249.234C131.975 249.655 132.286 250.01 132.68 250.252C133.073 250.494 133.53 250.613 133.991 250.593C134.778 250.365 135.482 249.912 136.016 249.291C136.55 248.669 136.891 247.905 136.998 247.093C137.113 246.347 136.988 245.584 136.64 244.914C136.291 244.245 135.739 243.704 135.062 243.37C134.482 243.016 133.827 242.803 133.149 242.748C132.472 242.693 131.791 242.798 131.162 243.053C130.123 243.591 129.211 244.344 128.487 245.262C127.763 246.18 127.244 247.242 126.964 248.378C125.567 253.227 127.057 258.049 128.555 261.241C130.566 265.514 133.675 268.986 136.672 272.346C140.218 276.302 143.876 280.388 145.775 285.824C150.066 298.176 147.069 311.412 138.236 319.594Z" fill="white"/>
<path d="M144.518 285.582C141.81 282.594 137.491 280.267 134.894 280.398L134.838 279.346C137.761 279.197 142.35 281.626 145.3 284.884L144.518 285.582Z" fill="white"/>
<path d="M146.444 288.43L145.439 288.738C145.086 287.563 144.986 286.326 145.147 285.11C145.307 283.894 145.724 282.725 146.37 281.682L147.301 282.25C146.728 283.161 146.356 284.183 146.208 285.248C146.061 286.314 146.141 287.398 146.444 288.43Z" fill="white"/>
<path d="M130.985 267.32C128.28 265.068 125.397 263.038 122.365 261.251L122.905 260.32C125.984 262.145 128.916 264.208 131.673 266.491L130.985 267.32Z" fill="white"/>
<path d="M132.562 264.704L132.053 268.232L133.094 268.383L133.603 264.854L132.562 264.704Z" fill="white"/>
<path d="M140.797 250.332C139.235 250.579 137.637 250.439 136.143 249.923L136.496 248.927C137.831 249.395 139.262 249.52 140.657 249.29L140.797 250.332Z" fill="white"/>
<path d="M134.548 239.003L134.34 243.047L135.39 243.101L135.598 239.057L134.548 239.003Z" fill="white"/>
</g>
<path d="M161.832 319.166C161.832 329.526 149.731 331.964 143.076 331.964C136.421 331.964 124.32 329.526 124.32 319.166C124.32 306.684 132.698 306.87 143.076 306.87C153.455 306.87 161.832 305.79 161.832 319.166Z" fill="#263238"/>
<path d="M334.991 331.964C335.251 324.667 335.205 317.453 334.851 310.556C334.786 309.327 334.721 308.108 334.628 306.888C334.283 301.667 333.753 296.575 333.045 291.716C332.291 286.554 331.272 281.434 329.992 276.376C329.806 275.641 329.611 274.915 329.406 274.18C329.201 273.444 329.061 272.96 328.875 272.318C328.429 270.801 328.019 269.358 327.675 268.008V267.897C327.526 267.338 327.386 266.77 327.246 266.212C326.641 263.783 326.111 261.362 325.664 259.017C325.664 259.017 325.664 258.952 325.664 258.924C325.385 257.472 325.133 256.038 324.929 254.661C324.882 254.372 324.836 254.084 324.798 253.804C324.761 253.525 324.752 253.516 324.743 253.367C323.855 247.34 323.466 241.251 323.579 235.16V234.899C323.644 232.414 323.793 229.938 324.044 227.546C324.049 227.525 324.049 227.502 324.044 227.481C324.299 225.002 324.684 222.538 325.199 220.1C325.242 219.926 325.279 219.758 325.31 219.597L325.366 219.355C325.389 219.276 325.389 219.192 325.366 219.113C325.38 219.074 325.38 219.031 325.366 218.992C325.35 218.955 325.328 218.92 325.301 218.89C325.248 218.841 325.189 218.8 325.124 218.769C325.062 218.759 325 218.759 324.938 218.769C324.826 218.776 324.721 218.822 324.64 218.899C324.564 218.976 324.517 219.079 324.51 219.187V219.318V219.374C324.51 219.532 324.445 219.699 324.407 219.876C324.333 220.202 324.268 220.528 324.212 220.863C323.84 222.669 323.551 224.586 323.328 226.522C323.328 226.82 323.253 227.127 323.225 227.453C323.221 227.531 323.221 227.608 323.225 227.686C322.993 229.957 322.844 232.284 322.778 234.639C322.774 234.719 322.774 234.8 322.778 234.881C322.651 241.255 323.062 247.629 324.007 253.935C324.007 254.037 324.007 254.139 324.054 254.251C324.286 255.806 324.556 257.434 324.882 259.082C325.441 262.023 326.129 265.076 326.921 268.12C327.284 269.507 327.702 271.006 328.168 272.569L328.475 273.64L328.689 274.385L329.285 276.6C330.559 281.62 331.572 286.703 332.319 291.828C333.027 296.64 333.557 301.685 333.902 306.861C333.989 308.102 334.063 309.343 334.125 310.584C334.218 312.52 334.293 314.481 334.348 316.466C334.348 316.597 334.348 316.718 334.348 316.848C334.348 317.211 334.348 317.574 334.348 317.937C334.348 318.3 334.348 318.579 334.348 318.868C334.414 323.15 334.348 327.515 334.209 331.899L334.991 331.964Z" fill="#407BFF"/>
<path d="M324.854 219.253C325.666 218.532 326.56 217.907 327.516 217.391C328.56 216.841 329.67 216.428 330.82 216.162L324.854 219.253Z" fill="#407BFF"/>
<path d="M324.799 219.718C324.735 219.712 324.672 219.697 324.613 219.671C324.558 219.645 324.509 219.607 324.468 219.561C324.428 219.515 324.397 219.462 324.377 219.404C324.357 219.346 324.349 219.285 324.352 219.224C324.356 219.163 324.372 219.103 324.399 219.048C324.426 218.994 324.464 218.946 324.511 218.908L324.557 218.862C325.4 218.14 326.321 217.516 327.303 217C328.385 216.429 329.537 216 330.729 215.725C330.852 215.698 330.981 215.721 331.088 215.789C331.194 215.857 331.269 215.964 331.297 216.088C331.324 216.211 331.301 216.34 331.233 216.447C331.165 216.553 331.057 216.628 330.934 216.656C329.825 216.904 328.752 217.291 327.741 217.81C326.819 218.302 325.958 218.899 325.172 219.588C325.123 219.635 325.064 219.671 325 219.693C324.936 219.716 324.867 219.724 324.799 219.718Z" fill="#407BFF"/>
<path d="M323.485 227.872C323.431 227.872 323.378 227.861 323.329 227.841C323.279 227.82 323.234 227.789 323.197 227.751L320.199 225.005C320.156 224.962 320.122 224.912 320.098 224.856C320.075 224.8 320.062 224.74 320.062 224.679C320.062 224.618 320.075 224.558 320.098 224.502C320.122 224.447 320.156 224.396 320.199 224.353C320.243 224.31 320.294 224.275 320.351 224.251C320.408 224.228 320.468 224.216 320.53 224.216C320.591 224.216 320.652 224.228 320.709 224.251C320.766 224.275 320.817 224.31 320.86 224.353L323.857 227.146C323.902 227.188 323.937 227.238 323.962 227.294C323.986 227.35 323.999 227.411 323.999 227.472C323.999 227.533 323.986 227.593 323.962 227.649C323.937 227.705 323.902 227.756 323.857 227.797C323.806 227.838 323.745 227.866 323.68 227.879C323.616 227.892 323.549 227.89 323.485 227.872Z" fill="#407BFF"/>
<path d="M327.145 268.474C327.022 268.46 326.909 268.401 326.828 268.308C326.747 268.215 326.704 268.095 326.707 267.971C326.869 267.115 327.122 266.279 327.461 265.477C328.285 263.475 329.612 261.721 331.315 260.385C331.363 260.347 331.418 260.319 331.477 260.303C331.536 260.286 331.598 260.281 331.659 260.289C331.72 260.296 331.779 260.315 331.833 260.346C331.886 260.376 331.933 260.416 331.971 260.464C332.009 260.513 332.037 260.568 332.053 260.627C332.07 260.686 332.075 260.748 332.067 260.809C332.06 260.87 332.041 260.929 332.011 260.982C331.98 261.036 331.94 261.083 331.892 261.12C330.316 262.357 329.085 263.979 328.318 265.83C328.015 266.552 327.79 267.304 327.647 268.074C327.646 268.132 327.633 268.19 327.609 268.244C327.584 268.297 327.549 268.345 327.506 268.384C327.462 268.423 327.411 268.453 327.355 268.472C327.299 268.491 327.24 268.498 327.182 268.492L327.145 268.474Z" fill="#407BFF"/>
<path d="M329.508 276.944C329.419 276.939 329.332 276.909 329.259 276.856C329.187 276.803 329.131 276.73 329.099 276.646C328.705 275.645 328.107 274.736 327.345 273.977C326.582 273.218 325.671 272.624 324.668 272.234C324.552 272.19 324.458 272.101 324.408 271.988C324.357 271.874 324.354 271.745 324.398 271.629C324.443 271.513 324.531 271.42 324.645 271.369C324.758 271.318 324.887 271.315 325.003 271.359C326.124 271.8 327.142 272.467 327.996 273.317C328.849 274.167 329.519 275.183 329.964 276.302C330.008 276.417 330.005 276.544 329.956 276.657C329.908 276.77 329.817 276.859 329.704 276.907C329.642 276.933 329.575 276.945 329.508 276.944Z" fill="#407BFF"/>
<path d="M334.601 318.663C333.596 317.435 332.851 312.799 332.451 310.286C332.358 309.69 332.274 309.178 332.209 308.815L334.601 318.663Z" fill="#407BFF"/>
<path d="M334.574 319.119C334.509 319.119 334.445 319.104 334.387 319.075C334.328 319.046 334.278 319.004 334.239 318.952C333.243 317.742 332.554 313.888 331.996 310.379C331.903 309.783 331.819 309.281 331.754 308.918C331.743 308.856 331.744 308.794 331.757 308.733C331.77 308.672 331.795 308.615 331.831 308.564C331.866 308.513 331.911 308.469 331.963 308.436C332.016 308.402 332.074 308.379 332.135 308.368C332.196 308.357 332.259 308.358 332.32 308.372C332.38 308.385 332.438 308.41 332.489 308.445C332.54 308.481 332.583 308.526 332.617 308.578C332.65 308.63 332.673 308.689 332.684 308.75C332.75 309.122 332.833 309.634 332.926 310.23C333.299 312.51 334.053 317.239 334.974 318.365C335.014 318.412 335.043 318.466 335.061 318.524C335.079 318.583 335.086 318.644 335.079 318.705C335.073 318.766 335.055 318.825 335.026 318.878C334.997 318.932 334.957 318.979 334.909 319.017C334.863 319.056 334.81 319.085 334.752 319.102C334.694 319.12 334.634 319.126 334.574 319.119Z" fill="#407BFF"/>
<path d="M325.115 259.445C324.998 259.438 324.888 259.387 324.807 259.302C324.726 259.218 324.679 259.106 324.677 258.989C324.677 258.226 324.333 240.252 334.562 233.568C334.665 233.514 334.784 233.499 334.896 233.527C335.008 233.555 335.106 233.625 335.17 233.721C335.234 233.818 335.26 233.935 335.242 234.05C335.225 234.164 335.165 234.268 335.074 234.341C325.273 240.745 325.599 258.784 325.608 258.97C325.606 259.092 325.558 259.209 325.473 259.297C325.388 259.385 325.274 259.438 325.152 259.445H325.115Z" fill="#407BFF"/>
<path d="M314.027 246.349C315.181 250.909 323.922 254.186 323.922 254.186C323.922 254.186 330.056 247.149 328.902 242.588C327.747 238.027 322.935 232.991 318.821 234.025C314.707 235.058 312.873 241.788 314.027 246.349Z" fill="#407BFF"/>
<path d="M337.039 261.046C335.939 261.972 334.677 262.685 333.316 263.15C332.627 263.373 331.891 263.404 331.186 263.24C330.48 263.076 329.833 262.723 329.314 262.219C328.15 260.85 328.476 258.756 329.22 257.127C330.7 253.897 336.146 248.433 340.297 250.025C346.264 252.296 339.748 259.073 337.039 261.046Z" fill="#407BFF"/>
<path d="M324.705 269.237C325.497 270.214 326.325 271.452 325.888 272.625C325.638 273.128 325.228 273.533 324.722 273.778C324.217 274.022 323.644 274.091 323.095 273.975C322.007 273.714 320.993 273.211 320.126 272.504C318.013 271.024 313.685 267.915 316.468 265.058C319.251 262.2 323.058 267.143 324.705 269.237Z" fill="#407BFF"/>
<path d="M342.633 228.198C343.09 228.227 343.526 228.399 343.88 228.69C344.234 228.98 344.488 229.375 344.606 229.817C344.783 230.869 343.908 231.781 343.061 232.433C340.948 234.043 334.6 238.39 333.204 234.164C331.891 230.162 339.84 227.881 342.633 228.198Z" fill="#407BFF"/>
<path d="M331.026 214.245C332.338 214.375 333.641 213.91 334.945 214.003C336.248 214.096 337.737 215.148 337.411 216.423C337.085 217.698 335.661 217.996 334.451 218.07C332.383 218.189 330.308 218.036 328.28 217.614C327.798 217.565 327.352 217.336 327.033 216.972C326.511 216.19 327.358 215.11 328.252 214.878C329.146 214.645 330.179 214.701 331.044 214.245H331.026Z" fill="#407BFF"/>
<path d="M318.227 223.171C316.923 223.171 315.658 222.641 314.345 222.631C313.033 222.622 311.553 223.562 311.711 224.865C311.869 226.168 313.331 226.569 314.503 226.727C316.558 226.997 318.639 226.997 320.693 226.727C321.203 226.735 321.695 226.541 322.062 226.187C322.639 225.442 321.875 224.325 321 224C320.125 223.674 319.092 223.683 318.31 223.162L318.227 223.171Z" fill="#407BFF"/>
<path d="M324.37 220.974C324.248 220.96 324.137 220.899 324.06 220.803C323.983 220.707 323.947 220.585 323.961 220.463C324.268 217.921 324.109 215.464 323.635 215.306C323.518 215.265 323.421 215.179 323.367 215.068C323.313 214.956 323.305 214.827 323.346 214.71C323.387 214.593 323.473 214.497 323.584 214.442C323.696 214.388 323.825 214.381 323.942 214.422C325.394 214.924 325.087 218.889 324.873 220.574C324.856 220.693 324.795 220.8 324.702 220.875C324.608 220.95 324.489 220.985 324.37 220.974Z" fill="#407BFF"/>
<path d="M325.524 215.017C324.742 213.23 323.895 211.369 322.322 210.224C320.749 209.079 318.236 208.967 317.081 210.54C315.797 212.29 317.081 214.971 319.017 215.911C320.953 216.851 323.281 216.59 325.44 216.293L325.496 215.362L325.524 215.017Z" fill="#407BFF"/>
<path d="M353.625 319.166C353.625 329.526 341.524 331.964 334.869 331.964C328.214 331.964 316.113 329.526 316.113 319.166C316.113 306.684 324.491 306.87 334.869 306.87C345.248 306.87 353.625 305.79 353.625 319.166Z" fill="#263238"/>
<path d="M212.989 136.057C205.654 131.682 200.637 130.397 198.506 128.61C196.188 126.693 193.433 101.514 194.28 98.7589C194.922 96.6553 197.677 99.2709 197.649 100.239C197.51 103.888 202.21 119.479 204.37 123.314C204.742 123.984 212.57 126.86 212.57 126.86L212.989 136.057Z" fill="#FFB573"/>
<path d="M211.025 125.948C219.542 130.379 226.71 130.602 227.696 132.985C229.111 136.42 229.558 141.958 226.421 141.688C221.078 141.223 219.719 141.092 212.282 138.16L211.025 125.948Z" fill="#407BFF"/>
<g opacity="0.7">
<path d="M211.016 125.799C219.533 130.23 226.709 130.453 227.686 132.827C229.111 136.271 229.548 141.809 226.411 141.53C221.068 141.064 219.719 140.934 212.282 138.002L211.016 125.799Z" fill="black"/>
</g>
<path d="M231.511 99.4664C230.351 99.0409 229.108 98.8908 227.881 99.0281C226.653 99.1654 225.474 99.5864 224.437 100.258C222.369 101.623 220.707 103.52 219.624 105.749C218.982 106.959 218.47 108.495 219.234 109.631C219.997 110.766 221.719 110.887 223.143 110.822C225.721 106.857 228.672 103.255 231.511 99.4664Z" fill="#263238"/>
<path d="M221.87 131.17C224.044 130.398 226.259 129.748 228.506 129.224C232.61 128.247 236.778 127.559 240.979 127.167C243.641 126.86 246.266 126.758 248.351 126.73C248.601 126.726 248.851 126.751 249.096 126.804C250.005 126.993 250.804 127.533 251.318 128.306C251.832 129.08 252.02 130.025 251.842 130.937C247.802 151.834 247.644 161.095 248.295 171.893L222.316 172.945L220.054 156.013C219.124 150.428 215.577 143.577 218.407 137.592C218.407 137.546 220.604 131.635 221.87 131.17Z" fill="#407BFF"/>
<path opacity="0.6" d="M221.87 131.17C224.044 130.398 226.259 129.748 228.506 129.224C232.61 128.247 236.778 127.559 240.979 127.167C243.641 126.86 246.266 126.758 248.351 126.73C248.601 126.726 248.851 126.751 249.096 126.804C250.005 126.993 250.804 127.533 251.318 128.306C251.832 129.08 252.02 130.025 251.842 130.937C247.802 151.834 247.644 161.095 248.295 171.893L222.316 172.945L220.054 156.013C219.124 150.428 215.577 143.577 218.407 137.592C218.407 137.546 220.604 131.635 221.87 131.17Z" fill="black"/>
<path d="M238.558 252.641C238.456 252.129 238.363 251.589 238.27 251.049C234.267 226.894 237.032 190.965 237.032 190.965L255.415 186.479C255.415 186.479 255.415 212.858 251.943 243.398C251.478 247.475 252.176 251.272 252.502 254.567L240.094 257.062L238.558 252.641Z" fill="#FFB573"/>
<path d="M245.623 248.042C240.876 249.374 238.484 254.688 241.109 258.682C241.213 258.847 241.328 259.006 241.453 259.156C255.667 276.693 280.101 305.697 280.101 305.697L284.829 302.514C284.829 302.514 278.406 294.49 265.71 268.269C259.492 255.452 252.548 251.198 249.021 247.13L245.623 248.042Z" fill="#FFB573"/>
<path d="M284.419 300.307C285.16 300.592 285.822 301.052 286.346 301.648C288.282 303.77 293.252 309.485 293.252 309.485L292.741 309.932C292.741 309.932 290.069 307.326 288.515 306.209C286.96 305.092 287.733 306.488 288.207 308.703C288.682 310.919 287.705 314.288 284.484 317.341C280.659 320.906 278.899 322.154 279.197 320.245C279.495 318.337 281.524 315.452 281.524 315.452C281.524 315.452 280.593 307.158 277.27 303.593C273.743 299.786 281.924 299.544 282.502 298.213C282.846 297.962 283.954 300.14 284.419 300.307Z" fill="#263238"/>
<path d="M223.806 176.854C223.806 176.854 215.978 230.841 217.988 252.939C220.111 276.209 227.483 315.973 227.483 315.973L233.431 315.545C233.431 315.545 236.372 269.693 231.681 253.181L247.951 177.515L223.806 176.854Z" fill="#FFB573"/>
<path d="M233.513 317.295C233.914 318.047 234.137 318.882 234.165 319.734C234.332 322.852 234.602 331.155 234.602 331.155L233.913 331.201C233.913 331.201 233.467 327.134 232.983 325.104C232.499 323.075 232.192 324.825 231.168 327.05C230.144 329.274 227.221 331.583 222.79 332.02C217.578 332.542 215.446 332.448 216.88 330.987C218.313 329.526 221.711 328.39 221.711 328.39C221.711 328.39 226.206 320.581 225.909 315.359C225.592 309.774 232.089 314.977 233.355 314.186C233.765 314.242 233.253 316.848 233.513 317.295Z" fill="#263238"/>
<path d="M254.456 242.942C250.994 243.686 246.2 245.38 237.115 246.311L236.566 246.358C236.185 246.404 235.794 246.432 235.375 246.451C232.936 246.6 216.377 247.605 216.377 244.589C216.478 221.308 218.611 198.08 222.753 175.169L233.411 173.857L247.978 173.354C247.978 173.354 257.77 177.673 258.124 198.756C258.478 219.839 254.456 242.942 254.456 242.942Z" fill="#407BFF"/>
<path d="M242.42 126.953C242.42 126.953 234.713 140.552 226.671 139.622C221.784 139.082 223.609 130.537 223.609 130.537C225.005 130.109 226.15 129.606 227.574 129.262C231.502 128.368 238.474 126.944 242.42 126.953Z" fill="#FFB573"/>
<path d="M248.284 174.602L235.541 175.02H234.48L231.688 175.104H230.636L223.19 175.337C222.957 175.337 222.752 175.234 222.743 175.095L222.436 172.805C222.436 172.647 222.612 172.507 222.873 172.498L230.264 172.163H231.194L234.843 172.005L235.709 171.958L247.968 171.418C248.05 171.409 248.133 171.42 248.209 171.451C248.285 171.482 248.353 171.531 248.405 171.595L248.722 174.192C248.796 174.406 248.582 174.592 248.284 174.602Z" fill="#407BFF"/>
<path opacity="0.4" d="M248.284 174.602L235.541 175.02H234.48L231.688 175.104H230.636L223.19 175.337C222.957 175.337 222.752 175.234 222.743 175.095L222.436 172.805C222.436 172.647 222.612 172.507 222.873 172.498L230.264 172.163H231.194L234.843 172.005L235.709 171.958L247.968 171.418C248.05 171.409 248.133 171.42 248.209 171.451C248.285 171.482 248.353 171.531 248.405 171.595L248.722 174.192C248.796 174.406 248.582 174.592 248.284 174.602Z" fill="white"/>
<path d="M226.718 175.597H227.537C227.704 175.597 227.825 175.504 227.816 175.393L227.341 172.153C227.341 172.06 227.183 171.977 227.015 171.977H226.196C226.029 171.977 225.917 172.07 225.926 172.163L226.392 175.411C226.418 175.474 226.464 175.526 226.523 175.56C226.582 175.594 226.65 175.607 226.718 175.597Z" fill="#407BFF"/>
<path d="M240.913 175.309H241.686C241.844 175.309 241.956 175.225 241.946 175.132L241.472 171.874C241.472 171.781 241.314 171.707 241.165 171.716H240.392C240.234 171.716 240.122 171.8 240.131 171.902L240.597 175.141C240.615 175.244 240.746 175.309 240.913 175.309Z" fill="#407BFF"/>
<path d="M228.18 124.468C229.037 127.102 229.363 129.997 225.984 132.008C225.257 132.427 224.698 133.085 224.401 133.869C223.964 135.126 224.28 136.597 229.176 135.498C236.251 133.906 237.051 129.764 237.051 129.764C234.259 127.8 234.538 120.614 235.05 116.631L228.18 124.468Z" fill="#FFB573"/>
<path opacity="0.2" d="M232.871 122.15C232.806 123.9 230.284 125.874 228.673 126.497C228.577 125.807 228.415 125.127 228.189 124.468L232.257 119.814C232.622 120.542 232.831 121.337 232.871 122.15Z" fill="black"/>
<path d="M239.581 107.313C239.34 106.199 238.882 105.143 238.233 104.206C237.584 103.269 236.756 102.469 235.797 101.853C234.838 101.236 233.767 100.815 232.645 100.613C231.523 100.411 230.372 100.433 229.258 100.677C222.659 102.082 220.081 111.241 220.378 117.152C220.686 123.742 228.03 126.963 233.698 122.923C237.487 120.242 237.989 117.561 239.507 111.334C239.847 110.018 239.873 108.641 239.581 107.313Z" fill="#FFB573"/>
<path d="M224.41 115.514C224.067 115.537 223.724 115.486 223.402 115.364C223.081 115.242 222.79 115.051 222.549 114.806C223.541 113.889 224.403 112.84 225.109 111.688L224.41 115.514Z" fill="#ED893E"/>
<path d="M225.471 101.151C226.631 101.147 227.765 101.495 228.723 102.147C229.682 102.8 230.42 103.728 230.841 104.809C231.161 105.87 231.364 106.962 231.447 108.067C231.537 109.178 231.93 110.244 232.582 111.148C232.919 111.591 233.389 111.915 233.923 112.072C234.457 112.229 235.028 112.212 235.551 112.023C235.768 113.018 236.248 113.936 236.941 114.683C237.633 115.429 238.513 115.976 239.489 116.267C237.897 118.213 235.961 120.242 234.369 122.197C234.751 123.835 234.788 124.151 235.17 125.799C238.102 125.324 241.9 122.83 243.957 119.46C245.902 116.267 246.563 112.172 243.435 111.809C244.72 109.668 243.072 104.837 241.574 102.854C239.942 100.933 237.736 99.5855 235.281 99.0102C233.669 98.5071 231.969 98.3517 230.292 98.5541C228.426 98.8134 226.714 99.7351 225.471 101.151Z" fill="#263238"/>
<path d="M240.663 115.923C240.714 115.652 240.712 115.374 240.655 115.104C240.598 114.835 240.489 114.579 240.333 114.351C240.178 114.124 239.979 113.93 239.748 113.779C239.517 113.629 239.259 113.526 238.988 113.475C237.415 113.205 236.065 115.02 235.627 116.351C235.171 117.831 235.888 119.274 237.489 118.874C238.687 118.56 239.713 117.788 240.347 116.724C240.503 116.48 240.61 116.208 240.663 115.923Z" fill="#FFB573"/>
<path d="M231.064 109.016C231.119 109.014 231.171 108.995 231.213 108.961C231.247 108.938 231.276 108.909 231.299 108.875C231.321 108.841 231.336 108.803 231.343 108.763C231.35 108.723 231.349 108.681 231.339 108.642C231.33 108.602 231.312 108.565 231.288 108.532C230.962 108.045 230.524 107.644 230.01 107.362C229.497 107.08 228.923 106.926 228.337 106.913C228.255 106.918 228.178 106.954 228.122 107.015C228.066 107.076 228.037 107.156 228.039 107.239C228.04 107.279 228.05 107.319 228.066 107.355C228.083 107.392 228.106 107.425 228.136 107.453C228.165 107.481 228.2 107.502 228.237 107.517C228.275 107.531 228.315 107.538 228.356 107.536C228.84 107.557 229.312 107.691 229.735 107.929C230.157 108.167 230.517 108.501 230.785 108.905C230.818 108.946 230.861 108.978 230.91 108.997C230.959 109.017 231.012 109.023 231.064 109.016Z" fill="#263238"/>
<path d="M221.467 108.588C221.52 108.572 221.568 108.543 221.607 108.505C221.938 108.156 222.346 107.89 222.799 107.728C223.252 107.566 223.736 107.513 224.213 107.574C224.296 107.588 224.38 107.569 224.45 107.523C224.519 107.476 224.568 107.404 224.586 107.322C224.599 107.24 224.581 107.155 224.534 107.086C224.488 107.017 224.416 106.968 224.334 106.95C223.749 106.878 223.156 106.946 222.603 107.149C222.049 107.351 221.552 107.682 221.151 108.114C221.092 108.173 221.059 108.253 221.059 108.337C221.059 108.421 221.092 108.501 221.151 108.56C221.192 108.603 221.245 108.633 221.303 108.646C221.361 108.659 221.421 108.655 221.477 108.635L221.467 108.588Z" fill="#263238"/>
<path d="M229.41 110.469C229.336 111.036 228.973 111.465 228.6 111.399C228.228 111.334 227.986 110.86 228.06 110.282C228.135 109.705 228.489 109.286 228.861 109.352C229.233 109.417 229.475 109.892 229.41 110.469Z" fill="#263238"/>
<path d="M223.629 110.478C223.555 111.027 223.21 111.409 222.856 111.409C222.503 111.409 222.27 110.897 222.335 110.338C222.4 109.78 222.754 109.407 223.108 109.407C223.461 109.407 223.703 109.929 223.629 110.478Z" fill="#263238"/>
<path d="M223.257 109.463L222 108.905C222 108.905 222.54 110.031 223.257 109.463Z" fill="#263238"/>
<path d="M228.98 109.398L227.658 108.84C227.658 108.84 228.273 109.994 228.98 109.398Z" fill="#263238"/>
<path d="M256.497 136.699C260.965 135.33 259.941 127.558 259.438 123.612C259.438 123.612 255.613 124.98 255.175 128.173C254.738 131.365 256.497 136.699 256.497 136.699Z" fill="#407BFF"/>
<path opacity="0.4" d="M256.497 136.699C260.965 135.33 259.941 127.558 259.438 123.612C259.438 123.612 255.613 124.98 255.175 128.173C254.738 131.365 256.497 136.699 256.497 136.699Z" fill="black"/>
<path d="M269.935 119.33C269.467 119.19 268.973 119.156 268.49 119.232C268.006 119.308 267.546 119.491 267.143 119.767L263.82 121.536C257.965 124.682 245.623 129.541 244.422 130.993C241.834 134.158 244.748 137.583 247.345 137.695C250.379 137.834 264.918 129.764 264.918 129.764C276.069 123.146 272.253 119.814 269.935 119.33Z" fill="#FFB573"/>
<path d="M264.407 98.0143L262.107 92.1502L269.107 92.0664C269.107 92.0664 269.312 95.5383 267.59 97.6513L264.407 98.0143Z" fill="#FFB573"/>
<path d="M265.207 86.4351H266.305C266.894 86.4356 267.461 86.652 267.9 87.0432C268.339 87.4344 268.62 87.9731 268.688 88.5573L269.079 92.0106L262.107 92.113L262.861 88.3898C262.962 87.8409 263.251 87.3446 263.68 86.9874C264.109 86.6302 264.649 86.4347 265.207 86.4351Z" fill="#FFB573"/>
<path d="M272.2 123.044C274.183 120.251 268.244 102.724 267.667 97.5396L264.409 98.0143C264.083 98.5076 264.753 119.19 266.652 122.346C267.9 124.431 272.2 123.044 272.2 123.044Z" fill="#FFB573"/>
<path d="M244.899 127.837C247.114 126.218 248.976 126.907 251.582 126.05C255.073 124.85 259.438 123.612 259.438 123.612C257.577 125.11 256.646 136.643 256.646 136.643C250.298 140.925 246.155 139.435 244.545 137.853C240.831 134.176 243.456 128.889 244.899 127.837Z" fill="#407BFF"/>
<g opacity="0.6">
<path d="M244.899 127.837C247.114 126.218 248.976 126.907 251.582 126.05C255.073 124.85 259.438 123.612 259.438 123.612C257.577 125.11 256.646 136.643 256.646 136.643C250.298 140.925 246.155 139.435 244.545 137.853C240.831 134.176 243.456 128.889 244.899 127.837Z" fill="black"/>
</g>
<path d="M233.301 177.31C232.017 177.342 230.771 176.879 229.819 176.016C229.528 175.741 229.296 175.409 229.136 175.041C228.976 174.673 228.892 174.277 228.889 173.875C228.889 171.949 230.89 170.348 233.384 170.301C234.705 170.255 235.993 170.722 236.977 171.604C237.268 171.879 237.5 172.209 237.659 172.575C237.819 172.942 237.904 173.336 237.908 173.736C237.908 175.663 235.898 177.264 233.403 177.31H233.301ZM233.459 171.232H233.375C231.393 171.232 229.782 172.451 229.792 173.875C229.798 174.153 229.861 174.427 229.976 174.679C230.091 174.932 230.257 175.159 230.462 175.346C231.269 176.056 232.32 176.426 233.394 176.379C235.376 176.379 236.977 175.16 236.977 173.745C236.968 173.466 236.903 173.191 236.787 172.937C236.67 172.683 236.504 172.454 236.298 172.265C235.51 171.589 234.497 171.234 233.459 171.269V171.232Z" fill="white"/>
<path d="M194.243 99.2709C193.967 97.6093 194.231 95.9031 194.997 94.4028C195.543 93.3186 195.772 92.1022 195.658 90.8936C195.649 90.6437 195.691 90.3946 195.78 90.1612C195.87 89.9278 196.006 89.7148 196.18 89.5349C196.353 89.3551 196.561 89.2121 196.792 89.1145C197.022 89.0169 197.269 88.9667 197.519 88.9669H198.646C199.076 88.9563 199.497 89.0953 199.836 89.36C200.176 89.6248 200.413 89.999 200.507 90.4189L201.215 93.5837C201.377 94.2701 201.377 94.9848 201.215 95.6713C201.054 96.3578 200.735 96.9974 200.284 97.5396L197.799 100.472L194.243 99.2709Z" fill="#FFB573"/>
<path opacity="0.1" d="M236.035 214.021C234.881 208.725 232.703 201.716 232.498 196.336C233.932 196.882 235.463 197.126 236.996 197.054C238.528 196.982 240.03 196.595 241.406 195.917C238.437 200.655 237.282 208.502 236.035 214.021Z" fill="black"/>
<path d="M224.615 117.282C224.615 117.282 226.291 116.351 231.429 115.16C231.429 117.236 230.796 119.051 228.152 119.646C226.886 120.112 225.36 119.162 224.708 117.552C224.671 117.44 224.643 117.347 224.615 117.282Z" fill="#263238"/>
<path d="M228.887 117.813C228.372 117.893 227.878 118.076 227.435 118.351C226.992 118.626 226.609 118.987 226.309 119.414C226.884 119.705 227.547 119.774 228.17 119.609C228.685 119.53 229.178 119.349 229.621 119.075C230.064 118.802 230.447 118.442 230.749 118.017C230.177 117.714 229.511 117.64 228.887 117.813Z" fill="#9D2724"/>
<path d="M224.828 117.152C224.932 117.364 225.089 117.546 225.282 117.681C225.476 117.816 225.701 117.9 225.936 117.924C227.453 117.571 228.929 117.06 230.339 116.398C230.579 116.293 230.787 116.123 230.938 115.908C231.089 115.693 231.178 115.441 231.195 115.178C229.012 115.622 226.879 116.284 224.828 117.152Z" fill="white"/>
<path d="M194.689 27.2914V93.7699C194.689 95.4201 196.027 96.7578 197.677 96.7578H264.156C265.806 96.7578 267.144 95.4201 267.144 93.7699V27.2914C267.144 25.6412 265.806 24.3035 264.156 24.3035H197.677C196.027 24.3035 194.689 25.6412 194.689 27.2914Z" fill="#407BFF"/>
<path opacity="0.4" d="M193.219 25.6718V92.1503C193.219 93.8005 194.556 95.1382 196.207 95.1382H262.685C264.335 95.1382 265.673 93.8005 265.673 92.1503V25.6718C265.673 24.0216 264.335 22.6838 262.685 22.6838H196.207C194.556 22.6838 193.219 24.0216 193.219 25.6718Z" fill="white"/>
<path d="M193.219 25.6718V92.1503C193.219 93.8005 194.556 95.1382 196.207 95.1382H262.685C264.335 95.1382 265.673 93.8005 265.673 92.1503V25.6718C265.673 24.0216 264.335 22.6838 262.685 22.6838H196.207C194.556 22.6838 193.219 24.0216 193.219 25.6718Z" fill="#407BFF"/>
<path opacity="0.4" d="M193.219 25.6718V92.1503C193.219 93.8005 194.556 95.1382 196.207 95.1382H262.685C264.335 95.1382 265.673 93.8005 265.673 92.1503V25.6718C265.673 24.0216 264.335 22.6838 262.685 22.6838H196.207C194.556 22.6838 193.219 24.0216 193.219 25.6718Z" fill="white"/>
<path d="M269.303 53.8102C269.18 53.8102 269.061 53.7612 268.974 53.6739C268.887 53.5866 268.838 53.4683 268.838 53.3448V48.0206C268.838 47.8971 268.887 47.7788 268.974 47.6915C269.061 47.6042 269.18 47.5552 269.303 47.5552C269.426 47.5576 269.543 47.6074 269.63 47.6941C269.717 47.7809 269.766 47.8979 269.769 48.0206V53.3448C269.766 53.4675 269.717 53.5845 269.63 53.6713C269.543 53.758 269.426 53.8078 269.303 53.8102Z" fill="#407BFF"/>
<path d="M269.303 78.6815C269.18 78.6815 269.061 78.6325 268.974 78.5452C268.887 78.458 268.838 78.3396 268.838 78.2161V58.6412C268.838 58.5178 268.887 58.3994 268.974 58.3121C269.061 58.2248 269.18 58.1758 269.303 58.1758C269.427 58.1758 269.545 58.2248 269.632 58.3121C269.72 58.3994 269.769 58.5178 269.769 58.6412V78.1882C269.773 78.2516 269.763 78.3152 269.742 78.3749C269.72 78.4346 269.686 78.4893 269.643 78.5355C269.599 78.5817 269.546 78.6185 269.488 78.6437C269.43 78.6688 269.367 78.6817 269.303 78.6815Z" fill="#407BFF"/>
<path d="M229.083 58.2038C228.836 58.2038 228.6 58.1057 228.425 57.9311C228.25 57.7566 228.152 57.5198 228.152 57.2729V36.8603C228.152 36.6134 228.25 36.3766 228.425 36.2021C228.6 36.0275 228.836 35.9294 229.083 35.9294C229.33 35.9294 229.567 36.0275 229.741 36.2021C229.916 36.3766 230.014 36.6134 230.014 36.8603V57.2729C230.014 57.5198 229.916 57.7566 229.741 57.9311C229.567 58.1057 229.33 58.2038 229.083 58.2038Z" fill="#407BFF"/>
<path d="M241.751 68.3775C241.628 68.377 241.506 68.3521 241.392 68.3041C241.279 68.2562 241.176 68.1862 241.09 68.0983L215.753 42.7616C215.601 42.5835 215.521 42.3545 215.53 42.1202C215.539 41.886 215.636 41.6637 215.802 41.498C215.968 41.3322 216.19 41.2351 216.424 41.226C216.658 41.217 216.887 41.2967 217.066 41.4492L242.402 66.7858C242.576 66.9602 242.673 67.1962 242.673 67.4421C242.673 67.688 242.576 67.9239 242.402 68.0983C242.23 68.2737 241.996 68.374 241.751 68.3775Z" fill="#407BFF"/>
<path d="M246.992 55.7093H211.165C210.918 55.7093 210.682 55.6112 210.507 55.4367C210.332 55.2621 210.234 55.0253 210.234 54.7785C210.234 54.5316 210.332 54.2948 210.507 54.1203C210.682 53.9457 210.918 53.8477 211.165 53.8477H246.992C247.239 53.8477 247.476 53.9457 247.65 54.1203C247.825 54.2948 247.923 54.5316 247.923 54.7785C247.923 55.0253 247.825 55.2621 247.65 55.4367C247.476 55.6112 247.239 55.7093 246.992 55.7093Z" fill="#407BFF"/>
<path d="M216.415 68.3775C216.23 68.3786 216.049 68.3246 215.895 68.2224C215.741 68.1202 215.621 67.9744 215.55 67.8036C215.479 67.6329 215.46 67.4449 215.497 67.2636C215.533 67.0823 215.623 66.916 215.754 66.7858L241.081 41.4491C241.165 41.3517 241.267 41.2726 241.383 41.2167C241.498 41.1608 241.624 41.1294 241.752 41.1245C241.88 41.1195 242.008 41.1411 242.128 41.1879C242.247 41.2347 242.356 41.3057 242.446 41.3964C242.537 41.4871 242.608 41.5956 242.655 41.715C242.702 41.8345 242.723 41.9623 242.718 42.0905C242.713 42.2187 242.682 42.3445 242.626 42.46C242.57 42.5755 242.491 42.6781 242.394 42.7616L217.066 68.0983C216.894 68.2736 216.66 68.374 216.415 68.3775Z" fill="#407BFF"/>
<path d="M235.692 67.8934C234.873 69.1872 234.985 74.0088 234.985 74.0088L223.815 74.0554C223.815 74.0554 223.88 69.2338 223.061 67.9492C220.39 63.7978 216.192 60.2607 216.164 55.0017C216.237 51.5786 217.643 48.3192 220.084 45.918C222.524 43.5167 225.806 42.1634 229.23 42.1464C232.653 42.1294 235.949 43.4501 238.413 45.827C240.877 48.2039 242.316 51.4492 242.422 54.8713C242.478 60.1304 238.289 63.7141 235.692 67.8934ZM234.994 75.7122L223.825 75.768C223.826 76.1869 223.91 76.6014 224.071 76.9877C224.233 77.3741 224.469 77.7248 224.767 78.0196C225.064 78.3145 225.417 78.5477 225.805 78.706C226.193 78.8643 226.608 78.9446 227.027 78.9421H231.783C232.207 78.9446 232.627 78.8626 233.019 78.701C233.411 78.5393 233.767 78.3012 234.066 78.0005C234.365 77.6999 234.601 77.3426 234.76 76.9498C234.92 76.5569 234.999 76.1362 234.994 75.7122ZM232.044 80.1987H226.84C226.845 80.8892 227.123 81.5497 227.613 82.0362C228.103 82.5227 228.766 82.7957 229.456 82.7957C230.143 82.7932 230.801 82.5185 231.286 82.0318C231.771 81.545 232.044 80.8859 232.044 80.1987ZM232.044 80.1987H226.84C226.845 80.8892 227.123 81.5497 227.613 82.0362C228.103 82.5227 228.766 82.7957 229.456 82.7957C230.143 82.7932 230.801 82.5185 231.286 82.0318C231.771 81.545 232.044 80.8859 232.044 80.1987Z" fill="#407BFF"/>
<path opacity="0.8" d="M235.692 67.8934C234.873 69.1872 234.985 74.0088 234.985 74.0088L223.815 74.0554C223.815 74.0554 223.88 69.2338 223.061 67.9492C220.39 63.7978 216.192 60.2607 216.164 55.0017C216.237 51.5786 217.643 48.3192 220.084 45.918C222.524 43.5167 225.806 42.1634 229.23 42.1464C232.653 42.1294 235.949 43.4501 238.413 45.827C240.877 48.2039 242.316 51.4492 242.422 54.8713C242.478 60.1304 238.289 63.7141 235.692 67.8934ZM234.994 75.7122L223.825 75.768C223.826 76.1869 223.91 76.6014 224.071 76.9877C224.233 77.3741 224.469 77.7248 224.767 78.0196C225.064 78.3145 225.417 78.5477 225.805 78.706C226.193 78.8643 226.608 78.9446 227.027 78.9421H231.783C232.207 78.9446 232.627 78.8626 233.019 78.701C233.411 78.5393 233.767 78.3012 234.066 78.0005C234.365 77.6999 234.601 77.3426 234.76 76.9498C234.92 76.5569 234.999 76.1362 234.994 75.7122ZM232.044 80.1987H226.84C226.845 80.8892 227.123 81.5497 227.613 82.0362C228.103 82.5227 228.766 82.7957 229.456 82.7957C230.143 82.7932 230.801 82.5185 231.286 82.0318C231.771 81.545 232.044 80.8859 232.044 80.1987ZM232.044 80.1987H226.84C226.845 80.8892 227.123 81.5497 227.613 82.0362C228.103 82.5227 228.766 82.7957 229.456 82.7957C230.143 82.7932 230.801 82.5185 231.286 82.0318C231.771 81.545 232.044 80.8859 232.044 80.1987Z" fill="white"/>
<path d="M213.583 26.5562V33.0718H212.066V30.4283H209.078V33.1184H207.57V26.6027H209.088V29.1903H212.075V26.5562H213.583Z" fill="#263238"/>
<path d="M220.221 31.8988V33.1182H215.139V26.6025H220.1V27.8219H216.647V29.246H219.672V30.4282H216.628V31.9454L220.221 31.8988Z" fill="#263238"/>
<path d="M221.43 26.5562H222.947V31.8804H226.242V33.1184H221.43V26.5562Z" fill="#263238"/>
<path d="M232.786 28.9389C232.786 30.4002 231.687 31.3124 229.928 31.3124H228.606V33.1182H227.117V26.6025H229.91C231.687 26.556 232.786 27.4682 232.786 28.9389ZM231.241 28.9389C231.241 28.2128 230.775 27.794 229.844 27.794H228.606V30.0745H229.844C230.775 30.0745 231.241 29.6463 231.241 28.9389Z" fill="#263238"/>
<path d="M235.382 27.7754V29.5067H238.417V30.7168H235.382V33.1089H233.865V26.5933H238.817V27.8126L235.382 27.7754Z" fill="#263238"/>
<path d="M239.795 30.2328V26.5095H241.312V30.1304C241.312 31.3777 241.862 31.8896 242.774 31.8896C243.686 31.8896 244.244 31.3777 244.244 30.1304V26.5561H245.734V30.2793C245.756 30.6838 245.696 31.0887 245.557 31.4692C245.418 31.8497 245.202 32.1978 244.924 32.4922C244.646 32.7866 244.31 33.0211 243.938 33.1814C243.566 33.3417 243.165 33.4243 242.76 33.4243C242.355 33.4243 241.954 33.3417 241.582 33.1814C241.21 33.0211 240.874 32.7866 240.596 32.4922C240.317 32.1978 240.102 31.8497 239.963 31.4692C239.823 31.0887 239.763 30.6838 239.786 30.2793L239.795 30.2328Z" fill="#263238"/>
<path d="M247.242 26.5562H248.759V31.8804H252.054V33.1184H247.242V26.5562Z" fill="#263238"/>
<path d="M219.225 87.124H217.121V85.886H222.836V87.124H220.742V92.4482H219.225V87.124Z" fill="#263238"/>
<path d="M223.656 85.886H225.173V92.4017H223.656V85.886Z" fill="#263238"/>
<path d="M232.424 88.2689C232.424 89.7303 231.325 90.6425 229.575 90.6425H228.254V92.4483H226.736V85.9326H229.529C231.325 85.8861 232.424 86.7983 232.424 88.2689ZM230.888 88.2689C230.888 87.5429 230.413 87.124 229.492 87.124H228.254V89.4045H229.492C230.413 89.4045 230.888 88.9764 230.888 88.2689Z" fill="#263238"/>
<path d="M233.084 91.8059L233.596 90.661C234.235 91.0994 234.99 91.3361 235.765 91.3405C236.696 91.3405 237.021 91.0427 237.021 90.6424C237.021 89.4138 233.214 90.2515 233.214 87.85C233.214 86.733 234.145 85.8022 236.007 85.8022C236.802 85.7859 237.587 85.9853 238.278 86.3793L237.813 87.5335C237.248 87.2021 236.606 87.0256 235.951 87.0216C235.02 87.0216 234.704 87.3567 234.704 87.7755C234.704 88.9763 238.52 88.1479 238.52 90.568C238.52 91.657 237.589 92.5971 235.727 92.5971C234.787 92.6067 233.865 92.3308 233.084 91.8059Z" fill="#263238"/>
<path d="M239.219 91.6663C239.269 91.465 239.385 91.2864 239.549 91.1588C239.713 91.0311 239.914 90.9618 240.122 90.9618C240.329 90.9618 240.531 91.0311 240.694 91.1588C240.858 91.2864 240.974 91.465 241.025 91.6663C240.974 91.8676 240.858 92.0462 240.694 92.1739C240.531 92.3015 240.329 92.3708 240.122 92.3708C239.914 92.3708 239.713 92.3015 239.549 92.1739C239.385 92.0462 239.269 91.8676 239.219 91.6663ZM239.219 85.886H241.08L240.783 90.1677H239.628L239.219 85.886Z" fill="#263238"/>
</svg>
