<svg width="358" height="264" viewBox="0 0 358 264" fill="none" xmlns="http://www.w3.org/2000/svg">
<path d="M322.128 245.939H298.414V246.118H322.128V245.939Z" fill="#EBEBEB"/>
<path d="M237.152 247.886H230.93V248.065H237.152V247.886Z" fill="#EBEBEB"/>
<path d="M297.697 239.294H283.957V239.473H297.697V239.294Z" fill="#EBEBEB"/>
<path d="M68.4865 240.497H37.5625V240.676H68.4865V240.497Z" fill="#EBEBEB"/>
<path d="M79.3956 240.497H74.8633V240.676H79.3956V240.497Z" fill="#EBEBEB"/>
<path d="M161.208 243.519H94.1328V243.698H161.208V243.519Z" fill="#EBEBEB"/>
<path d="M169.693 202.485H31.4477C30.3634 202.485 29.3235 202.054 28.5568 201.287C27.7901 200.521 27.3594 199.481 27.3594 198.396V4.05256C27.3688 2.97447 27.8037 1.94376 28.5694 1.18477C29.3351 0.425778 30.3696 -4.13318e-05 31.4477 3.00902e-09H169.693C170.777 3.00903e-09 171.817 0.430737 172.584 1.19745C173.351 1.96417 173.781 3.00406 173.781 4.08836V198.396C173.781 199.481 173.351 200.521 172.584 201.287C171.817 202.054 170.777 202.485 169.693 202.485ZM31.4477 0.143201C30.4115 0.145093 29.4182 0.557578 28.6855 1.29032C27.9528 2.02305 27.5403 3.01631 27.5384 4.05256V198.396C27.5403 199.433 27.9528 200.426 28.6855 201.159C29.4182 201.891 30.4115 202.304 31.4477 202.306H169.693C170.729 202.304 171.723 201.891 172.455 201.159C173.188 200.426 173.6 199.433 173.602 198.396V4.05256C173.6 3.01631 173.188 2.02305 172.455 1.29032C171.723 0.557578 170.729 0.145093 169.693 0.143201H31.4477Z" fill="#EBEBEB"/>
<path d="M324.571 202.485H186.311C185.227 202.483 184.189 202.052 183.422 201.285C182.656 200.519 182.225 199.48 182.223 198.396V4.05256C182.234 2.97506 182.669 1.94543 183.435 1.18684C184.2 0.428246 185.233 0.00182458 186.311 0H324.571C325.646 0.00372642 326.677 0.43121 327.44 1.1898C328.202 1.94838 328.635 2.97695 328.645 4.05256V198.396C328.645 199.478 328.216 200.516 327.452 201.282C326.689 202.049 325.652 202.481 324.571 202.485ZM186.311 0.143201C185.275 0.145093 184.282 0.557578 183.549 1.29032C182.816 2.02305 182.404 3.01631 182.402 4.05256V198.396C182.404 199.433 182.816 200.426 183.549 201.159C184.282 201.891 185.275 202.304 186.311 202.306H324.571C325.607 202.304 326.6 201.891 327.333 201.159C328.066 200.426 328.478 199.433 328.48 198.396V4.05256C328.478 3.01631 328.066 2.02305 327.333 1.29032C326.6 0.557578 325.607 0.145093 324.571 0.143201H186.311Z" fill="#EBEBEB"/>
<path d="M358 234.418H0V234.597H358V234.418Z" fill="#EBEBEB"/>
<path d="M114.873 66.5786L115.088 66.8913C115.576 67.6017 115.763 68.477 115.606 69.3247C115.449 70.1725 114.961 70.9231 114.251 71.4115L41.7632 121.25C41.0528 121.738 40.1775 121.924 39.3298 121.767C38.4821 121.61 37.7314 121.123 37.243 120.413L37.028 120.1C36.5385 119.388 36.3518 118.511 36.5092 117.661C36.6665 116.812 37.1548 116.059 37.8668 115.57L110.343 65.7398C111.055 65.2502 111.932 65.0636 112.782 65.2209C113.631 65.3782 114.384 65.8666 114.873 66.5786Z" fill="#E0E0E0"/>
<path d="M52.6895 227.767H91.4108C93.0154 227.767 94.5543 228.404 95.6889 229.539C96.8236 230.673 97.461 232.212 97.461 233.817V234.168H46.625V233.817C46.625 233.021 46.782 232.233 47.0869 231.498C47.3919 230.763 47.8388 230.096 48.4021 229.534C48.9654 228.972 49.6341 228.526 50.3698 228.223C51.1055 227.92 51.8938 227.765 52.6895 227.767Z" fill="#E0E0E0"/>
<path d="M71.7921 194.788H72.3148C73.4655 194.788 74.5692 195.245 75.3829 196.059C76.1966 196.872 76.6537 197.976 76.6537 199.127V230.967H67.4531V199.127C67.4531 197.976 67.9103 196.872 68.724 196.059C69.5377 195.245 70.6413 194.788 71.7921 194.788Z" fill="#E0E0E0"/>
<path d="M37.3025 116.603L36.9598 116.749C35.3036 117.452 34.5308 119.364 35.2339 121.02L69.6 201.982C70.303 203.638 72.2156 204.411 73.8718 203.708L74.2145 203.562C75.8707 202.859 76.6434 200.947 75.9404 199.291L41.5742 118.329C40.8712 116.673 38.9587 115.9 37.3025 116.603Z" fill="#F0F0F0"/>
<path d="M107.546 62.2227L108.174 61.5949C109.597 60.1715 111.528 59.3719 113.541 59.3719C115.554 59.3719 117.484 60.1716 118.907 61.5949L124.259 66.9463L112.898 78.3075L107.562 72.9712C106.854 72.2671 106.291 71.4303 105.907 70.5086C105.523 69.587 105.325 68.5986 105.323 67.6001C105.322 66.6016 105.518 65.6126 105.899 64.6899C106.281 63.7671 106.84 62.9287 107.546 62.2227Z" fill="#EBEBEB"/>
<path d="M129.898 67.4041L123.941 61.447L107.387 78.0009L113.344 83.9581L124.234 112.963L158.903 78.2945L129.898 67.4041Z" fill="#F0F0F0"/>
<path d="M270.785 209.43C260.568 208.256 258.205 192.046 265.573 185.122C272.941 178.198 288.979 181.542 289.516 191.824C289.752 196.399 280.623 194.745 277.287 197.552C273.95 200.358 275.282 209.938 270.785 209.43Z" fill="#F0F0F0"/>
<path d="M284.832 188.072C279.434 188.702 276.606 193.334 275.825 194.831L274.944 193.914C274.615 192.547 273.999 188.702 276.512 186.339C276.586 186.272 276.632 186.179 276.64 186.079C276.648 185.979 276.618 185.88 276.555 185.802C276.522 185.761 276.481 185.728 276.435 185.704C276.388 185.679 276.338 185.665 276.285 185.661C276.233 185.657 276.181 185.663 276.131 185.68C276.081 185.697 276.036 185.724 275.997 185.759C273.706 187.907 273.684 190.986 273.956 192.919C272.182 191.1 270.267 189.424 268.228 187.907C268.115 187.832 267.976 187.804 267.843 187.83C267.709 187.855 267.59 187.932 267.512 188.043C267.435 188.155 267.405 188.294 267.429 188.428C267.453 188.562 267.529 188.681 267.641 188.759C269.708 190.316 271.649 192.033 273.448 193.893C270.744 193.593 268.013 194.143 265.636 195.468C265.593 195.496 265.555 195.532 265.525 195.574C265.495 195.616 265.474 195.664 265.463 195.715C265.451 195.765 265.45 195.818 265.459 195.869C265.468 195.92 265.487 195.968 265.515 196.012C265.57 196.097 265.657 196.156 265.755 196.179C265.854 196.202 265.957 196.186 266.045 196.134C269.388 194.151 273.362 194.659 274.336 194.831C274.715 195.225 275.109 195.64 275.503 196.077C273.864 196.695 272.362 197.631 271.084 198.83C269.807 200.029 268.778 201.468 268.056 203.065C268.028 203.157 268.035 203.256 268.075 203.344C268.115 203.432 268.186 203.502 268.274 203.541C268.363 203.58 268.462 203.585 268.554 203.555C268.646 203.525 268.724 203.463 268.772 203.38C269.483 201.836 270.495 200.45 271.747 199.302C273 198.153 274.469 197.266 276.069 196.692C280.972 202.238 285.291 208.275 288.957 214.707L289.852 214.191C286.04 207.488 281.523 201.211 276.376 195.468C276.835 194.509 279.491 189.504 284.904 188.866C285.004 188.857 285.097 188.81 285.162 188.733C285.228 188.657 285.261 188.559 285.255 188.458C285.253 188.405 285.241 188.353 285.218 188.304C285.196 188.256 285.164 188.212 285.125 188.176C285.085 188.14 285.039 188.113 284.989 188.095C284.939 188.077 284.886 188.069 284.832 188.072Z" fill="#E0E0E0"/>
<path d="M312.742 201.912C325.108 197.459 323.282 176.594 312.076 170.143C300.871 163.692 281.911 172.599 284.267 185.523C285.319 191.251 296.188 186.54 301.164 189.103C306.248 191.716 307.293 203.895 312.742 201.912Z" fill="#F0F0F0"/>
<path d="M288.982 179.501C295.884 178.692 300.767 183.625 302.178 185.265C302.457 184.778 302.722 184.313 302.987 183.869C302.987 182.072 302.629 177.103 298.805 174.905C298.742 174.877 298.686 174.836 298.639 174.785C298.592 174.734 298.556 174.674 298.534 174.609C298.512 174.544 298.503 174.474 298.508 174.406C298.514 174.337 298.534 174.27 298.566 174.209C298.599 174.148 298.644 174.095 298.698 174.052C298.752 174.009 298.815 173.978 298.882 173.961C298.949 173.944 299.018 173.94 299.086 173.951C299.155 173.962 299.22 173.987 299.278 174.024C302.751 176 303.689 179.852 303.918 182.329C305.582 179.561 307.461 176.927 309.538 174.453C309.658 174.34 309.816 174.276 309.981 174.272C310.146 174.268 310.306 174.326 310.431 174.434C310.556 174.542 310.636 174.692 310.656 174.856C310.677 175.019 310.635 175.185 310.541 175.32C308.427 177.863 306.512 180.566 304.813 183.403C306.925 182.687 310.927 181.742 314.994 183.024C315.056 183.044 315.114 183.076 315.163 183.119C315.213 183.161 315.254 183.213 315.283 183.271C315.313 183.329 315.331 183.393 315.336 183.458C315.341 183.523 315.333 183.588 315.313 183.65C315.293 183.713 315.26 183.77 315.218 183.82C315.176 183.869 315.124 183.91 315.066 183.94C315.007 183.969 314.944 183.987 314.879 183.992C314.814 183.997 314.748 183.989 314.686 183.969C309.946 182.487 305.156 184.291 303.989 184.785C303.631 185.387 303.273 186.017 302.901 186.683C307.389 187.264 311.462 189.602 314.228 193.184C314.308 193.29 314.342 193.424 314.323 193.556C314.305 193.687 314.234 193.806 314.128 193.886C314.022 193.965 313.888 194 313.756 193.981C313.625 193.962 313.506 193.892 313.426 193.785C312.091 192.073 310.429 190.643 308.536 189.58C306.643 188.516 304.557 187.841 302.4 187.592C297.927 195.931 294.328 204.711 291.66 213.79L290.392 213.404C293.169 203.961 296.943 194.841 301.648 186.196C300.796 185.136 296.02 179.695 289.104 180.468C288.975 180.484 288.845 180.45 288.741 180.373C288.636 180.295 288.566 180.181 288.545 180.053C288.533 179.922 288.571 179.792 288.653 179.689C288.734 179.586 288.852 179.519 288.982 179.501Z" fill="#E0E0E0"/>
<path d="M309.31 211.671C316.742 211.85 320.05 200.473 315.467 194.781C310.885 189.088 299.057 189.89 297.646 197.194C297.023 200.444 303.725 200.172 305.83 202.535C307.935 204.898 306.052 211.592 309.31 211.671Z" fill="#E0E0E0"/>
<path d="M301.436 195.69C305.245 196.678 306.806 200.28 307.214 201.418L307.93 200.845C308.295 199.9 309.125 197.208 307.557 195.26C307.509 195.207 307.482 195.136 307.482 195.064C307.482 194.991 307.509 194.921 307.557 194.867C307.584 194.84 307.616 194.818 307.651 194.803C307.686 194.789 307.723 194.781 307.761 194.781C307.799 194.781 307.837 194.789 307.872 194.803C307.907 194.818 307.939 194.84 307.965 194.867C309.397 196.621 309.097 198.84 308.681 200.194C310.13 199.076 311.662 198.071 313.264 197.187C313.309 197.163 313.358 197.149 313.409 197.145C313.459 197.142 313.51 197.148 313.558 197.164C313.606 197.18 313.65 197.205 313.688 197.239C313.726 197.272 313.757 197.313 313.779 197.358C313.82 197.446 313.826 197.546 313.795 197.638C313.765 197.73 313.7 197.807 313.615 197.852C311.979 198.758 310.418 199.793 308.946 200.946C310.914 200.996 312.817 201.653 314.395 202.829C314.422 202.855 314.444 202.887 314.458 202.922C314.473 202.957 314.481 202.995 314.481 203.033C314.481 203.071 314.473 203.108 314.458 203.143C314.444 203.178 314.422 203.21 314.395 203.237C314.343 203.287 314.274 203.314 314.202 203.314C314.13 203.314 314.061 203.287 314.009 203.237C312.319 202.022 310.274 201.402 308.195 201.475L307.235 202.249C309.478 203.47 311.146 205.529 311.875 207.977C311.895 208.049 311.885 208.126 311.848 208.191C311.811 208.256 311.75 208.304 311.678 208.324C311.606 208.344 311.529 208.334 311.464 208.297C311.398 208.26 311.351 208.199 311.331 208.127C310.976 206.951 310.389 205.857 309.606 204.91C308.823 203.964 307.859 203.183 306.77 202.614C302.704 206.095 299.009 209.987 295.743 214.227L295.156 213.769C298.552 209.35 302.412 205.308 306.67 201.712C306.44 200.996 305.037 197.129 301.221 196.134C301.152 196.114 301.093 196.069 301.054 196.009C301.016 195.948 301.002 195.875 301.013 195.805C301.03 195.766 301.055 195.732 301.087 195.704C301.118 195.676 301.156 195.656 301.197 195.645C301.237 195.634 301.28 195.633 301.321 195.64C301.363 195.648 301.402 195.665 301.436 195.69Z" fill="#F0F0F0"/>
<path d="M263.954 212.373H314.368V226.757C314.368 228.846 313.538 230.849 312.061 232.326C310.584 233.803 308.581 234.633 306.492 234.633H271.802C269.713 234.633 267.71 233.803 266.233 232.326C264.756 230.849 263.926 228.846 263.926 226.757V212.373H263.954Z" fill="#E0E0E0"/>
<path d="M175.544 263.996C252.215 263.996 314.369 260.368 314.369 255.891C314.369 251.415 252.215 247.786 175.544 247.786C98.8729 247.786 36.7188 251.415 36.7188 255.891C36.7188 260.368 98.8729 263.996 175.544 263.996Z" fill="#F5F5F5"/>
<path d="M299.659 45.8813H183.438V181.814H299.659V45.8813Z" fill="#407BFF"/>
<path opacity="0.3" d="M299.659 45.8813H183.438V181.814H299.659V45.8813Z" fill="white"/>
<path d="M199.625 58.7336H185.82V137.136H199.625V58.7336Z" fill="#263238"/>
<path opacity="0.4" d="M199.625 58.7336H185.82V137.136H199.625V58.7336Z" fill="white"/>
<path d="M299.659 45.8813H183.438V54.0724H299.659V45.8813Z" fill="#263238"/>
<path opacity="0.4" d="M299.666 54.0795V45.8813H183.438V54.0795" fill="white"/>
<path d="M190.656 66.4307H188.687C187.995 66.4307 187.434 66.9917 187.434 67.6837V69.6527C187.434 70.3447 187.995 70.9057 188.687 70.9057H190.656C191.348 70.9057 191.909 70.3447 191.909 69.6527V67.6837C191.909 66.9917 191.348 66.4307 190.656 66.4307Z" fill="#407BFF"/>
<path d="M196.663 66.4307H194.694C194.002 66.4307 193.441 66.9917 193.441 67.6837V69.6527C193.441 70.3447 194.002 70.9057 194.694 70.9057H196.663C197.355 70.9057 197.916 70.3447 197.916 69.6527V67.6837C197.916 66.9917 197.355 66.4307 196.663 66.4307Z" fill="#407BFF"/>
<path d="M190.656 72.7815H188.687C187.995 72.7815 187.434 73.3425 187.434 74.0345V76.0035C187.434 76.6955 187.995 77.2565 188.687 77.2565H190.656C191.348 77.2565 191.909 76.6955 191.909 76.0035V74.0345C191.909 73.3425 191.348 72.7815 190.656 72.7815Z" fill="#407BFF"/>
<path d="M196.663 72.7815H194.694C194.002 72.7815 193.441 73.3425 193.441 74.0345V76.0035C193.441 76.6955 194.002 77.2565 194.694 77.2565H196.663C197.355 77.2565 197.916 76.6955 197.916 76.0035V74.0345C197.916 73.3425 197.355 72.7815 196.663 72.7815Z" fill="#407BFF"/>
<path d="M190.656 79.1396H188.687C187.995 79.1396 187.434 79.7006 187.434 80.3926V82.3616C187.434 83.0537 187.995 83.6146 188.687 83.6146H190.656C191.348 83.6146 191.909 83.0537 191.909 82.3616V80.3926C191.909 79.7006 191.348 79.1396 190.656 79.1396Z" fill="#407BFF"/>
<path d="M196.663 79.1396H194.694C194.002 79.1396 193.441 79.7006 193.441 80.3926V82.3616C193.441 83.0537 194.002 83.6146 194.694 83.6146H196.663C197.355 83.6146 197.916 83.0537 197.916 82.3616V80.3926C197.916 79.7006 197.355 79.1396 196.663 79.1396Z" fill="#407BFF"/>
<path d="M190.656 85.4905H188.687C187.995 85.4905 187.434 86.0515 187.434 86.7435V88.7125C187.434 89.4045 187.995 89.9655 188.687 89.9655H190.656C191.348 89.9655 191.909 89.4045 191.909 88.7125V86.7435C191.909 86.0515 191.348 85.4905 190.656 85.4905Z" fill="#407BFF"/>
<path d="M196.663 85.4905H194.694C194.002 85.4905 193.441 86.0515 193.441 86.7435V88.7125C193.441 89.4045 194.002 89.9655 194.694 89.9655H196.663C197.355 89.9655 197.916 89.4045 197.916 88.7125V86.7435C197.916 86.0515 197.355 85.4905 196.663 85.4905Z" fill="#407BFF"/>
<path d="M190.656 91.8486H188.687C187.995 91.8486 187.434 92.4096 187.434 93.1016V95.0706C187.434 95.7626 187.995 96.3236 188.687 96.3236H190.656C191.348 96.3236 191.909 95.7626 191.909 95.0706V93.1016C191.909 92.4096 191.348 91.8486 190.656 91.8486Z" fill="#407BFF"/>
<path d="M196.663 91.8486H194.694C194.002 91.8486 193.441 92.4096 193.441 93.1016V95.0706C193.441 95.7626 194.002 96.3236 194.694 96.3236H196.663C197.355 96.3236 197.916 95.7626 197.916 95.0706V93.1016C197.916 92.4096 197.355 91.8486 196.663 91.8486Z" fill="#407BFF"/>
<path d="M190.656 98.1995H188.687C187.995 98.1995 187.434 98.7605 187.434 99.4525V101.421C187.434 102.113 187.995 102.674 188.687 102.674H190.656C191.348 102.674 191.909 102.113 191.909 101.421V99.4525C191.909 98.7605 191.348 98.1995 190.656 98.1995Z" fill="#407BFF"/>
<path d="M196.663 98.1995H194.694C194.002 98.1995 193.441 98.7605 193.441 99.4525V101.421C193.441 102.113 194.002 102.674 194.694 102.674H196.663C197.355 102.674 197.916 102.113 197.916 101.421V99.4525C197.916 98.7605 197.355 98.1995 196.663 98.1995Z" fill="#407BFF"/>
<path d="M190.656 104.558H188.687C187.995 104.558 187.434 105.119 187.434 105.811V107.78C187.434 108.472 187.995 109.033 188.687 109.033H190.656C191.348 109.033 191.909 108.472 191.909 107.78V105.811C191.909 105.119 191.348 104.558 190.656 104.558Z" fill="#407BFF"/>
<path d="M196.663 104.558H194.694C194.002 104.558 193.441 105.119 193.441 105.811V107.78C193.441 108.472 194.002 109.033 194.694 109.033H196.663C197.355 109.033 197.916 108.472 197.916 107.78V105.811C197.916 105.119 197.355 104.558 196.663 104.558Z" fill="#407BFF"/>
<path d="M190.656 110.908H188.687C187.995 110.908 187.434 111.469 187.434 112.161V114.13C187.434 114.822 187.995 115.383 188.687 115.383H190.656C191.348 115.383 191.909 114.822 191.909 114.13V112.161C191.909 111.469 191.348 110.908 190.656 110.908Z" fill="#407BFF"/>
<path d="M196.663 110.908H194.694C194.002 110.908 193.441 111.469 193.441 112.161V114.13C193.441 114.822 194.002 115.383 194.694 115.383H196.663C197.355 115.383 197.916 114.822 197.916 114.13V112.161C197.916 111.469 197.355 110.908 196.663 110.908Z" fill="#407BFF"/>
<path d="M192.61 121.026H188.88C188.081 121.026 187.434 121.673 187.434 122.472V126.202C187.434 127.001 188.081 127.649 188.88 127.649H192.61C193.409 127.649 194.057 127.001 194.057 126.202V122.472C194.057 121.673 193.409 121.026 192.61 121.026Z" fill="#407BFF"/>
<path d="M197.9 131.493H190.203V129.31C190.203 129.167 190.26 129.031 190.36 128.93C190.461 128.829 190.598 128.773 190.74 128.773C190.811 128.772 190.881 128.785 190.947 128.812C191.012 128.838 191.072 128.878 191.122 128.928C191.172 128.978 191.212 129.037 191.238 129.103C191.265 129.169 191.278 129.239 191.277 129.31V130.419H196.826V124.87H195.716C195.646 124.871 195.575 124.858 195.51 124.831C195.444 124.805 195.385 124.765 195.334 124.715C195.284 124.665 195.245 124.606 195.218 124.54C195.192 124.474 195.178 124.404 195.179 124.333C195.179 124.191 195.236 124.054 195.337 123.954C195.437 123.853 195.574 123.796 195.716 123.796H197.864L197.9 131.493Z" fill="#407BFF"/>
<path d="M199.625 58.7336H185.82V63.3876H199.625V58.7336Z" fill="#407BFF"/>
<path d="M295.199 177.232C294.678 177.232 294.179 177.025 293.81 176.657C293.441 176.29 293.232 175.791 293.23 175.27V58.5617C293.23 58.3035 293.281 58.0478 293.38 57.8093C293.48 57.5708 293.625 57.3542 293.808 57.1719C293.991 56.9897 294.208 56.8453 294.446 56.7471C294.685 56.649 294.941 56.5989 295.199 56.5999C295.72 56.5999 296.219 56.8066 296.587 57.1745C296.955 57.5424 297.161 58.0414 297.161 58.5617V175.27C297.161 175.79 296.955 176.289 296.587 176.657C296.219 177.025 295.72 177.232 295.199 177.232Z" fill="#263238"/>
<path opacity="0.4" d="M295.199 177.232C294.678 177.232 294.179 177.025 293.81 176.657C293.441 176.29 293.232 175.791 293.23 175.27V58.5617C293.23 58.3035 293.281 58.0478 293.38 57.8093C293.48 57.5708 293.625 57.3542 293.808 57.1719C293.991 56.9897 294.208 56.8453 294.446 56.7471C294.685 56.649 294.941 56.5989 295.199 56.5999C295.72 56.5999 296.219 56.8066 296.587 57.1745C296.955 57.5424 297.161 58.0414 297.161 58.5617V175.27C297.161 175.79 296.955 176.289 296.587 176.657C296.219 177.025 295.72 177.232 295.199 177.232Z" fill="white"/>
<path opacity="0.4" d="M285.706 63.3875H208.02V98.2065H285.706V63.3875Z" fill="white"/>
<path d="M281.651 95.9943L247.734 80.7936L281.056 65.8579L280.763 65.2063L246.86 80.3998L212.958 65.2063L212.664 65.8579L245.98 80.7936L212.664 95.7222L212.958 96.3809L246.86 81.1874L281.357 96.6459L281.651 95.9943Z" fill="#407BFF"/>
<path opacity="0.4" d="M244.563 107.78H212.809V133.556H244.563V107.78Z" fill="white"/>
<path d="M243.079 131.88L229.253 120.668L242.828 109.648L242.377 109.09L228.687 120.202L214.99 109.09L214.539 109.648L228.114 120.668L214.539 131.687L214.99 132.238L228.687 121.126L242.628 132.439L243.079 131.88Z" fill="#407BFF"/>
<path opacity="0.4" d="M280.907 107.78H249.152V133.556H280.907V107.78Z" fill="white"/>
<path d="M279.419 131.88L265.601 120.668L279.176 109.648L278.725 109.09L265.028 120.202L251.338 109.09L250.887 109.648L264.462 120.668L250.887 131.687L251.338 132.238L265.028 121.126L278.968 132.439L279.419 131.88Z" fill="#407BFF"/>
<path d="M243.725 140.25H213.653C213.429 140.25 213.214 140.161 213.056 140.003C212.898 139.844 212.809 139.629 212.809 139.405C212.809 139.295 212.83 139.185 212.873 139.083C212.916 138.981 212.978 138.888 213.056 138.81C213.135 138.733 213.228 138.671 213.331 138.629C213.433 138.588 213.543 138.567 213.653 138.568H243.725C243.948 138.568 244.161 138.656 244.318 138.813C244.475 138.97 244.563 139.183 244.563 139.405C244.564 139.516 244.543 139.626 244.501 139.728C244.46 139.831 244.398 139.924 244.32 140.002C244.242 140.081 244.15 140.143 244.048 140.186C243.946 140.228 243.836 140.25 243.725 140.25Z" fill="#263238"/>
<path opacity="0.4" d="M243.725 140.25H213.653C213.429 140.25 213.214 140.161 213.056 140.003C212.898 139.844 212.809 139.629 212.809 139.405C212.809 139.295 212.83 139.185 212.873 139.083C212.916 138.981 212.978 138.888 213.056 138.81C213.135 138.733 213.228 138.671 213.331 138.629C213.433 138.588 213.543 138.567 213.653 138.568H243.725C243.948 138.568 244.161 138.656 244.318 138.813C244.475 138.97 244.563 139.183 244.563 139.405C244.564 139.516 244.543 139.626 244.501 139.728C244.46 139.831 244.398 139.924 244.32 140.002C244.242 140.081 244.15 140.143 244.048 140.186C243.946 140.228 243.836 140.25 243.725 140.25Z" fill="white"/>
<path d="M238.377 143.63H213.653C213.429 143.63 213.214 143.541 213.056 143.382C212.898 143.224 212.809 143.009 212.809 142.785C212.809 142.561 212.898 142.346 213.056 142.187C213.214 142.029 213.429 141.94 213.653 141.94H238.377C238.601 141.94 238.816 142.029 238.974 142.187C239.133 142.346 239.222 142.561 239.222 142.785C239.222 143.009 239.133 143.224 238.974 143.382C238.816 143.541 238.601 143.63 238.377 143.63Z" fill="#263238"/>
<path opacity="0.4" d="M238.377 143.63H213.653C213.429 143.63 213.214 143.541 213.056 143.382C212.898 143.224 212.809 143.009 212.809 142.785C212.809 142.561 212.898 142.346 213.056 142.187C213.214 142.029 213.429 141.94 213.653 141.94H238.377C238.601 141.94 238.816 142.029 238.974 142.187C239.133 142.346 239.222 142.561 239.222 142.785C239.222 143.009 239.133 143.224 238.974 143.382C238.816 143.541 238.601 143.63 238.377 143.63Z" fill="white"/>
<path d="M240.118 147.002H213.626C213.402 147.002 213.187 146.913 213.029 146.755C212.87 146.596 212.781 146.381 212.781 146.157C212.791 145.934 212.888 145.724 213.051 145.573C213.215 145.421 213.432 145.34 213.655 145.348H240.147C240.371 145.348 240.586 145.437 240.744 145.596C240.903 145.754 240.992 145.969 240.992 146.193C240.982 146.416 240.885 146.626 240.722 146.778C240.558 146.929 240.341 147.01 240.118 147.002Z" fill="#263238"/>
<path opacity="0.4" d="M240.118 147.002H213.626C213.402 147.002 213.187 146.913 213.029 146.755C212.87 146.596 212.781 146.381 212.781 146.157C212.791 145.934 212.888 145.724 213.051 145.573C213.215 145.421 213.432 145.34 213.655 145.348H240.147C240.371 145.348 240.586 145.437 240.744 145.596C240.903 145.754 240.992 145.969 240.992 146.193C240.982 146.416 240.885 146.626 240.722 146.778C240.558 146.929 240.341 147.01 240.118 147.002Z" fill="white"/>
<path d="M280.063 140.25H249.991C249.771 140.245 249.562 140.153 249.408 139.995C249.254 139.837 249.168 139.626 249.168 139.405C249.168 139.295 249.19 139.185 249.232 139.083C249.275 138.981 249.337 138.888 249.416 138.81C249.494 138.733 249.588 138.671 249.69 138.629C249.793 138.588 249.902 138.567 250.013 138.568H280.085C280.195 138.567 280.305 138.588 280.408 138.629C280.51 138.671 280.603 138.733 280.682 138.81C280.76 138.888 280.823 138.981 280.865 139.083C280.908 139.185 280.93 139.295 280.93 139.405C280.93 139.518 280.907 139.63 280.863 139.734C280.82 139.838 280.755 139.932 280.675 140.011C280.594 140.089 280.498 140.151 280.393 140.192C280.288 140.233 280.176 140.253 280.063 140.25Z" fill="#263238"/>
<path opacity="0.4" d="M280.063 140.25H249.991C249.771 140.245 249.562 140.153 249.408 139.995C249.254 139.837 249.168 139.626 249.168 139.405C249.168 139.295 249.19 139.185 249.232 139.083C249.275 138.981 249.337 138.888 249.416 138.81C249.494 138.733 249.588 138.671 249.69 138.629C249.793 138.588 249.902 138.567 250.013 138.568H280.085C280.195 138.567 280.305 138.588 280.408 138.629C280.51 138.671 280.603 138.733 280.682 138.81C280.76 138.888 280.823 138.981 280.865 139.083C280.908 139.185 280.93 139.295 280.93 139.405C280.93 139.518 280.907 139.63 280.863 139.734C280.82 139.838 280.755 139.932 280.675 140.011C280.594 140.089 280.498 140.151 280.393 140.192C280.288 140.233 280.176 140.253 280.063 140.25Z" fill="white"/>
<path d="M276.869 143.63H249.997C249.773 143.63 249.558 143.541 249.4 143.382C249.241 143.224 249.152 143.009 249.152 142.785C249.152 142.561 249.241 142.346 249.4 142.187C249.558 142.029 249.773 141.94 249.997 141.94H276.869C277.093 141.94 277.308 142.029 277.466 142.187C277.625 142.346 277.714 142.561 277.714 142.785C277.714 143.009 277.625 143.224 277.466 143.382C277.308 143.541 277.093 143.63 276.869 143.63Z" fill="#263238"/>
<path opacity="0.4" d="M276.869 143.63H249.997C249.773 143.63 249.558 143.541 249.4 143.382C249.241 143.224 249.152 143.009 249.152 142.785C249.152 142.561 249.241 142.346 249.4 142.187C249.558 142.029 249.773 141.94 249.997 141.94H276.869C277.093 141.94 277.308 142.029 277.466 142.187C277.625 142.346 277.714 142.561 277.714 142.785C277.714 143.009 277.625 143.224 277.466 143.382C277.308 143.541 277.093 143.63 276.869 143.63Z" fill="white"/>
<path d="M275.026 147.002H249.966C249.742 147.002 249.527 146.913 249.369 146.755C249.21 146.596 249.121 146.381 249.121 146.157C249.121 145.933 249.21 145.718 249.369 145.56C249.527 145.401 249.742 145.312 249.966 145.312H275.026C275.137 145.312 275.247 145.334 275.349 145.377C275.452 145.419 275.545 145.481 275.623 145.56C275.702 145.638 275.764 145.731 275.807 145.834C275.849 145.936 275.871 146.046 275.871 146.157C275.871 146.268 275.849 146.378 275.807 146.48C275.764 146.583 275.702 146.676 275.623 146.755C275.545 146.833 275.452 146.895 275.349 146.938C275.247 146.98 275.137 147.002 275.026 147.002Z" fill="#263238"/>
<path opacity="0.4" d="M275.026 147.002H249.966C249.742 147.002 249.527 146.913 249.369 146.755C249.21 146.596 249.121 146.381 249.121 146.157C249.121 145.933 249.21 145.718 249.369 145.56C249.527 145.401 249.742 145.312 249.966 145.312H275.026C275.137 145.312 275.247 145.334 275.349 145.377C275.452 145.419 275.545 145.481 275.623 145.56C275.702 145.638 275.764 145.731 275.807 145.834C275.849 145.936 275.871 146.046 275.871 146.157C275.871 146.268 275.849 146.378 275.807 146.48C275.764 146.583 275.702 146.676 275.623 146.755C275.545 146.833 275.452 146.895 275.349 146.938C275.247 146.98 275.137 147.002 275.026 147.002Z" fill="white"/>
<path d="M243.725 155.458H213.653C213.429 155.458 213.214 155.369 213.056 155.211C212.898 155.052 212.809 154.837 212.809 154.613C212.809 154.502 212.83 154.392 212.873 154.29C212.915 154.187 212.978 154.094 213.056 154.016C213.135 153.937 213.228 153.875 213.33 153.833C213.433 153.79 213.543 153.768 213.653 153.768H243.725C243.836 153.768 243.946 153.79 244.048 153.833C244.15 153.875 244.242 153.938 244.32 154.016C244.398 154.095 244.46 154.188 244.501 154.29C244.543 154.393 244.564 154.503 244.563 154.613C244.564 154.724 244.543 154.833 244.501 154.936C244.46 155.038 244.398 155.132 244.32 155.21C244.242 155.289 244.15 155.351 244.048 155.394C243.946 155.436 243.836 155.458 243.725 155.458Z" fill="#263238"/>
<path opacity="0.4" d="M243.725 155.458H213.653C213.429 155.458 213.214 155.369 213.056 155.211C212.898 155.052 212.809 154.837 212.809 154.613C212.809 154.502 212.83 154.392 212.873 154.29C212.915 154.187 212.978 154.094 213.056 154.016C213.135 153.937 213.228 153.875 213.33 153.833C213.433 153.79 213.543 153.768 213.653 153.768H243.725C243.836 153.768 243.946 153.79 244.048 153.833C244.15 153.875 244.242 153.938 244.32 154.016C244.398 154.095 244.46 154.188 244.501 154.29C244.543 154.393 244.564 154.503 244.563 154.613C244.564 154.724 244.543 154.833 244.501 154.936C244.46 155.038 244.398 155.132 244.32 155.21C244.242 155.289 244.15 155.351 244.048 155.394C243.946 155.436 243.836 155.458 243.725 155.458Z" fill="white"/>
<path d="M240.525 158.83H213.653C213.543 158.831 213.433 158.81 213.331 158.769C213.228 158.727 213.135 158.665 213.056 158.587C212.978 158.51 212.916 158.417 212.873 158.315C212.83 158.213 212.809 158.103 212.809 157.993C212.809 157.769 212.898 157.554 213.056 157.395C213.214 157.237 213.429 157.148 213.653 157.148H240.525C240.749 157.148 240.964 157.237 241.122 157.395C241.281 157.554 241.37 157.769 241.37 157.993C241.37 158.103 241.348 158.213 241.305 158.315C241.263 158.417 241.2 158.51 241.122 158.587C241.043 158.665 240.95 158.727 240.848 158.769C240.745 158.81 240.636 158.831 240.525 158.83Z" fill="#263238"/>
<path opacity="0.4" d="M240.525 158.83H213.653C213.543 158.831 213.433 158.81 213.331 158.769C213.228 158.727 213.135 158.665 213.056 158.587C212.978 158.51 212.916 158.417 212.873 158.315C212.83 158.213 212.809 158.103 212.809 157.993C212.809 157.769 212.898 157.554 213.056 157.395C213.214 157.237 213.429 157.148 213.653 157.148H240.525C240.749 157.148 240.964 157.237 241.122 157.395C241.281 157.554 241.37 157.769 241.37 157.993C241.37 158.103 241.348 158.213 241.305 158.315C241.263 158.417 241.2 158.51 241.122 158.587C241.043 158.665 240.95 158.727 240.848 158.769C240.745 158.81 240.636 158.831 240.525 158.83Z" fill="white"/>
<path d="M236.538 162.21H213.626C213.402 162.21 213.187 162.121 213.029 161.962C212.87 161.804 212.781 161.589 212.781 161.365C212.781 161.141 212.87 160.926 213.029 160.767C213.187 160.609 213.402 160.52 213.626 160.52H236.538C236.649 160.52 236.759 160.542 236.861 160.584C236.964 160.627 237.057 160.689 237.136 160.767C237.214 160.846 237.276 160.939 237.319 161.042C237.361 161.144 237.383 161.254 237.383 161.365C237.383 161.476 237.361 161.586 237.319 161.688C237.276 161.791 237.214 161.884 237.136 161.962C237.057 162.041 236.964 162.103 236.861 162.145C236.759 162.188 236.649 162.21 236.538 162.21Z" fill="#263238"/>
<path opacity="0.4" d="M236.538 162.21H213.626C213.402 162.21 213.187 162.121 213.029 161.962C212.87 161.804 212.781 161.589 212.781 161.365C212.781 161.141 212.87 160.926 213.029 160.767C213.187 160.609 213.402 160.52 213.626 160.52H236.538C236.649 160.52 236.759 160.542 236.861 160.584C236.964 160.627 237.057 160.689 237.136 160.767C237.214 160.846 237.276 160.939 237.319 161.042C237.361 161.144 237.383 161.254 237.383 161.365C237.383 161.476 237.361 161.586 237.319 161.688C237.276 161.791 237.214 161.884 237.136 161.962C237.057 162.041 236.964 162.103 236.861 162.145C236.759 162.188 236.649 162.21 236.538 162.21Z" fill="white"/>
<path d="M277.913 155.458H249.989C249.765 155.458 249.55 155.369 249.392 155.211C249.234 155.052 249.145 154.837 249.145 154.613C249.145 154.502 249.166 154.392 249.209 154.29C249.251 154.187 249.314 154.094 249.392 154.016C249.47 153.937 249.564 153.875 249.666 153.833C249.769 153.79 249.878 153.768 249.989 153.768H277.913C278.024 153.768 278.134 153.79 278.237 153.833C278.339 153.875 278.432 153.937 278.511 154.016C278.589 154.094 278.652 154.187 278.694 154.29C278.736 154.392 278.758 154.502 278.758 154.613C278.758 154.837 278.669 155.052 278.511 155.211C278.352 155.369 278.137 155.458 277.913 155.458Z" fill="#263238"/>
<path opacity="0.4" d="M277.913 155.458H249.989C249.765 155.458 249.55 155.369 249.392 155.211C249.234 155.052 249.145 154.837 249.145 154.613C249.145 154.502 249.166 154.392 249.209 154.29C249.251 154.187 249.314 154.094 249.392 154.016C249.47 153.937 249.564 153.875 249.666 153.833C249.769 153.79 249.878 153.768 249.989 153.768H277.913C278.024 153.768 278.134 153.79 278.237 153.833C278.339 153.875 278.432 153.937 278.511 154.016C278.589 154.094 278.652 154.187 278.694 154.29C278.736 154.392 278.758 154.502 278.758 154.613C278.758 154.837 278.669 155.052 278.511 155.211C278.352 155.369 278.137 155.458 277.913 155.458Z" fill="white"/>
<path d="M274.721 158.83H249.997C249.887 158.831 249.777 158.81 249.674 158.769C249.572 158.727 249.479 158.665 249.4 158.587C249.322 158.51 249.259 158.417 249.217 158.315C249.174 158.213 249.152 158.103 249.152 157.993C249.152 157.769 249.241 157.554 249.4 157.395C249.558 157.237 249.773 157.148 249.997 157.148H274.721C274.945 157.148 275.16 157.237 275.318 157.395C275.477 157.554 275.566 157.769 275.566 157.993C275.566 158.103 275.544 158.213 275.501 158.315C275.459 158.417 275.396 158.51 275.318 158.587C275.239 158.665 275.146 158.727 275.043 158.769C274.941 158.81 274.831 158.831 274.721 158.83Z" fill="#263238"/>
<path opacity="0.4" d="M274.721 158.83H249.997C249.887 158.831 249.777 158.81 249.674 158.769C249.572 158.727 249.479 158.665 249.4 158.587C249.322 158.51 249.259 158.417 249.217 158.315C249.174 158.213 249.152 158.103 249.152 157.993C249.152 157.769 249.241 157.554 249.4 157.395C249.558 157.237 249.773 157.148 249.997 157.148H274.721C274.945 157.148 275.16 157.237 275.318 157.395C275.477 157.554 275.566 157.769 275.566 157.993C275.566 158.103 275.544 158.213 275.501 158.315C275.459 158.417 275.396 158.51 275.318 158.587C275.239 158.665 275.146 158.727 275.043 158.769C274.941 158.81 274.831 158.831 274.721 158.83Z" fill="white"/>
<path d="M275.026 162.21H249.966C249.742 162.21 249.527 162.121 249.369 161.962C249.21 161.804 249.121 161.589 249.121 161.365C249.121 161.141 249.21 160.926 249.369 160.767C249.527 160.609 249.742 160.52 249.966 160.52H275.026C275.137 160.52 275.247 160.542 275.349 160.584C275.452 160.627 275.545 160.689 275.623 160.767C275.702 160.846 275.764 160.939 275.807 161.042C275.849 161.144 275.871 161.254 275.871 161.365C275.871 161.476 275.849 161.586 275.807 161.688C275.764 161.791 275.702 161.884 275.623 161.962C275.545 162.041 275.452 162.103 275.349 162.145C275.247 162.188 275.137 162.21 275.026 162.21Z" fill="#263238"/>
<path opacity="0.4" d="M275.026 162.21H249.966C249.742 162.21 249.527 162.121 249.369 161.962C249.21 161.804 249.121 161.589 249.121 161.365C249.121 161.141 249.21 160.926 249.369 160.767C249.527 160.609 249.742 160.52 249.966 160.52H275.026C275.137 160.52 275.247 160.542 275.349 160.584C275.452 160.627 275.545 160.689 275.623 160.767C275.702 160.846 275.764 160.939 275.807 161.042C275.849 161.144 275.871 161.254 275.871 161.365C275.871 161.476 275.849 161.586 275.807 161.688C275.764 161.791 275.702 161.884 275.623 161.962C275.545 162.041 275.452 162.103 275.349 162.145C275.247 162.188 275.137 162.21 275.026 162.21Z" fill="white"/>
<path opacity="0.4" d="M295.199 159.131C295.018 159.131 294.84 159.095 294.673 159.026C294.506 158.957 294.355 158.856 294.227 158.728C294.099 158.601 293.998 158.449 293.929 158.282C293.86 158.116 293.824 157.937 293.824 157.756V149.78C293.824 149.415 293.969 149.066 294.227 148.808C294.485 148.55 294.834 148.405 295.199 148.405C295.379 148.405 295.558 148.441 295.724 148.51C295.89 148.579 296.041 148.681 296.169 148.808C296.296 148.936 296.396 149.088 296.464 149.254C296.533 149.421 296.567 149.6 296.567 149.78V157.756C296.567 157.936 296.533 158.115 296.464 158.282C296.396 158.449 296.296 158.6 296.169 158.728C296.041 158.856 295.89 158.957 295.724 159.026C295.558 159.095 295.379 159.131 295.199 159.131Z" fill="white"/>
<path d="M232.481 127.648H64.7219C62.8722 127.647 61.0972 128.378 59.786 129.683C58.4747 130.987 57.7341 132.758 57.7266 134.608V240.934C57.7266 241.852 57.9076 242.762 58.2592 243.61C58.6108 244.458 59.1262 245.229 59.7759 245.878C60.4255 246.527 61.1968 247.041 62.0454 247.392C62.8941 247.743 63.8036 247.923 64.7219 247.922H86.9823V244.514C86.9897 244.04 87.1817 243.588 87.5173 243.254C87.853 242.92 88.3058 242.729 88.7795 242.724H208.351C208.832 242.724 209.293 242.915 209.632 243.255C209.972 243.594 210.163 244.055 210.163 244.535V247.944H232.431C234.284 247.944 236.061 247.207 237.372 245.897C238.682 244.586 239.419 242.809 239.419 240.955V134.608C239.411 132.768 238.679 131.006 237.38 129.703C236.081 128.4 234.32 127.662 232.481 127.648Z" fill="#263238"/>
<path d="M150.071 132.224C150.071 132.517 149.983 132.804 149.819 133.047C149.655 133.291 149.422 133.48 149.15 133.59C148.878 133.7 148.579 133.727 148.292 133.666C148.005 133.606 147.742 133.461 147.538 133.25C147.333 133.04 147.196 132.773 147.144 132.484C147.092 132.195 147.128 131.897 147.246 131.629C147.364 131.36 147.56 131.133 147.808 130.976C148.056 130.819 148.346 130.74 148.639 130.749C149.023 130.758 149.389 130.918 149.656 131.194C149.924 131.469 150.073 131.839 150.071 132.224Z" fill="#407BFF"/>
<path d="M253.198 245.302H44.0039V250.535H253.198V245.302Z" fill="#263238"/>
<path opacity="0.5" d="M253.198 245.302H44.0039V250.535H253.198V245.302Z" fill="white"/>
<path d="M44.0039 250.543L47.2545 253.135C49.3895 254.845 52.0439 255.777 54.7797 255.777H242.436C245.172 255.777 247.826 254.845 249.961 253.135L253.198 250.543H44.0039Z" fill="#263238"/>
<path opacity="0.3" d="M44.0039 250.543L47.2545 253.135C49.3895 254.845 52.0439 255.777 54.7797 255.777H242.436C245.172 255.777 247.826 254.845 249.961 253.135L253.198 250.543H44.0039Z" fill="white"/>
<path opacity="0.4" d="M128.5 245.473C128.5 246.123 128.758 246.746 129.217 247.205C129.676 247.664 130.299 247.922 130.949 247.922H166.255C166.904 247.922 167.527 247.664 167.986 247.205C168.445 246.746 168.703 246.123 168.703 245.473C168.703 245.416 168.703 245.359 168.703 245.302H128.514C128.514 245.359 128.5 245.416 128.5 245.473Z" fill="white"/>
<path d="M231.302 137.128H65.9062V231.268H231.302V137.128Z" fill="#407BFF"/>
<path opacity="0.6" d="M231.302 137.128H65.9062V231.268H231.302V137.128Z" fill="white"/>
<path d="M231.302 137.128H65.9062V148.462H231.302V137.128Z" fill="#407BFF"/>
<path opacity="0.8" d="M138.902 145.62H74.8132C74.0764 145.62 73.3698 145.327 72.8488 144.806C72.3278 144.285 72.0352 143.579 72.0352 142.842C72.0352 142.105 72.3278 141.399 72.8488 140.878C73.3698 140.357 74.0764 140.064 74.8132 140.064H138.902C139.639 140.064 140.346 140.357 140.867 140.878C141.388 141.399 141.68 142.105 141.68 142.842C141.68 143.579 141.388 144.285 140.867 144.806C140.346 145.327 139.639 145.62 138.902 145.62Z" fill="white"/>
<path opacity="0.8" d="M225.005 142.842C225.005 143.392 224.842 143.929 224.537 144.385C224.232 144.842 223.798 145.198 223.29 145.409C222.783 145.619 222.224 145.674 221.685 145.567C221.146 145.46 220.651 145.195 220.263 144.806C219.874 144.418 219.61 143.923 219.503 143.384C219.395 142.845 219.45 142.287 219.661 141.779C219.871 141.271 220.227 140.837 220.684 140.532C221.141 140.227 221.678 140.064 222.227 140.064C222.592 140.063 222.954 140.134 223.292 140.274C223.629 140.413 223.936 140.617 224.194 140.876C224.452 141.134 224.657 141.44 224.796 141.778C224.935 142.115 225.006 142.477 225.005 142.842Z" fill="white"/>
<path opacity="0.6" d="M212.591 145.62C214.125 145.62 215.369 144.376 215.369 142.842C215.369 141.308 214.125 140.064 212.591 140.064C211.056 140.064 209.812 141.308 209.812 142.842C209.812 144.376 211.056 145.62 212.591 145.62Z" fill="white"/>
<path opacity="0.4" d="M202.95 145.62C204.484 145.62 205.728 144.376 205.728 142.842C205.728 141.308 204.484 140.064 202.95 140.064C201.416 140.064 200.172 141.308 200.172 142.842C200.172 144.376 201.416 145.62 202.95 145.62Z" fill="white"/>
<path d="M225.009 159.296H72.0352V212.96H225.009V159.296Z" fill="#407BFF"/>
<path d="M86.6836 212.96L116.04 183.604C116.403 183.24 116.835 182.951 117.311 182.754C117.786 182.557 118.296 182.455 118.811 182.455C119.325 182.455 119.835 182.557 120.31 182.754C120.786 182.951 121.218 183.24 121.581 183.604L150.937 212.96H86.6836Z" fill="#407BFF"/>
<path opacity="0.3" d="M86.6836 212.96L116.04 183.604C116.403 183.24 116.835 182.951 117.311 182.754C117.786 182.557 118.296 182.455 118.811 182.455C119.325 182.455 119.835 182.557 120.31 182.754C120.786 182.951 121.218 183.24 121.581 183.604L150.937 212.96H86.6836Z" fill="black"/>
<path d="M121.584 183.604C121.055 183.075 120.385 182.709 119.654 182.551C118.923 182.392 118.161 182.447 117.46 182.709C117.46 185.107 122.931 187.098 122.931 189.504C122.931 191.909 117.453 193.907 117.453 196.313C117.453 198.719 127.477 200.709 127.477 203.115C127.477 205.521 117.453 207.511 117.453 209.917C117.453 210.776 118.534 211.879 119.945 212.96H150.94L121.584 183.604Z" fill="#407BFF"/>
<path opacity="0.4" d="M121.584 183.604C121.055 183.075 120.385 182.709 119.654 182.551C118.923 182.392 118.161 182.447 117.46 182.709C117.46 185.107 122.931 187.098 122.931 189.504C122.931 191.909 117.453 193.907 117.453 196.313C117.453 198.719 127.477 200.709 127.477 203.115C127.477 205.521 117.453 207.511 117.453 209.917C117.453 210.776 118.534 211.879 119.945 212.96H150.94L121.584 183.604Z" fill="white"/>
<path d="M138.816 212.96L176.85 174.897C177.802 173.953 179.089 173.423 180.43 173.423C181.771 173.423 183.058 173.953 184.01 174.897L222.073 212.96H138.816Z" fill="#407BFF"/>
<path opacity="0.3" d="M138.816 212.96L176.85 174.897C177.802 173.953 179.089 173.423 180.43 173.423C181.771 173.423 183.058 173.953 184.01 174.897L222.073 212.96H138.816Z" fill="black"/>
<path d="M184.071 174.897C183.383 174.21 182.513 173.736 181.563 173.53C180.614 173.324 179.625 173.396 178.715 173.737C178.715 176.852 185.818 179.465 185.818 182.544C185.818 185.623 178.715 188.272 178.715 191.372C178.715 194.473 191.746 197.1 191.746 200.194C191.746 203.287 178.715 205.922 178.715 209.015C178.715 210.132 180.147 211.564 181.944 212.96H222.133L184.071 174.897Z" fill="#407BFF"/>
<path opacity="0.4" d="M184.071 174.897C183.383 174.21 182.513 173.736 181.563 173.53C180.614 173.324 179.625 173.396 178.715 173.737C178.715 176.852 185.818 179.465 185.818 182.544C185.818 185.623 178.715 188.272 178.715 191.372C178.715 194.473 191.746 197.1 191.746 200.194C191.746 203.287 178.715 205.922 178.715 209.015C178.715 210.132 180.147 211.564 181.944 212.96H222.133L184.071 174.897Z" fill="white"/>
<path opacity="0.5" d="M149.14 155.429H132.8C132.564 155.43 132.329 155.384 132.11 155.295C131.892 155.205 131.693 155.072 131.525 154.905C131.357 154.738 131.224 154.54 131.134 154.322C131.043 154.103 130.996 153.869 130.996 153.632C130.996 153.396 131.043 153.161 131.134 152.943C131.224 152.724 131.357 152.526 131.525 152.359C131.693 152.192 131.892 152.06 132.11 151.97C132.329 151.88 132.564 151.834 132.8 151.835H149.14C149.616 151.835 150.073 152.024 150.41 152.361C150.747 152.698 150.937 153.156 150.937 153.632C150.937 154.109 150.747 154.566 150.41 154.903C150.073 155.24 149.616 155.429 149.14 155.429Z" fill="white"/>
<path d="M173.987 155.429H157.641C157.164 155.429 156.707 155.24 156.37 154.903C156.033 154.566 155.844 154.109 155.844 153.632C155.844 153.155 156.033 152.698 156.37 152.361C156.707 152.024 157.164 151.835 157.641 151.835H173.987C174.464 151.835 174.921 152.024 175.258 152.361C175.595 152.698 175.784 153.155 175.784 153.632C175.784 154.109 175.595 154.566 175.258 154.903C174.921 155.24 174.464 155.429 173.987 155.429Z" fill="#407BFF"/>
<path opacity="0.5" d="M198.824 155.429H182.485C182.008 155.429 181.551 155.24 181.214 154.903C180.877 154.566 180.688 154.109 180.688 153.632C180.688 153.155 180.877 152.698 181.214 152.361C181.551 152.024 182.008 151.835 182.485 151.835H198.824C199.3 151.835 199.758 152.024 200.095 152.361C200.432 152.698 200.621 153.155 200.621 153.632C200.621 154.109 200.432 154.566 200.095 154.903C199.758 155.24 199.3 155.429 198.824 155.429Z" fill="white"/>
<path d="M174.501 220.864H146.577C146.22 220.864 145.877 220.723 145.625 220.47C145.372 220.218 145.23 219.875 145.23 219.518C145.23 219.161 145.372 218.817 145.624 218.564C145.877 218.31 146.219 218.167 146.577 218.165H174.501C174.858 218.167 175.201 218.31 175.453 218.564C175.705 218.817 175.847 219.161 175.847 219.518C175.847 219.875 175.705 220.218 175.452 220.47C175.2 220.723 174.858 220.864 174.501 220.864Z" fill="#263238"/>
<path d="M195.469 220.864H179.58C179.223 220.864 178.881 220.723 178.629 220.47C178.376 220.218 178.234 219.875 178.234 219.518C178.234 219.161 178.376 218.817 178.628 218.564C178.88 218.31 179.223 218.167 179.58 218.165H195.469C195.826 218.167 196.169 218.31 196.421 218.564C196.673 218.817 196.815 219.161 196.815 219.518C196.815 219.875 196.673 220.218 196.42 220.47C196.168 220.723 195.826 220.864 195.469 220.864Z" fill="#263238"/>
<path d="M167.391 226.872H146.627C146.27 226.87 145.927 226.726 145.675 226.473C145.423 226.219 145.281 225.876 145.281 225.518C145.281 225.161 145.423 224.819 145.676 224.567C145.928 224.314 146.27 224.172 146.627 224.172H167.391C167.748 224.172 168.091 224.314 168.343 224.567C168.596 224.819 168.737 225.161 168.737 225.518C168.737 225.876 168.596 226.219 168.344 226.473C168.091 226.726 167.749 226.87 167.391 226.872Z" fill="#263238"/>
<path d="M186.872 226.872H172.287C171.93 226.87 171.587 226.726 171.335 226.473C171.083 226.219 170.941 225.876 170.941 225.518C170.941 225.161 171.083 224.819 171.336 224.567C171.588 224.314 171.93 224.172 172.287 224.172H186.872C187.229 224.172 187.572 224.314 187.824 224.567C188.077 224.819 188.218 225.161 188.218 225.518C188.218 225.876 188.077 226.219 187.825 226.473C187.572 226.726 187.23 226.87 186.872 226.872Z" fill="#263238"/>
<path opacity="0.4" d="M174.501 220.864H146.577C146.22 220.864 145.877 220.723 145.625 220.47C145.372 220.218 145.23 219.875 145.23 219.518C145.23 219.161 145.372 218.817 145.624 218.564C145.877 218.31 146.219 218.167 146.577 218.165H174.501C174.858 218.167 175.201 218.31 175.453 218.564C175.705 218.817 175.847 219.161 175.847 219.518C175.847 219.875 175.705 220.218 175.452 220.47C175.2 220.723 174.858 220.864 174.501 220.864Z" fill="white"/>
<path opacity="0.4" d="M195.469 220.864H179.58C179.223 220.864 178.881 220.723 178.629 220.47C178.376 220.218 178.234 219.875 178.234 219.518C178.234 219.161 178.376 218.817 178.628 218.564C178.88 218.31 179.223 218.167 179.58 218.165H195.469C195.826 218.167 196.169 218.31 196.421 218.564C196.673 218.817 196.815 219.161 196.815 219.518C196.815 219.875 196.673 220.218 196.42 220.47C196.168 220.723 195.826 220.864 195.469 220.864Z" fill="white"/>
<path opacity="0.4" d="M167.391 226.872H146.627C146.27 226.87 145.927 226.726 145.675 226.473C145.423 226.219 145.281 225.876 145.281 225.518C145.281 225.161 145.423 224.819 145.676 224.567C145.928 224.314 146.27 224.172 146.627 224.172H167.391C167.748 224.172 168.091 224.314 168.343 224.567C168.596 224.819 168.737 225.161 168.737 225.518C168.737 225.876 168.596 226.219 168.344 226.473C168.091 226.726 167.749 226.87 167.391 226.872Z" fill="white"/>
<path opacity="0.4" d="M186.872 226.872H172.287C171.93 226.87 171.587 226.726 171.335 226.473C171.083 226.219 170.941 225.876 170.941 225.518C170.941 225.161 171.083 224.819 171.336 224.567C171.588 224.314 171.93 224.172 172.287 224.172H186.872C187.229 224.172 187.572 224.314 187.824 224.567C188.077 224.819 188.218 225.161 188.218 225.518C188.218 225.876 188.077 226.219 187.825 226.473C187.572 226.726 187.23 226.87 186.872 226.872Z" fill="white"/>
<path opacity="0.5" d="M223.671 155.429H207.325C206.848 155.429 206.391 155.24 206.054 154.903C205.717 154.566 205.527 154.109 205.527 153.632C205.527 153.155 205.717 152.698 206.054 152.361C206.391 152.024 206.848 151.835 207.325 151.835H223.671C224.147 151.835 224.605 152.024 224.942 152.361C225.279 152.698 225.468 153.155 225.468 153.632C225.468 154.109 225.279 154.566 224.942 154.903C224.605 155.24 224.147 155.429 223.671 155.429Z" fill="white"/>
<path d="M138.23 187.785H85.9336V231.261H138.23V187.785Z" fill="#407BFF"/>
<path opacity="0.8" d="M138.23 187.785H85.9336V231.261H138.23V187.785Z" fill="white"/>
<path d="M128.655 192.69H95.5117V214.478H128.655V192.69Z" fill="#407BFF"/>
<path opacity="0.4" d="M128.655 192.69H95.5117V214.478H128.655V192.69Z" fill="white"/>
<path d="M106.847 204.575L96.9375 214.485H116.756L106.847 204.575Z" fill="#407BFF"/>
<path opacity="0.2" d="M106.847 204.575L96.9375 214.485H116.756L106.847 204.575Z" fill="black"/>
<path d="M128.321 214.485L118.483 197.702L108.652 214.485H128.321Z" fill="#407BFF"/>
<path opacity="0.8" d="M111.454 199.664C111.454 200.057 111.337 200.442 111.118 200.769C110.899 201.097 110.589 201.352 110.225 201.503C109.861 201.653 109.461 201.693 109.075 201.616C108.689 201.539 108.334 201.349 108.056 201.071C107.777 200.793 107.588 200.438 107.511 200.052C107.434 199.666 107.474 199.266 107.624 198.902C107.775 198.538 108.03 198.227 108.357 198.009C108.685 197.79 109.069 197.673 109.463 197.673C109.725 197.672 109.984 197.723 110.226 197.823C110.468 197.922 110.688 198.069 110.873 198.254C111.058 198.439 111.204 198.659 111.304 198.901C111.404 199.143 111.455 199.402 111.454 199.664Z" fill="white"/>
<path d="M212.308 168.017H211.592C211.592 167.54 211.402 167.083 211.065 166.746C210.728 166.409 210.271 166.219 209.794 166.219H208.649C208.65 165.983 208.604 165.748 208.514 165.529C208.424 165.311 208.292 165.112 208.125 164.944C207.958 164.776 207.76 164.643 207.541 164.553C207.323 164.462 207.088 164.415 206.852 164.415H195.797C195.56 164.415 195.326 164.462 195.107 164.553C194.889 164.643 194.69 164.776 194.523 164.944C194.356 165.112 194.224 165.311 194.134 165.529C194.044 165.748 193.999 165.983 193.999 166.219H192.854C192.377 166.219 191.92 166.409 191.583 166.746C191.246 167.083 191.057 167.54 191.057 168.017H187.348C186.901 168.057 186.485 168.262 186.182 168.594C185.879 168.925 185.711 169.358 185.711 169.807C185.711 170.255 185.879 170.688 186.182 171.019C186.485 171.351 186.901 171.556 187.348 171.597H212.308C212.755 171.556 213.171 171.351 213.474 171.019C213.777 170.688 213.944 170.255 213.944 169.807C213.944 169.358 213.777 168.925 213.474 168.594C213.171 168.262 212.755 168.057 212.308 168.017Z" fill="#407BFF"/>
<path opacity="0.8" d="M212.308 168.017H211.592C211.592 167.54 211.402 167.083 211.065 166.746C210.728 166.409 210.271 166.219 209.794 166.219H208.649C208.65 165.983 208.604 165.748 208.514 165.529C208.424 165.311 208.292 165.112 208.125 164.944C207.958 164.776 207.76 164.643 207.541 164.553C207.323 164.462 207.088 164.415 206.852 164.415H195.797C195.56 164.415 195.326 164.462 195.107 164.553C194.889 164.643 194.69 164.776 194.523 164.944C194.356 165.112 194.224 165.311 194.134 165.529C194.044 165.748 193.999 165.983 193.999 166.219H192.854C192.377 166.219 191.92 166.409 191.583 166.746C191.246 167.083 191.057 167.54 191.057 168.017H187.348C186.901 168.057 186.485 168.262 186.182 168.594C185.879 168.925 185.711 169.358 185.711 169.807C185.711 170.255 185.879 170.688 186.182 171.019C186.485 171.351 186.901 171.556 187.348 171.597H212.308C212.755 171.556 213.171 171.351 213.474 171.019C213.777 170.688 213.944 170.255 213.944 169.807C213.944 169.358 213.777 168.925 213.474 168.594C213.171 168.262 212.755 168.057 212.308 168.017Z" fill="white"/>
<path d="M118.991 181.348H118.368C118.368 180.946 118.208 180.56 117.923 180.275C117.639 179.99 117.253 179.83 116.85 179.83H115.883C115.883 179.428 115.723 179.042 115.439 178.757C115.154 178.472 114.768 178.312 114.365 178.312H111.122C110.719 178.313 110.333 178.472 110.049 178.757C109.764 179.042 109.604 179.428 109.604 179.83H108.637C108.438 179.83 108.241 179.87 108.058 179.946C107.874 180.022 107.707 180.134 107.567 180.275C107.426 180.416 107.315 180.584 107.24 180.768C107.164 180.952 107.126 181.149 107.127 181.348H103.991C103.588 181.348 103.202 181.508 102.917 181.793C102.633 182.078 102.473 182.464 102.473 182.866C102.473 183.269 102.633 183.655 102.917 183.94C103.202 184.224 103.588 184.384 103.991 184.384H118.991C119.393 184.384 119.779 184.224 120.064 183.94C120.349 183.655 120.509 183.269 120.509 182.866C120.509 182.464 120.349 182.078 120.064 181.793C119.779 181.508 119.393 181.348 118.991 181.348Z" fill="#407BFF"/>
<path opacity="0.8" d="M118.991 181.348H118.368C118.368 180.946 118.208 180.56 117.923 180.275C117.639 179.99 117.253 179.83 116.85 179.83H115.883C115.883 179.428 115.723 179.042 115.439 178.757C115.154 178.472 114.768 178.312 114.365 178.312H111.122C110.719 178.313 110.333 178.472 110.049 178.757C109.764 179.042 109.604 179.428 109.604 179.83H108.637C108.438 179.83 108.241 179.87 108.058 179.946C107.874 180.022 107.707 180.134 107.567 180.275C107.426 180.416 107.315 180.584 107.24 180.768C107.164 180.952 107.126 181.149 107.127 181.348H103.991C103.588 181.348 103.202 181.508 102.917 181.793C102.633 182.078 102.473 182.464 102.473 182.866C102.473 183.269 102.633 183.655 102.917 183.94C103.202 184.224 103.588 184.384 103.991 184.384H118.991C119.393 184.384 119.779 184.224 120.064 183.94C120.349 183.655 120.509 183.269 120.509 182.866C120.509 182.464 120.349 182.078 120.064 181.793C119.779 181.508 119.393 181.348 118.991 181.348Z" fill="white"/>
<path d="M170.829 186.16H170.113C170.113 185.683 169.923 185.226 169.586 184.889C169.249 184.552 168.792 184.363 168.315 184.363H167.17C167.168 184.046 167.084 183.735 166.926 183.461C167.085 183.188 167.17 182.878 167.17 182.563C167.171 182.247 167.088 181.937 166.931 181.664C166.773 181.39 166.546 181.164 166.272 181.007C165.999 180.849 165.688 180.767 165.373 180.769H161.535C161.058 180.769 160.601 180.958 160.264 181.295C159.927 181.632 159.738 182.089 159.738 182.566H158.234C157.757 182.566 157.3 182.755 156.963 183.092C156.626 183.429 156.437 183.886 156.437 184.363H155.299C155.062 184.362 154.827 184.408 154.609 184.498C154.39 184.588 154.191 184.72 154.023 184.887C153.855 185.054 153.722 185.252 153.632 185.471C153.541 185.689 153.494 185.923 153.494 186.16H149.785C149.338 186.2 148.922 186.406 148.619 186.737C148.316 187.069 148.148 187.501 148.148 187.95C148.148 188.399 148.316 188.832 148.619 189.163C148.922 189.494 149.338 189.7 149.785 189.74H170.821C171.269 189.7 171.684 189.494 171.987 189.163C172.29 188.832 172.458 188.399 172.458 187.95C172.458 187.501 172.29 187.069 171.987 186.737C171.684 186.406 171.269 186.2 170.821 186.16H170.829Z" fill="#407BFF"/>
<path opacity="0.8" d="M170.829 186.16H170.113C170.113 185.683 169.923 185.226 169.586 184.889C169.249 184.552 168.792 184.363 168.315 184.363H167.17C167.168 184.046 167.084 183.735 166.926 183.461C167.085 183.188 167.17 182.878 167.17 182.563C167.171 182.247 167.088 181.937 166.931 181.664C166.773 181.39 166.546 181.164 166.272 181.007C165.999 180.849 165.688 180.767 165.373 180.769H161.535C161.058 180.769 160.601 180.958 160.264 181.295C159.927 181.632 159.738 182.089 159.738 182.566H158.234C157.757 182.566 157.3 182.755 156.963 183.092C156.626 183.429 156.437 183.886 156.437 184.363H155.299C155.062 184.362 154.827 184.408 154.609 184.498C154.39 184.588 154.191 184.72 154.023 184.887C153.855 185.054 153.722 185.252 153.632 185.471C153.541 185.689 153.494 185.923 153.494 186.16H149.785C149.338 186.2 148.922 186.406 148.619 186.737C148.316 187.069 148.148 187.501 148.148 187.95C148.148 188.399 148.316 188.832 148.619 189.163C148.922 189.494 149.338 189.7 149.785 189.74H170.821C171.269 189.7 171.684 189.494 171.987 189.163C172.29 188.832 172.458 188.399 172.458 187.95C172.458 187.501 172.29 187.069 171.987 186.737C171.684 186.406 171.269 186.2 170.821 186.16H170.829Z" fill="white"/>
<path d="M126.353 219.704H96.2811C96.1799 219.705 96.0795 219.686 95.9857 219.648C95.8919 219.61 95.8066 219.554 95.7347 219.483C95.6628 219.411 95.6058 219.327 95.5668 219.233C95.5279 219.14 95.5078 219.04 95.5078 218.938C95.5078 218.733 95.5893 218.537 95.7343 218.392C95.8793 218.247 96.076 218.165 96.2811 218.165H126.353C126.455 218.165 126.555 218.185 126.649 218.224C126.743 218.263 126.828 218.32 126.9 218.392C126.972 218.463 127.029 218.549 127.068 218.642C127.106 218.736 127.126 218.837 127.126 218.938C127.126 219.04 127.106 219.14 127.067 219.233C127.028 219.327 126.971 219.411 126.899 219.483C126.828 219.554 126.742 219.61 126.648 219.648C126.555 219.686 126.454 219.705 126.353 219.704Z" fill="#263238"/>
<path opacity="0.4" d="M126.353 219.704H96.2811C96.1799 219.705 96.0795 219.686 95.9857 219.648C95.8919 219.61 95.8066 219.554 95.7347 219.483C95.6628 219.411 95.6058 219.327 95.5668 219.233C95.5279 219.14 95.5078 219.04 95.5078 218.938C95.5078 218.733 95.5893 218.537 95.7343 218.392C95.8793 218.247 96.076 218.165 96.2811 218.165H126.353C126.455 218.165 126.555 218.185 126.649 218.224C126.743 218.263 126.828 218.32 126.9 218.392C126.972 218.463 127.029 218.549 127.068 218.642C127.106 218.736 127.126 218.837 127.126 218.938C127.126 219.04 127.106 219.14 127.067 219.233C127.028 219.327 126.971 219.411 126.899 219.483C126.828 219.554 126.742 219.61 126.648 219.648C126.555 219.686 126.454 219.705 126.353 219.704Z" fill="white"/>
<path d="M121.474 222.79H96.285C96.1835 222.79 96.0829 222.77 95.9891 222.732C95.8953 222.693 95.81 222.636 95.7382 222.564C95.6664 222.492 95.6094 222.407 95.5706 222.313C95.5317 222.219 95.5117 222.119 95.5117 222.017C95.5117 221.916 95.5318 221.816 95.5707 221.722C95.6097 221.629 95.6667 221.544 95.7386 221.473C95.8105 221.402 95.8958 221.345 95.9896 221.307C96.0834 221.269 96.1838 221.25 96.285 221.251H121.474C121.677 221.251 121.872 221.332 122.016 221.475C122.159 221.619 122.24 221.814 122.24 222.017C122.241 222.118 122.222 222.219 122.184 222.313C122.146 222.406 122.089 222.492 122.018 222.563C121.947 222.635 121.862 222.692 121.769 222.731C121.675 222.77 121.575 222.79 121.474 222.79Z" fill="#263238"/>
<path opacity="0.4" d="M121.474 222.79H96.285C96.1835 222.79 96.0829 222.77 95.9891 222.732C95.8953 222.693 95.81 222.636 95.7382 222.564C95.6664 222.492 95.6094 222.407 95.5706 222.313C95.5317 222.219 95.5117 222.119 95.5117 222.017C95.5117 221.916 95.5318 221.816 95.5707 221.722C95.6097 221.629 95.6667 221.544 95.7386 221.473C95.8105 221.402 95.8958 221.345 95.9896 221.307C96.0834 221.269 96.1838 221.25 96.285 221.251H121.474C121.677 221.251 121.872 221.332 122.016 221.475C122.159 221.619 122.24 221.814 122.24 222.017C122.241 222.118 122.222 222.219 122.184 222.313C122.146 222.406 122.089 222.492 122.018 222.563C121.947 222.635 121.862 222.692 121.769 222.731C121.675 222.77 121.575 222.79 121.474 222.79Z" fill="white"/>
<path d="M123.063 225.869H96.285C96.1838 225.87 96.0834 225.851 95.9896 225.813C95.8958 225.775 95.8105 225.719 95.7386 225.647C95.6667 225.576 95.6097 225.491 95.5707 225.398C95.5318 225.305 95.5117 225.204 95.5117 225.103C95.5117 225.002 95.5317 224.901 95.5706 224.807C95.6094 224.713 95.6664 224.628 95.7382 224.556C95.81 224.485 95.8953 224.428 95.9891 224.389C96.0829 224.35 96.1835 224.33 96.285 224.33H123.063C123.165 224.33 123.265 224.35 123.358 224.389C123.452 224.428 123.536 224.485 123.608 224.557C123.679 224.629 123.735 224.714 123.773 224.808C123.811 224.902 123.83 225.002 123.83 225.103C123.83 225.306 123.749 225.501 123.605 225.645C123.461 225.789 123.267 225.869 123.063 225.869Z" fill="#263238"/>
<path opacity="0.4" d="M123.063 225.869H96.285C96.1838 225.87 96.0834 225.851 95.9896 225.813C95.8958 225.775 95.8105 225.719 95.7386 225.647C95.6667 225.576 95.6097 225.491 95.5707 225.398C95.5318 225.305 95.5117 225.204 95.5117 225.103C95.5117 225.002 95.5317 224.901 95.5706 224.807C95.6094 224.713 95.6664 224.628 95.7382 224.556C95.81 224.485 95.8953 224.428 95.9891 224.389C96.0829 224.35 96.1835 224.33 96.285 224.33H123.063C123.165 224.33 123.265 224.35 123.358 224.389C123.452 224.428 123.536 224.485 123.608 224.557C123.679 224.629 123.735 224.714 123.773 224.808C123.811 224.902 123.83 225.002 123.83 225.103C123.83 225.306 123.749 225.501 123.605 225.645C123.461 225.789 123.267 225.869 123.063 225.869Z" fill="white"/>
<path d="M107.192 141.167C106.92 140.92 106.562 140.788 106.195 140.798C105.828 140.808 105.478 140.958 105.218 141.219C104.959 141.479 104.81 141.829 104.801 142.197C104.793 142.564 104.926 142.921 105.173 143.193C105.41 143.428 105.721 143.573 106.053 143.603C106.385 143.633 106.717 143.546 106.992 143.357C106.999 143.432 107.029 143.502 107.078 143.558L108.044 144.517C108.076 144.549 108.113 144.574 108.155 144.591C108.196 144.608 108.24 144.617 108.284 144.617C108.329 144.617 108.373 144.608 108.414 144.591C108.455 144.574 108.493 144.549 108.524 144.517C108.556 144.486 108.581 144.449 108.598 144.407C108.615 144.366 108.624 144.322 108.624 144.278C108.624 144.233 108.615 144.189 108.598 144.148C108.581 144.107 108.556 144.069 108.524 144.038L107.565 143.071C107.509 143.022 107.438 142.992 107.364 142.985C107.552 142.709 107.637 142.377 107.606 142.045C107.575 141.713 107.428 141.402 107.192 141.167ZM106.906 142.899C106.764 143.042 106.583 143.14 106.386 143.18C106.188 143.22 105.983 143.2 105.797 143.123C105.611 143.047 105.451 142.916 105.339 142.749C105.227 142.582 105.167 142.385 105.167 142.183C105.167 141.982 105.227 141.785 105.339 141.618C105.451 141.45 105.611 141.32 105.797 141.243C105.983 141.166 106.188 141.147 106.386 141.187C106.583 141.227 106.764 141.324 106.906 141.467C107.093 141.659 107.198 141.916 107.198 142.183C107.198 142.451 107.093 142.708 106.906 142.899Z" fill="#407BFF"/>
<path opacity="0.2" d="M107.192 141.167C106.92 140.92 106.562 140.788 106.195 140.798C105.828 140.808 105.478 140.958 105.218 141.219C104.959 141.479 104.81 141.829 104.801 142.197C104.793 142.564 104.926 142.921 105.173 143.193C105.41 143.428 105.721 143.573 106.053 143.603C106.385 143.633 106.717 143.546 106.992 143.357C106.999 143.432 107.029 143.502 107.078 143.558L108.044 144.517C108.076 144.549 108.113 144.574 108.155 144.591C108.196 144.608 108.24 144.617 108.284 144.617C108.329 144.617 108.373 144.608 108.414 144.591C108.455 144.574 108.493 144.549 108.524 144.517C108.556 144.486 108.581 144.449 108.598 144.407C108.615 144.366 108.624 144.322 108.624 144.278C108.624 144.233 108.615 144.189 108.598 144.148C108.581 144.107 108.556 144.069 108.524 144.038L107.565 143.071C107.509 143.022 107.438 142.992 107.364 142.985C107.552 142.709 107.637 142.377 107.606 142.045C107.575 141.713 107.428 141.402 107.192 141.167ZM106.906 142.899C106.764 143.042 106.583 143.14 106.386 143.18C106.188 143.22 105.983 143.2 105.797 143.123C105.611 143.047 105.451 142.916 105.339 142.749C105.227 142.582 105.167 142.385 105.167 142.183C105.167 141.982 105.227 141.785 105.339 141.618C105.451 141.45 105.611 141.32 105.797 141.243C105.983 141.166 106.188 141.147 106.386 141.187C106.583 141.227 106.764 141.324 106.906 141.467C107.093 141.659 107.198 141.916 107.198 142.183C107.198 142.451 107.093 142.708 106.906 142.899Z" fill="black"/>
<path d="M261.809 186.16C261.43 186.16 261.065 186.311 260.797 186.579C260.528 186.848 260.377 187.212 260.377 187.592V201.525H248.678L250.962 199.241C251.095 199.108 251.201 198.95 251.273 198.776C251.345 198.603 251.382 198.416 251.382 198.228C251.382 198.04 251.345 197.854 251.273 197.68C251.201 197.506 251.095 197.348 250.962 197.215C250.694 196.948 250.331 196.799 249.952 196.799C249.574 196.799 249.211 196.948 248.943 197.215L243.215 202.943L248.943 208.671C249.211 208.938 249.574 209.087 249.952 209.087C250.331 209.087 250.694 208.938 250.962 208.671C251.095 208.538 251.201 208.38 251.273 208.206C251.345 208.032 251.382 207.846 251.382 207.658C251.382 207.47 251.345 207.283 251.273 207.109C251.201 206.936 251.095 206.778 250.962 206.645L248.678 204.361H263.241V187.592C263.241 187.212 263.09 186.848 262.822 186.579C262.553 186.311 262.189 186.16 261.809 186.16Z" fill="#407BFF"/>
<path opacity="0.7" d="M261.809 186.16C261.43 186.16 261.065 186.311 260.797 186.579C260.528 186.848 260.377 187.212 260.377 187.592V201.525H248.678L250.962 199.241C251.095 199.108 251.201 198.95 251.273 198.776C251.345 198.603 251.382 198.416 251.382 198.228C251.382 198.04 251.345 197.854 251.273 197.68C251.201 197.506 251.095 197.348 250.962 197.215C250.694 196.948 250.331 196.799 249.952 196.799C249.574 196.799 249.211 196.948 248.943 197.215L243.215 202.943L248.943 208.671C249.211 208.938 249.574 209.087 249.952 209.087C250.331 209.087 250.694 208.938 250.962 208.671C251.095 208.538 251.201 208.38 251.273 208.206C251.345 208.032 251.382 207.846 251.382 207.658C251.382 207.47 251.345 207.283 251.273 207.109C251.201 206.936 251.095 206.778 250.962 206.645L248.678 204.361H263.241V187.592C263.241 187.212 263.09 186.848 262.822 186.579C262.553 186.311 262.189 186.16 261.809 186.16Z" fill="white"/>
<path opacity="0.4" d="M301.02 35.313V42.0863H307.793L301.02 35.313Z" fill="white"/>
<path d="M308.071 44.8359L308.121 74.1919C308.121 74.3757 308.051 74.5526 307.924 74.6859C307.798 74.8192 307.625 74.8987 307.441 74.9079L280.276 74.958C280.086 74.958 279.904 74.8826 279.77 74.7483C279.635 74.614 279.56 74.4319 279.56 74.242L279.488 36.0219C279.488 35.832 279.564 35.6499 279.698 35.5156C279.832 35.3813 280.014 35.3059 280.204 35.3059H298.505L308.071 44.8359Z" fill="#407BFF"/>
<g opacity="0.7">
<path d="M308.071 44.8359L308.121 74.1919C308.121 74.3757 308.051 74.5526 307.924 74.6859C307.798 74.8192 307.625 74.8987 307.441 74.9079L280.276 74.958C280.086 74.958 279.904 74.8826 279.77 74.7483C279.635 74.614 279.56 74.4319 279.56 74.242L279.488 36.0219C279.488 35.832 279.564 35.6499 279.698 35.5156C279.832 35.3813 280.014 35.3059 280.204 35.3059H298.505L308.071 44.8359Z" fill="white"/>
</g>
<path d="M298.523 35.313V44.1771C298.523 44.367 298.599 44.5491 298.733 44.6834C298.867 44.8176 299.05 44.8931 299.239 44.8931H308.075L298.523 35.313Z" fill="#407BFF"/>
<path opacity="0.9" d="M298.523 35.313V44.1771C298.523 44.367 298.599 44.5491 298.733 44.6834C298.867 44.8176 299.05 44.8931 299.239 44.8931H308.075L298.523 35.313Z" fill="white"/>
<g opacity="0.8">
<path d="M301.133 53.0628H286.677C286.453 53.0628 286.238 52.9738 286.079 52.8153C285.921 52.6569 285.832 52.442 285.832 52.2179C285.832 52.107 285.854 51.9971 285.896 51.8946C285.939 51.7921 286.001 51.699 286.079 51.6205C286.158 51.5421 286.251 51.4798 286.354 51.4374C286.456 51.3949 286.566 51.373 286.677 51.373H301.133C301.244 51.373 301.354 51.3949 301.456 51.4374C301.559 51.4798 301.652 51.5421 301.73 51.6205C301.809 51.699 301.871 51.7921 301.914 51.8946C301.956 51.9971 301.978 52.107 301.978 52.2179C301.978 52.442 301.889 52.6569 301.73 52.8153C301.572 52.9738 301.357 53.0628 301.133 53.0628Z" fill="white"/>
<path d="M300.97 57.9101H286.65C286.539 57.9111 286.429 57.8901 286.327 57.8484C286.224 57.8068 286.131 57.7452 286.053 57.6673C285.974 57.5894 285.912 57.4968 285.869 57.3947C285.827 57.2926 285.805 57.183 285.805 57.0724C285.805 56.8483 285.894 56.6334 286.052 56.475C286.211 56.3166 286.425 56.2275 286.65 56.2275H300.97C301.194 56.2275 301.409 56.3166 301.567 56.475C301.725 56.6334 301.814 56.8483 301.814 57.0724C301.814 57.183 301.793 57.2926 301.75 57.3947C301.707 57.4968 301.645 57.5894 301.567 57.6673C301.488 57.7452 301.395 57.8068 301.292 57.8484C301.19 57.8901 301.08 57.9111 300.97 57.9101Z" fill="white"/>
<path d="M300.66 63.0652H286.677C286.453 63.0652 286.238 62.9762 286.079 62.8178C285.921 62.6593 285.832 62.4444 285.832 62.2204C285.832 61.9963 285.921 61.7814 286.079 61.6229C286.238 61.4645 286.453 61.3755 286.677 61.3755H300.66C300.884 61.3755 301.099 61.4645 301.258 61.6229C301.416 61.7814 301.505 61.9963 301.505 62.2204C301.505 62.4444 301.416 62.6593 301.258 62.8178C301.099 62.9762 300.884 63.0652 300.66 63.0652Z" fill="white"/>
</g>
<path d="M213.097 48.8743H173.609V74.8364H213.097V48.8743Z" fill="#407BFF"/>
<path opacity="0.7" d="M213.097 48.8743H173.609V74.8364H213.097V48.8743Z" fill="white"/>
<path d="M187.115 63.0295L175.309 74.8364H198.922L187.115 63.0295Z" fill="#407BFF"/>
<path opacity="0.3" d="M187.115 63.0295L175.309 74.8364H198.922L187.115 63.0295Z" fill="white"/>
<path d="M212.689 74.8364L200.975 54.8457L189.262 74.8364H212.689Z" fill="#407BFF"/>
<path opacity="0.5" d="M212.689 74.8364L200.975 54.8457L189.262 74.8364H212.689Z" fill="white"/>
<path opacity="0.8" d="M190.237 59.5571C191.546 59.5571 192.607 58.496 192.607 57.1871C192.607 55.8782 191.546 54.8171 190.237 54.8171C188.928 54.8171 187.867 55.8782 187.867 57.1871C187.867 58.496 188.928 59.5571 190.237 59.5571Z" fill="white"/>
<path d="M161.595 86.1277C161.595 85.8413 161.595 85.5621 161.559 85.2757L165.139 82.8127C164.947 81.9575 164.678 81.1213 164.337 80.3138L159.97 80.4355C159.671 79.9499 159.336 79.488 158.967 79.0537L160.399 74.951C159.732 74.3709 159.013 73.8532 158.251 73.4044L154.793 76.0608C154.265 75.8436 153.722 75.6665 153.168 75.531L151.936 71.3567C151.497 71.3137 151.06 71.2922 150.626 71.2922C150.182 71.2922 149.745 71.2922 149.309 71.3567L148.077 75.531C147.523 75.6665 146.979 75.8436 146.452 76.0608L142.993 73.4044C142.232 73.8532 141.513 74.3709 140.845 74.951L142.277 79.0537C141.911 79.4898 141.576 79.9516 141.275 80.4355L136.915 80.3138C136.571 81.1211 136.3 81.9573 136.105 82.8127L139.685 85.2757C139.685 85.5621 139.65 85.8413 139.65 86.1277C139.65 86.4141 139.65 86.7006 139.685 86.987L136.105 89.45C136.301 90.305 136.572 91.1412 136.915 91.9488L141.275 91.8271C141.576 92.3111 141.911 92.7729 142.277 93.209L140.845 97.3117C141.515 97.8893 142.233 98.4069 142.993 98.8582L146.452 96.2019C146.978 96.42 147.522 96.5948 148.077 96.7245L149.309 100.906C149.745 100.906 150.182 100.97 150.626 100.97C151.07 100.97 151.499 100.97 151.936 100.906L153.168 96.7245C153.723 96.5948 154.266 96.42 154.793 96.2019L158.251 98.8582C159.011 98.4069 159.73 97.8893 160.399 97.3117L158.967 93.209C159.336 92.7747 159.671 92.3127 159.97 91.8271L164.337 91.9488C164.677 91.141 164.946 90.3048 165.139 89.45L161.559 86.987C161.581 86.7006 161.595 86.4213 161.595 86.1277ZM150.698 91.1397C149.706 91.1397 148.737 90.8458 147.913 90.2951C147.089 89.7444 146.446 88.9616 146.067 88.0458C145.688 87.1299 145.588 86.1222 145.782 85.15C145.975 84.1777 146.453 83.2847 147.154 82.5837C147.854 81.8828 148.748 81.4054 149.72 81.2121C150.692 81.0187 151.7 81.1179 152.616 81.4973C153.531 81.8766 154.314 82.519 154.865 83.3432C155.416 84.1674 155.71 85.1365 155.71 86.1277C155.71 87.457 155.182 88.7318 154.242 89.6718C153.302 90.6117 152.027 91.1397 150.698 91.1397Z" fill="#407BFF"/>
<path opacity="0.7" d="M161.595 86.1277C161.595 85.8413 161.595 85.5621 161.559 85.2757L165.139 82.8127C164.947 81.9575 164.678 81.1213 164.337 80.3138L159.97 80.4355C159.671 79.9499 159.336 79.488 158.967 79.0537L160.399 74.951C159.732 74.3709 159.013 73.8532 158.251 73.4044L154.793 76.0608C154.265 75.8436 153.722 75.6665 153.168 75.531L151.936 71.3567C151.497 71.3137 151.06 71.2922 150.626 71.2922C150.182 71.2922 149.745 71.2922 149.309 71.3567L148.077 75.531C147.523 75.6665 146.979 75.8436 146.452 76.0608L142.993 73.4044C142.232 73.8532 141.513 74.3709 140.845 74.951L142.277 79.0537C141.911 79.4898 141.576 79.9516 141.275 80.4355L136.915 80.3138C136.571 81.1211 136.3 81.9573 136.105 82.8127L139.685 85.2757C139.685 85.5621 139.65 85.8413 139.65 86.1277C139.65 86.4141 139.65 86.7006 139.685 86.987L136.105 89.45C136.301 90.305 136.572 91.1412 136.915 91.9488L141.275 91.8271C141.576 92.3111 141.911 92.7729 142.277 93.209L140.845 97.3117C141.515 97.8893 142.233 98.4069 142.993 98.8582L146.452 96.2019C146.978 96.42 147.522 96.5948 148.077 96.7245L149.309 100.906C149.745 100.906 150.182 100.97 150.626 100.97C151.07 100.97 151.499 100.97 151.936 100.906L153.168 96.7245C153.723 96.5948 154.266 96.42 154.793 96.2019L158.251 98.8582C159.011 98.4069 159.73 97.8893 160.399 97.3117L158.967 93.209C159.336 92.7747 159.671 92.3127 159.97 91.8271L164.337 91.9488C164.677 91.141 164.946 90.3048 165.139 89.45L161.559 86.987C161.581 86.7006 161.595 86.4213 161.595 86.1277ZM150.698 91.1397C149.706 91.1397 148.737 90.8458 147.913 90.2951C147.089 89.7444 146.446 88.9616 146.067 88.0458C145.688 87.1299 145.588 86.1222 145.782 85.15C145.975 84.1777 146.453 83.2847 147.154 82.5837C147.854 81.8828 148.748 81.4054 149.72 81.2121C150.692 81.0187 151.7 81.1179 152.616 81.4973C153.531 81.8766 154.314 82.519 154.865 83.3432C155.416 84.1674 155.71 85.1365 155.71 86.1277C155.71 87.457 155.182 88.7318 154.242 89.6718C153.302 90.6117 152.027 91.1397 150.698 91.1397Z" fill="white"/>
<path d="M175.285 103.67C175.285 103.491 175.285 103.305 175.285 103.126L177.605 101.536C177.479 100.984 177.305 100.445 177.082 99.925L174.276 100.004C174.081 99.6917 173.863 99.3949 173.624 99.1159L174.562 96.4667C174.136 96.0986 173.681 95.7657 173.202 95.4715L170.975 97.1827C170.633 97.0438 170.281 96.9313 169.922 96.8462L169.135 94.1541C168.57 94.0968 168.002 94.0968 167.438 94.1541L166.643 96.8462C166.287 96.9324 165.937 97.0449 165.598 97.1827L163.371 95.4715C162.889 95.7656 162.431 96.0985 162.003 96.4667L162.948 99.1159C162.709 99.3949 162.491 99.6917 162.297 100.004L159.49 99.925C159.268 100.445 159.093 100.984 158.967 101.536L161.287 103.126C161.287 103.305 161.287 103.491 161.287 103.67C161.287 103.849 161.287 104.042 161.287 104.221L158.953 105.811C159.079 106.362 159.254 106.901 159.476 107.422L162.283 107.343C162.477 107.655 162.695 107.952 162.934 108.231L161.989 110.88C162.417 111.248 162.874 111.581 163.357 111.875L165.583 110.157C165.924 110.301 166.276 110.416 166.636 110.5L167.423 113.192C167.703 113.192 167.989 113.192 168.268 113.192C168.548 113.192 168.841 113.192 169.12 113.192L169.908 110.5C170.268 110.416 170.62 110.301 170.96 110.157L173.187 111.875C173.667 111.581 174.122 111.248 174.548 110.88L173.61 108.231C173.849 107.952 174.067 107.655 174.261 107.343L177.068 107.422C177.29 106.901 177.465 106.362 177.591 105.811L175.271 104.221C175.278 104.042 175.285 103.856 175.285 103.67ZM168.261 106.899C167.622 106.899 166.998 106.709 166.467 106.355C165.936 106 165.522 105.495 165.278 104.905C165.033 104.315 164.969 103.666 165.094 103.04C165.219 102.413 165.526 101.838 165.978 101.386C166.429 100.935 167.005 100.627 167.631 100.503C168.258 100.378 168.907 100.442 169.497 100.686C170.087 100.931 170.591 101.345 170.946 101.876C171.301 102.407 171.49 103.031 171.49 103.67C171.491 104.094 171.408 104.514 171.246 104.907C171.084 105.299 170.847 105.655 170.547 105.955C170.247 106.255 169.89 106.493 169.498 106.655C169.106 106.817 168.685 106.9 168.261 106.899Z" fill="#407BFF"/>
<path opacity="0.7" d="M175.285 103.67C175.285 103.491 175.285 103.305 175.285 103.126L177.605 101.536C177.479 100.984 177.305 100.445 177.082 99.925L174.276 100.004C174.081 99.6917 173.863 99.3949 173.624 99.1159L174.562 96.4667C174.136 96.0986 173.681 95.7657 173.202 95.4715L170.975 97.1827C170.633 97.0438 170.281 96.9313 169.922 96.8462L169.135 94.1541C168.57 94.0968 168.002 94.0968 167.438 94.1541L166.643 96.8462C166.287 96.9324 165.937 97.0449 165.598 97.1827L163.371 95.4715C162.889 95.7656 162.431 96.0985 162.003 96.4667L162.948 99.1159C162.709 99.3949 162.491 99.6917 162.297 100.004L159.49 99.925C159.268 100.445 159.093 100.984 158.967 101.536L161.287 103.126C161.287 103.305 161.287 103.491 161.287 103.67C161.287 103.849 161.287 104.042 161.287 104.221L158.953 105.811C159.079 106.362 159.254 106.901 159.476 107.422L162.283 107.343C162.477 107.655 162.695 107.952 162.934 108.231L161.989 110.88C162.417 111.248 162.874 111.581 163.357 111.875L165.583 110.157C165.924 110.301 166.276 110.416 166.636 110.5L167.423 113.192C167.703 113.192 167.989 113.192 168.268 113.192C168.548 113.192 168.841 113.192 169.12 113.192L169.908 110.5C170.268 110.416 170.62 110.301 170.96 110.157L173.187 111.875C173.667 111.581 174.122 111.248 174.548 110.88L173.61 108.231C173.849 107.952 174.067 107.655 174.261 107.343L177.068 107.422C177.29 106.901 177.465 106.362 177.591 105.811L175.271 104.221C175.278 104.042 175.285 103.856 175.285 103.67ZM168.261 106.899C167.622 106.899 166.998 106.709 166.467 106.355C165.936 106 165.522 105.495 165.278 104.905C165.033 104.315 164.969 103.666 165.094 103.04C165.219 102.413 165.526 101.838 165.978 101.386C166.429 100.935 167.005 100.627 167.631 100.503C168.258 100.378 168.907 100.442 169.497 100.686C170.087 100.931 170.591 101.345 170.946 101.876C171.301 102.407 171.49 103.031 171.49 103.67C171.491 104.094 171.408 104.514 171.246 104.907C171.084 105.299 170.847 105.655 170.547 105.955C170.247 106.255 169.89 106.493 169.498 106.655C169.106 106.817 168.685 106.9 168.261 106.899Z" fill="white"/>
<path d="M152.711 104.651V119.207L150.42 116.923C150.151 116.656 149.788 116.507 149.41 116.507C149.032 116.507 148.669 116.656 148.4 116.923C148.267 117.056 148.162 117.214 148.09 117.388C148.018 117.562 147.98 117.748 147.98 117.936C147.98 118.124 148.018 118.311 148.09 118.484C148.162 118.658 148.267 118.816 148.4 118.949L154.128 124.677L159.856 118.949C159.99 118.816 160.095 118.658 160.167 118.484C160.239 118.311 160.276 118.124 160.276 117.936C160.276 117.748 160.239 117.562 160.167 117.388C160.095 117.214 159.99 117.056 159.856 116.923C159.588 116.656 159.225 116.507 158.847 116.507C158.469 116.507 158.106 116.656 157.837 116.923L155.553 119.207V104.651C155.553 104.271 155.402 103.907 155.134 103.638C154.865 103.37 154.501 103.219 154.121 103.219C153.745 103.224 153.386 103.378 153.123 103.646C152.859 103.914 152.711 104.275 152.711 104.651Z" fill="#407BFF"/>
<path opacity="0.7" d="M152.711 104.651V119.207L150.42 116.923C150.151 116.656 149.788 116.507 149.41 116.507C149.032 116.507 148.669 116.656 148.4 116.923C148.267 117.056 148.162 117.214 148.09 117.388C148.018 117.562 147.98 117.748 147.98 117.936C147.98 118.124 148.018 118.311 148.09 118.484C148.162 118.658 148.267 118.816 148.4 118.949L154.128 124.677L159.856 118.949C159.99 118.816 160.095 118.658 160.167 118.484C160.239 118.311 160.276 118.124 160.276 117.936C160.276 117.748 160.239 117.562 160.167 117.388C160.095 117.214 159.99 117.056 159.856 116.923C159.588 116.656 159.225 116.507 158.847 116.507C158.469 116.507 158.106 116.656 157.837 116.923L155.553 119.207V104.651C155.553 104.271 155.402 103.907 155.134 103.638C154.865 103.37 154.501 103.219 154.121 103.219C153.745 103.224 153.386 103.378 153.123 103.646C152.859 103.914 152.711 104.275 152.711 104.651Z" fill="white"/>
<path d="M128.113 113.142H85.275C82.5624 113.142 80.3633 115.341 80.3633 118.054V125.594C80.3633 128.306 82.5624 130.505 85.275 130.505H128.113C130.826 130.505 133.025 128.306 133.025 125.594V118.054C133.025 115.341 130.826 113.142 128.113 113.142Z" fill="#407BFF"/>
<path opacity="0.7" d="M128.113 113.142H85.275C82.5624 113.142 80.3633 115.341 80.3633 118.054V125.594C80.3633 128.306 82.5624 130.505 85.275 130.505H128.113C130.826 130.505 133.025 128.306 133.025 125.594V118.054C133.025 115.341 130.826 113.142 128.113 113.142Z" fill="white"/>
<path opacity="0.8" d="M108.287 117.016C107.678 116.407 106.91 115.983 106.07 115.795C105.23 115.607 104.354 115.662 103.544 115.954C102.734 116.245 102.024 116.761 101.497 117.441C100.97 118.122 100.647 118.938 100.567 119.795C100.486 120.652 100.652 121.514 101.043 122.28C101.435 123.046 102.036 123.686 102.778 124.123C103.519 124.56 104.37 124.776 105.23 124.748C106.09 124.719 106.924 124.446 107.635 123.961C107.658 124.195 107.759 124.414 107.921 124.584L110.979 127.641C111.182 127.838 111.455 127.946 111.738 127.944C112.021 127.942 112.291 127.829 112.492 127.629C112.692 127.43 112.806 127.159 112.81 126.877C112.814 126.594 112.706 126.321 112.511 126.116L109.454 123.059C109.283 122.892 109.061 122.789 108.824 122.765C109.418 121.894 109.689 120.843 109.591 119.794C109.493 118.744 109.032 117.762 108.287 117.016ZM107.399 122.493C106.948 122.944 106.374 123.251 105.749 123.376C105.124 123.501 104.476 123.437 103.887 123.193C103.298 122.95 102.794 122.537 102.44 122.007C102.086 121.477 101.897 120.854 101.897 120.216C101.897 119.579 102.086 118.956 102.44 118.426C102.794 117.896 103.298 117.483 103.887 117.239C104.476 116.995 105.124 116.932 105.749 117.057C106.374 117.181 106.948 117.488 107.399 117.939C107.698 118.238 107.936 118.593 108.098 118.984C108.26 119.374 108.344 119.793 108.344 120.216C108.344 120.639 108.26 121.058 108.098 121.449C107.936 121.84 107.698 122.195 107.399 122.493Z" fill="white"/>
</svg>
