<svg width="413" height="308" viewBox="0 0 413 308" fill="none" xmlns="http://www.w3.org/2000/svg">
<path d="M412.97 270.413H0V270.619H412.97V270.413Z" fill="#EBEBEB"/>
<path d="M336.257 276.038H275.311V276.244H336.257V276.038Z" fill="#EBEBEB"/>
<path d="M92.7614 277.425H85.584V277.632H92.7614V277.425Z" fill="#EBEBEB"/>
<path d="M352.932 283.702H337.082V283.909H352.932V283.702Z" fill="#EBEBEB"/>
<path d="M205.386 280.91H165.188V281.117H205.386V280.91Z" fill="#EBEBEB"/>
<path d="M157.838 280.91H137.701V281.117H157.838V280.91Z" fill="#EBEBEB"/>
<path d="M70.7081 277.425H43.3281V277.632H70.7081V277.425Z" fill="#EBEBEB"/>
<path d="M195.747 233.576H36.2665C35.0171 233.574 33.8197 233.076 32.937 232.192C32.0543 231.308 31.5586 230.109 31.5586 228.86V4.67482C31.5695 3.43263 32.07 2.24489 32.9515 1.36959C33.833 0.494291 35.0242 0.00212794 36.2665 0H195.747C196.998 0 198.198 0.496876 199.082 1.38132C199.967 2.26576 200.463 3.46533 200.463 4.71612V228.86C200.463 230.111 199.967 231.31 199.082 232.195C198.198 233.079 196.998 233.576 195.747 233.576ZM36.2665 0.165189C35.0719 0.167377 33.9269 0.643461 33.083 1.48895C32.2391 2.33443 31.7651 3.48022 31.7651 4.67482V228.86C31.7651 230.054 32.2391 231.2 33.083 232.046C33.9269 232.891 35.0719 233.367 36.2665 233.369H195.747C196.943 233.367 198.088 232.891 198.934 232.046C199.779 231.201 200.255 230.055 200.257 228.86V4.67482C200.255 3.47946 199.779 2.33369 198.934 1.48844C198.088 0.643193 196.943 0.167372 195.747 0.165189H36.2665Z" fill="#EBEBEB"/>
<path d="M374.408 233.576H214.919C213.669 233.574 212.471 233.076 211.587 232.192C210.703 231.308 210.205 230.11 210.203 228.86V4.67482C210.216 3.43188 210.719 2.24414 211.601 1.36907C212.484 0.494002 213.676 0.00210474 214.919 0H374.408C375.649 0.0042986 376.838 0.497422 377.718 1.37249C378.598 2.24756 379.097 3.43406 379.108 4.67482V228.86C379.108 230.108 378.613 231.305 377.732 232.189C376.852 233.073 375.656 233.572 374.408 233.576ZM214.919 0.165189C213.724 0.167372 212.578 0.643193 211.733 1.48844C210.888 2.33369 210.412 3.47946 210.41 4.67482V228.86C210.412 230.055 210.888 231.201 211.733 232.046C212.578 232.891 213.724 233.367 214.919 233.369H374.408C375.604 233.367 376.749 232.891 377.595 232.046C378.44 231.201 378.916 230.055 378.918 228.86V4.67482C378.916 3.47946 378.44 2.33369 377.595 1.48844C376.749 0.643193 375.604 0.167372 374.408 0.165189H214.919Z" fill="#EBEBEB"/>
<path d="M271.528 268.034H143.705V270.405H271.528V268.034Z" fill="#F0F0F0"/>
<path d="M320.522 172.002C320.522 172.002 331.102 186.869 346.613 174.174C361.018 162.405 346.861 133.926 346.861 133.926C346.861 133.926 363.603 139.188 366.304 117.11C369.005 95.0327 345.242 100.641 345.242 100.641C353.708 83.8082 344.003 83.2961 336.76 84.7828C338.957 80.6531 339.651 75.5818 334.423 71.3117C322.455 61.5408 314.294 72.9636 314.294 72.9636C314.294 72.9636 308.067 51.5552 293.332 64.0517V183.565C312.453 199.762 320.522 172.002 320.522 172.002Z" fill="#F5F5F5"/>
<path d="M298.851 55.1068H54.7852V270.413H298.851V55.1068Z" fill="#FAFAFA"/>
<path d="M281.291 21.656H72.3446L54.7852 55.1066H298.851L281.291 21.656Z" fill="#F0F0F0"/>
<path d="M262.196 248.311V226.2H247.857V204.098H143.467V226.2H157.805V248.311H172.152V270.413H276.534V248.311H262.196Z" fill="#F5F5F5"/>
<path d="M143.466 204.098V226.2H157.805V248.311H172.151V270.413H54.7852V204.098H143.466Z" fill="#EBEBEB"/>
<path d="M247.857 223.83H143.467V226.2H247.857V223.83Z" fill="#F0F0F0"/>
<path d="M262.195 245.932H157.805V248.303H262.195V245.932Z" fill="#F0F0F0"/>
<path d="M136.279 74.6072H67.6348V204.098H136.279V74.6072Z" fill="#F0F0F0"/>
<path d="M66.3463 204.098H67.6348L67.6348 74.607H66.3463L66.3463 204.098Z" fill="#E6E6E6"/>
<path d="M126.022 143.16C128.125 143.16 129.83 141.456 129.83 139.353C129.83 137.25 128.125 135.545 126.022 135.545C123.92 135.545 122.215 137.25 122.215 139.353C122.215 141.456 123.92 143.16 126.022 143.16Z" fill="#FAFAFA"/>
<path d="M259.891 74.6072H160.109V174.183H259.891V74.6072Z" fill="#F5F5F5"/>
<path d="M255.736 169.508V79.282H164.28V169.508H255.736Z" fill="white"/>
<path d="M164.271 79.2903V169.508H166.964C166.964 169.508 179.304 139.98 182.74 79.282L164.271 79.2903Z" fill="#FAFAFA"/>
<path d="M255.738 79.2903V169.508H253.037C253.037 169.508 240.705 139.98 237.27 79.2903H255.738Z" fill="#FAFAFA"/>
<path d="M258.174 121.256H161.836V127.534H258.174V121.256Z" fill="#F5F5F5"/>
<path d="M213.143 172.564V76.2261H206.865V172.564H213.143Z" fill="#F5F5F5"/>
<path d="M206.485 307.712C294.929 307.712 366.627 303.526 366.627 298.363C366.627 293.199 294.929 289.013 206.485 289.013C118.042 289.013 46.3438 293.199 46.3438 298.363C46.3438 303.526 118.042 307.712 206.485 307.712Z" fill="#F5F5F5"/>
<path d="M152.46 298.363H126.435C125.453 298.363 124.512 297.973 123.818 297.279C123.124 296.585 122.734 295.644 122.734 294.662V249.31H156.16V294.671C156.158 295.651 155.767 296.59 155.073 297.282C154.38 297.974 153.44 298.363 152.46 298.363Z" fill="#407BFF"/>
<path opacity="0.2" d="M156.16 249.31H122.742V268.992L156.16 261.749V249.31Z" fill="black"/>
<path d="M170.539 189.809C170.539 177.323 175.499 165.348 184.328 156.519C193.157 147.69 205.132 142.73 217.618 142.73C230.104 142.73 242.078 147.69 250.907 156.519C259.736 165.348 264.696 177.323 264.696 189.809V249.277H170.539V189.809Z" fill="#407BFF"/>
<path opacity="0.3" d="M170.539 189.809C170.539 177.323 175.499 165.348 184.328 156.519C193.157 147.69 205.132 142.73 217.618 142.73C230.104 142.73 242.078 147.69 250.907 156.519C259.736 165.348 264.696 177.323 264.696 189.809V249.277H170.539V189.809Z" fill="black"/>
<path d="M59.707 189.801V243.446C59.707 244.216 59.859 244.98 60.1542 245.692C60.4494 246.404 60.8821 247.05 61.4275 247.595C61.9729 248.14 62.6204 248.572 63.3328 248.866C64.0452 249.16 64.8087 249.311 65.5795 249.31H170.54V189.801C170.54 177.315 175.5 165.34 184.329 156.511C193.158 147.682 205.133 142.722 217.619 142.722H106.786C94.2996 142.722 82.325 147.682 73.496 156.511C64.6671 165.34 59.707 177.315 59.707 189.801Z" fill="#407BFF"/>
<path opacity="0.2" d="M59.7159 231.75H170.549V215.231H59.7159V231.75Z" fill="black"/>
<path opacity="0.2" d="M59.7159 210.103H170.549V193.584H59.7159V210.103Z" fill="black"/>
<path d="M177.488 139.831H164V140.657H177.488V139.831Z" fill="#407BFF"/>
<path d="M156.928 139.831H149.676V140.657H156.928V139.831Z" fill="#407BFF"/>
<path d="M113.912 205.279V138.378C113.912 138.111 113.854 137.848 113.742 137.606C113.63 137.364 113.466 137.149 113.263 136.977C113.059 136.805 112.82 136.679 112.563 136.609C112.306 136.538 112.036 136.525 111.773 136.569L88.4238 140.41V150.098H106.272V205.13C104.47 205.958 103.002 207.373 102.108 209.144C101.214 210.914 100.947 212.936 101.351 214.878C101.755 216.82 102.805 218.567 104.331 219.835C105.857 221.102 107.767 221.814 109.75 221.855C111.734 221.896 113.672 221.263 115.248 220.059C116.825 218.855 117.946 217.152 118.43 215.229C118.913 213.305 118.729 211.274 117.909 209.468C117.088 207.663 115.679 206.189 113.912 205.287V205.279Z" fill="#263238"/>
<path d="M177.237 256.041H298.023C298.904 256.044 299.751 255.698 300.379 255.079C301.007 254.461 301.365 253.619 301.376 252.738C301.376 251.848 301.023 250.995 300.394 250.366C299.765 249.738 298.912 249.384 298.023 249.384H170.539C170.55 251.154 171.261 252.847 172.516 254.094C173.771 255.341 175.468 256.041 177.237 256.041Z" fill="#407BFF"/>
<path opacity="0.2" d="M177.237 256.041H226.596C227.477 256.044 228.324 255.698 228.952 255.079C229.58 254.461 229.938 253.619 229.949 252.738C229.949 251.848 229.596 250.995 228.967 250.366C228.338 249.738 227.485 249.384 226.596 249.384H170.539C170.55 251.154 171.261 252.847 172.516 254.094C173.771 255.341 175.468 256.041 177.237 256.041Z" fill="black"/>
<path d="M292.778 291.045L285.791 291.103L283.883 274.923L290.879 274.865L292.778 291.045Z" fill="#FF8B7B"/>
<path opacity="0.2" d="M283.883 274.931L284.866 283.273L291.861 283.207L290.879 274.873L283.883 274.931Z" fill="black"/>
<path d="M349.57 273.89L343.557 277.458L333.77 264.433L339.782 260.865L349.57 273.89Z" fill="#FF8B7B"/>
<path opacity="0.2" d="M333.779 264.433L338.818 271.148L344.839 267.58L339.792 260.865L333.779 264.433Z" fill="black"/>
<path d="M285.775 290.294L293.415 290.227C293.556 290.229 293.693 290.275 293.806 290.36C293.919 290.444 294.002 290.563 294.042 290.698L295.892 296.901C295.94 297.045 295.952 297.198 295.928 297.348C295.905 297.497 295.845 297.639 295.756 297.761C295.666 297.883 295.548 297.982 295.413 298.049C295.277 298.117 295.127 298.151 294.976 298.148C292.217 298.148 288.228 298 284.759 298.033C280.712 298.033 278.911 298.322 274.162 298.363C271.288 298.363 270.28 295.489 271.461 295.216C276.838 293.977 279.621 293.812 284.131 290.855C284.613 290.514 285.184 290.319 285.775 290.294Z" fill="#263238"/>
<path d="M282.891 291.557C283.644 291.543 284.394 291.451 285.129 291.285C285.163 291.279 285.193 291.262 285.216 291.236C285.238 291.211 285.252 291.178 285.253 291.144C285.256 291.111 285.25 291.077 285.233 291.047C285.217 291.018 285.192 290.994 285.162 290.979C284.832 290.814 281.858 289.41 281.09 289.905C281.016 289.953 280.956 290.019 280.915 290.097C280.874 290.176 280.855 290.263 280.859 290.351C280.85 290.509 280.879 290.666 280.944 290.81C281.009 290.953 281.107 291.079 281.231 291.177C281.728 291.48 282.311 291.613 282.891 291.557ZM284.543 291.062C283.031 291.326 281.883 291.268 281.421 290.896C281.34 290.831 281.275 290.748 281.232 290.653C281.189 290.558 281.169 290.455 281.173 290.351C281.17 290.32 281.175 290.288 281.188 290.259C281.201 290.23 281.221 290.205 281.247 290.186C281.701 289.905 283.362 290.5 284.559 291.045L284.543 291.062Z" fill="#407BFF"/>
<path d="M285.098 291.276C285.13 291.283 285.164 291.283 285.197 291.276C285.221 291.259 285.24 291.235 285.25 291.207C285.26 291.179 285.262 291.148 285.255 291.119C285.255 290.987 284.709 287.981 283.041 288.171C282.603 288.22 282.479 288.435 282.455 288.617C282.339 289.443 284.107 290.913 285.032 291.293L285.098 291.276ZM283.181 288.46C284.181 288.46 284.685 290.112 284.833 290.805C283.917 290.285 282.686 289.096 282.752 288.633C282.752 288.633 282.752 288.493 283.049 288.46H283.181Z" fill="#407BFF"/>
<path d="M295.918 97.9814C295.001 103.292 293.836 108.388 292.424 113.534C291.719 116.1 290.94 118.657 290.087 121.207C289.641 122.487 289.219 123.759 288.716 125.031C288.476 125.667 288.237 126.303 287.964 126.939L287.576 127.897L287.378 128.368L287.27 128.624L287.122 128.946C286.444 130.406 285.613 131.79 284.644 133.076C283.818 134.24 282.918 135.314 282.034 136.379C280.266 138.461 278.424 140.393 276.558 142.293C272.83 146.038 268.91 149.586 264.813 152.923L261.088 149.214C264.268 145.176 267.472 141.095 270.57 137.057C272.114 135.041 273.617 132.993 275.022 130.969C275.724 129.962 276.393 128.946 276.979 127.955C277.51 127.111 277.963 126.221 278.334 125.295C278.383 125.196 278.499 124.8 278.59 124.535L278.87 123.66C279.069 123.09 279.242 122.495 279.416 121.901C279.771 120.72 280.101 119.514 280.44 118.316C281.084 115.896 281.687 113.451 282.273 110.99C283.413 106.034 284.512 101.029 285.503 96.123L295.918 97.9814Z" fill="#FF8B7B"/>
<path d="M298.387 98.9477C297.966 106.926 294.1 118.126 294.1 118.126L283.248 113.996L278.779 112.344C279.368 107.062 280.622 101.875 282.513 96.9076C285.816 88.4004 293.473 86.3273 297.379 92.588C298.288 94.0003 298.528 96.2964 298.387 98.9477Z" fill="#407BFF"/>
<path opacity="0.2" d="M298.388 98.9479C297.966 106.926 294.101 118.126 294.101 118.126L283.248 113.996C283.894 111.182 284.738 108.416 285.775 105.721C288.485 98.634 294.266 96.0158 298.388 98.9479Z" fill="black"/>
<path d="M262.847 148.43L255.48 149.636L255.422 156.863C255.422 156.863 262.492 155.872 265.259 152.485L262.847 148.43Z" fill="#FF8B7B"/>
<path d="M248.656 153.823L248.813 158.572L255.421 156.863L255.47 149.636L248.656 153.823Z" fill="#FF8B7B"/>
<path d="M290.632 149.636C290.632 149.636 280.134 187.852 277.351 209.244C274.46 231.495 281.282 279.209 281.282 279.209L293.911 278.937C293.911 278.937 294.861 230.297 298.99 208.418C303.516 184.573 312.139 149.173 312.139 149.173L290.632 149.636Z" fill="#263238"/>
<path d="M295.464 279.507L280.614 279.804L279.523 274.873L295.274 274.832L295.464 279.507Z" fill="#407BFF"/>
<path opacity="0.4" d="M295.464 279.507L280.614 279.804L279.523 274.873L295.274 274.832L295.464 279.507Z" fill="white"/>
<path d="M343.137 276.765L349.703 272.866C349.83 272.784 349.982 272.749 350.132 272.765C350.283 272.782 350.423 272.85 350.529 272.957L355.245 277.384C355.36 277.484 355.448 277.611 355.504 277.753C355.559 277.895 355.58 278.048 355.563 278.199C355.547 278.351 355.495 278.496 355.411 278.623C355.327 278.75 355.213 278.855 355.08 278.928C352.685 280.3 349.175 282.232 346.193 283.958C342.716 286.032 341.237 287.155 337.198 289.575C334.721 291.045 332.4 289.055 333.283 288.22C337.306 284.438 339.627 282.893 342.038 278.078C342.271 277.544 342.652 277.088 343.137 276.765Z" fill="#263238"/>
<path d="M341.269 279.292C341.91 278.898 342.513 278.444 343.069 277.937C343.093 277.913 343.11 277.882 343.117 277.848C343.125 277.815 343.122 277.78 343.111 277.747C343.098 277.715 343.075 277.688 343.045 277.67C343.015 277.652 342.98 277.644 342.945 277.648C342.574 277.648 339.328 277.929 338.89 278.772C338.843 278.847 338.818 278.935 338.818 279.024C338.818 279.113 338.843 279.2 338.89 279.275C338.962 279.409 339.065 279.525 339.19 279.612C339.315 279.699 339.458 279.757 339.609 279.779C340.2 279.803 340.783 279.631 341.269 279.292ZM342.466 278.02C341.293 279.011 340.269 279.54 339.683 279.449C339.581 279.434 339.484 279.395 339.4 279.337C339.315 279.278 339.245 279.2 339.196 279.11C339.178 279.082 339.169 279.049 339.169 279.015C339.169 278.982 339.178 278.949 339.196 278.92C339.46 278.474 341.153 278.152 342.466 278.02Z" fill="#407BFF"/>
<path d="M343.046 277.954C343.074 277.932 343.097 277.904 343.112 277.871C343.128 277.847 343.137 277.818 343.137 277.789C343.137 277.759 343.128 277.731 343.112 277.706C343.029 277.607 341.055 275.228 339.717 276.269C339.362 276.533 339.362 276.789 339.428 276.954C339.726 277.69 342.038 278.094 343.005 277.979L343.046 277.954ZM339.973 276.484C340.841 275.98 342.096 277.136 342.608 277.665C341.543 277.665 339.891 277.268 339.709 276.839C339.709 276.839 339.66 276.715 339.883 276.55L339.973 276.484Z" fill="#407BFF"/>
<path d="M303.689 149.355C303.689 149.355 303.689 186.902 304.672 208.451C305.68 230.867 333.679 269.438 333.679 269.438L344.458 262.831C344.458 262.831 325.544 226.126 325.833 203.867C326.147 179.593 328.03 148.81 328.03 148.81L303.689 149.355Z" fill="#263238"/>
<path d="M345.846 262.823L333.911 270.107L330.93 267.142L344.062 258.387L345.846 262.823Z" fill="#407BFF"/>
<path opacity="0.4" d="M345.846 262.823L333.911 270.107L330.93 267.142L344.062 258.387L345.846 262.823Z" fill="white"/>
<path d="M289.765 89.2015C289.765 89.2015 281.96 110.494 290.632 149.644L328.03 148.818C328.163 143.078 323.959 115.153 328.922 87.9874C324.759 87.2907 320.554 86.8686 316.335 86.7237C311.036 86.5245 305.73 86.6376 300.444 87.0624C296.834 87.4962 293.263 88.2114 289.765 89.2015Z" fill="#407BFF"/>
<path d="M314.409 68.8258C313.517 73.9549 312.716 83.3541 316.366 86.6909C316.366 86.6909 315.078 91.9356 305.58 92.1091C297.989 92.2495 300.475 87.0295 300.475 87.0295C306.15 85.5429 305.91 81.314 304.828 77.366L314.409 68.8258Z" fill="#FF8B7B"/>
<path opacity="0.2" d="M310.504 72.3029L304.838 77.3576C305.102 78.2758 305.284 79.2155 305.383 80.1658C307.555 79.8107 310.504 77.3494 310.686 75.0615C310.794 74.1386 310.732 73.2036 310.504 72.3029Z" fill="black"/>
<path opacity="0.2" d="M320.581 101.533L326.817 106.026C326.544 110.808 326.461 115.458 326.503 119.819C322.679 115.97 320.539 108.892 320.581 101.533Z" fill="black"/>
<path d="M315.005 84.1385C315.005 84.1385 313.212 88.4499 304.846 92.1171C306.191 92.6577 307.41 93.4732 308.422 94.5114C309.435 95.5496 310.22 96.7877 310.726 98.1465C310.726 98.1465 316.814 92.3649 318.441 86.5833L315.005 84.1385Z" fill="white"/>
<path d="M298.593 96.5856C298.593 96.5856 301.153 92.8689 304.845 92.1173C303.549 90.5315 302.211 87.013 303.45 85.3446C302.361 85.6316 301.306 86.033 300.303 86.5422C300.303 86.5422 295.281 89.5569 298.593 96.5856Z" fill="white"/>
<path d="M297.858 54.1405C294.447 55.6024 292.754 64.7868 297.197 66.7856C301.641 68.7844 304.317 51.3818 297.858 54.1405Z" fill="#263238"/>
<path d="M314.857 61.1196C314.576 68.0575 314.766 72.1294 311.346 75.7553C306.201 81.2147 297.586 78.2331 295.786 71.353C294.134 65.1585 294.894 54.8342 301.609 51.9599C303.087 51.3128 304.706 51.0544 306.313 51.2094C307.919 51.3644 309.459 51.9275 310.787 52.8453C312.114 53.7632 313.185 55.0052 313.897 56.4534C314.61 57.9016 314.94 59.5079 314.857 61.1196Z" fill="#FF8B7B"/>
<path d="M304.392 63.2753C304.392 63.8369 304.12 64.2995 303.748 64.3077C303.377 64.316 303.071 63.8617 303.063 63.3001C303.054 62.7384 303.335 62.2759 303.707 62.2677C304.079 62.2594 304.384 62.7054 304.392 63.2753Z" fill="#263238"/>
<path d="M298.016 63.4075C298.016 63.9691 297.743 64.4317 297.371 64.4399C297 64.4482 296.694 64.0022 296.686 63.4323C296.677 62.8624 296.958 62.4081 297.33 62.3999C297.702 62.3916 298.007 62.8459 298.016 63.4075Z" fill="#263238"/>
<path d="M300.054 63.6472C299.417 65.3852 298.545 67.0277 297.461 68.5285C297.851 68.7951 298.296 68.9731 298.762 69.0501C299.229 69.1272 299.706 69.1013 300.162 68.9745L300.054 63.6472Z" fill="#FF5652"/>
<path d="M301.839 70.4942C302.598 70.5004 303.347 70.3235 304.023 69.9784C304.699 69.6333 305.281 69.1302 305.721 68.5119C305.733 68.4937 305.741 68.4733 305.744 68.4519C305.747 68.4306 305.746 68.4087 305.741 68.3878C305.736 68.3668 305.726 68.3472 305.713 68.3302C305.699 68.3132 305.682 68.2991 305.663 68.2889C305.627 68.2668 305.583 68.2597 305.542 68.2689C305.5 68.2782 305.464 68.3031 305.44 68.3385C305.024 68.9046 304.481 69.3649 303.854 69.682C303.227 69.9991 302.534 70.1641 301.831 70.1638C301.809 70.1648 301.788 70.1702 301.768 70.1795C301.749 70.1888 301.731 70.2018 301.717 70.218C301.702 70.2341 301.691 70.2529 301.683 70.2734C301.676 70.2938 301.673 70.3155 301.674 70.3372C301.676 70.3796 301.695 70.4195 301.725 70.4487C301.756 70.4779 301.797 70.4942 301.839 70.4942Z" fill="#263238"/>
<path d="M306.266 61.1775C306.341 61.1751 306.414 61.1491 306.473 61.1031C306.541 61.0481 306.584 60.9687 306.593 60.8821C306.602 60.7954 306.577 60.7087 306.522 60.6406C306.206 60.2204 305.793 59.8821 305.319 59.6536C304.845 59.4252 304.323 59.3134 303.797 59.3274C303.709 59.335 303.628 59.3772 303.572 59.4446C303.515 59.5119 303.488 59.599 303.495 59.6866C303.503 59.7743 303.545 59.8552 303.613 59.9118C303.68 59.9683 303.767 59.9958 303.855 59.9881C304.27 59.9842 304.681 60.0779 305.054 60.2615C305.427 60.4451 305.752 60.7135 306.002 61.0453C306.032 61.0868 306.072 61.1205 306.118 61.1435C306.164 61.1665 306.215 61.1781 306.266 61.1775Z" fill="#263238"/>
<path d="M295.174 61.2765C295.237 61.2758 295.299 61.2578 295.353 61.2243C295.407 61.1908 295.45 61.1432 295.479 61.0866C295.642 60.6996 295.896 60.3577 296.22 60.0902C296.543 59.8227 296.927 59.6374 297.338 59.5503C297.425 59.5361 297.503 59.4884 297.555 59.4174C297.608 59.3465 297.63 59.2578 297.618 59.1704C297.602 59.0842 297.554 59.0074 297.484 58.9553C297.413 58.9032 297.325 58.8797 297.238 58.8896C296.724 59 296.244 59.2314 295.838 59.5647C295.431 59.898 295.11 60.3234 294.901 60.8057C294.882 60.8446 294.87 60.887 294.868 60.9304C294.865 60.9738 294.871 61.0172 294.886 61.0581C294.901 61.099 294.924 61.1365 294.953 61.1684C294.983 61.2002 295.018 61.2258 295.058 61.2435C295.094 61.2619 295.133 61.2731 295.174 61.2765Z" fill="#263238"/>
<path d="M330.12 92.9183C331.681 95.1649 333.052 97.3619 334.464 99.6249C335.876 101.888 337.181 104.168 338.478 106.48C341.107 111.164 343.446 116.005 345.482 120.976C345.746 121.595 345.978 122.256 346.217 122.9L346.581 123.875L346.762 124.37L346.977 125.047C347.503 126.828 347.694 128.69 347.539 130.54C347.212 133.772 346.134 136.883 344.392 139.625C342.875 142.073 341.07 144.331 339.015 146.348C338.032 147.34 336.991 148.256 335.934 149.14C334.863 150.024 333.747 150.851 332.589 151.618L329.228 147.587C329.963 146.761 330.797 145.737 331.54 144.787C332.284 143.838 333.01 142.822 333.696 141.831C335.032 139.926 336.18 137.895 337.124 135.768C337.945 133.997 338.376 132.071 338.387 130.119C338.358 129.374 338.201 128.639 337.925 127.946L337.264 126.476C337.008 125.931 336.777 125.378 336.496 124.824C334.365 120.406 331.904 116.012 329.318 111.667C326.733 107.323 324.024 102.962 321.34 98.7907L330.12 92.9183Z" fill="#FF8B7B"/>
<path d="M328.922 88.004C335.455 89.4164 344.854 109.569 344.854 109.569L327.353 118.11C324.24 113.349 321.653 108.264 319.638 102.945C316.591 94.4298 321.926 86.4843 328.922 88.004Z" fill="#407BFF"/>
<path d="M322.703 139.832L340.287 191.775C340.97 193.814 340.82 196.04 339.868 197.968C338.916 199.896 337.241 201.369 335.207 202.066L217.007 242.141C214.966 242.826 212.738 242.674 210.809 241.719C208.88 240.764 207.408 239.083 206.716 237.045L189.14 185.118C188.801 184.134 188.661 183.093 188.727 182.054C188.822 180.44 189.395 178.891 190.373 177.604C191.351 176.317 192.69 175.35 194.219 174.827L312.444 134.752C313.975 134.237 315.625 134.19 317.183 134.617C318.741 135.043 320.136 135.924 321.191 137.148C321.867 137.934 322.381 138.846 322.703 139.832Z" fill="#407BFF"/>
<path opacity="0.8" d="M322.703 139.832L340.287 191.775C340.97 193.814 340.82 196.04 339.868 197.968C338.916 199.896 337.241 201.369 335.207 202.066L217.007 242.141C214.966 242.826 212.738 242.674 210.809 241.719C208.88 240.764 207.408 239.083 206.716 237.045L189.14 185.118C188.801 184.134 188.661 183.093 188.727 182.054C188.822 180.44 189.395 178.891 190.373 177.604C191.351 176.317 192.69 175.35 194.219 174.827L312.444 134.752C313.975 134.237 315.625 134.19 317.183 134.617C318.741 135.043 320.136 135.924 321.191 137.148C321.867 137.934 322.381 138.846 322.703 139.832Z" fill="white"/>
<path opacity="0.6" d="M321.158 137.147L272.254 180.881C269.796 183.077 266.919 184.754 263.797 185.812C260.674 186.869 257.371 187.285 254.084 187.034L188.686 182.079C188.78 180.465 189.353 178.916 190.332 177.629C191.31 176.342 192.649 175.375 194.178 174.852L312.403 134.777C313.933 134.257 315.583 134.205 317.142 134.627C318.702 135.049 320.1 135.927 321.158 137.147Z" fill="#407BFF"/>
<path d="M330.997 146.621L323.48 146.671L328.114 154.261C328.114 154.261 333.466 152.964 333.962 150.272L330.997 146.621Z" fill="#FF8B7B"/>
<path d="M318.779 151.122L322.901 157.226L328.112 154.261L323.479 146.671L318.779 151.122Z" fill="#FF8B7B"/>
<path d="M319.589 55.5611C321.241 60.0872 316.244 70.5684 313.337 70.3702C310.43 70.172 309.637 59.2778 311.289 56.5687C309.719 57.2955 294.77 57.3203 294.844 55.7428C295.224 50.0108 305.391 47.9294 316.541 50.7871C319.441 50.6467 320.523 51.4396 319.589 55.5611Z" fill="#263238"/>
<path d="M318.143 68.6771C317.701 69.4201 317.115 70.0677 316.42 70.5824C315.725 71.0971 314.935 71.4686 314.096 71.6753C311.849 72.2204 310.792 70.1968 311.502 68.1155C312.122 66.2406 314.038 63.7049 316.268 64.0849C318.498 64.4648 319.233 66.8353 318.143 68.6771Z" fill="#FF8B7B"/>
<path d="M285.932 52.8602L320.241 56.8247C320.414 56.8434 320.587 56.7931 320.723 56.6849C320.859 56.5767 320.947 56.4192 320.968 56.2466C320.987 56.075 320.938 55.9029 320.831 55.767C320.725 55.6312 320.569 55.5425 320.398 55.5197L286.08 51.5635C285.909 51.5447 285.737 51.5939 285.601 51.7004C285.465 51.8069 285.376 51.9623 285.353 52.1334C285.335 52.3062 285.385 52.4795 285.493 52.6155C285.601 52.7516 285.759 52.8395 285.932 52.8602Z" fill="#407BFF"/>
<path d="M320.969 56.2137L321.564 51.0928C321.558 50.5329 321.342 49.9956 320.96 49.5861C320.578 49.1766 320.057 48.9246 319.499 48.8793L298.429 44.8983C296.868 44.6009 295.431 45.4764 295.439 46.7154V53.2733L320.969 56.2137Z" fill="#407BFF"/>
<path d="M297.404 51.7617L306.324 52.7941L306.63 50.1924L297.413 49.1352L297.404 51.7617Z" fill="white"/>
</svg>
