<svg width="380" height="281" viewBox="0 0 380 281" fill="none" xmlns="http://www.w3.org/2000/svg">
<path d="M341.923 261.052H316.752V261.242H341.923V261.052Z" fill="#EBEBEB"/>
<path d="M251.727 263.12H245.123V263.31H251.727V263.12Z" fill="#EBEBEB"/>
<path d="M315.993 254H301.408V254.19H315.993V254Z" fill="#EBEBEB"/>
<path d="M72.6935 255.276H39.8691V255.466H72.6935V255.276Z" fill="#EBEBEB"/>
<path d="M84.2756 255.276H79.4648V255.466H84.2756V255.276Z" fill="#EBEBEB"/>
<path d="M171.115 258.484H99.918V258.674H171.115V258.484Z" fill="#EBEBEB"/>
<path d="M181.183 214.928H34.4275C33.2766 214.928 32.1728 214.471 31.3589 213.657C30.5451 212.843 30.0879 211.739 30.0879 210.588V4.3016C30.0979 3.15726 30.5595 2.06321 31.3723 1.25758C32.185 0.451943 33.2831 -4.38717e-05 34.4275 3.19394e-09H181.183C181.753 3.19394e-09 182.318 0.112246 182.844 0.330331C183.371 0.548417 183.849 0.86807 184.252 1.27104C184.655 1.67401 184.975 2.1524 185.193 2.67891C185.411 3.20541 185.523 3.76971 185.523 4.3396V210.588C185.523 211.158 185.411 211.723 185.193 212.249C184.975 212.776 184.655 213.254 184.252 213.657C183.849 214.06 183.371 214.38 182.844 214.598C182.318 214.816 181.753 214.928 181.183 214.928ZM34.4275 0.152001C33.3276 0.15401 32.2733 0.591843 31.4955 1.36961C30.7177 2.14737 30.2799 3.20167 30.2779 4.3016V210.588C30.2799 211.688 30.7177 212.743 31.4955 213.52C32.2733 214.298 33.3276 214.736 34.4275 214.738H181.183C182.283 214.736 183.338 214.298 184.115 213.52C184.893 212.743 185.331 211.688 185.333 210.588V4.3016C185.331 3.20167 184.893 2.14737 184.115 1.36961C183.338 0.591843 182.283 0.15401 181.183 0.152001H34.4275Z" fill="#EBEBEB"/>
<path d="M345.572 214.928H198.816C197.665 214.928 196.561 214.471 195.748 213.657C194.934 212.843 194.477 211.739 194.477 210.588V4.3016C194.487 3.15726 194.948 2.06321 195.761 1.25758C196.574 0.451943 197.672 -4.38717e-05 198.816 3.19394e-09H345.572C346.723 3.19395e-09 347.827 0.457207 348.641 1.27104C349.455 2.08487 349.912 3.18867 349.912 4.3396V210.588C349.912 211.739 349.455 212.843 348.641 213.657C347.827 214.471 346.723 214.928 345.572 214.928ZM198.816 0.152001C197.716 0.15401 196.662 0.591843 195.884 1.36961C195.106 2.14737 194.669 3.20167 194.667 4.3016V210.588C194.669 211.688 195.106 212.743 195.884 213.52C196.662 214.298 197.716 214.736 198.816 214.738H345.572C346.672 214.736 347.726 214.298 348.504 213.52C349.282 212.743 349.72 211.688 349.722 210.588V4.3016C349.72 3.20167 349.282 2.14737 348.504 1.36961C347.726 0.591843 346.672 0.15401 345.572 0.152001H198.816Z" fill="#EBEBEB"/>
<path d="M380 248.824H0V249.014H380V248.824Z" fill="#EBEBEB"/>
<path d="M69.0686 153.619L57.4558 150.032C57.2878 149.971 57.1467 149.852 57.0573 149.698C56.9678 149.543 56.9356 149.362 56.9665 149.186C56.9973 149.01 57.0892 148.85 57.2259 148.735C57.3627 148.62 57.5355 148.557 57.7142 148.557L71.1054 149.264C67.9438 143.769 66.0742 140.334 63.9462 136.032C63.8754 135.87 63.8638 135.687 63.9135 135.517C63.9631 135.346 64.0709 135.199 64.218 135.099C64.3652 135 64.5424 134.955 64.719 134.973C64.8957 134.991 65.0605 135.07 65.185 135.196C68.0426 138.411 70.4366 141.018 74.305 145.13C75.217 139.81 76.281 134.908 77.6034 129.99C77.6377 129.789 77.7506 129.609 77.9173 129.491C78.0841 129.372 78.291 129.325 78.4926 129.36C78.6942 129.394 78.8739 129.507 78.9921 129.673C79.1104 129.84 79.1577 130.047 79.1234 130.249C78.7681 134.21 78.6387 138.189 78.7358 142.166L79.1006 142.295C82.3129 138.626 85.6847 135.103 89.2162 131.723C89.3583 131.612 89.5354 131.555 89.7158 131.562C89.8962 131.569 90.0681 131.641 90.2007 131.763C90.3333 131.886 90.4179 132.052 90.4394 132.231C90.461 132.41 90.418 132.591 90.3182 132.742C86.9031 137.072 83.7486 141.602 80.8714 146.308C85.4618 144.575 90.0775 142.895 94.7186 141.269C94.8936 141.219 95.0808 141.233 95.2462 141.309C95.4115 141.386 95.544 141.519 95.6194 141.684C95.6949 141.85 95.7084 142.037 95.6575 142.212C95.6065 142.387 95.4945 142.538 95.3418 142.637C90.531 145.365 85.7734 148.154 81.0234 151.042L93.267 154.941C93.4363 155.002 93.5783 155.122 93.6677 155.278C93.7571 155.434 93.7882 155.617 93.7553 155.794C93.7225 155.971 93.6279 156.131 93.4883 156.245C93.3488 156.358 93.1734 156.419 92.9934 156.416L80.4154 155.656C82.9006 158.566 84.6258 160.565 86.6398 162.822C86.7533 162.961 86.8142 163.135 86.8118 163.314C86.8093 163.493 86.7437 163.666 86.6264 163.801C86.5091 163.937 86.3478 164.026 86.1709 164.055C85.994 164.083 85.8128 164.047 85.6594 163.955C83.1286 162.275 80.9018 160.786 77.6642 158.635C77.9986 161.219 78.2798 163.195 78.6218 165.186C78.6408 165.365 78.5959 165.544 78.4949 165.693C78.3939 165.842 78.2435 165.95 78.0703 165.998C77.8971 166.047 77.7124 166.032 77.549 165.957C77.3856 165.882 77.254 165.752 77.1778 165.589C76.3342 163.438 75.5666 161.302 74.5938 158.46C70.9382 175.94 71.8806 192.911 75.4146 210.3L71.037 209.54C68.4569 192.459 69.1533 175.044 73.089 158.224C70.8926 160.504 69.289 162.199 67.769 163.917C67.6401 164.043 67.4705 164.119 67.2906 164.132C67.1106 164.145 66.932 164.093 66.7866 163.986C66.6413 163.879 66.5388 163.724 66.4974 163.548C66.4559 163.373 66.4784 163.188 66.5606 163.028C67.5942 161.31 68.7114 159.57 70.2162 157.312C66.3022 158.171 63.627 158.764 60.6706 159.433C60.4932 159.465 60.3102 159.433 60.1543 159.342C59.9984 159.252 59.8798 159.109 59.8195 158.939C59.7592 158.769 59.7613 158.583 59.8253 158.415C59.8893 158.246 60.0111 158.106 60.169 158.019C62.8214 156.598 65.3598 155.382 69.0686 153.619Z" fill="#EBEBEB"/>
<path d="M62.8905 159.661L71.8129 154.934C72.0363 154.821 72.2099 154.629 72.2999 154.395C72.3898 154.161 72.3899 153.903 72.3 153.669C72.2101 153.435 72.0367 153.243 71.8133 153.13C71.5899 153.017 71.3325 152.991 71.0909 153.057L60.0785 155.8C61.8721 150.632 63.0045 147.151 64.1141 143.321C64.1821 143.085 64.1619 142.832 64.0572 142.61C63.9525 142.388 63.7705 142.211 63.5452 142.114C63.3198 142.016 63.0667 142.004 62.8329 142.079C62.5991 142.154 62.4008 142.312 62.2749 142.523C60.4661 145.563 58.7409 148.299 56.1949 152.335C54.6749 148.215 53.0713 144.393 51.3385 140.638C51.2297 140.414 51.042 140.238 50.8114 140.144C50.5808 140.05 50.3236 140.044 50.089 140.128C49.8545 140.212 49.6591 140.379 49.5405 140.598C49.4218 140.817 49.3882 141.072 49.4461 141.315C50.2061 144.294 50.8369 147.296 51.3233 150.237L50.9889 150.435C48.1009 148.185 45.147 146.029 42.1273 143.967C41.917 143.821 41.6593 143.761 41.4063 143.798C41.1532 143.835 40.9235 143.966 40.7635 144.166C40.6035 144.365 40.525 144.618 40.544 144.873C40.563 145.128 40.6779 145.366 40.8657 145.54C44.0476 148.453 47.0876 151.509 49.9857 154.706C46.0793 154.032 42.1653 153.388 38.2437 152.775C37.9959 152.741 37.7441 152.8 37.537 152.94C37.33 153.081 37.1824 153.293 37.1228 153.536C37.0632 153.779 37.0959 154.035 37.2145 154.256C37.3331 154.476 37.5292 154.644 37.7649 154.729C42.0969 156.249 46.3985 157.769 50.6849 159.387L41.1925 164.525C40.9596 164.636 40.778 164.831 40.6847 165.072C40.5914 165.312 40.5935 165.579 40.6906 165.818C40.7878 166.057 40.9725 166.25 41.2071 166.357C41.4417 166.464 41.7083 166.478 41.9525 166.395L52.1745 163.803C50.6545 166.395 49.5601 168.363 48.3745 170.324C48.2448 170.535 48.1973 170.787 48.2413 171.031C48.2852 171.275 48.4173 171.495 48.6126 171.648C48.8079 171.801 49.0526 171.877 49.3002 171.861C49.5478 171.845 49.781 171.739 49.9553 171.562L55.4805 166.159C55.5717 167.679 55.6477 169.032 55.6933 170.278C55.7033 170.528 55.8055 170.765 55.98 170.944C56.1545 171.122 56.389 171.23 56.6383 171.246C56.8876 171.262 57.134 171.185 57.33 171.03C57.526 170.876 57.6577 170.654 57.6997 170.407C57.9505 168.887 58.1937 167.307 58.4597 165.414C65.2997 181.914 67.5797 198.748 67.3213 216.494L71.4785 214.898C70.8253 197.636 66.8892 180.656 59.8809 164.867C61.4617 165.976 62.7841 166.919 63.9925 167.808C64.1941 167.985 64.4578 168.076 64.7258 168.058C64.9937 168.041 65.2439 167.918 65.4213 167.717C65.5987 167.515 65.6887 167.252 65.6716 166.984C65.6545 166.716 65.5317 166.465 65.3301 166.288C64.5093 165.414 63.6049 164.487 62.5637 163.423C65.6037 163.507 67.9293 163.575 70.1637 163.651C70.4097 163.656 70.6494 163.572 70.8376 163.413C71.0259 163.255 71.1498 163.033 71.1862 162.79C71.2225 162.546 71.1688 162.298 71.0352 162.091C70.9015 161.885 70.697 161.734 70.4601 161.667C68.2409 161.067 65.9381 160.451 62.8905 159.661Z" fill="#F0F0F0"/>
<path d="M78.6454 169.252L71.9878 165.718C71.835 165.635 71.7176 165.5 71.6575 165.337C71.5974 165.174 71.5986 164.995 71.661 164.833C71.7234 164.671 71.8427 164.537 71.9965 164.457C72.1504 164.376 72.3283 164.354 72.497 164.396L80.6974 166.44C79.3598 162.594 78.5314 160.041 77.7106 157.183C77.6279 157.007 77.6187 156.805 77.685 156.622C77.7513 156.439 77.8876 156.289 78.0639 156.207C78.2403 156.124 78.4423 156.115 78.6254 156.181C78.8086 156.247 78.9579 156.384 79.0406 156.56C80.3934 158.794 81.6626 160.846 83.555 163.848C84.7026 160.77 85.8882 157.92 87.1878 155.116C87.2645 154.957 87.3972 154.832 87.5604 154.766C87.7236 154.699 87.9057 154.695 88.0717 154.754C88.2377 154.814 88.3759 154.932 88.4597 155.088C88.5434 155.243 88.5668 155.423 88.5254 155.595C87.9402 157.875 87.4614 160.155 87.0965 162.366L87.3093 162.488C89.4981 160.78 91.7427 159.146 94.0429 157.586C94.1168 157.528 94.2013 157.485 94.2917 157.46C94.3821 157.435 94.4766 157.428 94.5697 157.439C94.6629 157.45 94.7529 157.48 94.8347 157.526C94.9164 157.572 94.9883 157.634 95.0462 157.708C95.104 157.781 95.1468 157.866 95.172 157.956C95.1972 158.047 95.2044 158.141 95.1931 158.234C95.1818 158.327 95.1523 158.418 95.1062 158.499C95.0601 158.581 94.9984 158.653 94.9246 158.711C92.528 160.884 90.248 163.164 88.0846 165.551C91.003 165.044 93.9315 164.56 96.8702 164.099C97.0479 164.069 97.2305 164.107 97.3813 164.206C97.532 164.305 97.6399 164.457 97.6832 164.632C97.7264 164.807 97.7019 164.992 97.6146 165.15C97.5272 165.307 97.3835 165.426 97.2122 165.482C93.9847 166.602 90.7648 167.762 87.5525 168.963L94.6206 172.763C94.7759 172.845 94.8957 172.981 94.957 173.146C95.0183 173.31 95.0169 173.492 94.953 173.655C94.889 173.819 94.7671 173.953 94.6105 174.032C94.4538 174.112 94.2734 174.131 94.1038 174.086L86.5038 172.155C87.621 174.108 88.4646 175.568 89.3386 177.05C89.4228 177.198 89.451 177.372 89.4181 177.54C89.3852 177.707 89.2934 177.857 89.1592 177.963C89.025 178.069 88.8574 178.123 88.6867 178.116C88.5161 178.108 88.3537 178.04 88.2289 177.924L84.1402 173.903C84.0642 175.112 84.011 176.145 83.9729 177.11C83.9699 177.29 83.8995 177.462 83.7756 177.591C83.6517 177.721 83.4835 177.8 83.3044 177.811C83.1253 177.823 82.9484 177.766 82.809 177.653C82.6695 177.54 82.5777 177.379 82.5518 177.202C82.3618 176.054 82.1717 174.823 81.9589 173.356C76.9581 185.387 75.3317 197.676 75.4989 210.596L72.4589 209.433C72.9357 196.847 75.8039 184.467 80.9102 172.953C79.6866 173.82 78.6301 174.549 77.7333 175.233C77.5906 175.346 77.4098 175.401 77.2282 175.385C77.0466 175.37 76.8778 175.285 76.7564 175.149C76.635 175.013 76.5701 174.836 76.5751 174.654C76.5802 174.472 76.6546 174.298 76.7834 174.169C77.4294 173.485 78.1286 172.756 78.957 171.889L73.2114 172.056C73.035 172.063 72.8623 172.005 72.7266 171.892C72.5908 171.779 72.5016 171.62 72.4761 171.446C72.4506 171.271 72.4907 171.093 72.5885 170.946C72.6864 170.799 72.8352 170.694 73.0061 170.65C74.6249 170.301 76.3426 169.845 78.6454 169.252Z" fill="#F5F5F5"/>
<path d="M59.8811 248.695H82.5443C83.3079 248.696 84.0431 248.406 84.5997 247.883C85.1563 247.36 85.4922 246.645 85.5387 245.883L87.9403 206.788C88.0467 205.063 54.3787 205.063 54.5003 206.788L56.9019 245.883C56.9483 246.642 57.282 247.356 57.8354 247.878C58.3888 248.4 59.1202 248.692 59.8811 248.695Z" fill="#F0F0F0"/>
<path d="M58.5194 158.369C58.2247 158.126 57.9958 157.813 57.8537 157.458C57.7117 157.103 57.6609 156.719 57.7062 156.34L58.2154 152.008L57.0526 154.022C56.8917 154.304 56.6721 154.55 56.4085 154.741C56.145 154.932 55.8436 155.064 55.5246 155.129C55.2057 155.194 54.8766 155.189 54.5594 155.116C54.2422 155.043 53.9443 154.903 53.6858 154.706L51.4058 152.988L53.4806 156.34C53.7716 156.804 53.8857 157.357 53.802 157.899C53.7182 158.44 53.4423 158.934 53.0246 159.288L50.3418 161.568L52.9714 160.968C53.5288 160.837 54.1149 160.921 54.6134 161.203C55.1118 161.484 55.4861 161.943 55.6618 162.488L56.5662 165.254L57.1438 162.313C57.2064 162.002 57.3335 161.707 57.5168 161.447C57.7001 161.188 57.9356 160.969 58.2083 160.806C58.4809 160.643 58.7846 160.539 59.1 160.5C59.4153 160.461 59.7353 160.488 60.0394 160.58L61.8102 161.097L58.5194 158.369Z" fill="#E6E6E6"/>
<path d="M73.6221 150.906C73.8383 150.729 74.006 150.5 74.1097 150.241C74.2134 149.982 74.2496 149.701 74.2149 149.424L73.8425 146.254L74.6937 147.729C74.811 147.935 74.971 148.114 75.1631 148.253C75.3552 148.392 75.5748 148.489 75.8073 148.537C76.0397 148.584 76.2797 148.581 76.511 148.529C76.7423 148.476 76.9597 148.374 77.1485 148.23L78.8129 146.976L77.2929 149.424C77.0827 149.763 77.0008 150.166 77.0622 150.561C77.1235 150.955 77.324 151.315 77.6273 151.574L79.5881 153.262L77.6653 152.821C77.259 152.728 76.8327 152.79 76.4699 152.996C76.1072 153.201 75.8342 153.534 75.7045 153.93L75.0433 155.952L74.6177 153.801C74.5721 153.573 74.4798 153.357 74.3464 153.167C74.2131 152.977 74.0418 152.816 73.8432 152.695C73.6446 152.575 73.4231 152.496 73.1928 152.466C72.9624 152.435 72.7282 152.452 72.5049 152.517L71.2129 152.897L73.6221 150.906Z" fill="#F5F5F5"/>
<path d="M82.5824 169.047C82.736 168.917 82.8551 168.751 82.9293 168.564C83.0036 168.377 83.0306 168.175 83.008 167.975L82.742 165.695L83.35 166.752C83.4351 166.899 83.5506 167.026 83.6887 167.126C83.8268 167.225 83.9844 167.294 84.1511 167.328C84.3178 167.361 84.4898 167.359 84.6557 167.322C84.8215 167.284 84.9775 167.211 85.1132 167.109L86.3064 166.205L85.2196 167.96C85.0748 168.201 85.019 168.485 85.0621 168.763C85.1051 169.041 85.2443 169.294 85.4552 169.48L86.8612 170.689L85.4856 170.369C85.1978 170.301 84.8949 170.341 84.6344 170.481C84.3739 170.621 84.1738 170.852 84.072 171.129L83.6008 172.581L83.2968 171.061C83.2646 170.897 83.1984 170.741 83.1025 170.604C83.0067 170.467 82.8832 170.352 82.7401 170.265C82.597 170.178 82.4374 170.123 82.2715 170.101C82.1057 170.08 81.9371 170.094 81.7768 170.141L80.8496 170.415L82.5824 169.047Z" fill="#E6E6E6"/>
<path d="M292.326 61.3015H272.437C271.883 61.3015 271.434 61.7507 271.434 62.3047V66.1731C271.434 66.7272 271.883 67.1763 272.437 67.1763H292.326C292.88 67.1763 293.329 66.7272 293.329 66.1731V62.3047C293.329 61.7507 292.88 61.3015 292.326 61.3015Z" fill="#F5F5F5"/>
<path d="M285.638 68.5825H265.749C265.195 68.5825 264.746 69.0317 264.746 69.5857V73.4541C264.746 74.0082 265.195 74.4573 265.749 74.4573H285.638C286.193 74.4573 286.642 74.0082 286.642 73.4541V69.5857C286.642 69.0317 286.193 68.5825 285.638 68.5825Z" fill="#F5F5F5"/>
<path d="M308.553 68.5825H288.663C288.109 68.5825 287.66 69.0317 287.66 69.5857V73.4541C287.66 74.0082 288.109 74.4573 288.663 74.4573H308.553C309.107 74.4573 309.556 74.0082 309.556 73.4541V69.5857C309.556 69.0317 309.107 68.5825 308.553 68.5825Z" fill="#F0F0F0"/>
<path d="M319.185 14.5388H297.966C297.412 14.5388 296.963 14.988 296.963 15.542V19.7676C296.963 20.3217 297.412 20.7708 297.966 20.7708H319.185C319.739 20.7708 320.188 20.3217 320.188 19.7676V15.542C320.188 14.988 319.739 14.5388 319.185 14.5388Z" fill="#F5F5F5"/>
<path d="M319.185 29.9973H297.966C297.412 29.9973 296.963 30.4465 296.963 31.0005V35.2261C296.963 35.7802 297.412 36.2293 297.966 36.2293H319.185C319.739 36.2293 320.188 35.7802 320.188 35.2261V31.0005C320.188 30.4465 319.739 29.9973 319.185 29.9973Z" fill="#F5F5F5"/>
<path d="M312.093 22.2605H290.874C290.32 22.2605 289.871 22.7096 289.871 23.2637V27.4893C289.871 28.0433 290.32 28.4925 290.874 28.4925H312.093C312.648 28.4925 313.097 28.0433 313.097 27.4893V23.2637C313.097 22.7096 312.648 22.2605 312.093 22.2605Z" fill="#F5F5F5"/>
<path d="M336.398 22.2605H315.179C314.625 22.2605 314.176 22.7096 314.176 23.2637V27.4893C314.176 28.0433 314.625 28.4925 315.179 28.4925H336.398C336.952 28.4925 337.401 28.0433 337.401 27.4893V23.2637C337.401 22.7096 336.952 22.2605 336.398 22.2605Z" fill="#F0F0F0"/>
<path d="M166.388 203.832L312.346 203.832V199.637L166.388 199.637V203.832Z" fill="#F5F5F5"/>
<path d="M311.258 203.832H343.953V199.637H311.258V203.832Z" fill="#EBEBEB"/>
<path d="M181.556 214.031V203.832H174.754L181.556 214.031Z" fill="#E0E0E0"/>
<path d="M178.159 214.031L171.357 203.832H174.755L181.557 214.031H178.159Z" fill="#FAFAFA"/>
<path d="M338.626 214.031V203.832H331.824L338.626 214.031Z" fill="#E0E0E0"/>
<path d="M335.22 214.031L328.426 203.832H331.823L338.625 214.031H335.22Z" fill="#FAFAFA"/>
<path d="M320.591 200.207H324.436C324.846 200.207 325.252 200.125 325.629 199.964C326.006 199.804 326.346 199.569 326.63 199.274C326.914 198.979 327.135 198.629 327.281 198.246C327.426 197.863 327.493 197.455 327.476 197.045L326.99 182.56H318.022L317.536 197.045C317.519 197.456 317.586 197.865 317.733 198.249C317.879 198.633 318.102 198.984 318.387 199.279C318.673 199.575 319.015 199.809 319.394 199.969C319.773 200.128 320.18 200.209 320.591 200.207Z" fill="#F0F0F0"/>
<path d="M304.282 191.033C307.612 187.702 307.612 182.303 304.282 178.973C300.952 175.643 295.553 175.643 292.223 178.973C288.893 182.303 288.893 187.702 292.223 191.033C295.553 194.363 300.952 194.363 304.282 191.033Z" fill="#F0F0F0"/>
<path d="M297.662 200.078H298.847V194.431H298.255C296.995 194.467 295.741 194.249 294.567 193.792C293.393 193.335 292.322 192.647 291.419 191.768C290.515 190.89 289.797 189.839 289.306 188.679C288.816 187.518 288.563 186.271 288.563 185.011C288.563 183.751 288.816 182.503 289.306 181.342C289.797 180.182 290.515 179.131 291.419 178.253C292.322 177.375 293.393 176.686 294.567 176.229C295.741 175.772 296.995 175.555 298.255 175.59V174.397C295.583 174.536 293.062 175.676 291.193 177.59C289.324 179.504 288.245 182.052 288.17 184.726C288.095 187.4 289.031 190.004 290.79 192.019C292.549 194.035 295.002 195.314 297.662 195.601V200.078Z" fill="#EBEBEB"/>
<path d="M293.246 200.207H303.384C303.384 199.602 303.144 199.022 302.716 198.595C302.289 198.167 301.709 197.927 301.104 197.927H295.51C294.906 197.927 294.326 198.167 293.898 198.595C293.471 199.022 293.23 199.602 293.23 200.207H293.246Z" fill="#EBEBEB"/>
<path d="M321.169 200.207L313.159 192.196L305.141 200.207H321.169Z" fill="#F5F5F5"/>
<path d="M313.158 192.196L321.169 200.207H313.158V192.196Z" fill="#E6E6E6"/>
<path d="M257.306 189.726C257.344 190.486 257.367 191.094 257.367 191.497C257.367 193.156 257.005 194.794 256.307 196.298C255.608 197.803 254.59 199.136 253.323 200.207H239.241C237.978 199.138 236.963 197.808 236.266 196.308C235.569 194.808 235.207 193.174 235.205 191.52C235.205 191.117 235.205 190.509 235.266 189.749L257.306 189.726Z" fill="#F5F5F5"/>
<path d="M255.359 195.966C255.359 196.773 255.535 197.571 255.875 198.304C256.215 199.036 256.711 199.686 257.328 200.207H264.168C264.954 199.537 265.54 198.664 265.863 197.683C265.998 197.708 266.135 197.721 266.273 197.722C267.649 197.722 269.184 196.627 269.184 195.168C269.184 193.709 268.302 192.614 266.987 192.614C266.683 192.617 266.381 192.666 266.091 192.759V192.66C266.087 192.306 265.943 191.969 265.691 191.721C265.439 191.473 265.099 191.335 264.745 191.338H256.727C256.55 191.333 256.374 191.365 256.21 191.429C256.045 191.494 255.894 191.59 255.767 191.713C255.64 191.836 255.538 191.983 255.468 192.146C255.398 192.308 255.361 192.483 255.359 192.66C255.359 194.187 255.359 195.434 255.359 195.966ZM266.075 196.855C266.13 196.562 266.158 196.264 266.159 195.966C266.159 195.556 266.159 194.727 266.159 193.686C266.435 193.557 266.736 193.487 267.041 193.481C268.287 193.481 268.386 194.78 268.386 195.183C268.386 196.126 267.261 196.885 266.326 196.885L266.075 196.855Z" fill="#EBEBEB"/>
<path d="M191.855 200.207L192.973 187.37H176.701L175.576 200.207H191.855Z" fill="#F0F0F0"/>
<path d="M191.854 200.207L192.971 187.37H193.852L192.728 200.207H191.854Z" fill="#E0E0E0"/>
<path d="M190.304 198.9L191.2 188.685H178.242L177.346 198.9H190.304Z" fill="#FAFAFA"/>
<path d="M189.316 198.056L190.061 189.521H179.239L178.486 198.056H189.316Z" fill="#EBEBEB"/>
<path d="M210.201 200.207H193.854L195.662 179.474H212.018L210.201 200.207Z" fill="#F0F0F0"/>
<path d="M210.201 200.207H210.984L212.8 179.474H212.018L210.201 200.207Z" fill="#E0E0E0"/>
<path d="M208.718 198.094H195.699L197.143 181.587H210.162L208.718 198.094Z" fill="#E0E0E0"/>
<path d="M207.768 196.734H196.893L198.101 182.947H208.977L207.768 196.734Z" fill="#FAFAFA"/>
<path d="M199.917 190.425L200.986 191.495C201.93 192.438 203.46 192.439 204.404 191.495L205.474 190.425C206.417 189.481 206.417 187.951 205.474 187.007L204.404 185.938C203.46 184.994 201.93 184.994 200.986 185.938L199.917 187.007C198.973 187.951 198.973 189.481 199.917 190.425Z" fill="#EBEBEB"/>
<path d="M199.391 194.392L199.918 194.919C200.862 195.863 202.392 195.863 203.336 194.919L203.863 194.392C204.806 193.449 204.806 191.918 203.863 190.974L203.336 190.448C202.392 189.504 200.862 189.504 199.918 190.448L199.391 190.974C198.448 191.918 198.448 193.449 199.391 194.392Z" fill="#E6E6E6"/>
<path d="M52.736 52.2424H75.9616C76.5157 52.2424 76.9648 51.7933 76.9648 51.2392V46.474C76.9648 45.92 76.5157 45.4708 75.9616 45.4708H52.736C52.182 45.4708 51.7328 45.92 51.7328 46.474V51.2392C51.7328 51.7933 52.182 52.2424 52.736 52.2424Z" fill="#F5F5F5"/>
<path d="M64.5173 43.8521H87.7429C88.2969 43.8521 88.7461 43.4029 88.7461 42.8489V38.0837C88.7461 37.5296 88.2969 37.0805 87.7429 37.0805H64.5173C63.9632 37.0805 63.5141 37.5296 63.5141 38.0837V42.8489C63.5141 43.4029 63.9632 43.8521 64.5173 43.8521Z" fill="#F5F5F5"/>
<path d="M38.115 43.8521H61.3406C61.8946 43.8521 62.3438 43.4029 62.3438 42.8489V38.0837C62.3438 37.5296 61.8946 37.0805 61.3406 37.0805H38.115C37.5609 37.0805 37.1118 37.5296 37.1118 38.0837V42.8489C37.1118 43.4029 37.5609 43.8521 38.115 43.8521Z" fill="#F0F0F0"/>
<path d="M190.001 280.22C271.384 280.22 337.357 276.368 337.357 271.616C337.357 266.865 271.384 263.013 190.001 263.013C108.618 263.013 42.6445 266.865 42.6445 271.616C42.6445 276.368 108.618 280.22 190.001 280.22Z" fill="#F5F5F5"/>
<path d="M298.482 20.1323H254.022C246.202 20.1323 239.863 26.4714 239.863 34.2911V154.964C239.863 162.784 246.202 169.123 254.022 169.123H298.482C306.302 169.123 312.641 162.784 312.641 154.964V34.2911C312.641 26.4714 306.302 20.1323 298.482 20.1323Z" fill="#407BFF"/>
<path opacity="0.3" d="M298.642 20.1323H253.862C246.131 20.1323 239.863 26.4 239.863 34.1315V155.124C239.863 162.855 246.131 169.123 253.862 169.123H298.642C306.373 169.123 312.641 162.855 312.641 155.124V34.1315C312.641 26.4 306.373 20.1323 298.642 20.1323Z" fill="black"/>
<path d="M312.641 27.4435V56.9999H239.863V27.4435C239.863 25.5045 240.634 23.6448 242.005 22.2737C243.376 20.9026 245.235 20.1323 247.175 20.1323H305.33C307.269 20.1323 309.128 20.9026 310.499 22.2737C311.871 23.6448 312.641 25.5045 312.641 27.4435Z" fill="#407BFF"/>
<path d="M260.452 36.0392C260.452 37.4984 259.372 38.3952 257.632 38.3952H256.112V40.28H254.881V33.668H257.64C259.372 33.6908 260.452 34.58 260.452 36.0392ZM259.213 36.0392C259.213 35.2108 258.658 34.7244 257.579 34.7244H256.12V37.354H257.556C258.658 37.354 259.213 36.8752 259.213 36.0392Z" fill="white"/>
<path d="M264.479 35.2032V36.328C264.388 36.318 264.296 36.318 264.205 36.328C264.004 36.3135 263.803 36.3433 263.614 36.4153C263.426 36.4873 263.256 36.5998 263.116 36.7448C262.976 36.8898 262.87 37.0638 262.805 37.2544C262.739 37.445 262.717 37.6477 262.739 37.848V40.28H261.561V35.2336H262.685V35.9936C262.889 35.7167 263.162 35.498 263.477 35.3593C263.791 35.2206 264.137 35.1668 264.479 35.2032Z" fill="white"/>
<path d="M270.119 38.1595H266.16C266.235 38.5271 266.443 38.8539 266.745 39.0769C267.047 39.3 267.42 39.4037 267.794 39.3679C268.048 39.377 268.302 39.333 268.539 39.2388C268.776 39.1446 268.99 39.0023 269.169 38.8207L269.8 39.5807C269.417 39.9596 268.934 40.2216 268.408 40.336C267.882 40.4504 267.334 40.4125 266.828 40.2267C266.323 40.0409 265.88 39.7149 265.553 39.2869C265.226 38.8589 265.028 38.3466 264.982 37.8099C264.971 37.4661 265.031 37.1237 265.159 36.8042C265.286 36.4847 265.479 36.195 265.723 35.9532C265.968 35.7114 266.26 35.5227 266.581 35.3988C266.902 35.275 267.245 35.2187 267.588 35.2335C267.932 35.2202 268.274 35.2789 268.594 35.4059C268.913 35.5329 269.203 35.7254 269.443 35.9709C269.684 36.2165 269.87 36.5097 269.99 36.8316C270.111 37.1536 270.163 37.4972 270.142 37.8403C270.142 37.9011 270.127 38.0455 270.119 38.1595ZM266.152 37.3995H269.04C269.004 37.0509 268.835 36.7293 268.57 36.5005C268.304 36.2717 267.961 36.1529 267.611 36.1683C267.261 36.1499 266.916 36.2639 266.646 36.4878C266.376 36.7116 266.199 37.0289 266.152 37.3767V37.3995Z" fill="white"/>
<path d="M279.717 37.4146V40.2798H278.531V37.5362C278.531 36.6394 278.113 36.2062 277.399 36.2062C276.685 36.2062 276.084 36.7154 276.084 37.7262V40.2798H274.906V37.5362C274.906 36.6394 274.488 36.2062 273.766 36.2062C273.044 36.2062 272.451 36.7154 272.451 37.7262V40.2798H271.273V35.2334H272.398V35.8794C272.605 35.6469 272.861 35.4635 273.148 35.3425C273.434 35.2216 273.744 35.1661 274.055 35.1802C274.386 35.1581 274.717 35.2237 275.015 35.3705C275.312 35.5173 275.566 35.74 275.75 36.0162C275.982 35.743 276.272 35.5258 276.6 35.381C276.928 35.2362 277.284 35.1675 277.642 35.1802C278.866 35.203 279.717 35.887 279.717 37.4146Z" fill="white"/>
<path d="M281.062 33.7135C281.076 33.5213 281.162 33.3414 281.303 33.2101C281.444 33.0789 281.63 33.0062 281.822 33.0067C281.918 32.9994 282.014 33.0116 282.104 33.0424C282.195 33.0733 282.278 33.1221 282.349 33.1861C282.42 33.25 282.477 33.3277 282.517 33.4144C282.558 33.5012 282.58 33.5951 282.582 33.6907C282.582 33.8922 282.502 34.0855 282.36 34.2281C282.217 34.3706 282.024 34.4507 281.822 34.4507C281.621 34.4507 281.428 34.3706 281.285 34.2281C281.143 34.0855 281.062 33.8922 281.062 33.6907V33.7135ZM281.23 35.2335H282.408V40.2799H281.199L281.23 35.2335Z" fill="white"/>
<path d="M288.846 35.2564V40.28H287.721V39.6416C287.519 39.8719 287.268 40.0546 286.987 40.1768C286.706 40.299 286.401 40.3576 286.095 40.3484C285.797 40.3769 285.497 40.3381 285.216 40.2349C284.935 40.1317 284.681 39.9669 284.472 39.7524C284.264 39.538 284.106 39.2794 284.011 38.9959C283.915 38.7123 283.885 38.411 283.921 38.114V35.2336H285.099V38C285.099 38.9196 285.54 39.3528 286.285 39.3528C286.481 39.3616 286.676 39.327 286.856 39.2516C287.037 39.1762 287.199 39.0618 287.33 38.9166C287.462 38.7714 287.56 38.599 287.617 38.4116C287.674 38.2243 287.689 38.0266 287.66 37.8328V35.2792L288.846 35.2564Z" fill="white"/>
<path d="M298.832 37.4146V40.2798H297.654V37.5362C297.654 36.6394 297.236 36.2062 296.522 36.2062C295.808 36.2062 295.207 36.7154 295.207 37.7262V40.2798H294.022V37.5362C294.022 36.6394 293.611 36.2062 292.889 36.2062C292.167 36.2062 291.574 36.7154 291.574 37.7262V40.2798H290.396V35.2334H291.521V35.8794C291.728 35.6469 291.984 35.4635 292.271 35.3425C292.557 35.2216 292.867 35.1661 293.178 35.1802C293.509 35.1581 293.84 35.2237 294.138 35.3705C294.435 35.5173 294.689 35.74 294.873 36.0162C295.105 35.743 295.395 35.5258 295.723 35.381C296.051 35.2362 296.407 35.1675 296.765 35.1802C297.989 35.203 298.832 35.887 298.832 37.4146Z" fill="white"/>
<path d="M291.445 145.684H261.06C256.93 145.684 253.582 149.033 253.582 153.163V153.733C253.582 157.863 256.93 161.211 261.06 161.211H291.445C295.575 161.211 298.924 157.863 298.924 153.733V153.163C298.924 149.033 295.575 145.684 291.445 145.684Z" fill="#407BFF"/>
<path d="M264.479 154.637C264.479 156.051 263.347 156.993 261.576 157.137L261.34 158.308H260.276L260.512 157.137C259.642 157.084 258.801 156.804 258.072 156.324L258.779 155.009C259.371 155.433 260.062 155.695 260.785 155.769L261.15 153.976C260.162 153.679 259.075 153.284 259.075 152C259.075 150.586 260.238 149.629 262.039 149.507L262.275 148.337H263.339L263.103 149.515C263.792 149.569 264.459 149.777 265.057 150.123L264.411 151.437C263.936 151.129 263.394 150.939 262.83 150.883L262.457 152.752C263.438 153.033 264.479 153.413 264.479 154.637ZM261.439 152.448L261.743 150.928C261.143 151.042 260.801 151.369 260.793 151.779C260.785 152.19 261.074 152.289 261.439 152.448ZM262.754 154.911C262.754 154.607 262.511 154.409 262.138 154.272L261.849 155.731C262.442 155.61 262.769 155.313 262.769 154.911H262.754Z" fill="white"/>
<path d="M294.248 113.916H256.682V115.436H294.248V113.916Z" fill="#407BFF"/>
<path d="M294.248 88.958H256.682V90.478H294.248V88.958Z" fill="#407BFF"/>
<path d="M294.248 64.9041H256.682V66.4241H294.248V64.9041Z" fill="#407BFF"/>
<path d="M279.787 82.2476C282.339 79.6952 282.339 75.5568 279.787 73.0043C277.234 70.4519 273.096 70.4519 270.544 73.0043C267.991 75.5568 267.991 79.6952 270.544 82.2476C273.096 84.8001 277.234 84.8001 279.787 82.2476Z" fill="#407BFF"/>
<path d="M279.84 76.2126L276.085 79.9746L274.33 81.7302L272.574 79.9746L274.33 78.219L278.084 74.457L279.84 76.2126Z" fill="white"/>
<path d="M276.085 79.9747L274.329 81.7303L270.605 78.0063L272.361 76.2507L274.329 78.2191L276.085 79.9747Z" fill="white"/>
<path d="M275.165 108.277C278.775 108.277 281.701 105.351 281.701 101.741C281.701 98.1313 278.775 95.2051 275.165 95.2051C271.555 95.2051 268.629 98.1313 268.629 101.741C268.629 105.351 271.555 108.277 275.165 108.277Z" fill="#407BFF"/>
<path d="M279.84 100.328L276.085 104.09L274.33 105.845L272.574 104.09L274.33 102.334L278.084 98.572L279.84 100.328Z" fill="white"/>
<path d="M276.085 104.089L274.329 105.845L270.605 102.121L272.361 100.365L274.329 102.334L276.085 104.089Z" fill="white"/>
<path d="M275.165 134.14C278.775 134.14 281.701 131.214 281.701 127.604C281.701 123.994 278.775 121.068 275.165 121.068C271.555 121.068 268.629 123.994 268.629 127.604C268.629 131.214 271.555 134.14 275.165 134.14Z" fill="#407BFF"/>
<path d="M279.84 126.19L276.085 129.952L274.33 131.708L272.574 129.952L274.33 128.197L278.084 124.435L279.84 126.19Z" fill="white"/>
<path d="M276.085 129.952L274.329 131.708L270.605 127.984L272.361 126.228L274.329 128.197L276.085 129.952Z" fill="white"/>
<path d="M266.6 46.5271L267.824 48.4803L270.058 49.0351L268.576 50.8059L268.736 53.1087L266.6 52.2423L264.457 53.1087L264.617 50.8059L263.135 49.0351L265.377 48.4803L266.6 46.5271Z" fill="white"/>
<path d="M275.165 46.5271L276.389 48.4803L278.631 49.0351L277.149 50.8059L277.308 53.1087L275.165 52.2423L273.029 53.1087L273.189 50.8059L271.707 49.0351L273.941 48.4803L275.165 46.5271Z" fill="white"/>
<path d="M283.739 46.5271L284.955 48.4803L287.197 49.0351L285.715 50.8059L285.875 53.1087L283.739 52.2423L281.596 53.1087L281.755 50.8059L280.273 49.0351L282.515 48.4803L283.739 46.5271Z" fill="white"/>
<path d="M212.974 11.6509H168.514C160.695 11.6509 154.355 17.99 154.355 25.8097V146.482C154.355 154.302 160.695 160.641 168.514 160.641H212.974C220.794 160.641 227.133 154.302 227.133 146.482V25.8097C227.133 17.99 220.794 11.6509 212.974 11.6509Z" fill="#407BFF"/>
<path opacity="0.5" d="M212.503 11.6509H168.985C165.105 11.6509 161.384 13.1922 158.64 15.9359C155.897 18.6796 154.355 22.4008 154.355 26.2809V146.011C154.355 147.933 154.734 149.836 155.47 151.612C156.206 153.387 157.284 155 158.643 156.359C160.003 157.718 161.616 158.795 163.392 159.53C165.168 160.265 167.071 160.642 168.993 160.641H212.503C214.425 160.642 216.328 160.265 218.104 159.53C219.88 158.795 221.494 157.718 222.853 156.359C224.212 155 225.291 153.387 226.026 151.612C226.762 149.836 227.141 147.933 227.141 146.011V26.2809C227.141 24.359 226.762 22.456 226.026 20.6805C225.291 18.905 224.212 17.2918 222.853 15.9332C221.494 14.5746 219.88 13.4971 218.104 12.7623C216.328 12.0276 214.425 11.6499 212.503 11.6509Z" fill="white"/>
<path d="M227.141 18.9999V48.5487H154.355V18.9999C154.355 17.0609 155.126 15.2012 156.497 13.8301C157.868 12.459 159.728 11.6887 161.667 11.6887H219.822C221.762 11.6887 223.622 12.4588 224.994 13.8297C226.367 15.2006 227.139 17.0602 227.141 18.9999Z" fill="#407BFF"/>
<path d="M169.365 31.1599L169.791 30.2099C170.416 30.6933 171.182 30.9601 171.972 30.9699C172.998 30.9699 173.439 30.6051 173.439 30.1111C173.439 28.6899 169.502 29.6247 169.502 27.1623C169.502 26.0983 170.353 25.1863 172.17 25.1863C172.944 25.1773 173.706 25.3796 174.374 25.7715L173.986 26.7291C173.433 26.4008 172.805 26.2226 172.162 26.2123C171.136 26.2123 170.726 26.6075 170.726 27.1091C170.726 28.5151 174.647 27.5955 174.647 30.0275C174.647 31.0839 173.788 31.9959 171.972 31.9959C171.035 32.012 170.118 31.7181 169.365 31.1599Z" fill="white"/>
<path d="M178.789 31.5475C178.456 31.7821 178.056 31.9021 177.649 31.8895C177.415 31.9258 177.177 31.9072 176.952 31.8351C176.726 31.763 176.521 31.6394 176.352 31.4741C176.183 31.3089 176.055 31.1065 175.978 30.8831C175.901 30.6597 175.877 30.4213 175.908 30.1871V27.7627H175.08V26.8127H175.908V25.6575H177.079V26.8127H178.432V27.7627H177.079V30.1567C177.079 30.6507 177.322 30.9167 177.778 30.9167C178.015 30.9211 178.247 30.8491 178.439 30.7115L178.789 31.5475Z" fill="white"/>
<path d="M183.987 28.8799V31.8363H182.87V31.2207C182.685 31.4599 182.442 31.6481 182.164 31.7678C181.886 31.8874 181.582 31.9345 181.281 31.9047C180.126 31.9047 179.396 31.2739 179.396 30.3847C179.396 29.4955 179.966 28.8647 181.494 28.8647H182.801V28.7887C182.801 28.1047 182.383 27.6943 181.547 27.6943C180.999 27.691 180.466 27.8672 180.027 28.1959L179.548 27.3599C180.175 26.9277 180.924 26.7091 181.684 26.7367C183.158 26.7215 183.987 27.4131 183.987 28.8799ZM182.801 30.2631V29.6399H181.585C180.78 29.6399 180.559 29.9363 180.559 30.3087C180.559 30.6811 180.924 31.0079 181.524 31.0079C181.79 31.028 182.055 30.9658 182.283 30.8298C182.512 30.6938 182.693 30.4906 182.801 30.2479V30.2631Z" fill="white"/>
<path d="M190.47 28.9332V31.8212H189.285V29.0852C189.285 28.1884 188.844 27.7476 188.084 27.7476C187.887 27.737 187.689 27.77 187.506 27.8443C187.323 27.9186 187.158 28.0323 187.024 28.1774C186.89 28.3226 186.789 28.4955 186.729 28.6839C186.67 28.8724 186.652 29.0717 186.678 29.2676V31.8136H185.5V26.7748H186.625V27.4284C186.843 27.1894 187.112 27.002 187.412 26.8798C187.711 26.7575 188.034 26.7035 188.358 26.7216C188.649 26.6992 188.943 26.7418 189.216 26.8465C189.489 26.9512 189.736 27.1152 189.938 27.3269C190.14 27.5385 190.293 27.7924 190.385 28.0702C190.477 28.348 190.506 28.6428 190.47 28.9332Z" fill="white"/>
<path d="M196.961 24.814V31.8212H195.828V31.16C195.622 31.3978 195.364 31.5856 195.074 31.7094C194.785 31.8331 194.471 31.8895 194.156 31.8744C193.471 31.8744 192.814 31.6022 192.329 31.1176C191.845 30.633 191.572 29.9758 191.572 29.2904C191.572 28.6051 191.845 27.9479 192.329 27.4633C192.814 26.9787 193.471 26.7064 194.156 26.7064C194.46 26.6924 194.764 26.7458 195.045 26.8627C195.326 26.9797 195.578 27.1573 195.783 27.3828V24.7988L196.961 24.814ZM195.798 29.298C195.786 29.0003 195.687 28.7126 195.513 28.4708C195.339 28.2289 195.097 28.0436 194.819 27.9378C194.54 27.832 194.237 27.8105 193.946 27.8758C193.655 27.9412 193.39 28.0905 193.183 28.3053C192.977 28.5201 192.838 28.7909 192.784 29.0839C192.73 29.377 192.764 29.6795 192.88 29.9537C192.997 30.2279 193.192 30.4618 193.44 30.6263C193.689 30.7908 193.98 30.8786 194.278 30.8788C194.485 30.8858 194.69 30.8492 194.882 30.7713C195.074 30.6935 195.247 30.5763 195.39 30.4272C195.534 30.2781 195.644 30.1005 195.714 29.906C195.784 29.7114 195.813 29.5043 195.798 29.298Z" fill="white"/>
<path d="M202.737 28.8799V31.8363H201.62V31.2207C201.436 31.461 201.193 31.65 200.915 31.7698C200.637 31.8895 200.333 31.936 200.031 31.9047C198.884 31.9047 198.154 31.2739 198.154 30.3847C198.154 29.4955 198.717 28.8647 200.252 28.8647H201.559V28.7887C201.559 28.1047 201.141 27.6943 200.297 27.6943C199.749 27.6893 199.215 27.8656 198.777 28.1959L198.306 27.3599C198.932 26.9277 199.681 26.7091 200.442 26.7367C201.893 26.7215 202.737 27.4131 202.737 28.8799ZM201.559 30.2631V29.6399H200.335C199.53 29.6399 199.317 29.9363 199.317 30.3087C199.317 30.6811 199.674 31.0079 200.282 31.0079C200.547 31.028 200.812 30.9658 201.041 30.8298C201.269 30.6938 201.45 30.4906 201.559 30.2479V30.2631Z" fill="white"/>
<path d="M207.168 26.7216V27.8464C207.077 27.8361 206.986 27.8361 206.895 27.8464C206.69 27.8309 206.485 27.8614 206.294 27.9356C206.102 28.0097 205.93 28.1258 205.789 28.2751C205.649 28.4245 205.543 28.6035 205.481 28.7988C205.418 28.9942 205.4 29.2011 205.428 29.4044V31.8516H204.25V26.7748H205.375V27.5348C205.578 27.256 205.85 27.0345 206.164 26.892C206.479 26.7495 206.825 26.6908 207.168 26.7216Z" fill="white"/>
<path d="M213.066 24.814V31.8212H211.934V31.16C211.727 31.3978 211.469 31.5856 211.18 31.7094C210.89 31.8331 210.576 31.8895 210.262 31.8744C209.576 31.8744 208.919 31.6022 208.435 31.1176C207.95 30.633 207.678 29.9758 207.678 29.2904C207.678 28.6051 207.95 27.9479 208.435 27.4633C208.919 26.9787 209.576 26.7064 210.262 26.7064C210.566 26.6919 210.87 26.745 211.151 26.862C211.432 26.979 211.684 27.1568 211.888 27.3828V24.7988L213.066 24.814ZM211.903 29.298C211.891 29.0003 211.792 28.7126 211.618 28.4708C211.444 28.2289 211.203 28.0436 210.924 27.9378C210.646 27.832 210.342 27.8105 210.051 27.8758C209.761 27.9412 209.495 28.0905 209.289 28.3053C209.082 28.5201 208.943 28.7909 208.89 29.0839C208.836 29.377 208.869 29.6795 208.986 29.9537C209.102 30.2279 209.297 30.4618 209.546 30.6263C209.794 30.7908 210.085 30.8786 210.383 30.8788C210.59 30.887 210.797 30.8512 210.989 30.7738C211.181 30.6964 211.355 30.5792 211.498 30.4298C211.642 30.2805 211.752 30.1024 211.822 29.9073C211.892 29.7122 211.92 29.5046 211.903 29.298Z" fill="white"/>
<path d="M206.553 137.203H176.168C172.038 137.203 168.689 140.551 168.689 144.681V145.251C168.689 149.381 172.038 152.73 176.168 152.73H206.553C210.683 152.73 214.031 149.381 214.031 145.251V144.681C214.031 140.551 210.683 137.203 206.553 137.203Z" fill="#407BFF"/>
<path d="M209.364 105.435H171.797V106.955H209.364V105.435Z" fill="#407BFF"/>
<path d="M209.364 80.4763H171.797V81.9963H209.364V80.4763Z" fill="#407BFF"/>
<path d="M209.364 56.4224H171.797V57.9424H209.364V56.4224Z" fill="#407BFF"/>
<path d="M196.366 94.7607C197.196 91.2475 195.02 87.7273 191.507 86.8981C187.993 86.0689 184.473 88.2447 183.644 91.7579C182.815 95.2711 184.991 98.7913 188.504 99.6205C192.017 100.45 195.537 98.2739 196.366 94.7607Z" fill="#407BFF"/>
<path d="M194.689 91.8535L190.927 95.6079L189.172 97.3635L187.416 95.6079L189.172 93.8599L192.934 90.0979L194.689 91.8535Z" fill="white"/>
<path d="M190.927 95.608L189.171 97.3636L185.455 93.6396L187.203 91.8916L189.171 93.86L190.927 95.608Z" fill="white"/>
<path d="M193.08 125.161C196.415 123.78 197.999 119.956 196.617 116.621C195.236 113.287 191.412 111.703 188.078 113.084C184.743 114.466 183.159 118.289 184.54 121.624C185.922 124.959 189.745 126.543 193.08 125.161Z" fill="#407BFF"/>
<path d="M195.26 117.709L191.498 121.471L189.742 123.226L187.986 121.471L189.742 119.715L193.504 115.953L195.26 117.709Z" fill="white"/>
<path d="M191.497 121.471L189.742 123.226L186.025 119.502L187.773 117.747L189.742 119.715L191.497 121.471Z" fill="white"/>
<path d="M190.007 75.6808C193.579 75.6808 196.474 72.7852 196.474 69.2132C196.474 65.6413 193.579 62.7456 190.007 62.7456C186.435 62.7456 183.539 65.6413 183.539 69.2132C183.539 72.7852 186.435 75.6808 190.007 75.6808Z" fill="#263238"/>
<path opacity="0.5" d="M190.007 75.6808C193.579 75.6808 196.474 72.7852 196.474 69.2132C196.474 65.6413 193.579 62.7456 190.007 62.7456C186.435 62.7456 183.539 65.6413 183.539 69.2132C183.539 72.7852 186.435 75.6808 190.007 75.6808Z" fill="white"/>
<path d="M191.926 65.5561L186.354 71.1289L188.089 72.8647L193.662 67.2919L191.926 65.5561Z" fill="white"/>
<path d="M186.357 67.2941L191.93 72.8669L193.665 71.1311L188.093 65.5583L186.357 67.2941Z" fill="white"/>
<path d="M219.867 19.8284V37.1716L223.53 33.516V19.8284H219.867Z" fill="#407BFF"/>
<path d="M227.187 19.8284V37.1716L223.531 33.516V19.8284H227.187Z" fill="#407BFF"/>
<g opacity="0.3">
<path d="M227.194 19.8208V37.1792L223.53 33.5084L219.867 37.1792V19.8208H227.194Z" fill="black"/>
</g>
<path d="M225.316 2.48518C225.566 2.9611 225.992 3.3205 226.503 3.48664C227.014 3.65278 227.57 3.61249 228.052 3.37437C228.391 3.20901 228.768 3.13907 229.144 3.17207C229.519 3.20507 229.879 3.33977 230.183 3.56169C230.488 3.7836 230.727 4.08436 230.873 4.43163C231.02 4.77891 231.069 5.15959 231.016 5.53277C230.945 6.06493 231.081 6.6041 231.396 7.0385C231.712 7.4729 232.183 7.7692 232.711 7.86597C233.082 7.92938 233.429 8.09316 233.714 8.33961C234 8.58605 234.212 8.90576 234.329 9.26419C234.445 9.62261 234.462 10.0061 234.376 10.3732C234.29 10.7402 234.106 11.0769 233.843 11.3468C233.47 11.7335 233.262 12.2498 233.262 12.787C233.262 13.3242 233.47 13.8405 233.843 14.2272C234.106 14.4979 234.289 14.8351 234.375 15.2025C234.46 15.5699 234.444 15.9536 234.327 16.3123C234.211 16.6711 233.999 16.9913 233.714 17.2385C233.429 17.4858 233.082 17.6507 232.711 17.7156C232.186 17.8157 231.72 18.1138 231.408 18.5481C231.097 18.9823 230.965 19.5196 231.039 20.0488C231.09 20.4214 231.04 20.801 230.893 21.1472C230.745 21.4933 230.507 21.7928 230.202 22.0138C229.898 22.2347 229.539 22.3687 229.164 22.4014C228.789 22.4341 228.413 22.3644 228.075 22.1996C227.592 21.9654 227.038 21.9272 226.527 22.093C226.017 22.2588 225.591 22.6157 225.339 23.0888C225.162 23.421 224.898 23.6989 224.575 23.8927C224.253 24.0865 223.883 24.1889 223.507 24.1889C223.131 24.1889 222.761 24.0865 222.439 23.8927C222.116 23.6989 221.852 23.421 221.675 23.0888C221.42 22.6028 220.983 22.2371 220.459 22.0707C219.936 21.9043 219.368 21.9506 218.879 22.1996C218.54 22.3644 218.164 22.4341 217.789 22.4014C217.414 22.3687 217.056 22.2347 216.751 22.0138C216.447 21.7928 216.208 21.4933 216.061 21.1472C215.913 20.801 215.863 20.4214 215.915 20.0488C215.99 19.516 215.855 18.9749 215.539 18.5396C215.223 18.1043 214.75 17.8088 214.22 17.7156C213.848 17.6507 213.501 17.4858 213.217 17.2385C212.932 16.9913 212.72 16.6711 212.603 16.3123C212.487 15.9536 212.47 15.5699 212.556 15.2025C212.641 14.8351 212.825 14.4979 213.087 14.2272C213.46 13.8405 213.669 13.3242 213.669 12.787C213.669 12.2498 213.46 11.7335 213.087 11.3468C212.827 11.0758 212.645 10.7392 212.561 10.3729C212.477 10.0066 212.494 9.62428 212.61 9.26686C212.726 8.90944 212.937 8.59032 213.221 8.34359C213.505 8.09685 213.85 7.93177 214.22 7.86597C214.749 7.77094 215.221 7.47506 215.536 7.04022C215.852 6.60537 215.988 6.06523 215.915 5.53277C215.861 5.15959 215.911 4.77891 216.057 4.43163C216.204 4.08436 216.442 3.7836 216.747 3.56169C217.052 3.33977 217.411 3.20507 217.787 3.17207C218.162 3.13907 218.54 3.20901 218.879 3.37437C219.362 3.61087 219.918 3.65033 220.43 3.48443C220.942 3.31853 221.369 2.96024 221.622 2.48518C221.796 2.1452 222.061 1.85988 222.387 1.66063C222.713 1.46139 223.087 1.35596 223.469 1.35596C223.851 1.35596 224.225 1.46139 224.551 1.66063C224.877 1.85988 225.142 2.1452 225.316 2.48518Z" fill="#407BFF"/>
<path d="M225.316 2.48518C225.566 2.9611 225.992 3.3205 226.503 3.48664C227.014 3.65278 227.57 3.61249 228.052 3.37437C228.391 3.20901 228.768 3.13907 229.144 3.17207C229.519 3.20507 229.879 3.33977 230.183 3.56169C230.488 3.7836 230.727 4.08436 230.873 4.43163C231.02 4.77891 231.069 5.15959 231.016 5.53277C230.945 6.06493 231.081 6.6041 231.396 7.0385C231.712 7.4729 232.183 7.7692 232.711 7.86597C233.082 7.92938 233.429 8.09316 233.714 8.33961C234 8.58605 234.212 8.90576 234.329 9.26419C234.445 9.62261 234.462 10.0061 234.376 10.3732C234.29 10.7402 234.106 11.0769 233.843 11.3468C233.47 11.7335 233.262 12.2498 233.262 12.787C233.262 13.3242 233.47 13.8405 233.843 14.2272C234.106 14.4979 234.289 14.8351 234.375 15.2025C234.46 15.5699 234.444 15.9536 234.327 16.3123C234.211 16.6711 233.999 16.9913 233.714 17.2385C233.429 17.4858 233.082 17.6507 232.711 17.7156C232.186 17.8157 231.72 18.1138 231.408 18.5481C231.097 18.9823 230.965 19.5196 231.039 20.0488C231.09 20.4214 231.04 20.801 230.893 21.1472C230.745 21.4933 230.507 21.7928 230.202 22.0138C229.898 22.2347 229.539 22.3687 229.164 22.4014C228.789 22.4341 228.413 22.3644 228.075 22.1996C227.592 21.9654 227.038 21.9272 226.527 22.093C226.017 22.2588 225.591 22.6157 225.339 23.0888C225.162 23.421 224.898 23.6989 224.575 23.8927C224.253 24.0865 223.883 24.1889 223.507 24.1889C223.131 24.1889 222.761 24.0865 222.439 23.8927C222.116 23.6989 221.852 23.421 221.675 23.0888C221.42 22.6028 220.983 22.2371 220.459 22.0707C219.936 21.9043 219.368 21.9506 218.879 22.1996C218.54 22.3644 218.164 22.4341 217.789 22.4014C217.414 22.3687 217.056 22.2347 216.751 22.0138C216.447 21.7928 216.208 21.4933 216.061 21.1472C215.913 20.801 215.863 20.4214 215.915 20.0488C215.99 19.516 215.855 18.9749 215.539 18.5396C215.223 18.1043 214.75 17.8088 214.22 17.7156C213.848 17.6507 213.501 17.4858 213.217 17.2385C212.932 16.9913 212.72 16.6711 212.603 16.3123C212.487 15.9536 212.47 15.5699 212.556 15.2025C212.641 14.8351 212.825 14.4979 213.087 14.2272C213.46 13.8405 213.669 13.3242 213.669 12.787C213.669 12.2498 213.46 11.7335 213.087 11.3468C212.827 11.0758 212.645 10.7392 212.561 10.3729C212.477 10.0066 212.494 9.62428 212.61 9.26686C212.726 8.90944 212.937 8.59032 213.221 8.34359C213.505 8.09685 213.85 7.93177 214.22 7.86597C214.749 7.77094 215.221 7.47506 215.536 7.04022C215.852 6.60537 215.988 6.06523 215.915 5.53277C215.861 5.15959 215.911 4.77891 216.057 4.43163C216.204 4.08436 216.442 3.7836 216.747 3.56169C217.052 3.33977 217.411 3.20507 217.787 3.17207C218.162 3.13907 218.54 3.20901 218.879 3.37437C219.362 3.61087 219.918 3.65033 220.43 3.48443C220.942 3.31853 221.369 2.96024 221.622 2.48518C221.796 2.1452 222.061 1.85988 222.387 1.66063C222.713 1.46139 223.087 1.35596 223.469 1.35596C223.851 1.35596 224.225 1.46139 224.551 1.66063C224.877 1.85988 225.142 2.1452 225.316 2.48518Z" fill="#407BFF"/>
<g opacity="0.5">
<path d="M225.316 2.48518C225.566 2.9611 225.992 3.3205 226.503 3.48664C227.014 3.65278 227.57 3.61249 228.052 3.37437C228.391 3.20901 228.768 3.13907 229.144 3.17207C229.519 3.20507 229.879 3.33977 230.183 3.56169C230.488 3.7836 230.727 4.08436 230.873 4.43163C231.02 4.77891 231.069 5.15959 231.016 5.53277C230.945 6.06493 231.081 6.6041 231.396 7.0385C231.712 7.4729 232.183 7.7692 232.711 7.86597C233.082 7.92938 233.429 8.09316 233.714 8.33961C234 8.58605 234.212 8.90576 234.329 9.26419C234.445 9.62261 234.462 10.0061 234.376 10.3732C234.29 10.7402 234.106 11.0769 233.843 11.3468C233.47 11.7335 233.262 12.2498 233.262 12.787C233.262 13.3242 233.47 13.8405 233.843 14.2272C234.106 14.4979 234.289 14.8351 234.375 15.2025C234.46 15.5699 234.444 15.9536 234.327 16.3123C234.211 16.6711 233.999 16.9913 233.714 17.2385C233.429 17.4858 233.082 17.6507 232.711 17.7156C232.186 17.8157 231.72 18.1138 231.408 18.5481C231.097 18.9823 230.965 19.5196 231.039 20.0488C231.09 20.4214 231.04 20.801 230.893 21.1472C230.745 21.4933 230.507 21.7928 230.202 22.0138C229.898 22.2347 229.539 22.3687 229.164 22.4014C228.789 22.4341 228.413 22.3644 228.075 22.1996C227.592 21.9654 227.038 21.9272 226.527 22.093C226.017 22.2588 225.591 22.6157 225.339 23.0888C225.162 23.421 224.898 23.6989 224.575 23.8927C224.253 24.0865 223.883 24.1889 223.507 24.1889C223.131 24.1889 222.761 24.0865 222.439 23.8927C222.116 23.6989 221.852 23.421 221.675 23.0888C221.42 22.6028 220.983 22.2371 220.459 22.0707C219.936 21.9043 219.368 21.9506 218.879 22.1996C218.54 22.3644 218.164 22.4341 217.789 22.4014C217.414 22.3687 217.056 22.2347 216.751 22.0138C216.447 21.7928 216.208 21.4933 216.061 21.1472C215.913 20.801 215.863 20.4214 215.915 20.0488C215.99 19.516 215.855 18.9749 215.539 18.5396C215.223 18.1043 214.75 17.8088 214.22 17.7156C213.848 17.6507 213.501 17.4858 213.217 17.2385C212.932 16.9913 212.72 16.6711 212.603 16.3123C212.487 15.9536 212.47 15.5699 212.556 15.2025C212.641 14.8351 212.825 14.4979 213.087 14.2272C213.46 13.8405 213.669 13.3242 213.669 12.787C213.669 12.2498 213.46 11.7335 213.087 11.3468C212.827 11.0758 212.645 10.7392 212.561 10.3729C212.477 10.0066 212.494 9.62428 212.61 9.26686C212.726 8.90944 212.937 8.59032 213.221 8.34359C213.505 8.09685 213.85 7.93177 214.22 7.86597C214.749 7.77094 215.221 7.47506 215.536 7.04022C215.852 6.60537 215.988 6.06523 215.915 5.53277C215.861 5.15959 215.911 4.77891 216.057 4.43163C216.204 4.08436 216.442 3.7836 216.747 3.56169C217.052 3.33977 217.411 3.20507 217.787 3.17207C218.162 3.13907 218.54 3.20901 218.879 3.37437C219.362 3.61087 219.918 3.65033 220.43 3.48443C220.942 3.31853 221.369 2.96024 221.622 2.48518C221.796 2.1452 222.061 1.85988 222.387 1.66063C222.713 1.46139 223.087 1.35596 223.469 1.35596C223.851 1.35596 224.225 1.46139 224.551 1.66063C224.877 1.85988 225.142 2.1452 225.316 2.48518Z" fill="white"/>
</g>
<path d="M220.195 10.6399H219.253C219.043 10.6406 218.841 10.7185 218.686 10.8587C218.53 10.9989 218.432 11.1916 218.409 11.3999L218.181 15.7471C218.175 15.8507 218.19 15.9544 218.225 16.052C218.261 16.1495 218.316 16.2387 218.387 16.3142C218.458 16.3897 218.544 16.4498 218.639 16.4908C218.735 16.5318 218.837 16.5529 218.941 16.5527H219.883C220.1 16.5493 220.307 16.4644 220.463 16.3151C220.619 16.1658 220.714 15.9629 220.727 15.7471L220.955 11.3999C220.955 11.1983 220.875 11.005 220.732 10.8625C220.59 10.72 220.397 10.6399 220.195 10.6399Z" fill="white"/>
<path d="M227.71 10.6399H225.498L226.114 9.18835C226.184 9.03636 226.21 8.86799 226.19 8.70195L226.061 7.56195C226.036 7.3409 225.932 7.13655 225.766 6.98794C225.601 6.83934 225.386 6.75689 225.164 6.75635H224.062C223.994 7.89527 223.577 8.98574 222.869 9.87995L222.192 10.7312C222.019 10.9487 221.916 11.2137 221.896 11.4912L221.683 15.5495C221.676 15.6777 221.695 15.806 221.739 15.9265C221.783 16.0471 221.851 16.1574 221.94 16.2506C222.028 16.3438 222.134 16.418 222.252 16.4687C222.37 16.5193 222.497 16.5454 222.626 16.5451H226.479C226.65 16.5433 226.818 16.5058 226.974 16.4352C227.13 16.3645 227.269 16.2622 227.383 16.1348L227.74 15.7395C227.865 15.5809 227.953 15.3967 227.999 15.1999L228.759 11.9243C228.792 11.7741 228.793 11.6184 228.761 11.4678C228.73 11.3171 228.667 11.1748 228.576 11.0503C228.474 10.9194 228.342 10.8141 228.192 10.7429C228.041 10.6716 227.876 10.6364 227.71 10.6399Z" fill="white"/>
<path d="M190.007 37.1716L191.23 39.1324L193.472 39.6872L191.99 41.458L192.15 43.7532L190.007 42.8944L187.871 43.7532L188.031 41.458L186.549 39.6872L188.791 39.1324L190.007 37.1716Z" fill="white"/>
<path d="M179.831 146.178C179.831 147.592 178.698 148.534 176.927 148.686L176.692 149.849H175.628L175.863 148.686C174.993 148.627 174.153 148.344 173.424 147.866L174.131 146.551C174.722 146.974 175.414 147.236 176.137 147.311L176.502 145.517C175.514 145.221 174.427 144.826 174.427 143.541C174.427 142.128 175.59 141.178 177.391 141.048L177.627 139.878H178.691L178.455 141.056C179.143 141.11 179.811 141.318 180.408 141.664L179.762 142.979C179.284 142.672 178.74 142.484 178.174 142.432L177.809 144.294C178.782 144.575 179.831 144.955 179.831 146.178ZM176.791 143.99L177.095 142.47C176.494 142.584 176.152 142.918 176.145 143.321C176.137 143.724 176.418 143.83 176.798 143.99H176.791ZM178.105 146.452C178.105 146.148 177.862 145.958 177.49 145.821L177.201 147.273C177.786 147.159 178.113 146.855 178.113 146.452H178.105Z" fill="white"/>
<path d="M125.978 20.1323H81.5182C73.6985 20.1323 67.3594 26.4714 67.3594 34.2911V154.964C67.3594 162.784 73.6985 169.123 81.5182 169.123H125.978C133.798 169.123 140.137 162.784 140.137 154.964V34.2911C140.137 26.4714 133.798 20.1323 125.978 20.1323Z" fill="#263238"/>
<path opacity="0.7" d="M125.758 20.1323H81.7386C73.7972 20.1323 67.3594 26.5701 67.3594 34.5115V154.744C67.3594 162.685 73.7972 169.123 81.7386 169.123H125.758C133.699 169.123 140.137 162.685 140.137 154.744V34.5115C140.137 26.5701 133.699 20.1323 125.758 20.1323Z" fill="white"/>
<path d="M140.137 27.4435V56.9999H67.3594V27.4435C67.3594 25.5045 68.1297 23.6448 69.5008 22.2737C70.8719 20.9026 72.7315 20.1323 74.6706 20.1323H132.826C134.765 20.1323 136.624 20.9026 137.996 22.2737C139.367 23.6448 140.137 25.5045 140.137 27.4435Z" fill="#407BFF"/>
<path d="M140.137 27.4435V56.9999H67.3594V27.4435C67.3594 25.5045 68.1297 23.6448 69.5008 22.2737C70.8719 20.9026 72.7315 20.1323 74.6706 20.1323H132.826C134.765 20.1323 136.624 20.9026 137.996 22.2737C139.367 23.6448 140.137 25.5045 140.137 27.4435Z" fill="#407BFF"/>
<path d="M97.7674 38.5091C97.7674 39.6415 96.8858 40.3027 95.1834 40.3027H91.8926V33.6907H95.001C96.5894 33.6907 97.4406 34.3595 97.4406 35.4083C97.4489 35.7057 97.3735 35.9994 97.223 36.2561C97.0725 36.5127 96.853 36.7219 96.5894 36.8599C96.9427 36.9621 97.2512 37.1805 97.465 37.4798C97.6787 37.7791 97.7853 38.1417 97.7674 38.5091ZM93.1238 34.6483V36.4799H94.8566C95.7078 36.4799 96.1942 36.1835 96.1942 35.5755C96.1942 34.9675 95.7078 34.6559 94.8566 34.6559L93.1238 34.6483ZM96.5286 38.3875C96.5286 37.7263 96.0346 37.4299 95.1074 37.4299H93.1238V39.3375H95.1074C96.0346 39.3375 96.521 39.0487 96.521 38.3875H96.5286Z" fill="white"/>
<path d="M103.194 37.3464V40.28H102.085V39.6644C101.898 39.902 101.655 40.0891 101.377 40.2085C101.1 40.328 100.797 40.3761 100.496 40.3484C99.3409 40.3484 98.6113 39.7176 98.6113 38.8284C98.6113 37.9392 99.1813 37.3084 100.709 37.3084H102.016V37.2324C102.016 36.5408 101.598 36.138 100.755 36.138C100.207 36.1347 99.6728 36.3109 99.2345 36.6396L98.7709 35.7808C99.3971 35.3486 100.146 35.13 100.907 35.1576C102.358 35.2032 103.194 35.8872 103.194 37.3464ZM102.016 38.76V38.1748H100.793C99.9945 38.1748 99.7741 38.4788 99.7741 38.8512C99.7741 39.2236 100.131 39.5504 100.739 39.5504C101.008 39.5693 101.276 39.5031 101.505 39.3612C101.734 39.2194 101.913 39.009 102.016 38.76Z" fill="white"/>
<path d="M104.121 39.8011L104.577 38.9043C105.105 39.2297 105.713 39.4032 106.333 39.4059C107.093 39.4059 107.397 39.2007 107.397 38.8511C107.397 37.8859 104.273 38.7903 104.273 36.7763C104.273 35.8263 105.132 35.2031 106.5 35.2031C107.154 35.1908 107.801 35.3395 108.385 35.6363L107.936 36.5331C107.496 36.2769 106.994 36.1456 106.485 36.1531C105.77 36.1531 105.428 36.3887 105.428 36.7231C105.428 37.7415 108.544 36.8371 108.544 38.8131C108.544 39.7555 107.678 40.3711 106.264 40.3711C105.511 40.3842 104.769 40.1868 104.121 39.8011Z" fill="white"/>
<path d="M109.441 33.7136C109.441 33.512 109.521 33.3187 109.664 33.1762C109.806 33.0337 109.999 32.9536 110.201 32.9536C110.403 32.9536 110.596 33.0337 110.738 33.1762C110.881 33.3187 110.961 33.512 110.961 33.7136C110.961 33.9152 110.881 34.1085 110.738 34.251C110.596 34.3935 110.403 34.4736 110.201 34.4736C110.099 34.4803 109.998 34.4653 109.902 34.4295C109.807 34.3936 109.721 34.3379 109.649 34.2659C109.577 34.194 109.521 34.1075 109.485 34.0122C109.449 33.917 109.434 33.8152 109.441 33.7136ZM109.601 35.2336H110.779V40.28H109.601V35.2336Z" fill="white"/>
<path d="M111.887 37.7795C111.883 37.4263 111.952 37.0761 112.09 36.7511C112.228 36.426 112.433 36.1332 112.69 35.8911C112.947 35.6489 113.251 35.4628 113.584 35.3443C113.917 35.2259 114.271 35.1778 114.623 35.2031C115.056 35.1734 115.488 35.2677 115.869 35.475C116.25 35.6823 116.564 35.994 116.774 36.3735L115.869 36.8979C115.741 36.681 115.557 36.5021 115.336 36.3793C115.116 36.2565 114.867 36.1942 114.615 36.1987C114.196 36.1987 113.794 36.3652 113.497 36.6617C113.201 36.9581 113.034 37.3602 113.034 37.7795C113.034 38.1987 113.201 38.6008 113.497 38.8973C113.794 39.1937 114.196 39.3603 114.615 39.3603C114.867 39.3648 115.116 39.3024 115.336 39.1796C115.557 39.0568 115.741 38.8779 115.869 38.6611L116.774 39.1855C116.566 39.5677 116.253 39.8825 115.872 40.0926C115.49 40.3027 115.057 40.3993 114.623 40.3711C114.27 40.3941 113.916 40.344 113.583 40.2238C113.25 40.1036 112.946 39.916 112.689 39.6727C112.432 39.4294 112.228 39.1356 112.09 38.8098C111.952 38.484 111.883 38.1333 111.887 37.7795Z" fill="white"/>
<path d="M107.239 107.676C109.765 105.15 109.765 101.055 107.239 98.529C104.714 96.0033 100.619 96.0033 98.0928 98.529C95.5671 101.055 95.5671 105.15 98.0928 107.676C100.619 110.201 104.714 110.201 107.239 107.676Z" fill="#263238"/>
<path opacity="0.5" d="M107.239 107.676C109.765 105.15 109.765 101.055 107.239 98.529C104.714 96.0033 100.619 96.0033 98.0928 98.529C95.5671 101.055 95.5671 105.15 98.0928 107.676C100.619 110.201 104.714 110.201 107.239 107.676Z" fill="white"/>
<path d="M104.581 99.4479L99.0078 105.021L100.744 106.757L106.316 101.184L104.581 99.4479Z" fill="white"/>
<path d="M99.0072 101.191L104.58 106.763L106.316 105.028L100.743 99.4548L99.0072 101.191Z" fill="white"/>
<path d="M102.966 133.54C106.575 133.54 109.502 130.613 109.502 127.004C109.502 123.394 106.575 120.468 102.966 120.468C99.356 120.468 96.4297 123.394 96.4297 127.004C96.4297 130.613 99.356 133.54 102.966 133.54Z" fill="#407BFF"/>
<path d="M107.646 125.59L103.884 129.352L102.129 131.107L100.373 129.352L102.129 127.596L105.891 123.834L107.646 125.59Z" fill="white"/>
<path d="M103.884 129.352L102.129 131.108L98.4121 127.384L100.16 125.628L102.129 127.596L103.884 129.352Z" fill="white"/>
<path d="M118.941 145.684H88.5565C84.4263 145.684 81.0781 149.033 81.0781 153.163V153.733C81.0781 157.863 84.4263 161.211 88.5565 161.211H118.941C123.072 161.211 126.42 157.863 126.42 153.733V153.163C126.42 149.033 123.072 145.684 118.941 145.684Z" fill="#407BFF"/>
<path d="M90.9046 154.918C90.9046 156.332 89.7722 157.274 87.9938 157.419L87.7658 158.589H86.7018L86.9374 157.419C86.0651 157.364 85.2219 157.084 84.4902 156.606L85.2046 155.291C85.7961 155.714 86.4876 155.976 87.211 156.051L87.5682 154.257C86.5878 153.961 85.501 153.566 85.501 152.281C85.501 150.868 86.6562 149.91 88.465 149.788L88.7006 148.618H89.757L89.529 149.796C90.2174 149.85 90.8848 150.058 91.4822 150.404L90.8286 151.719C90.3541 151.409 89.8118 151.219 89.2478 151.164L88.8754 153.034C89.8558 153.315 90.9046 153.695 90.9046 154.918ZM87.8646 152.73L88.1686 151.21C87.5606 151.324 87.2262 151.65 87.211 152.061C87.1958 152.471 87.4846 152.57 87.8722 152.76L87.8646 152.73ZM89.1794 155.192C89.1794 154.888 88.9362 154.69 88.5638 154.554L88.275 156.013C88.8526 155.891 89.187 155.595 89.187 155.192H89.1794Z" fill="white"/>
<path d="M121.752 113.916H84.1855V115.436H121.752V113.916Z" fill="#407BFF"/>
<path d="M121.752 88.958H84.1855V90.478H121.752V88.958Z" fill="#407BFF"/>
<path d="M121.752 64.9041H84.1855V66.4241H121.752V64.9041Z" fill="#407BFF"/>
<path d="M107.243 82.2645C109.769 79.7387 109.769 75.6436 107.243 73.1179C104.718 70.5921 100.622 70.5921 98.0967 73.1179C95.571 75.6436 95.571 79.7387 98.0967 82.2644C100.622 84.7902 104.718 84.7902 107.243 82.2645Z" fill="#263238"/>
<path opacity="0.5" d="M107.243 82.2645C109.769 79.7387 109.769 75.6436 107.243 73.1179C104.718 70.5921 100.622 70.5921 98.0967 73.1179C95.571 75.6436 95.571 79.7387 98.0967 82.2644C100.622 84.7902 104.718 84.7902 107.243 82.2645Z" fill="white"/>
<path d="M104.583 74.0368L99.0098 79.6096L100.746 81.3454L106.318 75.7726L104.583 74.0368Z" fill="white"/>
<path d="M99.0111 75.7728L104.584 81.3457L106.32 79.6099L100.747 74.037L99.0111 75.7728Z" fill="white"/>
<path d="M197.668 269.131L203.497 270.195L207.905 259.441L201.536 256.895L197.668 269.131Z" fill="#FFC2BC"/>
<path opacity="0.1" d="M199.758 262.306L201.422 257.306L204.356 258.02L207.905 259.441L206.005 264.123L199.758 262.306Z" fill="black"/>
<path d="M196.529 267.11C196.529 267.11 196.301 266.904 196.005 266.669C195.708 266.433 195.526 266.304 195.245 266.106C194.701 265.695 194.059 265.433 193.383 265.346C193.172 265.351 192.968 265.426 192.805 265.559C192.71 265.628 192.64 265.726 192.605 265.839C192.571 265.951 192.575 266.072 192.615 266.182C193.085 266.677 193.71 266.996 194.386 267.087L194.926 267.201C195.428 267.292 195.936 267.355 196.446 267.391C196.476 267.391 196.505 267.382 196.531 267.366C196.557 267.35 196.577 267.327 196.59 267.3C196.606 267.266 196.609 267.228 196.598 267.192C196.586 267.157 196.562 267.127 196.529 267.11ZM195.313 266.958C194.219 266.775 193.033 266.433 192.904 266.046C192.904 265.992 192.858 265.894 193.026 265.742C193.073 265.699 193.128 265.666 193.188 265.645C193.248 265.624 193.312 265.616 193.375 265.62C193.48 265.621 193.585 265.634 193.687 265.658C194.391 265.93 195.048 266.312 195.632 266.79C195.746 266.874 195.853 266.965 195.959 267.056C195.754 267.034 195.534 266.996 195.321 266.958H195.313Z" fill="#407BFF"/>
<path d="M196.232 264.716C196.043 264.479 195.772 264.322 195.472 264.275C195.039 264.207 194.857 264.374 194.788 264.533C194.621 264.875 194.879 265.514 195.259 266.107C195.407 266.335 195.57 266.553 195.746 266.76C195.923 266.972 196.122 267.166 196.339 267.338C196.361 267.347 196.385 267.347 196.407 267.338C196.432 267.345 196.458 267.345 196.483 267.338C196.507 267.33 196.529 267.316 196.546 267.297C196.563 267.279 196.576 267.256 196.582 267.231C196.615 267.007 196.636 266.781 196.643 266.555C196.711 265.914 196.566 265.267 196.232 264.716ZM196.301 266.897C196.225 266.821 196.141 266.745 196.065 266.654C195.465 265.993 194.902 264.974 195.047 264.625C195.047 264.625 195.107 264.488 195.396 264.533H195.48C195.669 264.579 195.837 264.686 195.959 264.837C196.247 265.373 196.376 265.979 196.331 266.585C196.323 266.707 196.316 266.798 196.301 266.897Z" fill="#407BFF"/>
<path d="M197.296 266.684L204.342 268.371C204.466 268.396 204.578 268.463 204.659 268.562C204.739 268.66 204.783 268.784 204.782 268.911L204.57 274.52C204.552 274.767 204.438 274.998 204.251 275.161C204.065 275.325 203.822 275.408 203.574 275.394C203.506 275.402 203.437 275.402 203.369 275.394C200.838 274.748 198.619 274.079 195.45 273.327C191.718 272.437 192.554 273.076 188.154 272.088C185.501 271.487 185.79 268.592 186.953 268.721C192.273 269.352 193.177 268.052 195.632 266.828C196.154 266.592 196.741 266.541 197.296 266.684Z" fill="#263238"/>
<path d="M239.621 270.188H245.199L246.849 260.946L240.024 259.669L239.621 270.188Z" fill="#FFC2BC"/>
<path opacity="0.1" d="M240.023 259.669L246.848 260.946L245.738 267.17L239.795 266.927L240.023 259.669Z" fill="black"/>
<path d="M248.049 265.468L238.033 264.898L237.729 260.946L248.939 261.714L248.049 265.468Z" fill="#407BFF"/>
<path opacity="0.5" d="M248.049 265.468L238.033 264.898L237.729 260.946L248.939 261.714L248.049 265.468Z" fill="white"/>
<path d="M238.807 270.332C238.807 270.332 238.549 270.188 238.214 270.021C237.88 269.853 237.713 269.785 237.409 269.671C236.815 269.381 236.15 269.267 235.494 269.344C235.3 269.393 235.134 269.516 235.03 269.686C234.965 269.781 234.93 269.894 234.93 270.009C234.93 270.124 234.965 270.237 235.03 270.332C235.563 270.706 236.215 270.871 236.862 270.796H237.371C237.832 270.767 238.292 270.711 238.746 270.629C238.774 270.62 238.8 270.604 238.82 270.583C238.84 270.562 238.854 270.535 238.86 270.507C238.871 270.476 238.871 270.442 238.861 270.411C238.852 270.38 238.833 270.352 238.807 270.332ZM237.66 270.477C236.626 270.553 235.509 270.477 235.266 270.157C235.22 270.104 235.182 270.021 235.266 269.838C235.295 269.783 235.336 269.735 235.386 269.699C235.436 269.662 235.493 269.637 235.554 269.625C235.648 269.614 235.742 269.614 235.836 269.625C236.551 269.726 237.244 269.944 237.888 270.271C238.015 270.317 238.137 270.376 238.252 270.446L237.66 270.477Z" fill="#407BFF"/>
<path d="M238.899 270.469C238.877 270.242 238.841 270.016 238.792 269.793C238.681 269.141 238.376 268.537 237.918 268.06C237.807 267.965 237.677 267.895 237.537 267.853C237.397 267.811 237.25 267.799 237.105 267.817C236.687 267.855 236.566 268.06 236.55 268.235C236.482 268.615 236.892 269.185 237.409 269.671C237.589 269.853 237.782 270.02 237.987 270.173C238.2 270.341 238.432 270.484 238.678 270.598C238.698 270.606 238.72 270.606 238.739 270.598C238.764 270.606 238.79 270.606 238.815 270.598C238.84 270.587 238.861 270.568 238.876 270.546C238.89 270.523 238.899 270.496 238.899 270.469ZM236.824 268.28C236.824 268.242 236.824 268.136 237.12 268.105H237.196C237.386 268.102 237.571 268.17 237.713 268.295C238.105 268.755 238.367 269.312 238.473 269.907C238.496 270.002 238.511 270.098 238.519 270.195L238.245 270.013C237.554 269.489 236.794 268.63 236.824 268.28Z" fill="#407BFF"/>
<path d="M239.401 269.732L246.196 269.694C246.319 269.694 246.439 269.736 246.536 269.814C246.633 269.891 246.7 269.999 246.728 270.119L247.989 275.637C248.016 275.753 248.02 275.873 248.001 275.99C247.981 276.107 247.939 276.22 247.876 276.32C247.814 276.421 247.731 276.509 247.635 276.578C247.538 276.647 247.429 276.697 247.313 276.724H247.123C244.676 276.724 242.494 276.572 239.447 276.594C235.852 276.594 236.764 277.035 232.538 277.119C229.992 277.172 229.498 274.276 230.593 274.132C235.533 273.478 236.034 271.981 237.934 270.203C238.35 269.874 238.871 269.706 239.401 269.732Z" fill="#263238"/>
<path d="M227.044 133.654L200.732 256.774L210.43 259.35C217.68 243.481 223.76 227.24 228.29 214.51C230.441 208.483 231.33 202.814 232.949 197.501C234.91 191.186 237.547 185.379 238.884 180.074C245.914 152.304 245.352 138.396 245.352 138.396L246.872 134.733L227.044 133.654Z" fill="#263238"/>
<path opacity="0.3" d="M243.2 160.079C242.25 165.68 240.875 172.368 238.906 180.135C238.268 182.659 233.989 194.811 232.971 197.562C231.785 179.778 235.851 149.682 235.851 149.682L243.2 160.079Z" fill="black"/>
<path d="M235.122 134.285L237.106 201.925L238.846 261.205L247.966 261.835C250.512 247.327 252.382 234.171 253.72 222.315C254.601 214.571 253.112 208.909 253.583 202.274C253.666 201.172 253.75 200.04 253.849 198.885C255.462 179.887 255.572 160.792 254.176 141.778C253.91 138.153 253.727 135.698 253.727 135.698L235.1 133.319L235.122 134.285Z" fill="#263238"/>
<path d="M209.144 262.816L199.553 259.859L200.206 255.953L210.907 259.388L209.144 262.816Z" fill="#407BFF"/>
<path opacity="0.5" d="M209.144 262.816L199.553 259.859L200.206 255.953L210.907 259.388L209.144 262.816Z" fill="white"/>
<path d="M233.815 91.3824C232.028 94.0285 230.695 96.9541 229.87 100.039C229.464 101.429 229.144 102.843 228.913 104.272L228.251 106.088L222.384 103.755L221.457 103.39C222.886 96.9532 228.419 91.1316 232.523 91.2304C232.958 91.2168 233.394 91.268 233.815 91.3824Z" fill="#407BFF"/>
<path opacity="0.2" d="M233.815 91.3824C232.028 94.0285 230.695 96.9541 229.87 100.039C229.464 101.429 229.144 102.843 228.913 104.272L228.251 106.088L222.384 103.755L221.457 103.39C222.886 96.9532 228.419 91.1316 232.523 91.2304C232.958 91.2168 233.394 91.268 233.815 91.3824Z" fill="white"/>
<path d="M226.481 133.076C227.188 131.495 227.097 128.417 229.43 127.832C232.531 127.072 235.084 126.844 247.29 127.878C253.051 128.372 254.327 132.97 254.13 135.333C254.107 135.647 253.999 135.949 253.818 136.207L253.575 136.557C253.005 136.777 226.884 133.882 226.625 134.041C226.516 133.909 226.444 133.749 226.419 133.579C226.393 133.409 226.415 133.235 226.481 133.076Z" fill="#407BFF"/>
<path opacity="0.2" d="M226.481 133.076C227.188 131.495 227.097 128.417 229.43 127.832C232.531 127.072 235.084 126.844 247.29 127.878C253.051 128.372 254.327 132.97 254.13 135.333C254.107 135.647 253.999 135.949 253.818 136.207L253.575 136.557C253.005 136.777 226.884 133.882 226.625 134.041C226.516 133.909 226.444 133.749 226.419 133.579C226.393 133.409 226.415 133.235 226.481 133.076Z" fill="white"/>
<path d="M232.834 91.337C232.667 91.6486 227.476 92.1882 227.887 114.897C227.94 117.823 227.195 124.017 227.195 124.017L226.435 125.909C226.13 126.677 225.995 127.503 226.04 128.328C226.084 129.153 226.307 129.959 226.693 130.69L227.073 131.397L253.392 134.072H254.152C254.152 134.072 255.847 120.331 258.112 111.143C258.872 108.148 259.632 104.47 259.632 104.47C259.097 101.008 258.843 97.5077 258.872 94.0046C258.872 94.0046 258.872 93.9666 258.872 93.959C255.683 93.0139 252.429 92.3026 249.136 91.831C245.639 91.2978 242.109 91.0109 238.572 90.9722C235.281 91.147 232.842 91.3294 232.834 91.337Z" fill="#407BFF"/>
<path d="M249.106 79.9521C248.163 83.3037 246.985 89.4825 249.182 91.9449L247.517 93.6854C246.854 94.3658 246.017 94.8528 245.097 95.0939C244.178 95.3351 243.21 95.3213 242.298 95.0542C241.385 94.787 240.563 94.2766 239.919 93.5775C239.274 92.8785 238.833 92.0172 238.641 91.0862C242.494 90.4782 241.681 86.6098 242.38 82.8782L249.106 79.9521Z" fill="#FFC2BC"/>
<path opacity="0.2" d="M240.336 79.04C241.096 81.7152 242.221 86.0168 241.415 88.9884C244.873 89.2924 247.168 86.1536 247.313 85.1504C246.887 83.9691 246.552 82.7572 246.31 81.5252L240.336 79.04Z" fill="black"/>
<path d="M250.123 74.7156C249.705 80.4156 249.66 82.8324 246.749 85.7204C242.371 90.0752 235.463 88.3196 234.163 82.6196C232.993 77.482 233.867 69.0384 239.483 66.8268C240.716 66.3391 242.053 66.1738 243.368 66.3465C244.682 66.5192 245.931 67.0242 246.996 67.8139C248.061 68.6035 248.907 69.6517 249.454 70.8594C250.002 72.067 250.232 73.3942 250.123 74.7156Z" fill="#FFC2BC"/>
<path d="M253.415 72.0709C252.835 74.2258 252.451 76.4286 252.267 78.6525H250.094C249.898 78.847 249.761 79.0926 249.698 79.3613C249.634 79.63 249.648 79.9111 249.737 80.1725C249.37 80.012 249.058 79.7478 248.84 79.4125C248.683 79.0828 248.605 78.7211 248.612 78.3561C248.558 76.9566 248.408 75.5626 248.163 74.1837C247.046 73.7277 245.754 73.8493 244.713 73.2413C242.369 71.9061 240.331 70.0936 238.732 67.9213C237.867 68.3265 237.098 68.9106 236.476 69.6351C235.853 70.3596 235.392 71.208 235.122 72.1241C234.869 72.1737 234.607 72.1475 234.369 72.0488C234.131 71.9501 233.928 71.7833 233.784 71.5693C233.508 71.1341 233.353 70.6329 233.336 70.1177C233.184 68.7746 233.53 67.4224 234.309 66.3177C234.883 65.5593 235.721 65.0441 236.657 64.8737C237.055 64.8805 237.451 64.8319 237.835 64.7293C238.23 64.5469 238.595 64.0757 238.975 63.8325C239.858 63.3447 240.829 63.0359 241.832 62.9238C242.835 62.8116 243.85 62.8983 244.819 63.1789C247.225 63.963 249.404 65.3221 251.165 67.1385C252.161 68.1189 253.787 70.7561 253.415 72.0709Z" fill="#263238"/>
<path d="M252.108 80.1953C251.551 81.1495 250.638 81.8437 249.57 82.1257C248.156 82.4829 247.48 81.2137 247.898 79.8913C248.278 78.6981 249.479 77.1021 250.877 77.2997C251.367 77.3868 251.802 77.6646 252.087 78.0721C252.372 78.4796 252.483 78.9835 252.397 79.4733C252.354 79.7319 252.255 79.9782 252.108 80.1953Z" fill="#FFC2BC"/>
<path d="M241.301 76.1445C241.301 76.6461 241.02 77.0337 240.7 77.0413C240.381 77.0489 240.115 76.6309 240.115 76.1369C240.115 75.6429 240.396 75.2477 240.716 75.2401C241.035 75.2325 241.301 75.6505 241.301 76.1445Z" fill="#263238"/>
<path d="M235.662 76.0837C235.662 76.5853 235.381 76.9729 235.054 76.9805C234.728 76.9881 234.469 76.5701 234.477 76.0685C234.484 75.5669 234.75 75.1793 235.077 75.1717C235.404 75.1641 235.685 75.5745 235.662 76.0837Z" fill="#263238"/>
<path d="M237.881 77.1172C237.421 78.2508 236.81 79.3169 236.064 80.2864C236.317 80.4677 236.607 80.5922 236.912 80.6512C237.218 80.7102 237.533 80.7025 237.835 80.6284L237.881 77.1172Z" fill="#EC837E"/>
<path d="M239.607 82.3156C239.325 82.4364 239.033 82.5281 238.733 82.5892C238.699 82.596 238.665 82.5894 238.636 82.5709C238.608 82.5525 238.588 82.5235 238.581 82.4904C238.578 82.4586 238.586 82.4267 238.604 82.4003C238.622 82.374 238.649 82.3547 238.679 82.346C239.294 82.2331 239.873 81.9767 240.37 81.5977C240.866 81.2186 241.266 80.7277 241.537 80.1648C241.544 80.1337 241.564 80.1067 241.591 80.0896C241.618 80.0725 241.65 80.0668 241.681 80.0736C241.696 80.0755 241.709 80.0801 241.721 80.0873C241.733 80.0944 241.744 80.1039 241.753 80.1153C241.761 80.1266 241.767 80.1395 241.771 80.1532C241.774 80.1669 241.775 80.1812 241.773 80.1952C241.357 81.1589 240.579 81.9205 239.607 82.3156Z" fill="#263238"/>
<path d="M243.276 73.3248C243.243 73.336 243.208 73.3376 243.174 73.3296C243.141 73.3215 243.11 73.304 243.086 73.2792C242.86 73.0466 242.58 72.872 242.272 72.7702C241.964 72.6683 241.636 72.6422 241.315 72.694C241.259 72.7034 241.201 72.6915 241.154 72.6606C241.106 72.6296 241.071 72.5819 241.057 72.5268C241.046 72.503 241.04 72.4771 241.039 72.4509C241.039 72.4246 241.043 72.3985 241.053 72.3743C241.063 72.35 241.078 72.328 241.097 72.3098C241.116 72.2916 241.139 72.2775 241.163 72.2684C241.55 72.2023 241.947 72.2307 242.32 72.3512C242.693 72.4716 243.031 72.6805 243.306 72.96C243.348 72.9977 243.375 73.0485 243.383 73.1039C243.392 73.1593 243.381 73.2158 243.352 73.264C243.345 73.2791 243.334 73.2924 243.321 73.3029C243.308 73.3134 243.292 73.3209 243.276 73.3248Z" fill="#263238"/>
<path d="M234.172 73.591C234.133 73.6069 234.09 73.6111 234.048 73.603C234.006 73.5949 233.967 73.5749 233.937 73.5454C233.915 73.5235 233.897 73.4974 233.885 73.4687C233.873 73.44 233.867 73.4092 233.867 73.3782C233.867 73.3471 233.873 73.3163 233.885 73.2876C233.897 73.2589 233.915 73.2329 233.937 73.211C234.224 72.8556 234.594 72.5752 235.013 72.3939C235.433 72.2125 235.89 72.1356 236.346 72.1698C236.377 72.1717 236.407 72.1797 236.434 72.1935C236.462 72.2072 236.486 72.2264 236.506 72.2498C236.526 72.2732 236.541 72.3004 236.55 72.3298C236.559 72.3591 236.562 72.39 236.559 72.4206C236.549 72.4844 236.516 72.5422 236.465 72.5818C236.414 72.6215 236.349 72.6399 236.285 72.6334C235.909 72.6105 235.533 72.6787 235.189 72.8321C234.845 72.9856 234.543 73.2199 234.309 73.515C234.271 73.5512 234.224 73.5774 234.172 73.591Z" fill="#263238"/>
<path d="M248.254 90.1284L250.359 92.112C250.359 92.112 242.759 97.432 242.63 97.09C242.106 96.3566 241.535 95.6584 240.92 95L248.254 90.1284Z" fill="#407BFF"/>
<path d="M240.571 89.946L237.889 91.01C237.889 91.01 238.345 96.7556 238.58 96.482C239.335 95.9812 240.122 95.5318 240.936 95.1368L240.571 89.946Z" fill="#407BFF"/>
<path opacity="0.2" d="M248.254 90.1284L250.359 92.112C250.359 92.112 242.759 97.432 242.63 97.09C242.106 96.3566 241.535 95.6584 240.92 95L248.254 90.1284Z" fill="white"/>
<path opacity="0.2" d="M240.571 89.946L237.889 91.01C237.889 91.01 238.345 96.7556 238.58 96.482C239.335 95.9812 240.122 95.5318 240.936 95.1368L240.571 89.946Z" fill="white"/>
<path d="M239.143 113.666C239.629 114.388 243.589 113.666 243.589 113.666L246.986 113.901C247.169 113.903 247.347 113.839 247.487 113.72C247.626 113.602 247.718 113.437 247.746 113.255L248.688 108.961C248.701 108.862 248.676 108.761 248.616 108.68C248.556 108.599 248.468 108.545 248.369 108.528L245.686 108.049C244.607 107.852 243.493 108.086 242.585 108.703L239.743 110.633L239.143 113.666Z" fill="#FFC2BC"/>
<path d="M239.886 110.42L239.711 113.726C239.711 113.726 224.435 119.464 220.058 116.956C217.185 115.315 220.058 108.353 222.383 103.74L228.25 105.936L226.312 110.96L239.886 110.42Z" fill="#FFC2BC"/>
<g opacity="0.1">
<path d="M239.141 113.666C239.627 114.388 243.587 113.666 243.587 113.666L246.984 113.901C247.167 113.903 247.345 113.839 247.485 113.72C247.624 113.602 247.716 113.437 247.744 113.255L248.686 108.961C248.699 108.862 248.674 108.761 248.614 108.68C248.555 108.599 248.466 108.545 248.367 108.528L245.684 108.049C244.605 107.852 243.491 108.086 242.583 108.703L239.741 110.633L239.141 113.666Z" fill="black"/>
<path d="M239.886 110.42L239.711 113.726C239.711 113.726 224.435 119.464 220.058 116.956C217.185 115.315 220.058 108.353 222.383 103.74L228.25 105.936L226.312 110.96L239.886 110.42Z" fill="black"/>
</g>
<path d="M257.968 96.4668L246.705 111.971L230.205 108.931L229.445 112.184C229.445 112.184 245.405 120.878 249.791 118.332C254.176 115.786 261.495 100.373 261.495 100.373L257.968 96.4668Z" fill="#FFC2BC"/>
<path d="M229.459 112.176C228.965 112.89 225.013 112.123 225.013 112.123L221.615 112.313C221.43 112.314 221.25 112.248 221.11 112.126C220.97 112.004 220.88 111.836 220.855 111.652L219.966 107.358C219.953 107.258 219.979 107.157 220.038 107.077C220.098 106.996 220.187 106.941 220.285 106.924L222.983 106.476C224.066 106.295 225.177 106.546 226.077 107.175L230.188 109.037L229.459 112.176Z" fill="#FFC2BC"/>
<path d="M260.103 95C262.756 98.1312 261.98 105.883 258.158 110.808L248.848 105.336C248.848 105.336 254.312 96.1096 257.322 94.2932C258.614 93.5332 259.161 93.8676 260.103 95Z" fill="#407BFF"/>
<path opacity="0.2" d="M260.103 95C262.756 98.1312 261.98 105.883 258.158 110.808L248.848 105.336C248.848 105.336 254.312 96.1096 257.322 94.2932C258.614 93.5332 259.161 93.8676 260.103 95Z" fill="white"/>
<path d="M176.283 271.191L182.188 272.004L188.223 260.224L181.687 259.137L176.283 271.191Z" fill="#FFC2BC"/>
<path opacity="0.2" d="M181.685 259.137L188.221 260.224L184.931 266.631L178.744 265.704L181.685 259.137Z" fill="black"/>
<path d="M183.92 269.8L176.616 269.405C176.496 269.395 176.376 269.428 176.278 269.499C176.18 269.57 176.112 269.675 176.084 269.793L174.602 275.113C174.571 275.224 174.563 275.34 174.577 275.455C174.591 275.569 174.628 275.68 174.685 275.781C174.742 275.881 174.819 275.969 174.91 276.04C175.002 276.11 175.106 276.162 175.218 276.192H175.423C177.787 276.283 179.489 276.23 182.484 276.389C184.315 276.488 189.818 276.982 192.364 277.149C194.91 277.317 195.35 274.801 194.332 274.52C189.772 273.258 186.352 271.639 184.931 270.256C184.667 269.977 184.304 269.813 183.92 269.8Z" fill="#263238"/>
<path d="M184.277 270.56C184.249 270.553 184.223 270.536 184.205 270.513C184.187 270.489 184.178 270.46 184.179 270.431C184.173 270.404 184.176 270.375 184.189 270.35C184.201 270.325 184.222 270.305 184.247 270.294C184.467 270.172 186.481 269.086 187.127 269.458C187.2 269.5 187.259 269.561 187.298 269.635C187.337 269.709 187.355 269.793 187.348 269.876C187.365 270.022 187.342 270.169 187.282 270.303C187.221 270.437 187.126 270.552 187.006 270.636C186.655 270.848 186.241 270.932 185.835 270.872C185.306 270.829 184.783 270.724 184.277 270.56ZM186.793 269.709C186.061 269.803 185.352 270.032 184.703 270.385C185.388 270.663 186.154 270.663 186.839 270.385C186.913 270.326 186.973 270.249 187.011 270.162C187.05 270.074 187.066 269.979 187.059 269.884C187.059 269.851 187.053 269.818 187.039 269.788C187.026 269.758 187.007 269.731 186.983 269.709C186.921 269.693 186.855 269.693 186.793 269.709Z" fill="#407BFF"/>
<path d="M184.262 270.659C184.243 270.641 184.228 270.62 184.218 270.597C184.207 270.573 184.202 270.548 184.201 270.522C184.201 270.431 184.414 268.713 185.144 268.189C185.23 268.12 185.331 268.07 185.438 268.044C185.546 268.018 185.658 268.015 185.767 268.037C185.874 268.041 185.976 268.083 186.055 268.156C186.135 268.228 186.186 268.326 186.2 268.432C186.284 269.07 185.014 270.332 184.376 270.636H184.308L184.262 270.659ZM185.645 268.257C185.529 268.257 185.416 268.297 185.326 268.371C184.872 268.887 184.586 269.528 184.505 270.21C185.151 269.785 185.972 268.82 185.911 268.424C185.911 268.386 185.911 268.28 185.721 268.265H185.645V268.257Z" fill="#407BFF"/>
<path d="M144.78 236.976L149.104 237.135C156.306 236.8 163.456 235.738 170.445 233.966C176.7 232.446 187.066 227.658 187.066 227.658C183.73 241.931 177.718 263.682 177.718 263.682L187.005 264.754C187.005 264.754 211.189 218.682 200.518 213.408C190.98 208.316 154.082 211.66 154.082 211.66L150.282 207.67L124.495 209.76C124.495 209.76 119.563 236.938 144.78 236.976Z" fill="#263238"/>
<path d="M187.599 266.631L176.975 263.408L178.251 258.978L189.765 263.363L187.599 266.631Z" fill="#407BFF"/>
<path opacity="0.5" d="M187.599 266.631L176.975 263.408L178.251 258.978L189.765 263.363L187.599 266.631Z" fill="white"/>
<path opacity="0.4" d="M147.979 226.898C150.571 234.498 170.263 233.738 173.006 233.373C156.795 236.497 153.74 236.922 149.104 237.135L144.78 236.976C143.429 236.975 142.08 236.876 140.744 236.679C142.751 223.615 144.848 217.725 147.979 226.898Z" fill="black"/>
<path d="M94.8948 258.066L94.1348 264.039L107.914 266.289L108.674 260.308L94.8948 258.066Z" fill="#FFC2BC"/>
<path d="M95.3579 264.868L99.6443 258.902C99.7131 258.805 99.7467 258.687 99.7398 258.568C99.7329 258.449 99.6858 258.337 99.6063 258.248L95.9507 254.152C95.7923 253.978 95.5713 253.874 95.3363 253.862C95.1012 253.851 94.8712 253.933 94.6967 254.091C94.6539 254.14 94.6205 254.197 94.5979 254.258C93.2451 256.204 92.3711 257.663 90.6231 260.102C89.5591 261.584 86.1695 265.97 84.7027 268.014C83.2359 270.058 85.0675 271.814 85.8503 271.054C89.3843 267.877 92.5535 265.863 94.5067 265.43C94.8503 265.354 95.1536 265.154 95.3579 264.868Z" fill="#263238"/>
<path d="M94.4378 264.716C94.4617 264.701 94.4894 264.693 94.5176 264.693C94.5457 264.693 94.5734 264.701 94.5974 264.716C94.6227 264.727 94.6433 264.747 94.6558 264.772C94.6682 264.797 94.6717 264.825 94.6658 264.853C94.6658 265.111 94.491 267.391 93.8298 267.725C93.7593 267.77 93.6776 267.794 93.5942 267.794C93.5107 267.794 93.429 267.77 93.3586 267.725C93.23 267.659 93.1209 267.561 93.0422 267.439C92.9636 267.318 92.918 267.178 92.9102 267.034C92.9182 266.623 93.0687 266.228 93.3358 265.917C93.659 265.478 94.0284 265.075 94.4378 264.716ZM94.3618 265.172C93.754 265.599 93.3346 266.244 93.1914 266.973C93.2022 267.069 93.2354 267.16 93.2882 267.241C93.341 267.321 93.412 267.388 93.4954 267.437C93.5942 267.49 93.6702 267.482 93.6854 267.437C93.7466 267.411 93.7975 267.365 93.8298 267.307C94.137 266.634 94.3174 265.91 94.3618 265.172Z" fill="#407BFF"/>
<path d="M94.4454 264.67C94.4916 264.651 94.5435 264.651 94.5898 264.67C94.6582 264.731 95.973 265.863 96.0262 266.76C96.0361 266.868 96.023 266.976 95.9876 267.079C95.9522 267.181 95.8954 267.274 95.821 267.353C95.7595 267.442 95.6688 267.506 95.5648 267.535C95.4607 267.565 95.3497 267.556 95.251 267.512C94.6582 267.239 94.2858 265.491 94.377 264.792V264.731C94.3831 264.716 94.3925 264.703 94.4043 264.693C94.4161 264.682 94.4302 264.674 94.4454 264.67ZM95.783 266.828C95.5875 266.169 95.1982 265.584 94.6658 265.149C94.6697 265.931 94.9375 266.689 95.4258 267.3C95.447 267.311 95.4704 267.318 95.4945 267.32C95.5186 267.322 95.5429 267.319 95.5657 267.311C95.5886 267.303 95.6095 267.291 95.6273 267.274C95.6451 267.258 95.6593 267.238 95.669 267.216V267.148C95.7331 267.054 95.7651 266.942 95.7602 266.828H95.783Z" fill="#407BFF"/>
<path opacity="0.2" d="M108.665 260.3L107.905 266.289L100.799 265.126L101.566 259.145L108.665 260.3Z" fill="black"/>
<path d="M148.527 221.244C150.625 224.565 157.875 264.632 144.34 273.585C134.368 280.159 102.98 267.718 102.98 267.718L103.984 257.769C103.984 257.769 129.482 262.542 132.636 259.973C135.79 257.404 125.264 229.573 124.747 223.06C124.23 216.547 148.527 221.244 148.527 221.244Z" fill="#263238"/>
<path d="M102.281 268.44L102.623 257.336L107.229 257.42L105.998 269.678L102.281 268.44Z" fill="#407BFF"/>
<path opacity="0.5" d="M102.281 268.44L102.623 257.336L107.229 257.42L105.998 269.678L102.281 268.44Z" fill="white"/>
<path d="M151.371 208.719C150.557 207.199 148.08 204.212 145.693 203.794C142.524 203.239 141.848 203.118 129.619 204.995C123.851 205.876 123.433 210.406 123.752 212.754C123.796 213.069 123.924 213.366 124.125 213.613L124.391 213.94C124.983 214.122 150.991 209.555 151.257 209.699C151.364 209.562 151.432 209.398 151.452 209.225C151.472 209.052 151.444 208.877 151.371 208.719Z" fill="#407BFF"/>
<path opacity="0.2" d="M151.371 208.719C150.557 207.199 148.08 204.212 145.693 203.794C142.524 203.239 141.848 203.118 129.619 204.995C123.851 205.876 123.433 210.406 123.752 212.754C123.796 213.069 123.924 213.366 124.125 213.613L124.391 213.94C124.983 214.122 150.991 209.555 151.257 209.699C151.364 209.562 151.432 209.398 151.452 209.225C151.472 209.052 151.444 208.877 151.371 208.719Z" fill="white"/>
<path d="M179.597 164.92C181.283 164.796 182.916 164.275 184.362 163.4C185.359 162.701 186.209 161.813 186.863 160.786C187.072 160.478 187.161 160.105 187.114 159.737C187.004 158.874 186.663 158.057 186.126 157.373C185.979 157.195 185.768 157.081 185.539 157.054C185.31 157.027 185.079 157.09 184.894 157.229C184.013 157.86 183.01 158.521 182.219 159.136C179.992 159.554 177.88 161.606 177.697 163.864C178.298 164.16 178.989 164.601 179.597 164.92Z" fill="#FFC2BC"/>
<path d="M180.568 161.933L181.176 164.875C181.176 164.875 166.546 175.233 163.757 175.385C161.842 175.492 159.623 175.591 157.327 175.667C154.698 175.758 151.954 175.811 149.461 175.796C144.955 175.758 141.269 175.461 140.516 174.671C138.236 172.262 140.676 168.462 144.24 168.5C148.884 168.545 157.001 169.647 164.707 169.351C167.344 169.252 180.568 161.933 180.568 161.933Z" fill="#FFC2BC"/>
<path opacity="0.2" d="M157.322 175.666C154.692 175.758 151.948 175.811 149.456 175.796L146.682 171.828C150.351 172.737 153.917 174.024 157.322 175.666Z" fill="black"/>
<path d="M148.202 167.648C148.202 167.648 141.749 166.425 140.655 169.541C139.56 172.657 142.433 178.205 151.401 177.232L152.313 167.747L148.202 167.648Z" fill="#407BFF"/>
<path opacity="0.2" d="M148.202 167.648C148.202 167.648 141.749 166.425 140.655 169.541C139.56 172.657 142.433 178.205 151.401 177.232L152.313 167.747L148.202 167.648Z" fill="white"/>
<path d="M143.268 167.724C143.443 168.028 148.353 174.481 149.037 179.512C149.531 183.145 149.037 187.112 148.968 191.155C148.915 194.074 149.949 200.275 149.949 200.275L150.762 202.145C151.091 202.903 151.251 203.724 151.233 204.551C151.215 205.377 151.018 206.19 150.656 206.933L150.298 207.693L124.071 211.204L123.911 211.12C123.911 211.12 121.578 209.167 122.353 206.682V204.759C123.402 201.332 123.113 196.916 120.514 187.804C119.686 184.832 118.766 181.184 118.766 181.184C119.458 174.618 117.322 171.304 117.299 171.304C117.276 171.304 117.299 171.266 117.299 171.258C120.456 170.216 123.685 169.404 126.959 168.826C130.437 168.176 133.957 167.775 137.492 167.626C140.821 167.618 143.261 167.717 143.268 167.724Z" fill="#407BFF"/>
<path d="M140.676 144.613C142.325 146.52 142.682 149.173 143.381 151.628C143.951 153.604 145.19 157.616 144.423 159.516C143.549 161.682 139.247 159.851 137.818 161.69C132.133 169.039 128.698 165.878 126.517 164.061C125.423 163.164 121.265 162.275 120.194 161.356C119.122 160.436 117.291 159.972 118.081 156.4C121.243 142.09 126.494 141.246 133.501 141.634C136.184 141.778 138.867 142.515 140.676 144.613Z" fill="#263238"/>
<path d="M126.639 156.864C127.695 160.185 129.071 166.318 126.95 168.857L128.668 170.544C129.353 171.213 130.207 171.681 131.14 171.897C132.072 172.114 133.045 172.072 133.955 171.774C134.864 171.476 135.675 170.935 136.298 170.209C136.922 169.483 137.335 168.6 137.491 167.656C133.623 167.177 134.315 163.286 133.494 159.57L126.639 156.864Z" fill="#FFC2BC"/>
<path opacity="0.2" d="M135.379 155.648C134.665 158.346 133.722 162.686 134.619 165.627C131.169 166.045 128.775 162.974 128.607 161.979C128.993 160.785 129.285 159.562 129.481 158.323L135.379 155.648Z" fill="black"/>
<path d="M125.462 151.658C126.055 157.343 126.184 159.76 129.186 162.557C133.701 166.767 140.586 164.791 141.666 159.053C142.669 153.885 141.529 145.472 135.859 143.435C134.611 142.982 133.267 142.855 131.956 143.067C130.645 143.279 129.409 143.823 128.368 144.647C127.326 145.471 126.512 146.548 126.004 147.775C125.495 149.002 125.309 150.339 125.462 151.658Z" fill="#FFC2BC"/>
<path d="M126.83 154.645C127.275 155.406 127.511 156.271 127.514 157.153C127.764 156.962 127.942 156.692 128.021 156.388C128.099 156.083 128.073 155.761 127.947 155.473C127.765 154.873 127.453 154.584 126.83 154.645Z" fill="#263238"/>
<path d="M123.645 157.198C124.235 158.133 125.168 158.798 126.244 159.053C127.673 159.364 128.311 158.072 127.847 156.773C127.437 155.595 126.183 154.037 124.807 154.272C124.32 154.376 123.894 154.669 123.622 155.086C123.35 155.504 123.254 156.012 123.356 156.499C123.403 156.75 123.501 156.988 123.645 157.198Z" fill="#FFC2BC"/>
<path d="M133.593 152.988C133.593 153.49 133.897 153.87 134.216 153.87C134.536 153.87 134.794 153.436 134.771 152.942C134.748 152.448 134.46 152.061 134.14 152.068C133.821 152.076 133.57 152.494 133.593 152.988Z" fill="#263238"/>
<path d="M139.226 152.76C139.226 153.254 139.53 153.642 139.856 153.634C140.183 153.626 140.434 153.208 140.404 152.707C140.373 152.205 140.107 151.825 139.78 151.825C139.454 151.825 139.18 152.243 139.226 152.76Z" fill="#263238"/>
<path d="M139.635 151.856L140.805 151.491C140.805 151.491 140.25 152.395 139.635 151.856Z" fill="#263238"/>
<path d="M137.773 153.672C138.268 154.79 138.912 155.836 139.689 156.781C139.441 156.971 139.156 157.106 138.851 157.175C138.547 157.245 138.231 157.248 137.925 157.183L137.773 153.672Z" fill="#EC837E"/>
<path d="M136.216 158.924C136.501 159.036 136.796 159.117 137.098 159.167C137.114 159.17 137.13 159.17 137.146 159.167C137.162 159.164 137.177 159.157 137.191 159.148C137.204 159.139 137.216 159.127 137.225 159.113C137.234 159.1 137.239 159.084 137.242 159.068C137.245 159.036 137.237 159.004 137.219 158.978C137.201 158.952 137.174 158.932 137.143 158.924C136.525 158.833 135.936 158.597 135.427 158.233C134.918 157.87 134.504 157.39 134.217 156.834C134.207 156.804 134.187 156.779 134.161 156.763C134.135 156.746 134.104 156.739 134.073 156.743C134.044 156.748 134.018 156.765 134.001 156.789C133.984 156.813 133.977 156.843 133.982 156.872C134.431 157.821 135.232 158.557 136.216 158.924Z" fill="#263238"/>
<path d="M132.242 149.294C132.275 149.304 132.311 149.304 132.344 149.294C132.378 149.285 132.408 149.267 132.432 149.241C132.651 149.003 132.924 148.821 133.228 148.71C133.532 148.599 133.859 148.562 134.18 148.603C134.237 148.61 134.294 148.596 134.342 148.564C134.39 148.532 134.424 148.484 134.438 148.428C134.448 148.403 134.452 148.377 134.451 148.35C134.45 148.323 134.444 148.297 134.433 148.273C134.421 148.249 134.405 148.227 134.385 148.209C134.365 148.192 134.342 148.178 134.317 148.17C133.928 148.115 133.532 148.156 133.163 148.288C132.793 148.421 132.462 148.641 132.196 148.93C132.155 148.967 132.128 149.019 132.121 149.075C132.114 149.13 132.127 149.187 132.158 149.234C132.166 149.25 132.178 149.263 132.193 149.274C132.207 149.285 132.224 149.292 132.242 149.294Z" fill="#263238"/>
<path d="M141.361 149.272C141.401 149.284 141.444 149.286 141.485 149.276C141.527 149.267 141.565 149.247 141.596 149.219C141.641 149.173 141.666 149.112 141.666 149.048C141.666 148.983 141.641 148.922 141.596 148.877C141.298 148.53 140.92 148.262 140.495 148.094C140.07 147.926 139.611 147.863 139.157 147.911C139.126 147.914 139.096 147.923 139.069 147.938C139.042 147.952 139.018 147.972 138.999 147.997C138.979 148.021 138.965 148.049 138.957 148.078C138.949 148.108 138.947 148.139 138.951 148.17C138.963 148.233 138.998 148.29 139.051 148.327C139.104 148.364 139.169 148.378 139.233 148.367C139.608 148.337 139.985 148.396 140.334 148.538C140.682 148.681 140.992 148.904 141.239 149.188C141.268 149.23 141.311 149.259 141.361 149.272Z" fill="#263238"/>
<path d="M134.004 152.099L135.174 151.726C135.174 151.726 134.612 152.661 134.004 152.099Z" fill="#263238"/>
<path d="M130.896 146.102C132.575 148.154 126.503 153.52 126.83 154.645C125.181 154.751 123.957 151.293 123.873 149.5C123.789 147.688 124.355 145.907 125.469 144.476C126.176 143.572 127.483 143.404 128.631 143.252C128.963 143.182 129.309 143.208 129.627 143.328C129.818 143.432 129.98 143.581 130.1 143.763C130.219 143.945 130.292 144.153 130.311 144.37C130.395 144.979 130.593 145.567 130.896 146.102Z" fill="#263238"/>
<path d="M128.631 143.252C129.725 144.121 130.532 145.299 130.945 146.633C131.359 147.968 131.36 149.396 130.949 150.731C131.686 150.13 132.295 149.389 132.742 148.55C132.977 148.113 133.086 147.619 133.057 147.124C133.027 146.628 132.86 146.151 132.575 145.745C133.377 146.336 134.054 147.081 134.567 147.935C135.08 148.79 135.418 149.737 135.562 150.723C135.905 150.471 136.189 150.146 136.392 149.771C136.596 149.397 136.715 148.983 136.74 148.557C136.776 148.139 136.719 147.718 136.575 147.324C136.43 146.931 136.201 146.573 135.904 146.277C136.488 146.789 136.933 147.439 137.199 148.168C137.465 148.898 137.542 149.682 137.424 150.45C137.812 150.15 138.121 149.762 138.326 149.317C138.531 148.873 138.626 148.385 138.602 147.896C138.56 147.373 138.402 146.867 138.139 146.413C137.876 145.959 137.515 145.57 137.082 145.274C137.88 145.714 138.548 146.355 139.02 147.134C139.492 147.913 139.751 148.802 139.772 149.712C141.505 148.033 140.92 145.624 138.792 144.301C135.674 142.631 132.024 142.255 128.631 143.252Z" fill="#263238"/>
<path d="M127.795 167.01L125.758 169.054C125.758 169.054 133.525 174.131 133.639 173.789C134.135 173.029 134.681 172.303 135.273 171.616L127.795 167.01Z" fill="#407BFF"/>
<path d="M135.471 166.577L138.184 167.565C138.184 167.565 137.918 173.318 137.668 173.052C136.902 172.568 136.105 172.136 135.281 171.76L135.471 166.577Z" fill="#407BFF"/>
<path opacity="0.2" d="M127.795 167.01L125.758 169.054C125.758 169.054 133.525 174.131 133.639 173.789C134.135 173.029 134.681 172.303 135.273 171.616L127.795 167.01Z" fill="white"/>
<path opacity="0.2" d="M135.471 166.577L138.184 167.565C138.184 167.565 137.918 173.318 137.668 173.052C136.902 172.568 136.105 172.136 135.281 171.76L135.471 166.577Z" fill="white"/>
<path d="M86.0319 190.98L79.4883 191.604L81.7683 196.741C83.5432 195.964 85.2405 195.019 86.8375 193.922L86.0319 190.98Z" fill="#FFC2BC"/>
<path d="M77.072 195.533L77.1784 195.723C77.3787 196.07 77.6699 196.356 78.0208 196.551C78.3717 196.745 78.7689 196.84 79.1696 196.825L81.7764 196.741L79.4964 191.604L77.9004 192.516C77.6471 192.658 77.4246 192.85 77.2456 193.079C77.0667 193.309 76.935 193.571 76.858 193.852C76.7809 194.132 76.7602 194.425 76.797 194.714C76.8337 195.002 76.9272 195.281 77.072 195.533Z" fill="#FFC2BC"/>
<path d="M87.4985 193.732C87.4985 193.732 98.9365 194.78 109.645 189.726C109.645 189.726 116.842 183.73 120.733 178.691C126.509 171.197 121.136 168.94 116.872 173.774C113.711 177.361 106.384 184.292 106.384 184.292C97.1809 189.612 85.2261 191.269 85.2261 191.269C82.9081 194.613 87.4985 193.732 87.4985 193.732Z" fill="#FFC2BC"/>
<path d="M124.047 170.924C126.768 173.105 122.71 178.805 117.42 185.66L110.861 177.148C110.861 177.148 119.183 167.025 124.047 170.924Z" fill="#407BFF"/>
<path opacity="0.2" d="M124.047 170.924C126.768 173.105 122.71 178.805 117.42 185.66L110.861 177.148C110.861 177.148 119.183 167.025 124.047 170.924Z" fill="white"/>
</svg>
