<svg width="81" height="60" viewBox="0 0 81 60" fill="none" xmlns="http://www.w3.org/2000/svg">
<g opacity="0.35">
<path d="M80.9988 52.3845H0.998047V52.4245H80.9988V52.3845Z" fill="#EBEBEB"/>
<path d="M72.9828 54.959H67.6836V54.999H72.9828V54.959Z" fill="#EBEBEB"/>
<path d="M65.6695 54.959H54.3398V54.999H65.6695V54.959Z" fill="#EBEBEB"/>
<path d="M48.0919 53.4741H45.0215V53.5141H48.0919V53.4741Z" fill="#EBEBEB"/>
<path d="M14.879 53.7429H9.39258V53.7829H14.879V53.7429Z" fill="#EBEBEB"/>
<path d="M26.2788 53.7429H16.3027V53.7829H26.2788V53.7429Z" fill="#EBEBEB"/>
<path d="M37.0205 54.418H31.1309V54.458H37.0205V54.418Z" fill="#EBEBEB"/>
<path d="M38.918 45.2484H8.02334C7.78131 45.248 7.54934 45.1515 7.37835 44.9803C7.20736 44.809 7.11133 44.5768 7.11133 44.3348V0.905608C7.11344 0.66497 7.2104 0.43488 7.38116 0.265317C7.55192 0.0957542 7.78269 0.000412226 8.02334 0H38.918C39.1603 0 39.3927 0.0962549 39.564 0.26759C39.7354 0.438924 39.8316 0.671304 39.8316 0.913608V44.3348C39.8316 44.5771 39.7354 44.8095 39.564 44.9808C39.3927 45.1522 39.1603 45.2484 38.918 45.2484ZM8.02334 0.0320004C7.79192 0.0324243 7.57012 0.124652 7.40664 0.288439C7.24315 0.452226 7.15133 0.67419 7.15133 0.905608V44.3348C7.15133 44.5662 7.24315 44.7882 7.40664 44.952C7.57012 45.1158 7.79192 45.208 8.02334 45.2084H38.918C39.1496 45.208 39.3715 45.1158 39.5353 44.9521C39.699 44.7883 39.7912 44.5664 39.7916 44.3348V0.905608C39.7912 0.674043 39.699 0.452083 39.5353 0.288341C39.3715 0.1246 39.1496 0.0324234 38.918 0.0320004H8.02334Z" fill="#EBEBEB"/>
<path d="M73.5267 45.2484H42.6304C42.3882 45.248 42.1561 45.1516 41.9849 44.9804C41.8136 44.8091 41.7172 44.577 41.7168 44.3348V0.905608C41.7193 0.664824 41.8166 0.434736 41.9877 0.265217C42.1587 0.0956982 42.3896 0.00040773 42.6304 0H73.5267C73.7671 0.000832727 73.9974 0.0963607 74.1678 0.265879C74.3382 0.435397 74.435 0.665246 74.4371 0.905608V44.3348C74.4371 44.5765 74.3413 44.8084 74.1706 44.9797C74 45.1509 73.7684 45.2476 73.5267 45.2484ZM42.6304 0.0320004C42.3988 0.0324234 42.1769 0.1246 42.0131 0.288341C41.8494 0.452083 41.7572 0.674043 41.7568 0.905608V44.3348C41.7572 44.5664 41.8494 44.7883 42.0131 44.9521C42.1769 45.1158 42.3988 45.208 42.6304 45.2084H73.5267C73.7582 45.208 73.9802 45.1158 74.1439 44.9521C74.3077 44.7883 74.3999 44.5664 74.4003 44.3348V0.905608C74.3999 0.674043 74.3077 0.452083 74.1439 0.288341C73.9802 0.1246 73.7582 0.0324234 73.5267 0.0320004H42.6304Z" fill="#EBEBEB"/>
<path d="M13.1316 22.1155L34.8438 22.1155V3.30411L13.1316 3.30411L13.1316 22.1155Z" fill="#E6E6E6"/>
<path d="M12.6472 22.1155L34.3594 22.1155V3.30411L12.6472 3.30411L12.6472 22.1155Z" fill="#F5F5F5"/>
<path d="M33.4941 21.4434V3.97607L13.5148 3.97607V21.4434H33.4941Z" fill="#FAFAFA"/>
<path d="M25.4811 21.4434L29.1019 3.97607H21.5274L17.9082 21.4434H25.4811Z" fill="white"/>
<path d="M13.8809 21.4449L13.8809 3.97754H13.5161L13.5161 21.4449H13.8809Z" fill="#E6E6E6"/>
<path d="M13.0046 18.3123L34 18.3123V17.4098L13.0046 17.4098V18.3123Z" fill="#F5F5F5"/>
<path d="M33.8355 51.4324H37.3027V36.397H33.8355V51.4324Z" fill="#F0F0F0"/>
<path d="M11.1936 52.3845H36.6387V51.4325H11.1936V52.3845Z" fill="#F0F0F0"/>
<path d="M33.8364 36.3955H10.5273V51.4308H33.8364V36.3955Z" fill="#F5F5F5"/>
<path d="M32.4748 38.2468H11.8906V43.1781H32.4748V38.2468Z" fill="#F0F0F0"/>
<path d="M32.4748 44.6499H11.8906V49.5811H32.4748V44.6499Z" fill="#F0F0F0"/>
<path d="M16.6345 41.0499H27.7306C27.82 41.0494 27.9056 41.0137 27.9688 40.9505C28.0321 40.8873 28.0678 40.8017 28.0682 40.7123C28.0678 40.6227 28.0321 40.5369 27.9689 40.4734C27.9058 40.4099 27.8201 40.3739 27.7306 40.373H16.6345C16.5449 40.3739 16.4593 40.4099 16.3961 40.4734C16.3329 40.5369 16.2973 40.6227 16.2969 40.7123C16.2973 40.8017 16.333 40.8873 16.3962 40.9505C16.4594 41.0137 16.5451 41.0494 16.6345 41.0499Z" fill="#F5F5F5"/>
<path d="M16.6345 47.4532H27.7306C27.82 47.4527 27.9056 47.417 27.9688 47.3538C28.0321 47.2906 28.0678 47.205 28.0682 47.1156C28.0682 47.0259 28.0327 46.9398 27.9694 46.8763C27.9061 46.8127 27.8203 46.7768 27.7306 46.7764H16.6345C16.5448 46.7768 16.4589 46.8127 16.3957 46.8763C16.3324 46.9398 16.2969 47.0259 16.2969 47.1156C16.2973 47.205 16.333 47.2906 16.3962 47.3538C16.4594 47.417 16.5451 47.4527 16.6345 47.4532Z" fill="#F5F5F5"/>
<path d="M70.058 13.1362C72.0324 12.5922 72.7076 9.00978 67.7188 7.54736C68.8196 11.1506 66.6163 14.0802 70.058 13.1362Z" fill="#EBEBEB"/>
<path d="M70.4943 14.6914C72.0511 13.0098 70.5791 9.205 64.9727 10.7602C68.1439 13.5346 67.7823 17.6243 70.4943 14.6914Z" fill="#E0E0E0"/>
<path d="M68.959 15.1233C67.6565 13.8337 69.5222 9.34568 73.823 11.4257C71.3862 13.7601 71.239 17.3714 68.959 15.1233Z" fill="#FAFAFA"/>
<path d="M67.6598 17.6354H71.4502L71.7366 15.0706H67.375L67.6598 17.6354Z" fill="#E6E6E6"/>
<path d="M67.332 15.5298H71.7801C71.8552 15.5298 71.9272 15.4999 71.9803 15.4468C72.0334 15.3937 72.0633 15.3217 72.0633 15.2466C72.0633 15.1715 72.0334 15.0994 71.9803 15.0463C71.9272 14.9932 71.8552 14.9634 71.7801 14.9634H67.332C67.2569 14.9634 67.1849 14.9932 67.1318 15.0463C67.0787 15.0994 67.0488 15.1715 67.0488 15.2466C67.0488 15.3217 67.0787 15.3937 67.1318 15.4468C67.1849 15.4999 67.2569 15.5298 67.332 15.5298Z" fill="#E6E6E6"/>
<path d="M35.7677 48.0403V43.6963H39.3853V39.3538H43.0045V35.0098H46.6222V30.6658H50.2414V26.3233H53.859V21.9793H57.4783V17.6353H61.0975H80.9985V52.3844H35.7677H32.1484V48.0403H35.7677Z" fill="#FAFAFA"/>
<path d="M55.6704 48.0403V43.6963H59.2896V39.3538H62.9072V35.0098H66.5265V30.6658H70.1441V26.3233H73.7633V21.9793H77.381V17.6353H81.0002V21.9793V52.3844H55.6704H52.0527V48.0403H55.6704Z" fill="#E0E0E0"/>
<path d="M52.0509 48.0405H31.9355V49.3429H52.0509V48.0405Z" fill="#EBEBEB"/>
<path d="M55.6701 43.6963H35.5547V44.9987H55.6701V43.6963Z" fill="#EBEBEB"/>
<path d="M59.2873 39.354H39.1719V40.6564H59.2873V39.354Z" fill="#EBEBEB"/>
<path d="M62.9064 35.01H42.791V36.3124H62.9064V35.01Z" fill="#EBEBEB"/>
<path d="M66.5255 30.6658H46.4102V31.9682H66.5255V30.6658Z" fill="#EBEBEB"/>
<path d="M70.1447 26.3235H50.0293V27.6259H70.1447V26.3235Z" fill="#EBEBEB"/>
<path d="M73.7619 21.9795H53.6465V23.2819H73.7619V21.9795Z" fill="#EBEBEB"/>
<path d="M77.381 17.6353H57.2656V18.9377H77.381V17.6353Z" fill="#EBEBEB"/>
<path d="M40.9992 59.6102C58.1326 59.6102 72.0219 58.7993 72.0219 57.799C72.0219 56.7987 58.1326 55.9878 40.9992 55.9878C23.8659 55.9878 9.97656 56.7987 9.97656 57.799C9.97656 58.7993 23.8659 59.6102 40.9992 59.6102Z" fill="#F5F5F5"/>
<path d="M56.347 9.8481L56.0605 9.7937C56.0605 9.7937 56.2237 9.9985 56.347 9.8481Z" fill="#263238"/>
<path opacity="0.2" d="M51.0504 30.2225C48.3396 31.2756 45.3775 31.5013 42.5385 30.871C39.6994 30.2406 37.1111 28.7826 35.1007 26.6812C33.0904 24.5798 31.7483 21.9295 31.2441 19.0654C30.74 16.2013 31.0965 13.252 32.2685 10.5905C33.4405 7.92896 35.3754 5.67474 37.8285 4.11287C40.2817 2.551 43.1428 1.75163 46.0503 1.81584C48.9577 1.88005 51.7808 2.80495 54.1626 4.4736C56.5444 6.14224 58.3779 8.47969 59.4313 11.1904C60.131 12.9903 60.4692 14.9104 60.4267 16.8411C60.3841 18.7718 59.9617 20.6752 59.1834 22.4426C58.4051 24.2099 57.2863 25.8067 55.8908 27.1416C54.4953 28.4765 52.8506 29.5234 51.0504 30.2225Z" fill="#407BFF"/>
<path opacity="0.1" d="M48.3905 2.05599L36.8576 28.2482C36.68 28.1138 36.504 27.9746 36.3312 27.8338C35.2165 26.9117 34.2458 25.8283 33.4512 24.6194L43.4129 1.99519C45.0632 1.72938 46.7471 1.74994 48.3905 2.05599Z" fill="white"/>
<path opacity="0.1" d="M56.5894 6.59998L45.7461 31.2258C43.4938 31.2282 41.2711 30.7125 39.25 29.7186L51.0901 2.82715C53.1877 3.64749 55.069 4.93822 56.5894 6.59998Z" fill="white"/>
<path d="M33.6204 6.61121C35.5797 4.21712 38.2049 2.4578 41.1641 1.55572C44.1233 0.653644 47.2835 0.649323 50.2452 1.54331C53.2068 2.43729 55.8369 4.18943 57.8027 6.57815C59.7686 8.96687 60.982 11.8849 61.2894 14.9632C61.5969 18.0415 60.9846 21.1419 59.53 23.8722C58.0754 26.6026 55.8439 28.8403 53.1175 30.3024C50.3912 31.7644 47.2925 32.3852 44.2134 32.0862C41.1342 31.7872 38.2129 30.5819 35.8188 28.6226C32.6087 25.995 30.5737 22.2 30.1615 18.0722C29.7492 13.9443 30.9934 9.82179 33.6204 6.61121ZM56.8398 25.613C58.6383 23.4145 59.7445 20.7322 60.0185 17.905C60.2926 15.0779 59.7222 12.233 58.3795 9.73001C57.0367 7.22705 54.9819 5.17845 52.4749 3.84326C49.9679 2.50806 47.1213 1.94624 44.295 2.22882C41.4687 2.5114 38.7897 3.62571 36.5967 5.43083C34.4036 7.23595 32.7951 9.65082 31.9745 12.3701C31.1539 15.0893 31.1581 17.9909 31.9864 20.7078C32.8148 23.4247 34.4302 25.835 36.6284 27.6338C38.0881 28.8284 39.7689 29.7237 41.5746 30.2686C43.3804 30.8135 45.2758 30.9974 47.1526 30.8098C49.0295 30.6221 50.851 30.0666 52.5131 29.1749C54.1752 28.2833 55.6454 27.0729 56.8398 25.613Z" fill="#407BFF"/>
<path d="M58.221 25.5587C59.7618 26.4787 61.2274 27.4899 62.6674 28.5331C64.1074 29.5763 65.5106 30.6627 66.8914 31.7779C68.2723 32.8931 69.6275 34.0403 70.9347 35.2451C71.5896 35.8467 72.2296 36.4643 72.8547 37.098C73.4819 37.738 74.0979 38.378 74.6787 39.0724C74.8129 39.2332 74.8869 39.4357 74.8879 39.6451C74.889 39.8545 74.817 40.0577 74.6845 40.2198C74.5519 40.3819 74.367 40.4928 74.1615 40.5333C73.9561 40.5739 73.7429 40.5416 73.5587 40.442C72.7587 40.01 72.0099 39.5332 71.2627 39.0452C70.5155 38.5572 69.7859 38.0484 69.0659 37.5252C67.6258 36.482 66.2322 35.3827 64.8674 34.2483C63.5026 33.1139 62.1586 31.9539 60.8514 30.7475C59.5442 29.5411 58.2626 28.3059 57.0562 26.9779C56.9055 26.8136 56.8191 26.6006 56.8129 26.3778C56.8066 26.155 56.8809 25.9374 57.022 25.7649C57.1632 25.5925 57.3618 25.4767 57.5814 25.4388C57.801 25.4009 58.027 25.4435 58.2178 25.5587H58.221Z" fill="#407BFF"/>
<path d="M50.2532 27.9284C50.3943 27.543 50.6489 27.2094 50.9833 26.9715C51.3178 26.7335 51.7164 26.6025 52.1268 26.5955H64.9349C65.1562 26.5873 65.3767 26.6277 65.5807 26.7139C65.7847 26.8001 65.9673 26.93 66.1156 27.0945C66.2639 27.259 66.3743 27.454 66.439 27.6658C66.5037 27.8776 66.5212 28.1011 66.4901 28.3204L63.1813 56.0822C63.1111 56.5548 62.875 56.987 62.5153 57.3016C62.1557 57.6161 61.6958 57.7924 61.2181 57.799H20.5777C20.3571 57.8074 20.1374 57.7674 19.934 57.6817C19.7305 57.596 19.5484 57.4668 19.4003 57.3032C19.2521 57.1395 19.1417 56.9454 19.0767 56.7344C19.0117 56.5235 18.9938 56.3008 19.0241 56.0822L21.7985 32.7572C21.8687 32.2846 22.1048 31.8524 22.4645 31.5378C22.8241 31.2233 23.284 31.047 23.7617 31.0404H45.8771C46.8354 31.024 47.7664 30.718 48.5474 30.1625C49.3285 29.6071 49.9232 28.8282 50.2532 27.9284Z" fill="#407BFF"/>
<path d="M19.7559 56.5206H62.2218L64.6411 27.9475H22.1767L19.7559 56.5206Z" fill="#F0F0F0"/>
<path d="M19.7559 56.5206H62.2218L63.9723 27.9475H22.1767L19.7559 56.5206Z" fill="#E0E0E0"/>
<path d="M19.7559 56.5205H62.2218L63.6811 27.0403H21.2167L19.7559 56.5205Z" fill="#F0F0F0"/>
<path d="M19.7559 56.5205H62.2218L62.7994 27.0403H21.2167L19.7559 56.5205Z" fill="#E0E0E0"/>
<path d="M19.7559 56.5205H62.2218L62.4746 26.2402H20.0103L19.7559 56.5205Z" fill="#F0F0F0"/>
<path d="M19.755 56.5205H62.221L61.349 26.813H19.1582L19.755 56.5205Z" fill="#E0E0E0"/>
<path d="M19.7553 56.5205H62.2213L60.9605 27.0403H18.4961L19.7553 56.5205Z" fill="#F0F0F0"/>
<path d="M19.7545 56.5206H62.2205L60.2124 27.4851H17.748L19.7545 56.5206Z" fill="#E0E0E0"/>
<path d="M19.7561 56.5206H62.2221L59.8941 27.7332H17.4297L19.7561 56.5206Z" fill="#F0F0F0"/>
<path d="M41.021 29.7315C41.0234 29.5459 41.0631 29.3626 41.1377 29.1926C41.2124 29.0227 41.3205 28.8694 41.4556 28.7421C41.5907 28.6148 41.7501 28.5159 41.9242 28.4514C42.0983 28.3869 42.2835 28.3581 42.469 28.3667H55.2771C55.773 28.3858 56.2485 28.5689 56.6291 28.8875C57.0096 29.206 57.2736 29.6419 57.3795 30.1267L62.4404 56.047C62.6292 57.0182 61.9956 57.807 61.0244 57.807H20.384C19.4112 57.807 18.464 57.0182 18.28 56.047L14.1055 34.6788C13.9167 33.7076 14.5504 32.9188 15.5216 32.9188H37.6386C39.5586 32.9188 40.9554 31.5972 41.021 29.7315Z" fill="#407BFF"/>
<path opacity="0.2" d="M41.021 29.7315C41.0234 29.5459 41.0631 29.3626 41.1377 29.1926C41.2124 29.0227 41.3205 28.8694 41.4556 28.7421C41.5907 28.6148 41.7501 28.5159 41.9242 28.4514C42.0983 28.3869 42.2835 28.3581 42.469 28.3667H55.2771C55.773 28.3858 56.2485 28.5689 56.6291 28.8875C57.0096 29.206 57.2736 29.6419 57.3795 30.1267L62.4404 56.047C62.6292 57.0182 61.9956 57.807 61.0244 57.807H20.384C19.4112 57.807 18.464 57.0182 18.28 56.047L14.1055 34.6788C13.9167 33.7076 14.5504 32.9188 15.5216 32.9188H37.6386C39.5586 32.9188 40.9554 31.5972 41.021 29.7315Z" fill="black"/>
</g>
</svg>
