<svg width="444" height="331" viewBox="0 0 444 331" fill="none" xmlns="http://www.w3.org/2000/svg">
<path d="M443.135 290.165H0V290.386H443.135V290.165Z" fill="#EBEBEB"/>
<path d="M398.732 304.425H369.379V304.646H398.732V304.425Z" fill="#EBEBEB"/>
<path d="M293.549 306.835H285.848V307.057H293.549V306.835Z" fill="#EBEBEB"/>
<path d="M368.494 296.2H351.486V296.422H368.494V296.2Z" fill="#EBEBEB"/>
<path d="M84.7721 297.689H46.4941V297.911H84.7721V297.689Z" fill="#EBEBEB"/>
<path d="M98.2781 297.689H92.668V297.911H98.2781V297.689Z" fill="#EBEBEB"/>
<path d="M199.543 301.429H116.518V301.651H199.543V301.429Z" fill="#EBEBEB"/>
<path d="M210.047 250.637H38.917C37.5764 250.635 36.2914 250.1 35.3443 249.152C34.3972 248.203 33.8652 246.917 33.8652 245.576V5.01628C33.8769 3.68336 34.414 2.40886 35.3599 1.46963C36.3057 0.530395 37.584 0.00228337 38.917 0H210.047C211.389 0 212.676 0.533169 213.625 1.48221C214.574 2.43126 215.107 3.71844 215.107 5.0606V245.576C215.107 246.918 214.574 248.206 213.625 249.155C212.676 250.104 211.389 250.637 210.047 250.637ZM38.917 0.177255C37.6351 0.179602 36.4066 0.690461 35.501 1.5977C34.5954 2.50494 34.0868 3.73443 34.0868 5.01628V245.576C34.0868 246.858 34.5954 248.088 35.501 248.995C36.4066 249.902 37.6351 250.413 38.917 250.415H210.047C211.329 250.413 212.559 249.902 213.466 248.995C214.373 248.088 214.883 246.859 214.886 245.576V5.01628C214.883 3.73361 214.373 2.50415 213.466 1.59716C212.559 0.690174 211.329 0.179597 210.047 0.177255H38.917Z" fill="#EBEBEB"/>
<path d="M401.754 250.637H230.615C229.274 250.635 227.988 250.101 227.04 249.152C226.091 248.204 225.557 246.918 225.555 245.576V5.01628C225.569 3.68255 226.108 2.40806 227.055 1.46907C228.002 0.530085 229.281 0.00225847 230.615 0H401.754C403.085 0.00461258 404.361 0.533755 405.305 1.47274C406.249 2.41172 406.785 3.68489 406.797 5.01628V245.576C406.797 246.915 406.266 248.2 405.321 249.148C404.376 250.097 403.093 250.632 401.754 250.637ZM230.615 0.177255C229.333 0.179597 228.103 0.690174 227.196 1.59716C226.289 2.50415 225.779 3.73361 225.776 5.01628V245.576C225.779 246.859 226.289 248.088 227.196 248.995C228.103 249.902 229.333 250.413 230.615 250.415H401.754C403.037 250.413 404.266 249.902 405.173 248.995C406.08 248.088 406.591 246.859 406.593 245.576V5.01628C406.591 3.73361 406.08 2.50415 405.173 1.59716C404.266 0.690174 403.037 0.179597 401.754 0.177255H230.615Z" fill="#EBEBEB"/>
<path d="M280.539 201.582H387.024C387.024 203.463 386.297 205.272 384.996 206.63C383.695 207.989 381.92 208.794 380.041 208.876C368.599 209.399 350.989 211.207 345.414 217.535C335 229.34 336.011 270.799 348.48 280.398C352.38 283.411 363.777 289.384 363.777 289.384H303.786C303.786 289.384 314.421 283.287 318.135 280.398C330.542 270.72 330.888 229.287 320.43 217.535C315.068 211.508 298.566 209.558 287.496 208.947C285.615 208.842 283.844 208.021 282.55 206.651C281.256 205.281 280.536 203.466 280.539 201.582Z" fill="#F5F5F5"/>
<path d="M373.828 209.266C363.016 210.152 350.059 212.27 345.415 217.535C343.898 219.353 342.7 221.415 341.869 223.632H324.011C323.17 221.42 321.972 219.36 320.466 217.535C315.804 212.297 302.741 210.143 292.105 209.266H373.828Z" fill="#E6E6E6"/>
<path d="M325.899 201.635L327.352 185.088H306.357L304.912 201.635H325.899Z" fill="#EBEBEB"/>
<path d="M325.898 201.635L327.352 185.088H328.477L327.033 201.635H325.898Z" fill="#E0E0E0"/>
<path d="M323.905 199.951L325.058 186.772H308.351L307.199 199.951H323.905Z" fill="#F0F0F0"/>
<path d="M322.629 198.861L323.586 187.863H309.636L308.67 198.861H322.629Z" fill="#FAFAFA"/>
<path d="M332.705 201.582H353.789L351.45 174.843H330.365L332.705 201.582Z" fill="#E6E6E6"/>
<path d="M332.705 201.582H331.703L329.363 174.843H330.365L332.705 201.582Z" fill="#E0E0E0"/>
<path d="M334.619 198.861H351.405L349.544 177.573H332.758L334.619 198.861Z" fill="#F0F0F0"/>
<path d="M335.842 197.106H349.872L348.312 179.328H334.291L335.842 197.106Z" fill="#FAFAFA"/>
<path d="M342.933 187.322C342.706 187.55 342.437 187.73 342.14 187.854C341.844 187.977 341.526 188.041 341.204 188.041C340.883 188.041 340.565 187.977 340.269 187.854C339.972 187.73 339.703 187.55 339.476 187.322C339.021 186.864 338.766 186.244 338.766 185.598C338.766 184.952 339.021 184.332 339.476 183.874C339.936 183.419 340.557 183.163 341.204 183.163C341.852 183.163 342.473 183.419 342.933 183.874C343.388 184.332 343.643 184.952 343.643 185.598C343.643 186.244 343.388 186.864 342.933 187.322Z" fill="#EBEBEB"/>
<path d="M341.896 190.317C342.061 190.15 342.258 190.017 342.475 189.926C342.692 189.835 342.924 189.789 343.159 189.789C343.394 189.789 343.627 189.835 343.844 189.926C344.061 190.017 344.257 190.15 344.422 190.317C344.678 190.564 344.854 190.883 344.927 191.231C345 191.579 344.967 191.941 344.831 192.27C344.695 192.599 344.463 192.88 344.166 193.075C343.869 193.27 343.52 193.372 343.164 193.366C342.807 193.374 342.457 193.274 342.158 193.079C341.859 192.884 341.626 192.604 341.489 192.274C341.352 191.945 341.318 191.582 341.391 191.233C341.463 190.884 341.64 190.565 341.896 190.317Z" fill="#F0F0F0"/>
<path d="M72.4269 171.103H171.857V61.135L72.4269 61.135L72.4269 171.103Z" fill="#E0E0E0"/>
<path d="M69.2526 171.103H172.379V61.135L69.2526 61.135L69.2526 171.103Z" fill="#F0F0F0"/>
<path d="M73.6226 166.042H168.188V64.6356L73.6226 64.6356L73.6226 166.042Z" fill="white"/>
<path d="M73.613 166.042H76.3516L76.3516 64.6356H73.613L73.613 166.042Z" fill="#E0E0E0"/>
<path d="M76.0605 137.558V140.296H168.428V137.558H76.0605Z" fill="#E0E0E0"/>
<path d="M73.6143 137.558H169.65V132.967H73.6143V137.558Z" fill="#F0F0F0"/>
<path d="M335.355 79.9591C335.355 79.9591 336.241 74.1097 331.978 70.3608C327.715 66.6119 328.087 64.3785 329.319 64.086C330.551 63.7935 331.659 67.5513 333.538 68.5794C333.538 68.5794 333.6 63.2618 331.695 61.2677C329.789 59.2736 328.788 54.2307 330.604 54.1775C332.421 54.1243 332.599 57.1908 332.98 59.3888C333.361 61.5867 335.373 64.7064 335.373 64.7064C335.373 64.7064 335.762 59.9205 336.994 57.953C338.226 55.9855 334.947 51.4833 336.214 49.5157C337.482 47.5482 339.76 51.2883 339.538 55.5158C339.316 59.7433 336.542 64.2367 337.198 68.6414C337.198 68.6414 338.439 65.5484 339.547 65.2647C340.655 64.9811 341.789 62.9427 342.534 62.1805C343.278 61.4183 344.226 64.0506 342.534 66.4878C340.841 68.925 336.542 75.448 337.216 80.7124L335.355 79.9591Z" fill="#E6E6E6"/>
<path d="M332.802 77.3003L331.402 86.0655C331.295 86.7052 331.331 87.3605 331.505 87.9851C331.68 88.6097 331.989 89.1884 332.412 89.6803C332.834 90.1722 333.36 90.5654 333.951 90.8321C334.542 91.0987 335.185 91.2324 335.833 91.2236H337.322C337.971 91.2324 338.613 91.0987 339.204 90.8321C339.795 90.5654 340.321 90.1722 340.743 89.6803C341.166 89.1884 341.476 88.6097 341.65 87.9851C341.825 87.3605 341.86 86.7052 341.753 86.0655L340.327 77.3003H332.802Z" fill="#F5F5F5"/>
<path d="M353.922 87.9888H255.191V93.0582H353.922V87.9888Z" fill="#E6E6E6"/>
<path d="M264.09 69.2886H259.738V87.9889H264.09V69.2886Z" fill="#F0F0F0"/>
<path d="M285.121 69.2886H280.77V87.9889H285.121V69.2886Z" fill="#F0F0F0"/>
<path d="M309.003 68.8133L304.715 69.5525L307.891 87.981L312.18 87.2418L309.003 68.8133Z" fill="#F0F0F0"/>
<path d="M269.479 71.7524H265.127V87.9889H269.479V71.7524Z" fill="#F0F0F0"/>
<path d="M279.477 71.7524H275.125V87.9889H279.477V71.7524Z" fill="#F0F0F0"/>
<path d="M304.717 71.7524H300.365V87.9889H304.717V71.7524Z" fill="#F0F0F0"/>
<path d="M290.834 71.178L286.586 72.1221L290.108 87.9718L294.356 87.0277L290.834 71.178Z" fill="#F0F0F0"/>
<path d="M273.238 68.3579H271.066V87.9888H273.238V68.3579Z" fill="#F0F0F0"/>
<path d="M299.107 68.3579H296.936V87.9888H299.107V68.3579Z" fill="#F0F0F0"/>
<path d="M255.201 130.928H353.932V125.859L255.201 125.859V130.928Z" fill="#E6E6E6"/>
<path d="M345.033 125.859H349.385V107.159H345.033V125.859Z" fill="#F0F0F0"/>
<path d="M324.002 125.859H328.354V107.159H324.002V125.859Z" fill="#F0F0F0"/>
<path d="M296.956 125.102L301.244 125.842L304.421 107.413L300.132 106.674L296.956 125.102Z" fill="#F0F0F0"/>
<path d="M339.645 125.859H343.996V109.623H339.645V125.859Z" fill="#F0F0F0"/>
<path d="M329.648 125.859H334V109.623H329.648V125.859Z" fill="#F0F0F0"/>
<path d="M304.406 125.859H308.758V109.623H304.406V125.859Z" fill="#F0F0F0"/>
<path d="M314.777 124.895L319.025 125.839L322.548 109.989L318.3 109.045L314.777 124.895Z" fill="#F0F0F0"/>
<path d="M335.887 125.859H338.059V106.228H335.887V125.859Z" fill="#F0F0F0"/>
<path d="M310.016 125.859H312.188V106.228H310.016V125.859Z" fill="#F0F0F0"/>
<path d="M264.675 125.691H285.865V111.058H264.675V125.691Z" fill="#F5F5F5"/>
<path d="M221.567 330.188C316.471 330.188 393.406 325.697 393.406 320.156C393.406 314.615 316.471 310.123 221.567 310.123C126.663 310.123 49.7285 314.615 49.7285 320.156C49.7285 325.697 126.663 330.188 221.567 330.188Z" fill="#F5F5F5"/>
<path d="M294.657 297.99C294.657 297.99 290.226 288.419 295.277 278.971C300.329 269.523 301.747 267.308 298.557 265.376C295.366 263.444 293.886 272.971 293.886 272.971C292.299 268.685 292.134 264.002 293.416 259.615C295.641 252.782 297.041 241.659 294.001 240.463C290.961 239.266 293.425 254.342 290.784 259.482C289.44 255.876 288.573 252.11 288.205 248.279C287.842 242.793 288.409 234.028 286.007 231.786C283.605 229.544 282.072 231.086 284.429 243.201C285.846 250.434 286.629 257.776 286.769 265.145C286.769 265.145 281.567 249.263 278.066 248.802C274.565 248.342 274.574 253.482 277.57 257.94C280.565 262.398 286.335 270.392 287.274 274.504C287.274 274.504 281.558 262.557 276.418 266.218C271.277 269.878 280.893 277.101 285.183 279.707C289.472 282.312 292.45 298.664 292.45 298.664L294.657 297.99Z" fill="#407BFF"/>
<path opacity="0.2" d="M294.657 297.99C294.657 297.99 290.226 288.419 295.277 278.971C300.329 269.523 301.747 267.308 298.557 265.376C295.366 263.444 293.886 272.971 293.886 272.971C292.299 268.685 292.134 264.002 293.416 259.615C295.641 252.782 297.041 241.659 294.001 240.463C290.961 239.266 293.425 254.342 290.784 259.482C289.44 255.876 288.573 252.11 288.205 248.279C287.842 242.793 288.409 234.028 286.007 231.786C283.605 229.544 282.072 231.086 284.429 243.201C285.846 250.434 286.629 257.776 286.769 265.145C286.769 265.145 281.567 249.263 278.066 248.802C274.565 248.342 274.574 253.482 277.57 257.94C280.565 262.398 286.335 270.392 287.274 274.504C287.274 274.504 281.558 262.557 276.418 266.218C271.277 269.878 280.893 277.101 285.183 279.707C289.472 282.312 292.45 298.664 292.45 298.664L294.657 297.99Z" fill="black"/>
<path d="M291.192 301.916C291.192 301.916 295.463 292.274 290.305 282.915C285.147 273.556 283.694 271.34 286.867 269.364C290.039 267.387 291.617 276.844 291.617 276.844C293.154 272.538 293.263 267.852 291.927 263.479C289.623 256.69 288.09 245.585 291.121 244.344C294.152 243.104 291.865 258.215 294.559 263.311C295.864 259.685 296.686 255.904 297.005 252.064C297.307 246.578 296.633 237.821 299.008 235.544C301.384 233.266 302.935 234.79 300.719 246.932C299.387 254.184 298.693 261.539 298.645 268.912C298.645 268.912 303.661 252.959 307.153 252.445C310.645 251.931 310.698 257.071 307.756 261.574C304.813 266.076 299.15 274.159 298.246 278.28C298.246 278.28 303.821 266.244 309.006 269.834C314.19 273.423 304.663 280.779 300.409 283.455C296.155 286.132 293.372 302.519 293.372 302.519L291.192 301.916Z" fill="#407BFF"/>
<path d="M310.903 295.048H275.594L278.456 320.315H308.049L310.903 295.048Z" fill="#263238"/>
<path opacity="0.2" d="M380.254 43.7817H193.641C192.427 43.7817 191.443 44.7658 191.443 45.9797V211.73C191.443 212.944 192.427 213.928 193.641 213.928H380.254C381.468 213.928 382.452 212.944 382.452 211.73V45.9797C382.452 44.7658 381.468 43.7817 380.254 43.7817Z" fill="black"/>
<path d="M373.031 40.6355H186.419C185.205 40.6355 184.221 41.6196 184.221 42.8334V208.583C184.221 209.797 185.205 210.781 186.419 210.781H373.031C374.245 210.781 375.229 209.797 375.229 208.583V42.8334C375.229 41.6196 374.245 40.6355 373.031 40.6355Z" fill="#407BFF"/>
<path opacity="0.6" d="M184.221 55.835V208.592C184.175 209.117 184.334 209.638 184.665 210.048C184.995 210.458 185.471 210.724 185.993 210.79H373.404C373.935 210.736 374.424 210.476 374.766 210.065C375.107 209.654 375.274 209.125 375.229 208.592V55.835H184.221Z" fill="white"/>
<path d="M372.96 64.7952H186.48V199.747H372.96V64.7952Z" fill="white"/>
<path opacity="0.6" d="M368.988 51.1467C370.535 51.1467 371.789 49.6349 371.789 47.77C371.789 45.9051 370.535 44.3933 368.988 44.3933C367.441 44.3933 366.188 45.9051 366.188 47.77C366.188 49.6349 367.441 51.1467 368.988 51.1467Z" fill="white"/>
<path opacity="0.6" d="M359.816 51.1467C361.363 51.1467 362.617 49.6349 362.617 47.77C362.617 45.9051 361.363 44.3933 359.816 44.3933C358.27 44.3933 357.016 45.9051 357.016 47.77C357.016 49.6349 358.27 51.1467 359.816 51.1467Z" fill="white"/>
<path opacity="0.6" d="M353.436 47.77C353.436 49.6312 352.186 51.1378 350.635 51.1378C349.085 51.1378 347.844 49.6312 347.844 47.77C347.844 45.9088 349.093 44.3933 350.635 44.3933C352.178 44.3933 353.436 45.9 353.436 47.77Z" fill="white"/>
<path d="M226.213 80.553V115.357L217.261 126.152H197.436V80.553H226.213Z" fill="#407BFF"/>
<path opacity="0.7" d="M226.213 80.553V115.357L217.261 126.152H197.436V80.553H226.213Z" fill="white"/>
<path opacity="0.3" d="M226.211 115.357L217.26 126.152V115.357H226.211Z" fill="#407BFF"/>
<path opacity="0.3" d="M221.755 87.1292H201.902V88.432H221.755V87.1292Z" fill="#407BFF"/>
<path opacity="0.3" d="M221.755 92.0745H201.902V93.3773H221.755V92.0745Z" fill="#407BFF"/>
<path opacity="0.3" d="M221.755 97.0288H201.902V98.3405H221.755V97.0288Z" fill="#407BFF"/>
<path opacity="0.3" d="M221.755 101.983H201.902V103.286H221.755V101.983Z" fill="#407BFF"/>
<path opacity="0.3" d="M216.623 106.937H201.902V108.249H216.623V106.937Z" fill="#407BFF"/>
<path d="M271.855 80.553V115.357L262.904 126.152H243.078V80.553H271.855Z" fill="#407BFF"/>
<path opacity="0.7" d="M271.855 80.553V115.357L262.904 126.152H243.078V80.553H271.855Z" fill="white"/>
<path opacity="0.3" d="M271.856 115.357L262.904 126.152V115.357H271.856Z" fill="#407BFF"/>
<path opacity="0.3" d="M267.388 87.1292H247.535V88.432H267.388V87.1292Z" fill="#407BFF"/>
<path opacity="0.3" d="M267.388 92.0745H247.535V93.3773H267.388V92.0745Z" fill="#407BFF"/>
<path opacity="0.3" d="M267.388 97.0288H247.535V98.3405H267.388V97.0288Z" fill="#407BFF"/>
<path opacity="0.3" d="M267.388 101.983H247.535V103.286H267.388V101.983Z" fill="#407BFF"/>
<path opacity="0.3" d="M262.256 106.937H247.535V108.249H262.256V106.937Z" fill="#407BFF"/>
<path d="M317.498 80.553V115.357L308.547 126.152H288.721V80.553H317.498Z" fill="#407BFF"/>
<path opacity="0.7" d="M317.498 80.553V115.357L308.547 126.152H288.721V80.553H317.498Z" fill="white"/>
<path opacity="0.3" d="M317.498 115.357L308.547 126.152V115.357H317.498Z" fill="#407BFF"/>
<path opacity="0.3" d="M313.03 87.1292H293.178V88.432H313.03V87.1292Z" fill="#407BFF"/>
<path opacity="0.3" d="M313.03 92.0745H293.178V93.3773H313.03V92.0745Z" fill="#407BFF"/>
<path opacity="0.3" d="M313.03 97.0288H293.178V98.3405H313.03V97.0288Z" fill="#407BFF"/>
<path opacity="0.3" d="M313.03 101.983H293.178V103.286H313.03V101.983Z" fill="#407BFF"/>
<path opacity="0.3" d="M307.899 106.937H293.178V108.249H307.899V106.937Z" fill="#407BFF"/>
<path d="M363.14 80.553V115.357L354.18 126.152H334.363V80.553H363.14Z" fill="#407BFF"/>
<path opacity="0.7" d="M363.14 80.553V115.357L354.18 126.152H334.363V80.553H363.14Z" fill="white"/>
<path opacity="0.3" d="M363.14 115.357L354.18 126.152V115.357H363.14Z" fill="#407BFF"/>
<path opacity="0.3" d="M358.673 87.1292H338.82V88.432H358.673V87.1292Z" fill="#407BFF"/>
<path opacity="0.3" d="M358.673 92.0745H338.82V93.3773H358.673V92.0745Z" fill="#407BFF"/>
<path opacity="0.3" d="M358.673 97.0288H338.82V98.3405H358.673V97.0288Z" fill="#407BFF"/>
<path opacity="0.3" d="M358.673 101.983H338.82V103.286H358.673V101.983Z" fill="#407BFF"/>
<path opacity="0.3" d="M353.541 106.937H338.82V108.249H353.541V106.937Z" fill="#407BFF"/>
<path d="M226.213 140.819V175.623L217.261 186.418H197.436V140.819H226.213Z" fill="#407BFF"/>
<path opacity="0.7" d="M226.213 140.819V175.623L217.261 186.418H197.436V140.819H226.213Z" fill="white"/>
<path opacity="0.3" d="M226.211 175.623L217.26 186.418V175.623H226.211Z" fill="#407BFF"/>
<path opacity="0.3" d="M221.755 147.396H201.902V148.698H221.755V147.396Z" fill="#407BFF"/>
<path opacity="0.3" d="M221.755 152.341H201.902V153.644H221.755V152.341Z" fill="#407BFF"/>
<path opacity="0.3" d="M221.755 157.295H201.902V158.607H221.755V157.295Z" fill="#407BFF"/>
<path opacity="0.3" d="M221.755 162.249H201.902V163.561H221.755V162.249Z" fill="#407BFF"/>
<path opacity="0.3" d="M216.623 167.204H201.902V168.506H216.623V167.204Z" fill="#407BFF"/>
<path d="M271.855 140.819V175.623L262.904 186.418H243.078V140.819H271.855Z" fill="#407BFF"/>
<path opacity="0.7" d="M271.855 140.819V175.623L262.904 186.418H243.078V140.819H271.855Z" fill="white"/>
<path opacity="0.3" d="M271.856 175.623L262.904 186.418V175.623H271.856Z" fill="#407BFF"/>
<path opacity="0.3" d="M267.388 147.396H247.535V148.698H267.388V147.396Z" fill="#407BFF"/>
<path opacity="0.3" d="M267.388 152.341H247.535V153.644H267.388V152.341Z" fill="#407BFF"/>
<path opacity="0.3" d="M267.388 157.295H247.535V158.607H267.388V157.295Z" fill="#407BFF"/>
<path opacity="0.3" d="M267.388 162.249H247.535V163.561H267.388V162.249Z" fill="#407BFF"/>
<path opacity="0.3" d="M262.256 167.204H247.535V168.506H262.256V167.204Z" fill="#407BFF"/>
<path d="M317.498 140.819V175.623L308.547 186.418H288.721V140.819H317.498Z" fill="#407BFF"/>
<path opacity="0.7" d="M317.498 140.819V175.623L308.547 186.418H288.721V140.819H317.498Z" fill="white"/>
<path opacity="0.3" d="M317.498 175.623L308.547 186.418V175.623H317.498Z" fill="#407BFF"/>
<path opacity="0.3" d="M313.03 147.396H293.178V148.698H313.03V147.396Z" fill="#407BFF"/>
<path opacity="0.3" d="M313.03 152.341H293.178V153.644H313.03V152.341Z" fill="#407BFF"/>
<path opacity="0.3" d="M313.03 157.295H293.178V158.607H313.03V157.295Z" fill="#407BFF"/>
<path opacity="0.3" d="M313.03 162.249H293.178V163.561H313.03V162.249Z" fill="#407BFF"/>
<path opacity="0.3" d="M307.899 167.204H293.178V168.506H307.899V167.204Z" fill="#407BFF"/>
<path d="M363.14 140.819V175.623L354.18 186.418H334.363V140.819H363.14Z" fill="#407BFF"/>
<path opacity="0.7" d="M363.14 140.819V175.623L354.18 186.418H334.363V140.819H363.14Z" fill="white"/>
<path opacity="0.3" d="M363.14 175.623L354.18 186.418V175.623H363.14Z" fill="#407BFF"/>
<path opacity="0.3" d="M358.673 147.396H338.82V148.698H358.673V147.396Z" fill="#407BFF"/>
<path opacity="0.3" d="M358.673 152.341H338.82V153.644H358.673V152.341Z" fill="#407BFF"/>
<path opacity="0.3" d="M358.673 157.295H338.82V158.607H358.673V157.295Z" fill="#407BFF"/>
<path opacity="0.3" d="M358.673 162.249H338.82V163.561H358.673V162.249Z" fill="#407BFF"/>
<path opacity="0.3" d="M353.541 167.204H338.82V168.506H353.541V167.204Z" fill="#407BFF"/>
<path opacity="0.1" d="M292.433 111.98H246.498C244.369 111.98 242.643 113.706 242.643 115.835V150.258C242.643 152.387 244.369 154.113 246.498 154.113H292.433C294.562 154.113 296.288 152.387 296.288 150.258V115.835C296.288 113.706 294.562 111.98 292.433 111.98Z" fill="black"/>
<g opacity="0.1">
<path d="M289.146 110.021H283.828V104.27C283.828 100.636 282.385 97.1506 279.815 94.581C277.246 92.0114 273.761 90.5679 270.127 90.5679C266.493 90.5679 263.008 92.0114 260.438 94.581C257.869 97.1506 256.425 100.636 256.425 104.27V110.021H251.107V104.27C251.107 99.2253 253.111 94.3877 256.678 90.8209C260.245 87.2541 265.083 85.2502 270.127 85.2502C275.171 85.2502 280.009 87.2541 283.575 90.8209C287.142 94.3877 289.146 99.2253 289.146 104.27V110.021Z" fill="black"/>
</g>
<path d="M270.277 110.208H224.342C222.212 110.208 220.486 111.934 220.486 114.063V148.485C220.486 150.615 222.212 152.341 224.342 152.341H270.277C272.406 152.341 274.132 150.615 274.132 148.485V114.063C274.132 111.934 272.406 110.208 270.277 110.208Z" fill="#263238"/>
<path opacity="0.2" d="M260.572 110.208H224.342C222.212 110.208 220.486 111.934 220.486 114.063V148.485C220.486 150.615 222.212 152.341 224.342 152.341H260.572C262.701 152.341 264.428 150.615 264.428 148.485V114.063C264.428 111.934 262.701 110.208 260.572 110.208Z" fill="white"/>
<path d="M245.151 126.019C245.151 123.112 243.378 120.754 241.198 120.754C239.018 120.754 237.254 123.112 237.254 126.019C237.202 126.977 237.403 127.932 237.837 128.788C238.271 129.643 238.923 130.37 239.727 130.893L238.991 141.883H243.423L242.696 130.893C243.496 130.366 244.143 129.639 244.574 128.783C245.005 127.928 245.204 126.975 245.151 126.019Z" fill="#263238"/>
<path d="M266.988 108.249H261.67V102.497C261.67 98.8632 260.227 95.3781 257.657 92.8085C255.088 90.239 251.602 88.7954 247.969 88.7954C244.335 88.7954 240.85 90.239 238.28 92.8085C235.71 95.3781 234.267 98.8632 234.267 102.497V108.249H228.949V102.497C228.949 97.4529 230.953 92.6152 234.52 89.0484C238.087 85.4816 242.924 83.4778 247.969 83.4778C253.013 83.4778 257.85 85.4816 261.417 89.0484C264.984 92.6152 266.988 97.4529 266.988 102.497V108.249Z" fill="#263238"/>
<g opacity="0.4">
<path d="M266.988 108.249H261.67V102.497C261.67 98.8632 260.227 95.3781 257.657 92.8085C255.088 90.239 251.602 88.7954 247.969 88.7954C244.335 88.7954 240.85 90.239 238.28 92.8085C235.71 95.3781 234.267 98.8632 234.267 102.497V108.249H228.949V102.497C228.949 97.4529 230.953 92.6152 234.52 89.0484C238.087 85.4816 242.924 83.4778 247.969 83.4778C253.013 83.4778 257.85 85.4816 261.417 89.0484C264.984 92.6152 266.988 97.4529 266.988 102.497V108.249Z" fill="white"/>
</g>
<path opacity="0.2" d="M266.99 102.497V108.249H263.383V101.841C263.383 99.5594 262.933 97.2999 262.059 95.1918C261.186 93.0837 259.906 91.1683 258.292 89.5552C256.678 87.942 254.762 86.6627 252.653 85.7902C250.545 84.9178 248.285 84.4693 246.003 84.4705C242.516 84.4595 239.11 85.5275 236.254 87.5281C239.059 85.3283 242.427 83.962 245.972 83.5854C249.517 83.2087 253.096 83.837 256.301 85.3983C259.506 86.9596 262.207 89.391 264.096 92.4146C265.984 95.4383 266.984 98.9322 266.981 102.497H266.99Z" fill="white"/>
<path d="M191.841 204.4H170.357V203.576H175.205C175.531 203.573 175.846 203.456 176.095 203.246C176.344 203.035 176.512 202.745 176.57 202.424L178.742 189.502L179.167 186.958H186.523L193.108 202.486C193.198 202.695 193.234 202.923 193.213 203.15C193.193 203.377 193.116 203.595 192.991 203.785C192.865 203.975 192.694 204.13 192.493 204.238C192.293 204.345 192.068 204.401 191.841 204.4Z" fill="#407BFF"/>
<path opacity="0.4" d="M191.841 204.4H170.357V203.576H175.205C175.531 203.573 175.846 203.456 176.095 203.246C176.344 203.035 176.512 202.745 176.57 202.424L178.742 189.502L179.167 186.958H186.523L193.108 202.486C193.198 202.695 193.234 202.923 193.213 203.15C193.193 203.377 193.116 203.595 192.991 203.785C192.865 203.975 192.694 204.13 192.493 204.238C192.293 204.345 192.068 204.401 191.841 204.4Z" fill="white"/>
<path opacity="0.2" d="M191.867 203.576H175.205C175.531 203.573 175.846 203.456 176.095 203.246C176.344 203.035 176.512 202.745 176.57 202.424L178.741 189.502H186.452L192.319 202.893C192.351 202.968 192.365 203.05 192.358 203.131C192.351 203.212 192.324 203.29 192.279 203.358C192.234 203.425 192.172 203.481 192.101 203.519C192.029 203.557 191.948 203.577 191.867 203.576Z" fill="black"/>
<path d="M203.39 191.718H160.414C160.317 191.722 160.219 191.703 160.13 191.663C160.041 191.624 159.962 191.563 159.9 191.488C159.838 191.412 159.795 191.323 159.773 191.227C159.752 191.132 159.753 191.033 159.776 190.938L165.892 158.642C165.936 158.434 166.047 158.247 166.206 158.106C166.366 157.966 166.566 157.88 166.778 157.862H209.744C209.842 157.858 209.939 157.876 210.028 157.916C210.117 157.956 210.196 158.016 210.257 158.092C210.318 158.168 210.361 158.258 210.381 158.353C210.401 158.449 210.399 158.548 210.373 158.642L204.276 190.929C204.233 191.138 204.123 191.328 203.964 191.47C203.804 191.612 203.603 191.699 203.39 191.718Z" fill="#407BFF"/>
<path opacity="0.4" d="M203.39 191.718H160.414C160.317 191.722 160.219 191.703 160.13 191.663C160.041 191.624 159.962 191.563 159.9 191.488C159.838 191.412 159.795 191.323 159.773 191.227C159.752 191.132 159.753 191.033 159.776 190.938L165.892 158.642C165.936 158.434 166.047 158.247 166.206 158.106C166.366 157.966 166.566 157.88 166.778 157.862H209.744C209.842 157.858 209.939 157.876 210.028 157.916C210.117 157.956 210.196 158.016 210.257 158.092C210.318 158.168 210.361 158.258 210.381 158.353C210.401 158.449 210.399 158.548 210.373 158.642L204.276 190.929C204.233 191.138 204.123 191.328 203.964 191.47C203.804 191.612 203.603 191.699 203.39 191.718Z" fill="white"/>
<path d="M202.503 191.718H159.528C159.43 191.722 159.333 191.703 159.243 191.663C159.154 191.624 159.075 191.563 159.013 191.488C158.951 191.412 158.908 191.323 158.886 191.227C158.865 191.132 158.866 191.033 158.89 190.938L165.005 158.642C165.05 158.434 165.16 158.247 165.319 158.106C165.479 157.966 165.679 157.88 165.891 157.862H208.857C208.955 157.858 209.052 157.876 209.141 157.916C209.23 157.956 209.309 158.016 209.37 158.092C209.431 158.168 209.474 158.258 209.494 158.353C209.514 158.449 209.512 158.548 209.487 158.642L203.389 190.929C203.346 191.138 203.236 191.328 203.077 191.47C202.917 191.612 202.716 191.699 202.503 191.718Z" fill="#263238"/>
<path d="M201.935 189.733H160.848L166.502 159.856H207.581L201.935 189.733Z" fill="#407BFF"/>
<path d="M130.326 204.4V203.39L146.864 200.049H179.222C179.798 200.049 180.35 200.277 180.757 200.685C181.164 201.092 181.393 201.644 181.393 202.22C181.393 202.797 181.165 203.35 180.758 203.758C180.351 204.167 179.798 204.398 179.222 204.4H130.326Z" fill="#407BFF"/>
<path opacity="0.4" d="M181.393 202.229C181.394 202.803 181.168 203.354 180.764 203.762C180.354 204.169 179.8 204.398 179.222 204.4H130.326V203.399L146.873 200.049H179.222C179.508 200.049 179.791 200.105 180.055 200.215C180.319 200.324 180.558 200.485 180.76 200.688C180.962 200.89 181.122 201.131 181.23 201.395C181.339 201.66 181.394 201.943 181.393 202.229Z" fill="white"/>
<path opacity="0.4" d="M181.392 202.229C181.393 202.803 181.167 203.354 180.763 203.762C180.353 204.169 179.799 204.398 179.221 204.4H159.572V203.399L176.119 200.049H179.221C179.507 200.049 179.79 200.105 180.054 200.215C180.318 200.324 180.558 200.485 180.759 200.688C180.961 200.89 181.121 201.131 181.229 201.395C181.338 201.66 181.393 201.943 181.392 202.229Z" fill="white"/>
<path d="M193.215 320.315H197.646L205.596 209.585H199.72L193.215 320.315Z" fill="#263238"/>
<path opacity="0.1" d="M193.215 320.315H197.646L205.206 215.08L205.596 209.762H199.72L199.41 215.08L193.215 320.315Z" fill="white"/>
<path opacity="0.2" d="M199.41 214.814H205.206L205.596 209.762H199.72L199.41 214.814Z" fill="black"/>
<path d="M160.733 320.315H165.155L165.882 209.585H160.006L160.733 320.315Z" fill="#263238"/>
<path opacity="0.1" d="M160.006 209.762L160.121 227.629L160.724 320.315H165.155L165.758 227.629L165.873 209.762H160.006Z" fill="white"/>
<path opacity="0.2" d="M160.006 209.762L160.121 227.824H165.758L165.873 209.762H160.006Z" fill="black"/>
<path d="M113.734 320.315H118.157L126.116 209.585H120.24L113.734 320.315Z" fill="#263238"/>
<path opacity="0.1" d="M113.725 320.315H118.156L125.725 215.08L126.115 209.762H120.239L119.92 215.08L113.725 320.315Z" fill="white"/>
<path opacity="0.2" d="M119.92 214.814H125.725L126.115 209.762H120.239L119.92 214.814Z" fill="black"/>
<path d="M243.856 320.315H248.279L241.773 209.585H235.906L243.856 320.315Z" fill="#263238"/>
<path opacity="0.1" d="M235.906 209.762L236.296 215.08L243.856 320.315H248.279L242.092 215.08L241.773 209.762H235.906Z" fill="white"/>
<path opacity="0.2" d="M241.773 209.762H235.906L236.296 214.814H242.092L241.773 209.762Z" fill="black"/>
<path d="M244.511 212.35L117.5 212.35C117.249 212.35 117 212.301 116.768 212.204C116.535 212.108 116.324 211.967 116.147 211.789C115.969 211.612 115.828 211.401 115.732 211.168C115.635 210.936 115.586 210.687 115.586 210.436V206.802L246.426 206.802V210.436C246.426 210.687 246.376 210.936 246.28 211.168C246.184 211.401 246.043 211.612 245.865 211.789C245.687 211.967 245.476 212.108 245.244 212.204C245.012 212.301 244.763 212.35 244.511 212.35Z" fill="#407BFF"/>
<path opacity="0.4" d="M244.511 212.35L117.5 212.35C117.249 212.35 117 212.301 116.768 212.204C116.535 212.108 116.324 211.967 116.147 211.789C115.969 211.612 115.828 211.401 115.732 211.168C115.635 210.936 115.586 210.687 115.586 210.436V206.802L246.426 206.802V210.436C246.426 210.687 246.376 210.936 246.28 211.168C246.184 211.401 246.043 211.612 245.865 211.789C245.687 211.967 245.476 212.108 245.244 212.204C245.012 212.301 244.763 212.35 244.511 212.35Z" fill="white"/>
<path opacity="0.2" d="M115.577 209.576L246.426 209.576V206.802L115.577 206.802V209.576Z" fill="black"/>
<path d="M112.839 207.529H249.174C249.588 207.529 249.984 207.364 250.277 207.072C250.569 206.779 250.734 206.383 250.734 205.969C250.734 205.555 250.569 205.159 250.277 204.866C249.984 204.574 249.588 204.409 249.174 204.409H112.839C112.425 204.409 112.029 204.574 111.736 204.866C111.444 205.159 111.279 205.555 111.279 205.969C111.279 206.383 111.444 206.779 111.736 207.072C112.029 207.364 112.425 207.529 112.839 207.529Z" fill="#407BFF"/>
<path opacity="0.4" d="M112.839 207.529H249.174C249.588 207.529 249.984 207.364 250.277 207.072C250.569 206.779 250.734 206.383 250.734 205.969C250.734 205.555 250.569 205.159 250.277 204.866C249.984 204.574 249.588 204.409 249.174 204.409H112.839C112.425 204.409 112.029 204.574 111.736 204.866C111.444 205.159 111.279 205.555 111.279 205.969C111.279 206.383 111.444 206.779 111.736 207.072C112.029 207.364 112.425 207.529 112.839 207.529Z" fill="white"/>
<path opacity="0.3" d="M168.78 176.598C168.586 176.596 168.394 176.552 168.218 176.468C168.043 176.384 167.888 176.262 167.764 176.112C167.641 175.961 167.552 175.786 167.504 175.597C167.456 175.408 167.45 175.212 167.486 175.02L168.036 172.193C168.113 171.808 168.321 171.46 168.625 171.21C168.928 170.96 169.309 170.822 169.702 170.82H192.745C192.941 170.819 193.134 170.863 193.31 170.947C193.487 171.031 193.642 171.154 193.764 171.307C193.89 171.456 193.98 171.631 194.028 171.82C194.076 172.009 194.079 172.207 194.039 172.397L193.489 175.224C193.415 175.61 193.21 175.958 192.907 176.209C192.605 176.459 192.225 176.597 191.832 176.598H168.78Z" fill="white"/>
<path d="M191.832 176.155H168.789C168.658 176.157 168.528 176.13 168.409 176.076C168.29 176.022 168.184 175.942 168.099 175.842C168.014 175.742 167.953 175.624 167.919 175.497C167.885 175.371 167.88 175.238 167.903 175.109L168.462 172.273C168.515 171.988 168.667 171.731 168.89 171.547C169.114 171.362 169.395 171.262 169.685 171.263H192.728C192.859 171.26 192.989 171.287 193.108 171.342C193.227 171.396 193.333 171.476 193.418 171.576C193.503 171.676 193.565 171.793 193.598 171.92C193.632 172.047 193.637 172.179 193.614 172.308L193.064 175.144C193.009 175.43 192.855 175.687 192.63 175.871C192.405 176.056 192.123 176.156 191.832 176.155Z" fill="white"/>
<path d="M172.687 174.368C173.138 173.722 173.088 172.908 172.575 172.548C172.062 172.189 171.279 172.422 170.828 173.068C170.376 173.713 170.426 174.528 170.939 174.887C171.453 175.246 172.235 175.014 172.687 174.368Z" fill="#263238"/>
<path d="M176.571 173.709C176.508 174.063 176.329 174.386 176.063 174.628C175.797 174.87 175.458 175.018 175.1 175.047C174.941 175.042 174.785 175.001 174.645 174.925C174.505 174.85 174.385 174.744 174.293 174.614C174.201 174.484 174.14 174.335 174.116 174.178C174.091 174.021 174.104 173.86 174.152 173.709C174.216 173.355 174.395 173.033 174.661 172.791C174.927 172.549 175.265 172.402 175.623 172.371C175.782 172.374 175.939 172.414 176.08 172.489C176.221 172.563 176.343 172.67 176.435 172.8C176.527 172.931 176.587 173.081 176.611 173.238C176.635 173.396 176.621 173.557 176.571 173.709Z" fill="#263238"/>
<path d="M180.178 173.709C180.113 174.062 179.934 174.385 179.668 174.627C179.402 174.868 179.064 175.016 178.706 175.047C178.547 175.044 178.39 175.003 178.249 174.928C178.108 174.854 177.986 174.747 177.893 174.617C177.8 174.488 177.739 174.338 177.714 174.18C177.689 174.022 177.701 173.861 177.749 173.709C177.816 173.355 177.996 173.032 178.264 172.79C178.531 172.549 178.87 172.401 179.229 172.371C179.388 172.376 179.544 172.417 179.684 172.492C179.824 172.567 179.944 172.674 180.036 172.804C180.128 172.933 180.189 173.083 180.213 173.24C180.238 173.397 180.226 173.557 180.178 173.709Z" fill="#263238"/>
<path d="M183.501 174.361C183.953 173.716 183.903 172.901 183.389 172.542C182.876 172.183 182.094 172.415 181.642 173.061C181.19 173.707 181.24 174.521 181.754 174.88C182.267 175.24 183.05 175.007 183.501 174.361Z" fill="#263238"/>
<path d="M187.383 173.709C187.316 174.063 187.135 174.386 186.868 174.627C186.601 174.869 186.262 175.017 185.903 175.047C185.744 175.042 185.588 175.001 185.448 174.925C185.308 174.85 185.187 174.744 185.096 174.614C185.004 174.484 184.943 174.335 184.919 174.178C184.894 174.021 184.906 173.86 184.954 173.709C185.02 173.356 185.2 173.034 185.465 172.793C185.731 172.551 186.068 172.403 186.426 172.371C186.585 172.374 186.742 172.415 186.883 172.489C187.024 172.564 187.146 172.67 187.239 172.8C187.332 172.93 187.393 173.08 187.418 173.238C187.443 173.395 187.431 173.557 187.383 173.709Z" fill="#263238"/>
<path d="M190.7 174.375C191.152 173.73 191.102 172.915 190.589 172.556C190.075 172.197 189.293 172.429 188.841 173.075C188.39 173.721 188.44 174.535 188.953 174.895C189.466 175.254 190.249 175.021 190.7 174.375Z" fill="#263238"/>
<path opacity="0.3" d="M195.05 176.598C194.901 176.6 194.754 176.568 194.619 176.505C194.484 176.442 194.364 176.35 194.27 176.235C194.169 176.113 194.098 175.97 194.063 175.816C194.027 175.662 194.029 175.502 194.066 175.348L194.766 171.803C194.828 171.513 194.986 171.252 195.214 171.062C195.442 170.872 195.728 170.765 196.025 170.757H199.57C199.719 170.756 199.866 170.787 200.001 170.85C200.136 170.913 200.255 171.006 200.35 171.121C200.451 171.242 200.522 171.386 200.557 171.54C200.593 171.694 200.591 171.854 200.554 172.007L199.854 175.552C199.792 175.843 199.634 176.104 199.406 176.293C199.178 176.483 198.892 176.59 198.595 176.598H195.05Z" fill="white"/>
<path d="M195.049 176.155H198.594C198.785 176.145 198.967 176.074 199.113 175.953C199.26 175.832 199.364 175.666 199.41 175.481L200.11 171.936C200.132 171.853 200.134 171.766 200.117 171.682C200.1 171.598 200.063 171.519 200.009 171.452C199.956 171.385 199.887 171.331 199.809 171.295C199.731 171.259 199.646 171.242 199.56 171.245H196.015C195.821 171.254 195.635 171.326 195.486 171.451C195.337 171.576 195.234 171.747 195.191 171.936L194.491 175.481C194.472 175.564 194.472 175.65 194.491 175.732C194.511 175.815 194.549 175.891 194.603 175.957C194.657 176.022 194.725 176.074 194.803 176.108C194.88 176.142 194.965 176.158 195.049 176.155Z" fill="#263238"/>
<path d="M196.85 175.26C196.823 175.261 196.796 175.256 196.772 175.245C196.747 175.234 196.725 175.218 196.708 175.198C196.676 175.146 196.665 175.085 196.676 175.026C196.688 174.967 196.721 174.914 196.77 174.878L198.179 173.709L197.239 172.539C197.206 172.488 197.193 172.426 197.205 172.366C197.216 172.307 197.251 172.254 197.302 172.22C197.344 172.181 197.399 172.16 197.457 172.16C197.514 172.16 197.569 172.181 197.612 172.22L198.675 173.549C198.709 173.6 198.722 173.662 198.71 173.721C198.698 173.781 198.664 173.834 198.613 173.868L197.027 175.198C196.977 175.238 196.914 175.26 196.85 175.26Z" fill="#407BFF"/>
<path d="M198.443 173.93H196.05C196.023 173.931 195.995 173.926 195.97 173.914C195.945 173.903 195.923 173.885 195.906 173.864C195.889 173.842 195.877 173.817 195.871 173.79C195.865 173.763 195.866 173.735 195.873 173.709C195.886 173.648 195.92 173.593 195.968 173.553C196.016 173.513 196.076 173.49 196.139 173.487H198.523C198.55 173.486 198.578 173.492 198.603 173.503C198.628 173.515 198.65 173.532 198.667 173.554C198.684 173.575 198.696 173.6 198.702 173.627C198.708 173.654 198.707 173.682 198.7 173.709C198.687 173.768 198.655 173.822 198.608 173.862C198.562 173.902 198.504 173.926 198.443 173.93Z" fill="#407BFF"/>
<path d="M120.772 119.824H139.88C141.896 119.824 143.531 118.189 143.531 116.172V97.0643C143.531 95.0477 141.896 93.4129 139.88 93.4129H120.772C118.755 93.4129 117.12 95.0477 117.12 97.0643V116.172C117.12 118.189 118.755 119.824 120.772 119.824Z" fill="#407BFF"/>
<path d="M128.262 118.831L130.327 127.711L132.392 118.831H128.262Z" fill="#407BFF"/>
<path opacity="0.3" d="M130.097 114.533C127.849 113.193 125.973 111.312 124.638 109.061C123.304 106.81 122.554 104.261 122.457 101.646V101.363L130.318 98.0127L138.171 101.363V101.646C138.079 104.262 137.333 106.812 136 109.063C134.666 111.315 132.789 113.196 130.54 114.533L130.309 114.675L130.097 114.533Z" fill="white"/>
<path opacity="0.6" d="M130.326 98.5L137.744 101.655C137.663 104.196 136.941 106.675 135.644 108.862C134.346 111.048 132.517 112.871 130.326 114.16V98.5Z" fill="white"/>
<path opacity="0.4" d="M130.327 98.5L122.9 101.655C122.982 104.197 123.706 106.677 125.005 108.863C126.304 111.05 128.135 112.872 130.327 114.16V98.5Z" fill="white"/>
<path d="M123.191 198.622L129.395 199.552C130.804 199.105 132.252 198.793 133.72 198.622C135.313 198.491 136.914 198.491 138.506 198.622C138.506 198.622 141.316 199.676 141.316 202.362C141.316 202.362 134.766 204.134 132.258 203.062L123.191 202.362V198.622Z" fill="#E4897B"/>
<path opacity="0.2" d="M123.191 198.622L129.395 199.552C130.804 199.105 132.252 198.793 133.72 198.622C135.313 198.491 136.914 198.491 138.506 198.622C138.506 198.622 141.316 199.676 141.316 202.362C141.316 202.362 134.766 204.134 132.258 203.062L123.191 202.362V198.622Z" fill="black"/>
<path d="M138.559 156.728C138.655 158.003 138.905 159.262 139.303 160.477C138.978 160.677 138.604 160.782 138.222 160.782C137.84 160.782 137.466 160.677 137.141 160.477L138.559 156.728Z" fill="#AA473D"/>
<path d="M140.977 154.955C140.738 155.531 140.313 155.904 140.02 155.779C139.728 155.655 139.701 155.106 139.931 154.53C140.162 153.954 140.596 153.59 140.889 153.706C141.181 153.821 141.208 154.388 140.977 154.955Z" fill="#263238"/>
<path d="M142.431 152.97C142.379 152.986 142.324 152.986 142.272 152.97C141.801 152.693 141.273 152.525 140.729 152.479C140.184 152.433 139.636 152.51 139.126 152.704C139.049 152.743 138.96 152.75 138.879 152.723C138.798 152.697 138.73 152.639 138.691 152.562C138.652 152.486 138.646 152.397 138.672 152.316C138.699 152.234 138.757 152.167 138.833 152.128C139.44 151.881 140.097 151.778 140.751 151.829C141.405 151.88 142.038 152.082 142.6 152.421C142.636 152.442 142.668 152.471 142.693 152.505C142.718 152.54 142.736 152.578 142.746 152.62C142.756 152.661 142.757 152.704 142.751 152.746C142.744 152.788 142.729 152.828 142.706 152.864C142.673 152.903 142.631 152.934 142.583 152.953C142.534 152.971 142.482 152.977 142.431 152.97Z" fill="#263238"/>
<path d="M136.829 161.549C136.626 161.797 136.422 162.036 136.2 162.258C134.959 163.548 133.355 164.429 131.6 164.784C131.156 164.874 130.706 164.933 130.253 164.961C129.061 165.036 127.868 164.844 126.759 164.399C125.651 163.954 124.656 163.268 123.846 162.391C123.114 161.597 122.553 160.662 122.197 159.644C120.611 155.389 122.197 152.039 124.493 146.146C125.003 144.764 125.858 143.536 126.976 142.577C128.094 141.618 129.438 140.961 130.881 140.667C132.324 140.373 133.819 140.453 135.223 140.898C136.627 141.343 137.893 142.14 138.903 143.212C143.494 148.051 140.41 156.94 136.829 161.549Z" fill="#E4897B"/>
<path opacity="0.2" d="M131.601 164.784C131.156 164.874 130.706 164.933 130.253 164.961C129.062 165.036 127.868 164.844 126.76 164.399C125.651 163.954 124.656 163.268 123.846 162.391C124.415 161.818 125.055 161.321 125.751 160.911C128.033 161.612 130.064 162.957 131.601 164.784Z" fill="black"/>
<path d="M112.494 165.006C113.079 169.153 122.154 170.704 122.154 170.704C122.154 170.704 126.586 172.743 126.816 170.97C124.964 168.825 124.76 166.955 125.398 165.316C125.822 164.316 126.443 163.411 127.224 162.657C127.64 162.225 128.081 161.816 128.544 161.434L125.77 150.072C123.776 154.415 116.988 164.385 112.494 165.006Z" fill="#E4897B"/>
<path d="M138.389 140.031C138.389 140.031 140.33 139.791 141.819 143.407C143.069 146.447 140.118 147.112 140.251 150.347C140.383 153.582 137.414 155.381 137.414 155.381C137.414 155.381 134.933 157.525 132.815 156.364C132.815 156.364 130.05 157.72 129.323 160.087C128.596 162.453 124.315 158.181 120.46 158.828C120.46 158.828 117.855 156.391 118.049 150.471C118.197 147.9 118.828 145.38 119.911 143.044C120.422 141.807 121.174 140.684 122.123 139.74C123.073 138.797 124.201 138.052 125.441 137.549C129.846 135.546 137.565 137.035 138.389 140.031Z" fill="#263238"/>
<path d="M132.283 154.583C132.149 155.173 132.148 155.785 132.28 156.375C132.412 156.965 132.673 157.518 133.045 157.995C133.985 159.023 135.5 157.72 136.112 155.921C136.643 154.317 136.83 151.809 135.447 151.49C134.064 151.171 132.575 152.855 132.283 154.583Z" fill="#E4897B"/>
<path d="M133.259 168.435C131.988 171.98 130.854 175.378 129.855 178.627C129.217 180.648 128.632 182.625 128.083 184.53C127.634 186.131 127.214 187.685 126.824 189.192C126.638 189.919 126.452 190.636 126.275 191.345C125.3 195.254 124.502 198.817 123.891 201.981C122.858 206.92 122.092 211.911 121.595 216.932L86.8535 212.554C88.0588 206.58 88.9983 201.36 90.31 195.715C91.0367 192.63 91.8609 189.422 92.9688 185.904C93.7132 183.378 94.5818 180.692 95.6276 177.777C99.1195 167.762 102.337 164.988 102.337 164.988C115.622 162.861 133.259 168.435 133.259 168.435Z" fill="#263238"/>
<path d="M144.824 199.269L151.028 200.199C152.437 199.752 153.885 199.44 155.353 199.269C156.949 199.138 158.552 199.138 160.148 199.269C160.148 199.269 162.948 200.323 162.948 203.009C162.948 203.009 156.408 204.781 153.891 203.709L144.833 203.009L144.824 199.269Z" fill="#E4897B"/>
<path d="M106.422 313.837L112.901 313.952L116.127 299.018L109.657 298.903L106.422 313.837Z" fill="#EBB376"/>
<path opacity="0.2" d="M109.656 298.903L116.126 299.027L114.283 307.562L107.875 307.136L109.656 298.903Z" fill="black"/>
<path d="M127.241 277.269C124.773 286.773 121.618 296.086 117.803 305.134L105.989 304.247C105.989 304.247 110.837 285.308 112.591 267.955C113.682 257.248 113.584 248.386 110.447 247.703C108.479 247.269 103.862 247.278 97.9414 247.42V225.352C114.541 228.764 131.061 235.189 132.32 240.347C134.075 247.606 131.008 262.974 127.241 277.269Z" fill="#407BFF"/>
<path d="M104.73 304.779L118.804 305.719L120.878 299.63L105.369 298.912L104.73 304.779Z" fill="#407BFF"/>
<path opacity="0.2" d="M104.73 304.779L118.804 305.719L120.878 299.63L105.369 298.912L104.73 304.779Z" fill="white"/>
<path d="M113.876 313.633H114.009C114.009 313.633 114.16 313.677 114.177 313.695H114.231C114.778 313.868 115.343 313.981 115.914 314.032C116.341 314.111 116.781 314.026 117.146 313.793C117.262 313.692 117.347 313.559 117.389 313.411C117.432 313.264 117.43 313.107 117.386 312.96C117.372 312.863 117.334 312.772 117.277 312.693C117.22 312.615 117.145 312.551 117.058 312.507C116.446 312.41 115.819 312.529 115.285 312.844C115.667 312.442 115.893 311.918 115.923 311.364C115.897 311.233 115.83 311.114 115.731 311.025C115.632 310.936 115.507 310.881 115.374 310.868C115.122 310.831 114.865 310.891 114.656 311.036C113.974 311.621 113.867 313.456 113.867 313.562L113.876 313.633ZM114.576 313.261L114.443 313.332C114.401 312.631 114.591 311.937 114.984 311.355C115.027 311.313 115.078 311.279 115.134 311.258C115.191 311.237 115.251 311.227 115.312 311.231H115.392C115.604 311.231 115.649 311.373 115.657 311.462C115.521 312.17 115.138 312.808 114.576 313.261ZM114.665 313.58C115.445 313.146 116.553 312.694 116.969 312.862C117.011 312.884 117.046 312.915 117.072 312.954C117.099 312.993 117.115 313.037 117.12 313.084C117.146 313.177 117.147 313.275 117.122 313.369C117.097 313.462 117.047 313.548 116.978 313.615C116.659 313.899 115.808 313.881 114.665 313.58Z" fill="#407BFF"/>
<path d="M113.725 312.853L106.467 312.401C106.346 312.389 106.225 312.425 106.13 312.501C106.035 312.577 105.975 312.688 105.961 312.809L105.252 318.525C105.233 318.826 105.333 319.122 105.53 319.349C105.728 319.576 106.007 319.717 106.307 319.739C108.842 319.855 110.056 319.784 113.247 319.961C116.079 320.252 118.928 320.341 121.772 320.227C124.431 319.97 124.139 317.302 122.978 317.178C120.204 316.859 116.543 314.829 114.806 313.287C114.505 313.025 114.124 312.872 113.725 312.853Z" fill="#263238"/>
<path opacity="0.2" d="M127.241 277.269C122.81 274.477 117.661 271.189 112.591 267.937C113.682 257.231 113.584 248.368 110.447 247.686C108.479 247.251 103.862 247.26 97.9414 247.402V225.352C114.541 228.764 131.061 235.189 132.32 240.347C134.075 247.606 131.008 262.974 127.241 277.269Z" fill="black"/>
<path d="M144.293 313.837L150.772 313.952L153.998 299.018L147.528 298.903L144.293 313.837Z" fill="#EBB376"/>
<path opacity="0.2" d="M147.528 298.903L153.997 299.027L152.154 307.562L145.746 307.136L147.528 298.903Z" fill="black"/>
<path d="M120.771 223.189L121.817 214.823L87.9879 209.248C87.9879 209.248 76.9184 231.174 82.3335 241.951C87.3055 251.807 140.18 245.931 148.316 247.712C156.452 249.494 143.885 304.265 143.885 304.265L155.708 305.151C155.708 305.151 173.965 255.875 170.216 240.374C168.55 233.594 140.677 224.634 120.771 223.189Z" fill="#407BFF"/>
<path d="M142.6 304.779L156.674 305.719L158.747 299.63L143.238 298.912L142.6 304.779Z" fill="#407BFF"/>
<path opacity="0.2" d="M142.6 304.779L156.674 305.719L158.747 299.63L143.238 298.912L142.6 304.779Z" fill="white"/>
<path d="M151.747 313.633H151.88C151.88 313.633 152.031 313.677 152.048 313.695H152.102C152.649 313.868 153.214 313.981 153.786 314.032C154.212 314.111 154.652 314.026 155.017 313.793C155.133 313.692 155.218 313.559 155.26 313.411C155.303 313.264 155.301 313.107 155.257 312.96C155.243 312.863 155.205 312.772 155.148 312.693C155.091 312.615 155.016 312.551 154.929 312.507C154.317 312.41 153.69 312.529 153.156 312.844C153.538 312.442 153.764 311.918 153.794 311.364C153.768 311.233 153.701 311.114 153.602 311.025C153.503 310.936 153.378 310.881 153.245 310.868C152.993 310.831 152.736 310.891 152.527 311.036C151.845 311.621 151.738 313.456 151.738 313.562L151.747 313.633ZM152.447 313.261L152.314 313.332C152.272 312.631 152.462 311.937 152.855 311.355C152.898 311.313 152.949 311.279 153.006 311.258C153.062 311.237 153.123 311.227 153.183 311.231H153.263C153.475 311.231 153.52 311.373 153.529 311.462C153.393 312.173 153.006 312.812 152.438 313.261H152.447ZM152.536 313.58C153.316 313.146 154.424 312.694 154.84 312.862C154.882 312.884 154.917 312.915 154.943 312.954C154.97 312.993 154.986 313.037 154.991 313.084C155.017 313.177 155.018 313.275 154.993 313.369C154.968 313.462 154.918 313.548 154.849 313.615C154.53 313.899 153.679 313.881 152.536 313.58Z" fill="#407BFF"/>
<path d="M151.596 312.853L144.338 312.401C144.217 312.389 144.096 312.425 144.001 312.501C143.907 312.577 143.846 312.688 143.833 312.809L143.124 318.525C143.104 318.826 143.204 319.122 143.401 319.349C143.599 319.576 143.878 319.717 144.178 319.739C146.713 319.855 147.927 319.784 151.118 319.961C153.95 320.252 156.799 320.341 159.644 320.227C162.347 319.97 162.019 317.302 160.849 317.178C158.075 316.859 154.415 314.829 152.677 313.287C152.376 313.025 151.995 312.872 151.596 312.853Z" fill="#263238"/>
<path d="M86.748 213.059L102.417 215.115L102.931 212.802L87.2266 210.516L86.748 213.059Z" fill="black"/>
<path d="M104.234 212.82L104.039 215.115L118.53 217.109V214.832L104.234 212.82Z" fill="black"/>
<path d="M119.424 214.965V217.109L121.533 217.384V215.31L119.424 214.965Z" fill="black"/>
<path opacity="0.2" d="M129.855 178.628C129.217 180.648 128.632 182.625 128.083 184.53C127.634 186.131 127.214 187.685 126.824 189.192C125.734 183.254 127.71 176.164 127.71 176.164L129.855 178.628Z" fill="black"/>
<path d="M133.258 168.391C136.085 168.967 137.016 190.938 137.14 193.278C137.264 195.617 151.019 200.164 151.019 200.164V203.363C151.019 203.363 136.272 202.335 132.824 200.926C129.376 199.517 128.508 179.168 128.508 179.168L133.258 168.391Z" fill="#E4897B"/>
<path d="M133.259 168.391C135.855 169.198 137.14 183.688 137.14 183.688L129.111 187.003L127.117 178.947C127.117 178.947 126.549 177.307 127.666 173.851C129.288 168.808 133.259 168.391 133.259 168.391Z" fill="#263238"/>
<path d="M73.3659 240.64H137.372C139.231 240.64 141.015 241.379 142.329 242.693C143.644 244.008 144.383 245.791 144.383 247.65V251.399H66.3555V247.65C66.3555 245.791 67.0941 244.008 68.4088 242.693C69.7235 241.379 71.5066 240.64 73.3659 240.64Z" fill="#407BFF"/>
<path d="M94.1836 213.99H137.159C137.677 213.99 138.188 214.106 138.655 214.332C139.121 214.557 139.531 214.884 139.853 215.29C140.175 215.696 140.401 216.169 140.515 216.674C140.628 217.179 140.626 217.704 140.509 218.208L132.825 251.399H131.052L137.593 222.312C137.708 221.809 137.707 221.287 137.592 220.784C137.477 220.281 137.25 219.811 136.928 219.408C136.606 219.006 136.198 218.68 135.733 218.457C135.268 218.234 134.759 218.119 134.243 218.12H95.061L94.1836 213.99Z" fill="#263238"/>
<path d="M110.455 252.587V280.637C110.455 281.07 110.283 281.484 109.977 281.79C109.671 282.096 109.256 282.268 108.824 282.268H101.92C101.487 282.268 101.073 282.096 100.767 281.79C100.461 281.484 100.289 281.07 100.289 280.637V252.587H110.455Z" fill="#263238"/>
<path d="M72.487 317.337C72.487 316.749 72.3123 316.173 71.9851 315.683C71.6579 315.193 71.1928 314.812 70.6487 314.586C70.1046 314.361 69.5058 314.302 68.9282 314.417C68.3505 314.532 67.8199 314.815 67.4034 315.232C66.987 315.648 66.7034 316.179 66.5885 316.757C66.4736 317.334 66.5325 317.933 66.7579 318.477C66.9833 319.021 67.365 319.486 67.8547 319.813C68.3444 320.141 68.9202 320.315 69.5091 320.315C70.2989 320.315 71.0563 320.002 71.6148 319.443C72.1732 318.885 72.487 318.127 72.487 317.337Z" fill="#263238"/>
<path opacity="0.2" d="M70.9994 317.338C70.9994 317.043 70.912 316.755 70.7484 316.51C70.5848 316.266 70.3523 316.075 70.0802 315.962C69.8081 315.849 69.5088 315.82 69.2199 315.877C68.9311 315.935 68.6658 316.077 68.4576 316.285C68.2493 316.493 68.1075 316.758 68.0501 317.047C67.9926 317.336 68.0221 317.635 68.1348 317.907C68.2475 318.179 68.4384 318.412 68.6832 318.576C68.9281 318.739 69.2159 318.826 69.5104 318.826C69.9046 318.824 70.282 318.667 70.5607 318.388C70.8394 318.109 70.997 317.732 70.9994 317.338Z" fill="white"/>
<path d="M144.231 317.338C144.233 316.746 144.059 316.167 143.732 315.675C143.404 315.182 142.938 314.798 142.392 314.571C141.845 314.344 141.244 314.284 140.664 314.399C140.084 314.514 139.551 314.799 139.133 315.217C138.714 315.635 138.43 316.168 138.315 316.748C138.2 317.328 138.26 317.93 138.487 318.476C138.714 319.022 139.098 319.488 139.591 319.816C140.083 320.143 140.662 320.317 141.253 320.315C142.042 320.313 142.799 319.999 143.356 319.441C143.914 318.883 144.229 318.127 144.231 317.338Z" fill="#263238"/>
<path opacity="0.2" d="M142.742 317.338C142.742 317.043 142.654 316.755 142.491 316.51C142.327 316.266 142.094 316.075 141.822 315.962C141.55 315.849 141.251 315.82 140.962 315.877C140.673 315.935 140.408 316.077 140.2 316.285C139.992 316.493 139.85 316.758 139.792 317.047C139.735 317.336 139.764 317.635 139.877 317.907C139.99 318.179 140.181 318.412 140.425 318.576C140.67 318.739 140.958 318.826 141.253 318.826C141.647 318.824 142.024 318.667 142.303 318.388C142.582 318.109 142.739 317.732 142.742 317.338Z" fill="white"/>
<path d="M107.842 304.256V272.191H102.914V304.256C83.7173 304.752 72.0451 311.462 69.7143 312.933C69.5767 313.014 69.4636 313.131 69.3872 313.272C69.3107 313.412 69.2737 313.571 69.28 313.73V316.389C69.2788 316.513 69.3023 316.636 69.3489 316.751C69.3956 316.866 69.4646 316.971 69.552 317.059C69.6393 317.147 69.7433 317.217 69.8579 317.265C69.9724 317.313 70.0953 317.337 70.2194 317.337C70.3853 317.336 70.5479 317.291 70.691 317.207C70.8341 317.123 70.9526 317.003 71.0348 316.859L72.1781 314.856C82.1238 311.684 92.4767 309.971 102.914 309.769V315.086C102.914 315.247 102.946 315.405 103.007 315.553C103.069 315.701 103.159 315.835 103.273 315.948C103.386 316.061 103.521 316.15 103.67 316.211C103.818 316.271 103.977 316.302 104.137 316.301H106.627C106.949 316.301 107.258 316.173 107.486 315.945C107.714 315.717 107.842 315.408 107.842 315.086V309.769C118.282 309.97 128.638 311.684 138.586 314.856L139.721 316.859C139.804 317.004 139.924 317.125 140.068 317.209C140.213 317.293 140.377 317.338 140.545 317.337C140.795 317.335 141.034 317.234 141.21 317.057C141.386 316.879 141.484 316.639 141.484 316.389V313.73C141.491 313.571 141.454 313.412 141.377 313.272C141.301 313.131 141.188 313.014 141.05 312.933C138.71 311.462 127.047 304.752 107.842 304.256Z" fill="#263238"/>
<path d="M106.999 314.351H103.764V320.315H106.999V314.351Z" fill="#263238"/>
<path opacity="0.2" d="M110.455 252.56H100.316V264.214H110.455V252.56Z" fill="black"/>
<path d="M146.544 249.671V253.021C146.544 253.246 146.5 253.47 146.413 253.678C146.327 253.886 146.2 254.075 146.04 254.234C145.88 254.393 145.691 254.518 145.482 254.604C145.274 254.689 145.05 254.733 144.825 254.732H65.9469C65.7219 254.733 65.4989 254.689 65.2909 254.604C65.0828 254.518 64.8938 254.392 64.7347 254.233C64.5757 254.074 64.4497 253.885 64.3642 253.677C64.2786 253.469 64.2352 253.246 64.2364 253.021V249.671C64.2364 249.217 64.4166 248.782 64.7373 248.461C65.0581 248.141 65.4932 247.96 65.9469 247.96H144.825C145.279 247.96 145.715 248.14 146.037 248.461C146.36 248.781 146.542 249.216 146.544 249.671Z" fill="#263238"/>
<path d="M110.252 251.399H64.2277C64.2277 251.399 49.6309 227.08 49.6309 186.896V172.14C49.6332 169.227 50.7921 166.434 52.8528 164.375C54.9135 162.316 57.7075 161.159 60.6206 161.159H80.1185C82.9719 161.158 85.7138 162.267 87.7635 164.252C89.8131 166.237 91.0096 168.942 91.0994 171.794C91.6577 192.533 94.7065 237.369 110.252 251.399Z" fill="#263238"/>
<path opacity="0.2" d="M100.148 251.399H66.3016C65.6616 251.402 65.0334 251.228 64.486 250.897C63.9386 250.565 63.4935 250.089 63.1996 249.52C59.8673 243.104 49.6309 220.566 49.6309 186.896V172.14C49.6309 169.228 50.7878 166.435 52.8471 164.375C54.9064 162.316 57.6994 161.159 60.6117 161.159H77.4509C80.3043 161.158 83.0462 162.267 85.0958 164.252C87.1455 166.237 88.3419 168.942 88.4317 171.794C88.9369 190.291 91.4185 228.055 103.029 245.895C103.379 246.424 103.582 247.038 103.615 247.671C103.647 248.305 103.509 248.936 103.215 249.499C102.921 250.061 102.481 250.534 101.942 250.868C101.402 251.203 100.783 251.386 100.148 251.399Z" fill="white"/>
<path opacity="0.2" d="M146.545 249.671V253.021C146.545 253.475 146.365 253.91 146.044 254.231C145.723 254.551 145.288 254.732 144.834 254.732H109.481C109.178 254.733 108.877 254.674 108.597 254.559C108.316 254.443 108.061 254.274 107.846 254.06C107.631 253.846 107.461 253.591 107.344 253.311C107.228 253.031 107.168 252.731 107.168 252.427V250.274C107.168 249.66 107.412 249.072 107.845 248.638C108.279 248.204 108.868 247.96 109.481 247.96H144.826C145.28 247.96 145.716 248.14 146.038 248.461C146.36 248.781 146.543 249.216 146.545 249.671Z" fill="black"/>
<path d="M64.209 159.857L67.1337 156.028C67.1337 156.028 79.6212 156.595 79.9225 161.159C80.2239 165.724 64.209 159.857 64.209 159.857Z" fill="#407BFF"/>
<path d="M56.0023 171.316C56.0023 171.316 56.7645 191.611 56.0023 243.99C56.0023 245.763 49.3907 245.692 48.9121 243.99C47.3257 238.025 48.9121 190.397 48.9121 190.397" fill="#407BFF"/>
<path d="M49.0625 244.256L55.7893 244.486V247.845L49.0625 247.5V244.256Z" fill="#407BFF"/>
<path opacity="0.2" d="M56.0023 171.316C56.0023 171.316 56.7645 191.611 56.0023 243.99C56.0023 245.763 49.3907 245.692 48.9121 243.99C47.3257 238.025 48.9121 190.397 48.9121 190.397" fill="white"/>
<path d="M45.7399 233.284C45.3765 223.624 44.056 179.221 49.604 164.509C49.604 164.509 54.8242 157.88 72.4875 157.88C90.1508 157.88 95.4685 170.421 95.4685 170.421C95.4685 170.421 96.2307 190.708 95.4685 243.095C95.4685 244.867 88.8569 244.805 88.3783 243.095C86.7919 237.139 88.3783 189.502 88.3783 189.502L84.8332 232.841C84.8203 232.986 84.7778 233.127 84.7085 233.256C84.6391 233.384 84.5443 233.497 84.4298 233.587C84.3153 233.678 84.1835 233.744 84.0426 233.782C83.9017 233.819 83.7545 233.828 83.6102 233.807C78.0355 232.921 53.477 229.473 46.9807 233.904C46.863 233.98 46.7276 234.024 46.5879 234.031C46.4481 234.039 46.3088 234.01 46.1836 233.947C46.0585 233.885 45.9517 233.791 45.8739 233.674C45.7961 233.558 45.7499 233.423 45.7399 233.284Z" fill="#407BFF"/>
<path d="M88.5293 243.361L95.2561 243.591V246.95L88.5293 246.604V243.361Z" fill="#407BFF"/>
<path d="M83.9734 233.851L83.4417 237.396C83.4417 237.396 56.0294 231.423 47.149 237.786L46.6172 233.86C46.6172 233.86 53.4769 227.532 83.9734 233.851Z" fill="#407BFF"/>
<path opacity="0.4" d="M45.7399 233.284C45.3765 223.624 44.056 179.221 49.604 164.509C49.604 164.509 54.8242 157.88 72.4875 157.88C90.1508 157.88 95.4685 170.421 95.4685 170.421C95.4685 170.421 96.2307 190.708 95.4685 243.095C95.4685 244.867 88.8569 244.805 88.3783 243.095C86.7919 237.139 88.3783 189.502 88.3783 189.502L84.8332 232.841C84.8203 232.986 84.7778 233.127 84.7085 233.256C84.6391 233.384 84.5443 233.497 84.4298 233.587C84.3153 233.678 84.1835 233.744 84.0426 233.782C83.9017 233.819 83.7545 233.828 83.6102 233.807C78.0355 232.921 53.477 229.473 46.9807 233.904C46.863 233.98 46.7276 234.024 46.5879 234.031C46.4481 234.039 46.3088 234.01 46.1836 233.947C46.0585 233.885 45.9517 233.791 45.8739 233.674C45.7961 233.558 45.7499 233.423 45.7399 233.284Z" fill="white"/>
<path opacity="0.2" d="M88.404 189.502C88.404 189.502 88.794 175.747 95.4941 170.421C95.4676 170.421 87.1189 174.01 88.404 189.502Z" fill="black"/>
<path opacity="0.2" d="M68.3033 159.466C68.3033 159.466 60.2383 163.898 58.9532 224.279C58.9532 224.279 55.4436 163.366 68.3033 159.466Z" fill="black"/>
</svg>
